<?xml version="1.0" standalone="no"?>
<!DOCTYPE svg PUBLIC "-//W3C//DTD SVG 1.1//EN" "http://www.w3.org/Graphics/SVG/1.1/DTD/svg11.dtd" >
<svg>
<defs>
<font id="TTNormsPro-ExtraBold" horiz-adv-x="610" >
  <font-face 
    font-family="TT Norms Pro ExtraBold"
    font-weight="800"
    font-stretch="normal"
    units-per-em="1000"
    panose-1="2 0 5 3 3 0 0 2 0 4"
    ascent="700"
    descent="-300"
    x-height="489.999"
    cap-height="700"
    bbox="-605 -259.999 1438 1010"
    underline-thickness="50"
    underline-position="-150"
    unicode-range="U+000D-U+FB06"
  />
<missing-glyph horiz-adv-x="0" 
 />
    <glyph glyph-name="f_f" unicode="ff" horiz-adv-x="735" 
d="M95 0v310h-65v160h65v35c0 59.333 15.833 105.833 47.5 139.5s74.167 50.5 127.5 50.5c22 0 45.667 -2.66699 71 -8l29 -7v-155l-14 5c-10 3.33301 -22 5 -36 5c-36.667 0 -55 -20 -55 -60v-5h165v55c0 59.333 15.833 105.833 47.5 139.5s74.167 50.5 127.5 50.5
c22 0 45.667 -2.66699 71 -8l29 -7v-155l-14 5c-10 3.33301 -22 5 -36 5c-36.667 0 -55 -20 -55 -60v-25h105v-160h-105v-310h-170v310h-165v-310h-170z" />
    <glyph glyph-name="uniFB01" unicode="fi" horiz-adv-x="665" 
d="M95 0v310h-65v160h65v55c0 59.333 15.833 105.833 47.5 139.5s74.167 50.5 127.5 50.5c22 0 45.667 -2.66699 71 -8l29 -7v-155l-14 5c-10 3.33301 -22 5 -36 5c-36.667 0 -55 -20 -55 -60v-25h335v-470h-170v310h-165v-310h-170zM420 630c0 26 8.83301 47.5 26.5 64.5
s40.5 25.5 68.5 25.5s50.833 -8.5 68.5 -25.5s26.5 -38.5 26.5 -64.5s-8.83301 -47.5 -26.5 -64.5s-40.5 -25.5 -68.5 -25.5s-50.833 8.5 -68.5 25.5s-26.5 38.5 -26.5 64.5z" />
    <glyph glyph-name="f_f_i" unicode="ffi" horiz-adv-x="1000" 
d="M95 0v310h-65v160h65v35c0 59.333 15.833 105.833 47.5 139.5s74.167 50.5 127.5 50.5c22 0 45.667 -2.66699 71 -8l29 -7v-155l-14 5c-10 3.33301 -22 5 -36 5c-36.667 0 -55 -20 -55 -60v-5h165v55c0 59.333 15.833 105.833 47.5 139.5s74.167 50.5 127.5 50.5
c22 0 45.667 -2.66699 71 -8l29 -7v-155l-14 5c-10 3.33301 -22 5 -36 5c-36.667 0 -55 -20 -55 -60v-25h335v-470h-170v310h-165v-310h-170v310h-165v-310h-170zM755 630c0 26 8.83301 47.5 26.5 64.5s40.5 25.5 68.5 25.5s50.833 -8.5 68.5 -25.5s26.5 -38.5 26.5 -64.5
s-8.83301 -47.5 -26.5 -64.5s-40.5 -25.5 -68.5 -25.5s-50.833 8.5 -68.5 25.5s-26.5 38.5 -26.5 64.5z" />
    <glyph glyph-name=".notdef" horiz-adv-x="0" 
 />
    <glyph glyph-name="NULL" horiz-adv-x="0" 
 />
    <glyph glyph-name="NULL" horiz-adv-x="0" 
 />
    <glyph glyph-name="CR" unicode="&#xd;" horiz-adv-x="0" 
 />
    <glyph glyph-name="space" unicode=" " horiz-adv-x="220" 
 />
    <glyph glyph-name="exclam" unicode="!" horiz-adv-x="350" 
d="M110 215l-35 485h200l-35 -485h-130zM80 80c0 26 8.83301 47.5 26.5 64.5s40.5 25.5 68.5 25.5s50.833 -8.5 68.5 -25.5s26.5 -38.5 26.5 -64.5s-8.83301 -47.5 -26.5 -64.5s-40.5 -25.5 -68.5 -25.5s-50.833 8.5 -68.5 25.5s-26.5 38.5 -26.5 64.5z" />
    <glyph glyph-name="quotedbl" unicode="&#x22;" horiz-adv-x="480" 
d="M60 450v250h150v-250h-150zM270 450v250h150v-250h-150z" />
    <glyph glyph-name="numbersign" unicode="#" horiz-adv-x="750" 
d="M95 0l35 170h-120l25 120h120l25 120h-115l25 120h115l35 170h150l-35 -170h115l35 170h150l-35 -170h120l-25 -120h-120l-25 -120h115l-25 -120h-115l-35 -170h-150l35 170h-115l-35 -170h-150zM305 290h115l25 120h-115z" />
    <glyph glyph-name="dollar" unicode="$" 
d="M25 100l109.999 119.999c12 -14 25.667 -26.667 41 -38c35.333 -24.667 71.666 -37 108.999 -37c28.667 0 50.834 5.83301 66.501 17.5s23.5 25.834 23.5 42.501c0 14.667 -8.16699 27.5 -24.5 38.5s-36.666 20 -60.999 27s-50.833 16.5 -79.5 28.5
s-55.167 25.5 -79.5 40.5s-44.666 36.667 -60.999 65s-24.5 61.833 -24.5 100.5c0 50 17.833 94 53.5 132s81.167 62.333 136.5 73v90h160v-90c44 -10 84.333 -28 121 -54c14.667 -10.667 27.667 -22.667 39 -36l-110 -120c-9.33301 10.667 -19.666 19.667 -30.999 27
c-24.667 18.667 -52.667 28 -84 28c-26 0 -45.833 -4.83301 -59.5 -14.5s-20.5 -21.5 -20.5 -35.5c0 -14.667 8.16699 -27.5 24.5 -38.5s36.666 -20 60.999 -27s50.833 -16.5 79.5 -28.5s55.167 -25.5 79.5 -40.5s44.666 -36.667 60.999 -65s24.5 -61.833 24.5 -100.5
c0 -50.667 -16.5 -95.5 -49.5 -134.5s-78.167 -65.833 -135.5 -80.5v-90h-160v85c-61.333 10 -114.333 32.333 -159 67c-20 14.667 -37 30.667 -51 48z" />
    <glyph glyph-name="percent" unicode="%" horiz-adv-x="860" 
d="M130 0l440 700h160l-440 -700h-160zM145 545c0 -17.333 5.66699 -31.666 17 -42.999s25.666 -17 42.999 -17s31.666 5.66699 42.999 17s17 25.666 17 42.999s-5.66699 31.666 -17 42.999s-25.666 17 -42.999 17s-31.666 -5.66699 -42.999 -17s-17 -25.666 -17 -42.999z
M25 545c0 45.333 17.667 85 53 119s77.666 51 126.999 51s91.666 -17 126.999 -51s53 -73.667 53 -119s-17.667 -85 -53 -119s-77.666 -51 -126.999 -51s-91.666 17 -126.999 51s-53 73.667 -53 119zM595 155c0 -17.333 5.66699 -31.666 17 -42.999s25.666 -17 42.999 -17
s31.666 5.66699 42.999 17s17 25.666 17 42.999s-5.66699 31.666 -17 42.999s-25.666 17 -42.999 17s-31.666 -5.66699 -42.999 -17s-17 -25.666 -17 -42.999zM475 155c0 45.333 17.667 85 53 119s77.666 51 126.999 51s91.666 -17 126.999 -51s53 -73.667 53 -119
s-17.667 -85 -53 -119s-77.666 -51 -126.999 -51s-91.666 17 -126.999 51s-53 73.667 -53 119z" />
    <glyph glyph-name="ampersand" unicode="&#x26;" horiz-adv-x="670" 
d="M370 375l85 -100.001c2.66699 4.66699 6 12.334 10 23.001c6.66699 20 10 39 10 57h160c0 -47.333 -10 -94.333 -30 -141c-8.66699 -20 -18.667 -38 -30 -54c4.66699 -6 9.33398 -10.333 14.001 -13c10 -8 22 -12 36 -12c2 0 7.66699 0.666992 17 2l8 3v-140
c-4.66699 -2.66699 -12.334 -6 -23.001 -10c-20 -6.66699 -39 -10 -57 -10c-35.333 0 -67 11.667 -95 35c-13.333 10 -25 21.667 -35 35c-14 -14 -29 -25.667 -45 -35c-38 -23.333 -83 -35 -135 -35c-68.667 0 -124.167 19 -166.5 57s-63.5 84 -63.5 138
c0 58.667 22.333 109 67 151c21.333 20 44 36.333 68 49c-16 15.333 -30.333 32.333 -43 51c-28 41.333 -42 79.333 -42 114c0 48.667 19.167 90.834 57.5 126.501s85.833 53.5 142.5 53.5s104.167 -17.833 142.5 -53.5s57.5 -77.834 57.5 -126.501
c0 -39.333 -18.333 -78.666 -55 -117.999c-18.667 -18.667 -37 -34.334 -55 -47.001zM355 154.999l-95.001 115c-9.33301 -6 -18.666 -13.667 -27.999 -23c-18 -18 -27 -37 -27 -57s7 -36.667 21 -50s32 -20 54 -20c19.333 0 37.333 5.66699 54 17
c6.66699 4.66699 13.667 10.667 21 18zM279.999 449.999c12 10.667 20.333 18.999 25 24.999c16.667 20.667 25 39 25 55c0 15.333 -4.5 27.5 -13.5 36.5s-21.167 13.5 -36.5 13.5s-27.5 -4.5 -36.5 -13.5s-13.5 -21.167 -13.5 -36.5c0 -17.333 8.33301 -35.666 25 -54.999
c4.66699 -6 13 -14.333 25 -25z" />
    <glyph glyph-name="quotesingle" unicode="'" horiz-adv-x="270" 
d="M60 450v250h150v-250h-150z" />
    <glyph glyph-name="parenleft" unicode="(" horiz-adv-x="385" 
d="M375 -160l-125 -75.001c-36.667 39.333 -68.334 84 -95.001 134c-63.333 112 -95 229 -95 351s31.667 239 95 351c26.667 50 58.334 94.667 95.001 134l125 -75c-29.333 -38 -53.666 -76.333 -72.999 -115c-48 -97.333 -72 -195.666 -72 -294.999
c0 -100.667 24 -199 72 -295c19.333 -40 43.666 -78.333 72.999 -115z" />
    <glyph glyph-name="parenright" unicode=")" horiz-adv-x="385" 
d="M135 -235l-125 75.002c27.333 34.667 51.333 73 72 115c48.667 97.333 73 195.666 73 294.999c0 98 -24.333 196.333 -73 295c-20.667 41.333 -44.667 79.666 -72 114.999l125 75c35.333 -39.333 67 -84 95 -134c63.333 -112 95 -229 95 -351s-31.667 -239 -95 -351
c-28 -50 -59.667 -94.667 -95 -134z" />
    <glyph glyph-name="asterisk" unicode="*" horiz-adv-x="420" 
d="M60 420l65 75l-95 20l35 115l95 -40l-15 110h130l-15 -110l95 40l35 -115l-95 -20l65 -75l-90 -70l-60 95l-60 -95z" />
    <glyph glyph-name="plus" unicode="+" horiz-adv-x="530" 
d="M35 215v155h155v155h150v-155h155v-155h-155v-155h-150v155h-155z" />
    <glyph glyph-name="comma" unicode="," horiz-adv-x="270" 
d="M-10 -70l110 235l135 -75l-140 -215z" />
    <glyph glyph-name="hyphen" unicode="-" horiz-adv-x="425" 
d="M50 225v145h325v-145h-325z" />
    <glyph glyph-name="period" unicode="." horiz-adv-x="270" 
d="M40 80c0 26 8.83301 47.5 26.5 64.5s40.5 25.5 68.5 25.5s50.833 -8.5 68.5 -25.5s26.5 -38.5 26.5 -64.5s-8.83301 -47.5 -26.5 -64.5s-40.5 -25.5 -68.5 -25.5s-50.833 8.5 -68.5 25.5s-26.5 38.5 -26.5 64.5z" />
    <glyph glyph-name="slash" unicode="/" horiz-adv-x="465" 
d="M0 -210l300 920h165l-300 -920h-165z" />
    <glyph glyph-name="zero" unicode="0" horiz-adv-x="710" 
d="M355 155c32.667 0 60.834 16.667 84.501 50s35.5 81.666 35.5 144.999s-11.833 111.666 -35.5 144.999s-51.834 50 -84.501 50s-60.834 -16.667 -84.501 -50s-35.5 -81.666 -35.5 -144.999s11.833 -111.666 35.5 -144.999s51.834 -50 84.501 -50zM355 -20
c-85.333 0 -158.333 34.333 -219 103s-91 157.667 -91 267s30.333 198.333 91 267s133.667 103 219 103s158.333 -34.333 219 -103s91 -157.667 91 -267s-30.333 -198.333 -91 -267s-133.667 -103 -219 -103z" />
    <glyph glyph-name="one" unicode="1" horiz-adv-x="415" 
d="M145 0v490h-115v115c42 6 77.667 23.667 107 53c12.667 13.333 23.667 27.333 33 42h165v-700h-190z" />
    <glyph glyph-name="two" unicode="2" horiz-adv-x="595" 
d="M290 180l259.999 -0.000976562v-180h-520c0 46 5.83301 88.167 17.5 126.5s27 70 46 95s39.833 47.833 62.5 68.5s45.334 38.334 68.001 53.001l62.5 42c19 13.333 34.333 27.5 46 42.5s17.5 30.833 17.5 47.5c0 18 -6.66699 33.333 -20 46s-30 19 -50 19
c-28.667 0 -53.334 -11 -74.001 -33c-8.66699 -8.66699 -15.667 -19.334 -21 -32.001l-160 75c14.667 32.667 34 61 58 85c56.667 56.667 127.334 85 212.001 85c73.333 0 134.166 -22.5 182.499 -67.5s72.5 -99.167 72.5 -162.5c0 -34 -6.66699 -64.667 -20 -92
s-30.666 -50.166 -51.999 -68.499s-43.333 -35 -66 -50s-45.667 -31.167 -69 -48.5s-41 -34.333 -53 -51z" />
    <glyph glyph-name="three" unicode="3" horiz-adv-x="590" 
d="M10 95l109.997 114.999c10.667 -10.667 23.334 -20.667 38.001 -30c32 -20 66 -30 102 -30c28.667 0 50.834 6.16699 66.501 18.5s23.5 27.833 23.5 46.5s-7.83301 34.167 -23.5 46.5s-37.834 18.5 -66.501 18.5h-70v155h70c24.667 0 43.334 5.5 56.001 16.5
s19 25.5 19 43.5s-6.33301 32.5 -19 43.5s-31.334 16.5 -56.001 16.5c-31.333 0 -59.333 -9.33301 -84 -28c-11.333 -7.33301 -21.666 -16.333 -30.999 -27l-110 115c19.333 20 41 37.333 65 52c56 35.333 117.667 53 185 53c74.667 0 135 -19.667 181 -59
s69 -86.333 69 -141c0 -48.667 -20 -88 -60 -118c-18 -13.333 -38 -24 -60 -32c26 -9.33301 49.333 -21.666 70 -36.999c46.667 -36 70 -82 70 -138c0 -60 -24.833 -110.833 -74.5 -152.5s-116.5 -62.5 -200.5 -62.5c-71.333 0 -137.666 19 -198.999 57
c-23.333 14.667 -47 34 -71 58z" />
    <glyph glyph-name="four" unicode="4" horiz-adv-x="625" 
d="M25 110v195l295 395h210v-420h75v-170h-75v-110h-190v110h-315zM195 280h145v195z" />
    <glyph glyph-name="five" unicode="5" horiz-adv-x="620" 
d="M35 95l110 115c11.333 -11.333 23.666 -21.333 36.999 -30c32 -20 64.667 -30 98 -30c31.333 0 55.833 7.5 73.5 22.5s26.5 34.167 26.5 57.5s-8.83301 42.5 -26.5 57.5s-42.167 22.5 -73.5 22.5c-20.667 0 -41.667 -5 -63 -15l-22 -15l-135 20l30 400h450v-170h-275
l-10 -95c6.66699 4.66699 15.334 8.66699 26.001 12c21.333 8.66699 46 13 74 13c65.333 0 119.166 -21.5 161.499 -64.5s63.5 -98.167 63.5 -165.5c0 -71.333 -25.667 -130.833 -77 -178.5s-117.333 -71.5 -198 -71.5c-71.333 0 -137.666 19 -198.999 57
c-23.333 14.667 -47 34 -71 58z" />
    <glyph glyph-name="six" unicode="6" horiz-adv-x="630" 
d="M100 410l190 290h200l-145 -220c72.667 -5.33301 132.5 -31.333 179.5 -78s70.5 -104 70.5 -172c0 -68.667 -26.5 -127.5 -79.5 -176.5s-119.833 -73.5 -200.5 -73.5s-147.5 24.5 -200.5 73.5s-79.5 107.833 -79.5 176.5c0 40.667 10.667 83 32 127c8 17.333 19 35 33 53
zM315 140c25.333 0 46.666 8.66699 63.999 26s26 38.666 26 63.999s-8.66699 46.666 -26 63.999s-38.666 26 -63.999 26s-46.666 -8.66699 -63.999 -26s-26 -38.666 -26 -63.999s8.66699 -46.666 26 -63.999s38.666 -26 63.999 -26z" />
    <glyph glyph-name="seven" unicode="7" horiz-adv-x="560" 
d="M65 0l250 530h-285v170h495v-150l-260 -550h-200z" />
    <glyph glyph-name="eight" unicode="8" horiz-adv-x="630" 
d="M235 215c0 -22 7.66699 -40 23 -54s34.333 -21 57 -21s41.667 7 57 21s23 32 23 54s-7.66699 40 -23 54s-34.333 21 -57 21s-41.667 -7 -57 -21s-23 -32 -23 -54zM250 500c0 -17.333 6.33301 -31.666 19 -42.999s28 -17 46 -17s33.333 5.66699 46 17s19 25.666 19 42.999
s-6.33301 31.666 -19 42.999s-28 17 -46 17s-33.333 -5.66699 -46 -17s-19 -25.666 -19 -42.999zM35 200c0 52.667 21.6641 97.333 64.9971 134c18 16 39.667 29.667 65 41c-21.333 9.33301 -39 20.666 -53 33.999c-34.667 30.667 -52 69.334 -52 116.001
c0 52.667 23.333 98.334 70 137.001s108.334 58 185.001 58s138.334 -19.333 185.001 -58s70 -84.334 70 -137.001c0 -46 -17.667 -84.667 -53 -116c-13.333 -12.667 -30.666 -24 -51.999 -34c26 -12 47.667 -25.667 65 -41c43.333 -38 65 -82.667 65 -134
c0 -62.667 -25 -115 -75 -157s-118.333 -63 -205 -63s-155 21 -205 63s-75 94.333 -75 157z" />
    <glyph glyph-name="nine" unicode="9" horiz-adv-x="630" 
d="M140 0l145 219.999c-72.667 5.33301 -132.5 31.333 -179.5 78s-70.5 104 -70.5 172c0 68.667 26.5 127.5 79.5 176.5s119.833 73.5 200.5 73.5s147.5 -24.5 200.5 -73.5s79.5 -107.833 79.5 -176.5c0 -41.333 -11 -84 -33 -128c-9.33301 -19.333 -20 -36.666 -32 -51.999
l-190 -290h-200zM225 469.999c0 -25.333 8.66699 -46.666 26 -63.999s38.666 -26 63.999 -26s46.666 8.66699 63.999 26s26 38.666 26 63.999s-8.66699 46.666 -26 63.999s-38.666 26 -63.999 26s-46.666 -8.66699 -63.999 -26s-26 -38.666 -26 -63.999z" />
    <glyph glyph-name="colon" unicode=":" horiz-adv-x="270" 
d="M40 80c0 26 8.83301 47.5 26.5 64.5s40.5 25.5 68.5 25.5s50.833 -8.5 68.5 -25.5s26.5 -38.5 26.5 -64.5s-8.83301 -47.5 -26.5 -64.5s-40.5 -25.5 -68.5 -25.5s-50.833 8.5 -68.5 25.5s-26.5 38.5 -26.5 64.5zM40 410c0 26 8.83301 47.5 26.5 64.5s40.5 25.5 68.5 25.5
s50.833 -8.5 68.5 -25.5s26.5 -38.5 26.5 -64.5s-8.83301 -47.5 -26.5 -64.5s-40.5 -25.5 -68.5 -25.5s-50.833 8.5 -68.5 25.5s-26.5 38.5 -26.5 64.5z" />
    <glyph glyph-name="semicolon" unicode=";" horiz-adv-x="285" 
d="M-10 -70l110 235l135 -75l-140 -215zM60 410c0 26 8.83301 47.5 26.5 64.5s40.5 25.5 68.5 25.5s50.833 -8.5 68.5 -25.5s26.5 -38.5 26.5 -64.5s-8.83301 -47.5 -26.5 -64.5s-40.5 -25.5 -68.5 -25.5s-50.833 8.5 -68.5 25.5s-26.5 38.5 -26.5 64.5z" />
    <glyph glyph-name="less" unicode="&#x3c;" horiz-adv-x="525" 
d="M40 185v120l445 185v-150l-250 -95l250 -95v-150z" />
    <glyph glyph-name="equal" unicode="=" horiz-adv-x="510" 
d="M40 120v140h430v-140h-430zM40 330v140h430v-140h-430z" />
    <glyph glyph-name="greater" unicode="&#x3e;" horiz-adv-x="525" 
d="M40 0v150l250 95l-250 95v150l445 -185v-120z" />
    <glyph glyph-name="question" unicode="?" horiz-adv-x="570" 
d="M350 215l-159.997 0.00488281c-2.66699 5.33301 -4.33398 9.66602 -5.00098 12.999c-3.33301 10 -5 20.667 -5 32c0 24 5.33301 45.833 16 65.5s23.667 35.834 39 48.501l45.5 36c15 11.333 27.833 23.166 38.5 35.499s16 25.5 16 39.5c0 16 -6 29.167 -18 39.5
s-27.667 15.5 -47 15.5c-28.667 0 -53.334 -11 -74.001 -33c-8.66699 -8.66699 -15.667 -19.334 -21 -32.001l-160 75c13.333 31.333 32 59.666 56 84.999c54 56.667 123.667 85 209 85c74.667 0 136.667 -21.333 186 -64s74 -91.334 74 -146.001
c0 -29.333 -6.5 -56.333 -19.5 -81s-28.833 -45.5 -47.5 -62.5s-37.334 -33 -56.001 -48s-34.5 -31.333 -47.5 -49s-19.5 -35.834 -19.5 -54.501zM170.003 80.0049c0 26 8.83301 47.5 26.5 64.5s40.5 25.5 68.5 25.5s50.833 -8.5 68.5 -25.5s26.5 -38.5 26.5 -64.5
s-8.83301 -47.5 -26.5 -64.5s-40.5 -25.5 -68.5 -25.5s-50.833 8.5 -68.5 25.5s-26.5 38.5 -26.5 64.5z" />
    <glyph glyph-name="at" unicode="@" horiz-adv-x="885" 
d="M435 175c18 0 33.333 6.66699 46 20s19 30 19 50s-6.33301 36.667 -19 50s-28 20 -46 20s-33.333 -6.66699 -46 -20s-19 -30 -19 -50s6.33301 -36.667 19 -50s28 -20 46 -20zM625 25l70 -89.9971c-18.667 -14.667 -40.334 -28 -65.001 -40
c-57.333 -26.667 -119 -40 -185 -40c-110 0 -204.167 38.833 -282.5 116.5s-117.5 170.5 -117.5 278.5s39.167 200.833 117.5 278.5s172.5 116.5 282.5 116.5c113.333 0 208.333 -36.833 285 -110.5s115 -161.834 115 -264.501c0 -66.667 -16.667 -118.334 -50 -155.001
s-78.333 -55 -135 -55c-39.333 0 -71.333 11.667 -96 35c-12 10 -21.667 21.667 -29 35h-5c-8 -14.667 -16.667 -26.334 -26 -35.001c-23.333 -23.333 -53 -35 -89 -35c-43.333 0 -80.833 17.5 -112.5 52.5s-47.5 79.167 -47.5 132.5c0 52.667 15.5 96.667 46.5 132
s67.167 53 108.5 53c25.333 0 47 -6.66699 65 -20c8 -6 14.667 -12.667 20 -20h5v35h115v-210c0 -15.333 5.16699 -28.333 15.5 -39s21.833 -16 34.5 -16c19.333 0 35 9 47 27s18 45.667 18 83c0 73.333 -27.167 135.833 -81.5 187.5s-122.166 77.5 -203.499 77.5
c-78 0 -145 -28 -201 -84s-84 -123 -84 -201s28 -145 84 -201s123 -84 201 -84c46 0 89.667 10 131 30c16.667 8.66699 33 18.667 49 30z" />
    <glyph glyph-name="A" unicode="A" horiz-adv-x="730" 
d="M300 305h130l-63 200h-4zM-5 0l265 700h210l265 -700h-205l-50 150h-230l-50 -150h-205z" />
    <glyph glyph-name="B" unicode="B" horiz-adv-x="705" 
d="M80 0l-0.00195312 699.998h310c76.667 0 136.667 -17.667 180 -53s65 -79.333 65 -132c0 -47.333 -17.667 -86 -53 -116c-13.333 -11.333 -30.666 -21 -51.999 -29c26 -9.33301 49.333 -21.666 70 -36.999c46.667 -36 70 -82 70 -138
c0 -55.333 -22.667 -101.666 -68 -138.999s-107.666 -56 -186.999 -56h-335zM269.998 149.998h130c22 0 40 6.66699 54 20s21 30 21 50s-7 36.667 -21 50s-32 20 -54 20h-130v-140zM269.998 429.998h105c20 0 35.833 5.5 47.5 16.5s17.5 25.5 17.5 43.5
s-5.83301 32.5 -17.5 43.5s-27.5 16.5 -47.5 16.5h-105v-120z" />
    <glyph glyph-name="C" unicode="C" horiz-adv-x="755" 
d="M620 245l115.001 -129.998c-22.667 -26 -48.667 -48.667 -78 -68c-65.333 -44.667 -141 -67 -227 -67c-111.333 0 -204.166 35.833 -278.499 107.5s-111.5 159.167 -111.5 262.5s37.167 190.833 111.5 262.5s167.166 107.5 278.499 107.5c84 0 159 -22.667 225 -68
c29.333 -20.667 54.333 -43 75 -67l-115 -130c-15.333 16.667 -32.333 31.667 -51 45c-43.333 30 -88 45 -134 45c-54.667 0 -100.834 -18.833 -138.501 -56.5s-56.5 -83.834 -56.5 -138.501s18.833 -100.834 56.5 -138.501s83.834 -56.5 138.501 -56.5
c45.333 0 90.666 15 135.999 45c20 13.333 38 28.333 54 45z" />
    <glyph glyph-name="D" unicode="D" horiz-adv-x="760" 
d="M80 0v700h260c110.667 0 201.667 -33.667 273 -101s107 -150.333 107 -249s-35.667 -181.667 -107 -249s-162.333 -101 -273 -101h-260zM270 170h70c54 0 98.333 17 133 51s52 77 52 129s-17.333 95 -52 129s-79 51 -133 51h-70v-360z" />
    <glyph glyph-name="E" unicode="E" horiz-adv-x="665" 
d="M80 0v700h535v-170h-345v-100h265v-160h-265v-100h355v-170h-545z" />
    <glyph glyph-name="F" unicode="F" horiz-adv-x="640" 
d="M80 0v700h530v-180h-340v-120h260v-170h-260v-230h-190z" />
    <glyph glyph-name="G" unicode="G" horiz-adv-x="795" 
d="M440 250l-0.000976562 140.001h300v-270c-20.667 -25.333 -46.667 -48.666 -78 -69.999c-69.333 -46.667 -146.666 -70 -231.999 -70c-111.333 0 -204.166 35.833 -278.499 107.5s-111.5 159.167 -111.5 262.5s37.167 190.833 111.5 262.5s167.166 107.5 278.499 107.5
c84 0 159 -22.667 225 -68c29.333 -20.667 54.333 -43 75 -67l-115 -130c-15.333 16.667 -32.333 31.667 -51 45c-43.333 30 -88 45 -134 45c-54.667 0 -100.834 -18.833 -138.501 -56.5s-56.5 -83.834 -56.5 -138.501s18.833 -100.834 56.5 -138.501
s83.834 -56.5 138.501 -56.5c36 0 66.667 6.66699 92 20c10.667 5.33301 21.667 12 33 20v55h-115z" />
    <glyph glyph-name="H" unicode="H" horiz-adv-x="795" 
d="M80 0v700h190v-255h255v255h190v-700h-190v265h-255v-265h-190z" />
    <glyph glyph-name="I" unicode="I" horiz-adv-x="350" 
d="M80 0v700h190v-700h-190z" />
    <glyph glyph-name="J" unicode="J" horiz-adv-x="535" 
d="M-10 70l119.999 125.001c4.66699 -6.66699 11 -13.334 19 -20.001c14.667 -13.333 33.334 -20 56.001 -20c25.333 0 45.833 7.83301 61.5 23.5s23.5 36.167 23.5 61.5v460h190v-460c0 -77.333 -24 -140 -72 -188s-110.667 -72 -188 -72c-60.667 0 -113.667 15 -159 45
c-20 12.667 -37 27.667 -51 45z" />
    <glyph glyph-name="K" unicode="K" horiz-adv-x="720" 
d="M80 0v700h190v-270l230 270h220l-250 -290l270 -410h-220l-175 265l-75 -85v-180h-190z" />
    <glyph glyph-name="L" unicode="L" horiz-adv-x="595" 
d="M80 0v700h190v-520h305v-180h-495z" />
    <glyph glyph-name="M" unicode="M" horiz-adv-x="930" 
d="M80 0v700h170l215 -270l215 270h170v-700h-190v415l-195 -245l-195 245v-415h-190z" />
    <glyph glyph-name="N" unicode="N" horiz-adv-x="815" 
d="M80 0v700h165l300 -385v385h190v-700h-165l-300 385v-385h-190z" />
    <glyph glyph-name="O" unicode="O" horiz-adv-x="860" 
d="M235 350c0 -54.667 18.833 -100.834 56.5 -138.501s83.834 -56.5 138.501 -56.5s100.834 18.833 138.501 56.5s56.5 83.834 56.5 138.501s-18.833 100.834 -56.5 138.501s-83.834 56.5 -138.501 56.5s-100.834 -18.833 -138.501 -56.5s-56.5 -83.834 -56.5 -138.501z
M40 350c0 103.333 37.167 190.833 111.5 262.5s167.166 107.5 278.499 107.5s204.166 -35.833 278.499 -107.5s111.5 -159.167 111.5 -262.5s-37.167 -190.833 -111.5 -262.5s-167.166 -107.5 -278.499 -107.5s-204.166 35.833 -278.499 107.5s-111.5 159.167 -111.5 262.5z
" />
    <glyph glyph-name="P" unicode="P" horiz-adv-x="695" 
d="M80 0v700h315c76.667 0 139.167 -23.167 187.5 -69.5s72.5 -104.833 72.5 -175.5s-24.167 -129.167 -72.5 -175.5s-110.833 -69.5 -187.5 -69.5h-125v-210h-190zM270 380h115c22 0 40.833 7.5 56.5 22.5s23.5 32.5 23.5 52.5s-7.83301 37.5 -23.5 52.5
s-34.5 22.5 -56.5 22.5h-115v-150z" />
    <glyph glyph-name="Q" unicode="Q" horiz-adv-x="860" 
d="M235 350c0 -54.667 18.833 -100.834 56.5 -138.501s83.834 -56.5 138.501 -56.5s100.834 18.833 138.501 56.5s56.5 83.834 56.5 138.501s-18.833 100.834 -56.5 138.501s-83.834 56.5 -138.501 56.5s-100.834 -18.833 -138.501 -56.5s-56.5 -83.834 -56.5 -138.501z
M470 -20l-39.9971 -0.000976562c-111.333 0 -204.166 35.833 -278.499 107.5s-111.5 159.167 -111.5 262.5s37.167 190.833 111.5 262.5s167.166 107.5 278.499 107.5s204.166 -35.833 278.499 -107.5s111.5 -159.167 111.5 -262.5c0 -92 -30 -172 -90 -240
c-26.667 -30 -56.667 -55 -90 -75c9.33301 -11.333 20 -20.666 32 -27.999c27.333 -18 61.666 -27 102.999 -27c11.333 0 21.666 0.666992 30.999 2l9 3v-160l-11 -3c-9.33301 -1.33301 -19 -2 -29 -2c-94 0 -173 26.667 -237 80c-28 23.333 -50.667 50 -68 80z" />
    <glyph glyph-name="R" unicode="R" horiz-adv-x="715" 
d="M80 0v700.001h330c74 0 135 -23 183 -69s72 -103 72 -171c0 -64 -20 -116 -60 -156c-17.333 -18.667 -37.333 -33.334 -60 -44.001l145 -260h-200l-115 220h-105v-220h-190zM270 390.001h130c22 0 40 6.66699 54 20s21 30 21 50s-7 36.667 -21 50s-32 20 -54 20h-130
v-140z" />
    <glyph glyph-name="S" unicode="S" 
d="M25 100l109.998 120c12 -14 25.667 -26.667 41 -38c35.333 -24.667 71.666 -37 108.999 -37c28.667 0 50.834 5.83301 66.501 17.5s23.5 25.834 23.5 42.501c0 14.667 -8.16699 27.5 -24.5 38.5s-36.666 20 -60.999 27s-50.833 16.5 -79.5 28.5s-55.167 25.5 -79.5 40.5
s-44.666 36.667 -60.999 65s-24.5 61.833 -24.5 100.5c0 58 24.333 108.333 73 151s112.667 64 192 64c70.667 0 132.667 -16.667 186 -50c24.667 -16 44.334 -32.667 59.001 -50l-110 -120c-9.33301 10.667 -19.666 19.667 -30.999 27c-24.667 18.667 -52.667 28 -84 28
c-26 0 -45.833 -4.83301 -59.5 -14.5s-20.5 -21.5 -20.5 -35.5c0 -14.667 8.16699 -27.5 24.5 -38.5s36.666 -20 60.999 -27s50.833 -16.5 79.5 -28.5s55.167 -25.5 79.5 -40.5s44.666 -36.667 60.999 -65s24.5 -61.833 24.5 -100.5
c0 -62.667 -25.167 -115.834 -75.5 -159.501s-116.833 -65.5 -199.5 -65.5c-80 0 -150.333 20 -211 60c-26.667 17.333 -49.667 37.333 -69 60z" />
    <glyph glyph-name="T" unicode="T" horiz-adv-x="620" 
d="M215 0v530h-195v170h580v-170h-195v-530h-190z" />
    <glyph glyph-name="U" unicode="U" horiz-adv-x="790" 
d="M75 290v410h190v-410c0 -40 12.167 -72.5 36.5 -97.5s55.5 -37.5 93.5 -37.5s69.167 12.5 93.5 37.5s36.5 57.5 36.5 97.5v410h190v-410c0 -90.667 -29.833 -165 -89.5 -223s-136.5 -87 -230.5 -87s-170.833 29 -230.5 87s-89.5 132.333 -89.5 223z" />
    <glyph glyph-name="V" unicode="V" horiz-adv-x="710" 
d="M250 0l-250 700h205l148 -490h4l148 490h205l-250 -700h-210z" />
    <glyph glyph-name="W" unicode="W" horiz-adv-x="1060" 
d="M230 0l-230 700h205l110 -410h5l125 410h170l125 -410h5l110 410h205l-230 -700h-170l-128 420h-4l-128 -420h-170z" />
    <glyph glyph-name="X" unicode="X" horiz-adv-x="680" 
d="M-10 0l225 365l-205 335h210l118 -210h4l118 210h210l-205 -335l225 -365h-210l-138 240h-4l-138 -240h-210z" />
    <glyph glyph-name="Y" unicode="Y" horiz-adv-x="670" 
d="M240 0v250l-250 450h210l133 -275h4l133 275h210l-250 -450v-250h-190z" />
    <glyph glyph-name="Z" unicode="Z" horiz-adv-x="660" 
d="M45 0v180l305 340h-290v180h545v-180l-305 -340h315v-180h-570z" />
    <glyph glyph-name="bracketleft" unicode="[" horiz-adv-x="395" 
d="M80 -210v920h275v-150h-105v-620h105v-150h-275z" />
    <glyph glyph-name="backslash" unicode="\" horiz-adv-x="465" 
d="M300 -210l-300 920h165l300 -920h-165z" />
    <glyph glyph-name="bracketright" unicode="]" horiz-adv-x="395" 
d="M40 -210v150h105v620h-105v150h275v-920h-275z" />
    <glyph glyph-name="asciicircum" unicode="^" horiz-adv-x="450" 
d="M25 395l135 305h130l135 -305h-140l-60 145l-60 -145h-140z" />
    <glyph glyph-name="underscore" unicode="_" horiz-adv-x="350" 
d="M-10 -240v155h370v-155h-370z" />
    <glyph glyph-name="grave" unicode="`" horiz-adv-x="325" 
d="M150 550l-120 160h180l85 -160h-145z" />
    <glyph glyph-name="a" unicode="a" horiz-adv-x="540" 
d="M315 0v65h-5c-10 -15.333 -20.333 -28 -31 -38c-27.333 -24.667 -60.333 -37 -99 -37c-44.667 0 -81.667 13.667 -111 41s-44 60.333 -44 99c0 42 12.833 76.667 38.5 104s62.834 46 111.501 56l140 30c-2.66699 13.333 -10.334 25 -23.001 35s-28.334 15 -47.001 15
c-26 0 -50.667 -8.33301 -74 -25c-9.33301 -6.66699 -18 -15 -26 -25l-90 85c16 18 34 33.667 54 47c46.667 32 97 48 151 48c66.667 0 120.834 -19 162.501 -57s62.5 -84.333 62.5 -139v-304h-170zM315 205l0.000976562 15.001l-70 -15
c-12.667 -2.66699 -23.334 -8.33398 -32.001 -17.001s-13 -18 -13 -28c0 -26.667 15 -40 45 -40c20.667 0 37.5 7.33301 50.5 22s19.5 35.667 19.5 63z" />
    <glyph glyph-name="b" unicode="b" horiz-adv-x="635" 
d="M65 0v699.998h170v-280h5c8.66699 14 19.667 27.333 33 40c30.667 26.667 68 40 112 40c59.333 0 110 -23.667 152 -71s63 -108.666 63 -183.999s-21 -136.666 -63 -183.999s-92.667 -71 -152 -71c-44 0 -81.333 13.333 -112 40c-13.333 12.667 -24.333 26 -33 40h-5v-70
h-170zM330 144.998c25.333 0 47.5 9.83301 66.5 29.5s28.5 43.167 28.5 70.5s-9.5 50.833 -28.5 70.5s-41.167 29.5 -66.5 29.5s-47.5 -9.83301 -66.5 -29.5s-28.5 -43.167 -28.5 -70.5s9.5 -50.833 28.5 -70.5s41.167 -29.5 66.5 -29.5z" />
    <glyph glyph-name="c" unicode="c" horiz-adv-x="535" 
d="M415 195l100 -105.002c-12.667 -17.333 -29.667 -34 -51 -50c-46.667 -33.333 -99.667 -50 -159 -50c-76.667 0 -140.834 24.833 -192.501 74.5s-77.5 109.834 -77.5 180.501s25.833 130.834 77.5 180.501s115.834 74.5 192.501 74.5c59.333 0 112.333 -16.667 159 -50
c21.333 -16 38.333 -32.667 51 -50l-100 -105c-8 10 -16.667 18.333 -26 25c-23.333 16.667 -48 25 -74 25c-30 0 -55 -9.66699 -75 -29s-30 -43 -30 -71s10 -51.667 30 -71s45 -29 75 -29c27.333 0 52 8.33301 74 25c9.33301 6.66699 18 15 26 25z" />
    <glyph glyph-name="d" unicode="d" horiz-adv-x="635" 
d="M305 145c25.333 0 47.5 9.83301 66.5 29.5s28.5 43.167 28.5 70.5s-9.5 50.833 -28.5 70.5s-41.167 29.5 -66.5 29.5s-47.5 -9.83301 -66.5 -29.5s-28.5 -43.167 -28.5 -70.5s9.5 -50.833 28.5 -70.5s41.167 -29.5 66.5 -29.5zM400 0v70.002h-5
c-8.66699 -14 -19.667 -27.333 -33 -40c-30.667 -26.667 -68 -40 -112 -40c-59.333 0 -110 23.667 -152 71s-63 108.666 -63 183.999s21 136.666 63 183.999s92.667 71 152 71c44 0 81.333 -13.333 112 -40c13.333 -12.667 24.333 -26 33 -40h5v280h170v-700h-170z" />
    <glyph glyph-name="e" unicode="e" horiz-adv-x="580" 
d="M440 170l65 -110.002c-15.333 -13.333 -33 -25 -53 -35c-42.667 -23.333 -91.667 -35 -147 -35c-76.667 0 -140.834 24.833 -192.501 74.5s-77.5 109.834 -77.5 180.501c0 70 25.333 130 76 180s112 75 184 75s132.5 -24.167 181.5 -72.5s73.5 -107.5 73.5 -177.5
c0 -4 -1 -17 -3 -39l-2 -16h-335c2.66699 -17.333 14.167 -33.333 34.5 -48s45.5 -22 75.5 -22c30.667 0 60 7.33301 88 22c14.667 8.66699 25.334 16.334 32.001 23.001zM210 299.998h170c-6 18.667 -16.333 34.167 -31 46.5s-32.667 18.5 -54 18.5
s-39.333 -6.16699 -54 -18.5s-25 -27.833 -31 -46.5z" />
    <glyph glyph-name="f" unicode="f" horiz-adv-x="400" 
d="M95 0v310h-65v160h65v50c0 60 15.833 106.667 47.5 140s74.167 50 127.5 50c22 0 45.667 -2.66699 71 -8l29 -7v-155l-14 5c-10 3.33301 -22 5 -36 5c-36.667 0 -55 -20 -55 -60v-20h105v-160h-105v-310h-170z" />
    <glyph glyph-name="g" unicode="g" horiz-adv-x="620" 
d="M210 260c0 -25.333 8.66699 -46.666 26 -63.999s38.666 -26 63.999 -26s46.666 8.66699 63.999 26s26 38.666 26 63.999s-8.66699 46.666 -26 63.999s-38.666 26 -63.999 26s-46.666 -8.66699 -63.999 -26s-26 -38.666 -26 -63.999zM50 -110l100 104.998
c7.33301 -10.667 17.333 -20 30 -28c24 -18 54 -27 90 -27c35.333 0 64.166 11 86.499 33s33.5 49.333 33.5 82v45h-5c-8.66699 -14 -19.667 -27.333 -33 -40c-30.667 -26.667 -68 -40 -112 -40c-56.667 0 -105 22.333 -145 67s-60 102.334 -60 173.001
s20 128.334 60 173.001s88.333 67 145 67c44 0 81.333 -13.333 112 -40c13.333 -12.667 24.333 -26 33 -40h5v70h170v-435c0 -73.333 -27 -135.833 -81 -187.5s-120.333 -77.5 -199 -77.5c-67.333 0 -125.666 16.667 -174.999 50c-22.667 15.333 -41 32 -55 50z" />
    <glyph glyph-name="h" unicode="h" 
d="M65 0v699.999h170v-280h5c7.33301 14 18 27.333 32 40c30.667 26.667 66.667 40 108 40c51.333 0 93.333 -18.333 126 -55s49 -86.667 49 -150v-295h-170v260c0 24.667 -6.5 44.167 -19.5 58.5s-29.833 21.5 -50.5 21.5c-23.333 0 -42.5 -8.16699 -57.5 -24.5
s-22.5 -38.166 -22.5 -65.499v-250h-170z" />
    <glyph glyph-name="i" unicode="i" horiz-adv-x="300" 
d="M65 0v490h170v-490h-170zM55 630c0 26 8.83301 47.5 26.5 64.5s40.5 25.5 68.5 25.5s50.833 -8.5 68.5 -25.5s26.5 -38.5 26.5 -64.5s-8.83301 -47.5 -26.5 -64.5s-40.5 -25.5 -68.5 -25.5s-50.833 8.5 -68.5 25.5s-26.5 38.5 -26.5 64.5z" />
    <glyph glyph-name="j" unicode="j" horiz-adv-x="300" 
d="M-40 -195l0.000976562 155.001c6 -2.66699 11.333 -4.33398 16 -5.00098c11.333 -3.33301 22.666 -5 33.999 -5c36.667 0 55 20 55 60v480h170v-510c0 -59.333 -15.833 -105.833 -47.5 -139.5s-74.167 -50.5 -127.5 -50.5c-25.333 0 -49 2.33301 -71 7zM55.001 630.001
c0 26 8.83301 47.5 26.5 64.5s40.5 25.5 68.5 25.5s50.833 -8.5 68.5 -25.5s26.5 -38.5 26.5 -64.5s-8.83301 -47.5 -26.5 -64.5s-40.5 -25.5 -68.5 -25.5s-50.833 8.5 -68.5 25.5s-26.5 38.5 -26.5 64.5z" />
    <glyph glyph-name="k" unicode="k" horiz-adv-x="575" 
d="M65 0v700h170v-375l145 165h200l-185 -205l190 -285h-190l-115 180l-45 -55v-125h-170z" />
    <glyph glyph-name="l" unicode="l" horiz-adv-x="300" 
d="M65 0v700h170v-700h-170z" />
    <glyph glyph-name="m" unicode="m" horiz-adv-x="885" 
d="M60 0l-0.00195312 489.999h170v-70h5c6.66699 14 16.334 27.333 29.001 40c28 26.667 61.667 40 101 40c38.667 0 72.334 -14.333 101.001 -43c12.667 -12.667 22.334 -26.667 29.001 -42h5c10 16 23 30 39 42c36.667 28.667 78.667 43 126 43
s86.666 -18.833 117.999 -56.5s47 -88.834 47 -153.501v-290h-170v265c0 24.667 -5.5 43.334 -16.5 56.001s-25.5 19 -43.5 19c-20.667 0 -37.5 -7.33301 -50.5 -22s-19.5 -35.667 -19.5 -63v-255h-170v265c0 24.667 -5.5 43.334 -16.5 56.001s-25.5 19 -43.5 19
c-20.667 0 -37.5 -7.33301 -50.5 -22s-19.5 -35.667 -19.5 -63v-255h-170z" />
    <glyph glyph-name="n" unicode="n" horiz-adv-x="605" 
d="M60 0v489.999h170v-70h5c7.33301 14 18 27.333 32 40c30.667 26.667 66.667 40 108 40c51.333 0 93.333 -18.333 126 -55s49 -86.667 49 -150v-295h-170v260c0 24.667 -6.5 44.167 -19.5 58.5s-29.833 21.5 -50.5 21.5c-23.333 0 -42.5 -8.16699 -57.5 -24.5
s-22.5 -38.166 -22.5 -65.499v-250h-170z" />
    <glyph glyph-name="o" unicode="o" 
d="M305 145c25.333 0 47.5 9.83301 66.5 29.5s28.5 43.167 28.5 70.5s-9.5 50.833 -28.5 70.5s-41.167 29.5 -66.5 29.5s-47.5 -9.83301 -66.5 -29.5s-28.5 -43.167 -28.5 -70.5s9.5 -50.833 28.5 -70.5s41.167 -29.5 66.5 -29.5zM35 245
c0 70.667 25.833 130.834 77.5 180.501s115.834 74.5 192.501 74.5s140.834 -24.833 192.501 -74.5s77.5 -109.834 77.5 -180.501s-25.833 -130.834 -77.5 -180.501s-115.834 -74.5 -192.501 -74.5s-140.834 24.833 -192.501 74.5s-77.5 109.834 -77.5 180.501z" />
    <glyph glyph-name="p" unicode="p" horiz-adv-x="630" 
d="M60 -210v699.998h170v-70h5c8.66699 14 19.667 27.333 33 40c30.667 26.667 68 40 112 40c59.333 0 110 -23.667 152 -71s63 -108.666 63 -183.999s-21 -136.666 -63 -183.999s-92.667 -71 -152 -71c-44 0 -81.333 13.333 -112 40c-13.333 12.667 -24.333 26 -33 40h-5
v-280h-170zM325 144.998c25.333 0 47.5 9.83301 66.5 29.5s28.5 43.167 28.5 70.5s-9.5 50.833 -28.5 70.5s-41.167 29.5 -66.5 29.5s-47.5 -9.83301 -66.5 -29.5s-28.5 -43.167 -28.5 -70.5s9.5 -50.833 28.5 -70.5s41.167 -29.5 66.5 -29.5z" />
    <glyph glyph-name="q" unicode="q" horiz-adv-x="630" 
d="M400 -210v280.002h-5c-8.66699 -14 -19.667 -27.333 -33 -40c-30.667 -26.667 -68 -40 -112 -40c-59.333 0 -110 23.667 -152 71s-63 108.666 -63 183.999s21 136.666 63 183.999s92.667 71 152 71c44 0 81.333 -13.333 112 -40c13.333 -12.667 24.333 -26 33 -40h5v70
h170v-700h-170zM305 145.002c25.333 0 47.5 9.83301 66.5 29.5s28.5 43.167 28.5 70.5s-9.5 50.833 -28.5 70.5s-41.167 29.5 -66.5 29.5s-47.5 -9.83301 -66.5 -29.5s-28.5 -43.167 -28.5 -70.5s9.5 -50.833 28.5 -70.5s41.167 -29.5 66.5 -29.5z" />
    <glyph glyph-name="r" unicode="r" horiz-adv-x="405" 
d="M60 0l-0.000976562 490h170v-60c8.66699 12 20 22.667 34 32c31.333 22 65 33 101 33h20v-180l-14 5c-10 3.33301 -22 5 -36 5c-33.333 0 -59.166 -9.83301 -77.499 -29.5s-27.5 -48.167 -27.5 -85.5v-210h-170z" />
    <glyph glyph-name="s" unicode="s" horiz-adv-x="465" 
d="M10 80l90.002 95.001c8 -10 17 -18.333 27 -25c22 -16.667 46.333 -25 73 -25s40 8.33301 40 25c0 8 -7 15.667 -21 23s-31 15 -51 23s-40.167 17.833 -60.5 29.5s-37.5 28.167 -51.5 49.5s-21 46.333 -21 75c0 42 17.667 77.5 53 106.5s84.333 43.5 147 43.5
c54 0 104.333 -12.667 151 -38c19.333 -10 37.333 -22.333 54 -37l-90 -95c-6.66699 6 -13.334 11.667 -20.001 17c-17.333 12 -34 18 -50 18c-26.667 0 -40 -8.33301 -40 -25c0 -8 7 -15.667 21 -23s31 -15 51 -23s40.167 -17.833 60.5 -29.5s37.5 -28.167 51.5 -49.5
s21 -46.333 21 -75c0 -42.667 -18.333 -78.334 -55 -107.001s-88.334 -43 -155.001 -43c-59.333 0 -114.333 15 -165 45c-22.667 12.667 -42.667 27.667 -60 45z" />
    <glyph glyph-name="t" unicode="t" horiz-adv-x="420" 
d="M100 180v140h-70v160h30c17.333 0 31.666 5.66699 42.999 17s17 25.666 17 42.999v90h150v-150h95v-160h-95v-110c0 -40 18.333 -60 55 -60c12.667 0 24.667 1.66699 36 5c4.66699 0.666992 9.33398 2.33398 14.001 5.00098v-155l-29 -8c-22 -4.66699 -45.667 -7 -71 -7
c-53.333 0 -95.833 16.667 -127.5 50s-47.5 80 -47.5 140z" />
    <glyph glyph-name="u" unicode="u" 
d="M60 195l0.000976562 295.001h170v-260c0 -24.667 6.5 -44.167 19.5 -58.5s29.833 -21.5 50.5 -21.5c23.333 0 42.5 8.16699 57.5 24.5s22.5 38.166 22.5 65.499v250h170v-490h-170v70h-5c-8.66699 -14 -19.667 -27.333 -33 -40c-30.667 -26.667 -66.334 -40 -107.001 -40
c-51.333 0 -93.333 18.167 -126 54.5s-49 86.5 -49 150.5z" />
    <glyph glyph-name="v" unicode="v" horiz-adv-x="540" 
d="M185 0l-185 490h185l83 -285h4l83 285h185l-185 -490h-170z" />
    <glyph glyph-name="w" unicode="w" horiz-adv-x="800" 
d="M170 0l-170 490h180l68 -245h4l83 245h130l83 -245h4l68 245h180l-170 -490h-140l-88 260h-4l-88 -260h-140z" />
    <glyph glyph-name="x" unicode="x" horiz-adv-x="530" 
d="M-5 0l155 250l-145 240h185l73 -145h4l73 145h185l-145 -240l155 -250h-185l-83 155h-4l-83 -155h-185z" />
    <glyph glyph-name="y" unicode="y" horiz-adv-x="540" 
d="M45 -195v155c6 -2.66699 11.333 -4.33398 16 -5.00098c11.333 -3.33301 22.666 -5 33.999 -5c35.333 0 60.333 13.333 75 40l10 20l-180 480h185l83 -285h4l83 285h185l-195 -515c-26 -66.667 -54.667 -114.167 -86 -142.5s-72.666 -42.5 -123.999 -42.5
c-24 0 -45.333 2.33301 -64 7c-2.66699 0.666992 -7 1.83398 -13 3.50098s-10.333 3.16699 -13 4.5z" />
    <glyph glyph-name="z" unicode="z" horiz-adv-x="520" 
d="M40 0v160l195 170h-185v160h420v-160l-195 -170h205v-160h-440z" />
    <glyph glyph-name="braceleft" unicode="{" horiz-adv-x="420" 
d="M110 -40v150c0 20 -5.5 35.833 -16.5 47.5s-25.5 17.5 -43.5 17.5h-10v150h10c18 0 32.5 5.83301 43.5 17.5s16.5 27.5 16.5 47.5v150c0 55.333 14.5 97.5 43.5 126.5s71.167 43.5 126.5 43.5h100v-150h-40c-17.333 0 -31.666 -5.66699 -42.999 -17
s-17 -25.666 -17 -42.999v-140c0 -38.667 -15 -68.334 -45 -89.001c-12.667 -8.66699 -27.667 -15.667 -45 -21c17.333 -5.33301 32.333 -12.333 45 -21c30 -20.667 45 -50.334 45 -89.001v-140c0 -17.333 5.66699 -31.666 17 -42.999s25.666 -17 42.999 -17h40v-150h-100
c-55.333 0 -97.5 14.5 -126.5 43.5s-43.5 71.167 -43.5 126.5z" />
    <glyph glyph-name="bar" unicode="|" horiz-adv-x="410" 
d="M120 -210v920h170v-920h-170z" />
    <glyph glyph-name="braceright" unicode="}" horiz-adv-x="420" 
d="M40 -210v150h40c17.333 0 31.666 5.66699 42.999 17s17 25.666 17 42.999v140c0 38.667 15 68.334 45 89.001c12.667 8.66699 27.667 15.667 45 21c-17.333 5.33301 -32.333 12.333 -45 21c-30 20.667 -45 50.334 -45 89.001v140c0 17.333 -5.66699 31.666 -17 42.999
s-25.666 17 -42.999 17h-40v150h100c55.333 0 97.5 -14.5 126.5 -43.5s43.5 -71.167 43.5 -126.5v-150c0 -20 5.5 -35.833 16.5 -47.5s25.5 -17.5 43.5 -17.5h10v-150h-10c-18 0 -32.5 -5.83301 -43.5 -17.5s-16.5 -27.5 -16.5 -47.5v-150
c0 -55.333 -14.5 -97.5 -43.5 -126.5s-71.167 -43.5 -126.5 -43.5h-100z" />
    <glyph glyph-name="asciitilde" unicode="~" horiz-adv-x="570" 
d="M140 200l-119.998 89.998c7.33301 18.667 18 37 32 55c31.333 36.667 70.666 55 117.999 55c32 0 65.5 -8.33301 100.5 -25s63.167 -25 84.5 -25c20 0 38.667 7.33301 56 22c9.33301 9.33301 15.666 17 18.999 23l120 -90c-7.33301 -19.333 -18 -37.666 -32 -54.999
c-30 -36.667 -69.333 -55 -118 -55c-32 0 -65.5 8.33301 -100.5 25s-63.167 25 -84.5 25c-20.667 0 -39.334 -7.66699 -56.001 -23c-9.33301 -9.33301 -15.666 -16.666 -18.999 -21.999z" />
    <glyph glyph-name="nbspace" unicode="&#xa0;" horiz-adv-x="220" 
 />
    <glyph glyph-name="exclamdown" unicode="&#xa1;" horiz-adv-x="350" 
d="M75 -210l35 485h130l35 -485h-200zM80 410c0 26 8.83301 47.5 26.5 64.5s40.5 25.5 68.5 25.5s50.833 -8.5 68.5 -25.5s26.5 -38.5 26.5 -64.5s-8.83301 -47.5 -26.5 -64.5s-40.5 -25.5 -68.5 -25.5s-50.833 8.5 -68.5 25.5s-26.5 38.5 -26.5 64.5z" />
    <glyph glyph-name="cent" unicode="&#xa2;" horiz-adv-x="535" 
d="M225 -100v99.998c-56 15.333 -101.667 45.333 -137 90s-53 96.334 -53 155.001s17.667 110.334 53 155.001s81 74.667 137 90v100h155v-100c38 -10.667 72.333 -28.667 103 -54c11.333 -9.33301 22 -21.333 32 -36l-100 -105c-8 10 -16.667 18.333 -26 25
c-23.333 16.667 -48 25 -74 25c-30 0 -55 -9.66699 -75 -29s-30 -43 -30 -71s10 -51.667 30 -71s45 -29 75 -29c27.333 0 52 8.33301 74 25c9.33301 6.66699 18 15 26 25l100 -105c-10 -14.667 -20.667 -26.667 -32 -36c-32.667 -26.667 -67 -44.667 -103 -54v-100h-155z
" />
    <glyph glyph-name="sterling" unicode="&#xa3;" horiz-adv-x="580" 
d="M40 0v169.999c40 0 60 18.333 60 55v85h-60v70h60v100c0 72.667 22.167 130.834 66.5 174.501s103.833 65.5 178.5 65.5c58.667 0 112 -16 160 -48c22 -14.667 40.333 -30.334 55 -47.001l-130 -125c-4.66699 6.66699 -11 13.334 -19 20.001
c-16 13.333 -34.667 20 -56 20c-20 0 -37.5 -7.83301 -52.5 -23.5s-22.5 -34.5 -22.5 -56.5v-80h150v-70h-150v-85c0 -16 -4.33301 -29.667 -13 -41c-3.33301 -5.33301 -7.33301 -10 -12 -14h300v-170h-515z" />
    <glyph glyph-name="currency" unicode="&#xa4;" horiz-adv-x="520" 
d="M260 245c25.333 0 46.666 8.66699 63.999 26s26 38.666 26 63.999s-8.66699 46.666 -26 63.999s-38.666 26 -63.999 26s-46.666 -8.66699 -63.999 -26s-26 -38.666 -26 -63.999s8.66699 -46.666 26 -63.999s38.666 -26 63.999 -26zM45 185l60 60
c-6 8.66699 -10.333 16.667 -13 24c-8 18 -12 40 -12 66s4 48 12 66c2.66699 7.33301 7 15.333 13 24l-60 60l60 60l60 -60l27 15c24 10 46.667 15 68 15s44 -5 68 -15l27 -15l60 60l60 -60l-60 -60c4.66699 -7.33301 8.66699 -15.333 12 -24c8.66699 -20 13 -42 13 -66
s-4.33301 -46 -13 -66c-3.33301 -8.66699 -7.33301 -16.667 -12 -24l60 -60l-60 -60l-60 60c-8 -6 -17 -11 -27 -15c-21.333 -10 -44 -15 -68 -15s-46.667 5 -68 15c-10 4 -19 9 -27 15l-60 -60z" />
    <glyph glyph-name="yen" unicode="&#xa5;" horiz-adv-x="670" 
d="M105 100v65h135v50h-135v65h120l-235 420h210l133 -275h4l133 275h210l-235 -420h120v-65h-135v-50h135v-65h-135v-100h-190v100h-135z" />
    <glyph glyph-name="brokenbar" unicode="&#xa6;" horiz-adv-x="410" 
d="M120 -210v380h170v-380h-170zM120 330v380h170v-380h-170z" />
    <glyph glyph-name="section" unicode="&#xa7;" horiz-adv-x="565" 
d="M55 -25l94.998 95.002c7.33301 -10 16.333 -19.333 27 -28c20.667 -18 43.334 -27 68.001 -27c43.333 0 65 16.667 65 50c0 12.667 -9 24.5 -27 35.5s-39.667 22 -65 33s-50.666 23.5 -75.999 37.5s-47 33.333 -65 58s-27 53.334 -27 86.001
c0 38.667 15.667 71.667 47 99c13.333 11.333 29.333 21.666 48 30.999c-13.333 8 -25 17.667 -35 29c-23.333 23.333 -35 52 -35 86c0 42 19.333 79.167 58 111.5s89.334 48.5 152.001 48.5c55.333 0 105.666 -14.333 150.999 -43c20.667 -12.667 37 -26.667 49 -42
l-85 -95c-8.66699 7.33301 -18 14.666 -28 21.999c-24 15.333 -44.667 23 -62 23c-36.667 0 -55 -11.667 -55 -35c0 -12.667 9 -24.5 27 -35.5s39.667 -21.833 65 -32.5s50.666 -22.834 75.999 -36.501s47 -32.667 65 -57s27 -52.166 27 -83.499c0 -38 -16 -72.333 -48 -103
c-12 -11.333 -27.667 -22 -47 -32c10.667 -6.66699 22.334 -16.334 35.001 -29.001c23.333 -26 35 -54.667 35 -86c0 -47.333 -20.333 -88.333 -61 -123s-93.667 -52 -159 -52c-61.333 0 -115.333 15.667 -162 47c-22 14.667 -39.667 30.667 -53 48zM209.998 335.002
c0 -26.667 20 -50.998 60 -72.998c17.333 -10.667 37.333 -19.667 60 -27c4.66699 4 8.66699 8.66699 12 14c8.66699 11.333 13 23.333 13 36c0 23.333 -20 47.333 -60 72c-15.333 9.33301 -35.333 18.666 -60 27.999c-6 -4.66699 -10.333 -9.33398 -13 -14.001
c-8 -10 -12 -22 -12 -36z" />
    <glyph glyph-name="dieresis" unicode="&#xa8;" horiz-adv-x="460" 
d="M260 640c0 22.667 8.5 42.5 25.5 59.5s36.833 25.5 59.5 25.5s42.5 -8.5 59.5 -25.5s25.5 -36.833 25.5 -59.5s-8.5 -42.5 -25.5 -59.5s-36.833 -25.5 -59.5 -25.5s-42.5 8.5 -59.5 25.5s-25.5 36.833 -25.5 59.5zM200 640c0 -22.667 -8.5 -42.5 -25.5 -59.5
s-36.833 -25.5 -59.5 -25.5s-42.5 8.5 -59.5 25.5s-25.5 36.833 -25.5 59.5s8.5 42.5 25.5 59.5s36.833 25.5 59.5 25.5s42.5 -8.5 59.5 -25.5s25.5 -36.833 25.5 -59.5z" />
    <glyph glyph-name="copyright" unicode="&#xa9;" horiz-adv-x="850" 
d="M145 350c0 -74.667 27.833 -140 83.5 -196s121.167 -84 196.5 -84s140.833 28 196.5 84s83.5 121.333 83.5 196s-27.833 140 -83.5 196s-121.167 84 -196.5 84s-140.833 -28 -196.5 -84s-83.5 -121.333 -83.5 -196zM45 350c0 103.333 36.5 190.833 109.5 262.5
s163.167 107.5 270.5 107.5s197.5 -35.833 270.5 -107.5s109.5 -159.167 109.5 -262.5s-36.5 -190.833 -109.5 -262.5s-163.167 -107.5 -270.5 -107.5s-197.5 35.833 -270.5 107.5s-109.5 159.167 -109.5 262.5zM530 295l65 -65c-10.667 -14.667 -24 -28 -40 -40
c-36 -26.667 -77.667 -40 -125 -40c-54.667 0 -101.667 19.667 -141 59s-59 86.333 -59 141s19.667 101.667 59 141s86.333 59 141 59c47.333 0 89 -13.333 125 -40c16 -12 29.333 -25.333 40 -40l-65 -65c-8 8 -16 14.667 -24 20c-19.333 13.333 -41.333 20 -66 20
c-28 0 -50.833 -8.83301 -68.5 -26.5s-26.5 -40.5 -26.5 -68.5s8.83301 -50.833 26.5 -68.5s40.5 -26.5 68.5 -26.5c24.667 0 46.667 6.66699 66 20c8 5.33301 16 12 24 20z" />
    <glyph glyph-name="ordfeminine" unicode="&#xaa;" horiz-adv-x="380" 
d="M230 380l0.00195312 35c-4.66699 -7.33301 -12.334 -15 -23.001 -23c-21.333 -14.667 -45.333 -22 -72 -22c-32 0 -57.5 9.16699 -76.5 27.5s-28.5 42.5 -28.5 72.5c0 25.333 9.33301 47 28 65s44.334 29.667 77.001 35l95 15c-6.66699 20 -23.334 30 -50.001 30
c-20 0 -37.333 -4.33301 -52 -13c-6.66699 -2.66699 -12.667 -6.66699 -18 -12l-65 60c11.333 11.333 23.666 21.333 36.999 30c32 20 68 30 108 30c48 0 85 -12.667 111 -38s39 -61 39 -107v-185h-110zM230.002 510v10.001l-55 -10c-8 -1.33301 -15 -4.83301 -21 -10.5
s-9 -12.167 -9 -19.5c0 -20 10 -30 30 -30c15.333 0 28.333 5.66699 39 17s16 25.666 16 42.999z" />
    <glyph glyph-name="guillemotleft" unicode="&#xab;" horiz-adv-x="605" 
d="M170 60l-130 180l130 180h160l-130 -180l130 -180h-160zM405 60l-130 180l130 180h160l-130 -180l130 -180h-160z" />
    <glyph glyph-name="logicalnot" unicode="&#xac;" horiz-adv-x="495" 
d="M40 280v155h415v-270h-150v115h-265z" />
    <glyph glyph-name="uni00AD" unicode="&#xad;" horiz-adv-x="425" 
d="M50 225v145h325v-145h-325z" />
    <glyph glyph-name="registered" unicode="&#xae;" horiz-adv-x="850" 
d="M275 160l0.000976562 380h180c42 0 75.833 -11.833 101.5 -35.5s38.5 -53.5 38.5 -89.5c0 -30.667 -11 -57.667 -33 -81c-8.66699 -10 -19.334 -18 -32.001 -24l80 -150h-125l-55 120h-40v-120h-115zM390.001 375h50c10 0 18.333 3 25 9s10 13 10 21s-3.33301 15 -10 21
s-15 9 -25 9h-50v-60zM145.001 350c0 -74.667 27.833 -140 83.5 -196s121.167 -84 196.5 -84s140.833 28 196.5 84s83.5 121.333 83.5 196s-27.833 140 -83.5 196s-121.167 84 -196.5 84s-140.833 -28 -196.5 -84s-83.5 -121.333 -83.5 -196zM45.001 350
c0 103.333 36.5 190.833 109.5 262.5s163.167 107.5 270.5 107.5s197.5 -35.833 270.5 -107.5s109.5 -159.167 109.5 -262.5s-36.5 -190.833 -109.5 -262.5s-163.167 -107.5 -270.5 -107.5s-197.5 35.833 -270.5 107.5s-109.5 159.167 -109.5 262.5z" />
    <glyph glyph-name="overscore" unicode="&#xaf;" horiz-adv-x="380" 
d="M30 600v130h320v-130h-320z" />
    <glyph glyph-name="degree" unicode="&#xb0;" horiz-adv-x="400" 
d="M145 555c0 -15.333 5.33301 -28.333 16 -39s23.667 -16 39 -16s28.333 5.33301 39 16s16 23.667 16 39s-5.33301 28.333 -16 39s-23.667 16 -39 16s-28.333 -5.33301 -39 -16s-16 -23.667 -16 -39zM35 555c0 42.667 15.833 79.167 47.5 109.5s70.834 45.5 117.501 45.5
s85.834 -15.167 117.501 -45.5s47.5 -66.833 47.5 -109.5s-15.833 -79.167 -47.5 -109.5s-70.834 -45.5 -117.501 -45.5s-85.834 15.167 -117.501 45.5s-47.5 66.833 -47.5 109.5z" />
    <glyph glyph-name="plusminus" unicode="&#xb1;" horiz-adv-x="530" 
d="M35 330v155h155v145h150v-145h155v-155h-155v-150h-150v150h-155zM35 0v145h460v-145h-460z" />
    <glyph glyph-name="uni00B2" unicode="&#xb2;" horiz-adv-x="340" 
d="M190 545h115.003v-105h-275c0 33.333 5.33301 62.833 16 88.5s23.5 45.5 38.5 59.5s30.167 26 45.5 36s28.333 19 39 27s16 16 16 24c0 16.667 -10 25 -30 25c-10.667 0 -20.334 -4.33301 -29.001 -13c-4.66699 -3.33301 -8.33398 -7.33301 -11.001 -12l-90 32
c7.33301 18.667 17 35 29 49c31.333 32.667 70 49 116 49c44 0 78.333 -10.667 103 -32s37 -49 37 -83c0 -24 -7.33301 -45 -22 -63s-33.334 -34.5 -56.001 -49.5s-36.667 -25.833 -42 -32.5z" />
    <glyph glyph-name="uni00B3" unicode="&#xb3;" horiz-adv-x="345" 
d="M20 500l59.998 60c5.33301 -6.66699 12 -12.667 20 -18c15.333 -11.333 32 -17 50 -17c12 0 21.667 3 29 9s11 13 11 21s-3.66699 15 -11 21s-17 9 -29 9h-40v80h35c23.333 0 35 8.33301 35 25s-11.667 25 -35 25c-12.667 0 -25.667 -4.33301 -39 -13
c-5.33301 -2.66699 -10.666 -6.66699 -15.999 -12l-60 60c8 9.33301 19.333 18.333 34 27c28.667 18.667 64 28 106 28c40.667 0 73.334 -10 98.001 -30s37 -43.333 37 -70c0 -22.667 -10 -42 -30 -58c-10 -7.33301 -20 -13 -30 -17c11.333 -4.66699 23 -10.667 35 -18
c23.333 -18 35 -40.333 35 -67c0 -29.333 -13.333 -55 -40 -77s-61.667 -33 -105 -33c-42 0 -79.667 10.667 -113 32c-14.667 8.66699 -27 19.667 -37 33z" />
    <glyph glyph-name="acute" unicode="&#xb4;" horiz-adv-x="325" 
d="M30 550l85 160h180l-120 -160h-145z" />
    <glyph glyph-name="uni00B5" unicode="&#xb5;" horiz-adv-x="620" 
d="M60 -210l-0.00195312 700.003h170v-260c0 -24.667 6.5 -44.167 19.5 -58.5s29.833 -21.5 50.5 -21.5c23.333 0 42.5 8.16699 57.5 24.5s22.5 38.166 22.5 65.499v250h170v-315c0 -20 10 -30 30 -30c2.66699 0 7.33398 0.666992 14.001 2l6 3v-145
c-1.33301 -0.666992 -7.33301 -3.33398 -18 -8.00098c-12 -4.66699 -27.667 -7 -47 -7c-41.333 0 -74.666 13.333 -99.999 40c-12 13.333 -20.333 26.666 -25 39.999h-5c-8.66699 -14.667 -20.667 -28 -36 -40c-33.333 -26.667 -73 -40 -119 -40h-20v-200h-170z" />
    <glyph glyph-name="paragraph" unicode="&#xb6;" horiz-adv-x="665" 
d="M215 -100v430c-50 0 -93.333 18.167 -130 54.5s-55 79.833 -55 130.5s18.333 94.167 55 130.5s80 54.5 130 54.5h370v-800h-150v630h-70v-630h-150z" />
    <glyph glyph-name="middot" unicode="&#xb7;" horiz-adv-x="220" 
d="M15 250c0 26 8.83301 47.5 26.5 64.5s40.5 25.5 68.5 25.5s50.833 -8.5 68.5 -25.5s26.5 -38.5 26.5 -64.5s-8.83301 -47.5 -26.5 -64.5s-40.5 -25.5 -68.5 -25.5s-50.833 8.5 -68.5 25.5s-26.5 38.5 -26.5 64.5z" />
    <glyph glyph-name="cedilla" unicode="&#xb8;" horiz-adv-x="315" 
d="M30 -210l45.001 69.999c4.66699 -5.33301 11 -10.333 19 -15c14.667 -10 30 -15 46 -15c23.333 0 35 10 35 30s-11.667 30 -35 30c-1.33301 0 -6 -1 -14 -3l-6 -2l-35 35l45 100h80l-35 -65c18.667 -2.66699 37 -8.33398 55 -17.001c36.667 -20.667 55 -50 55 -88
c0 -29.333 -12 -54.166 -36 -74.499s-55.333 -30.5 -94 -30.5c-34 0 -65 7.33301 -93 22c-14.667 8.66699 -25.334 16.334 -32.001 23.001z" />
    <glyph glyph-name="uni00B9" unicode="&#xb9;" horiz-adv-x="240" 
d="M80 440l-0.000976562 225h-60v85c20.667 2.66699 39.334 11.667 56.001 27c8 8 14.333 15.667 19 23h105v-360h-120z" />
    <glyph glyph-name="ordmasculine" unicode="&#xba;" horiz-adv-x="400" 
d="M200 480c17.333 0 31.666 5.66699 42.999 17s17 25.666 17 42.999s-5.66699 31.666 -17 42.999s-25.666 17 -42.999 17s-31.666 -5.66699 -42.999 -17s-17 -25.666 -17 -42.999s5.66699 -31.666 17 -42.999s25.666 -17 42.999 -17zM25 540c0 48 16.667 88.333 50 121
s75 49 125 49s91.667 -16.333 125 -49s50 -73 50 -121s-16.667 -88.333 -50 -121s-75 -49 -125 -49s-91.667 16.333 -125 49s-50 73 -50 121z" />
    <glyph glyph-name="guillemotright" unicode="&#xbb;" horiz-adv-x="605" 
d="M275 60l130 180l-130 180h160l130 -180l-130 -180h-160zM40 60l130 180l-130 180h160l130 -180l-130 -180h-160z" />
    <glyph glyph-name="onequarter" unicode="&#xbc;" horiz-adv-x="760" 
d="M70 0l435 700h160l-435 -700h-160zM90 340l-0.000976562 225h-60v85c20.667 2.66699 39.334 11.667 56.001 27c8 8 14.333 15.667 19 23h105v-360h-120zM434.999 65v95l160 200h110v-195h35v-100h-35v-65h-115v65h-155zM534.999 160h60v75z" />
    <glyph glyph-name="onehalf" unicode="&#xbd;" horiz-adv-x="790" 
d="M70 0l435 700h160l-435 -700h-160zM90 340l-0.000976562 225h-60v85c20.667 2.66699 39.334 11.667 56.001 27c8 8 14.333 15.667 19 23h105v-360h-120zM639.999 105h115.003v-105h-275c0 33.333 5.33301 62.833 16 88.5s23.667 45.5 39 59.5s30.5 26 45.5 36
s27.833 19 38.5 27s16 16 16 24c0 16.667 -10 25 -30 25c-10.667 0 -20.334 -4.33301 -29.001 -13c-4.66699 -3.33301 -8.33398 -7.33301 -11.001 -12l-90 32c7.33301 18.667 17 35 29 49c31.333 32.667 70 49 116 49c44 0 78.333 -10.667 103 -32s37 -49 37 -83
c0 -24 -7.33301 -45 -22 -63s-33.334 -34.5 -56.001 -49.5s-36.667 -25.833 -42 -32.5z" />
    <glyph glyph-name="threequarters" unicode="&#xbe;" horiz-adv-x="825" 
d="M135 0l435 700h160l-435 -700h-160zM500 65v95l160 200h110v-195h35v-100h-35v-65h-115v65h-155zM600 160h60v75zM20 400l59.998 60c5.33301 -6.66699 12 -12.667 20 -18c15.333 -11.333 32 -17 50 -17c12 0 21.667 3 29 9s11 13 11 21s-3.66699 15 -11 21s-17 9 -29 9
h-40v80h35c23.333 0 35 8.33301 35 25s-11.667 25 -35 25c-12.667 0 -25.667 -4.33301 -39 -13c-5.33301 -2.66699 -10.666 -6.66699 -15.999 -12l-60 60c8 9.33301 19.333 18.333 34 27c28.667 18.667 64 28 106 28c40.667 0 73.334 -10 98.001 -30s37 -43.333 37 -70
c0 -22.667 -10 -42 -30 -58c-10 -7.33301 -20 -13 -30 -17c11.333 -4.66699 23 -10.667 35 -18c23.333 -18 35 -40.333 35 -67c0 -29.333 -13.333 -55 -40 -77s-61.667 -33 -105 -33c-42 0 -79.667 10.667 -113 32c-14.667 8.66699 -27 19.667 -37 33z" />
    <glyph glyph-name="questiondown" unicode="&#xbf;" horiz-adv-x="545" 
d="M385 15l160.001 -75.001c-12.667 -30.667 -31.334 -59 -56.001 -85c-52.667 -56.667 -122.334 -85 -209.001 -85c-74.667 0 -136.667 21.333 -186 64s-74 91.334 -74 146.001c0 29.333 6.5 56.333 19.5 81s28.833 45.5 47.5 62.5s37.334 33 56.001 48
s34.5 31.333 47.5 49s19.5 35.834 19.5 54.501h160c0 -0.666992 1.66699 -5 5 -13c3.33301 -8.66699 5 -19.334 5 -32.001c0 -24 -5.33301 -45.833 -16 -65.5s-23.667 -35.834 -39 -48.501l-45.5 -36c-15 -11.333 -27.833 -23.166 -38.5 -35.499s-16 -25.5 -16 -39.5
c0 -16 6 -29.167 18 -39.5s27.667 -15.5 47 -15.5c29.333 0 54 10.667 74 32c9.33301 9.33301 16.333 20.333 21 33zM390.001 409.999c0 -26 -8.83301 -47.5 -26.5 -64.5s-40.5 -25.5 -68.5 -25.5s-50.833 8.5 -68.5 25.5s-26.5 38.5 -26.5 64.5s8.83301 47.5 26.5 64.5
s40.5 25.5 68.5 25.5s50.833 -8.5 68.5 -25.5s26.5 -38.5 26.5 -64.5z" />
    <glyph glyph-name="Agrave" unicode="&#xc0;" horiz-adv-x="730" 
d="M300 305h130l-63 200h-4zM-5 0l265 700h210l265 -700h-205l-50 150h-230l-50 -150h-205zM285 780l-120 160h180l85 -160h-145z" />
    <glyph glyph-name="Aacute" unicode="&#xc1;" horiz-adv-x="730" 
d="M300 305h130l-63 200h-4zM-5 0l265 700h210l265 -700h-205l-50 150h-230l-50 -150h-205zM300 780l85 160h180l-120 -160h-145z" />
    <glyph glyph-name="Acircumflex" unicode="&#xc2;" horiz-adv-x="730" 
d="M300 305h130l-63 200h-4zM-5 0l265 700h210l265 -700h-205l-50 150h-230l-50 -150h-205zM160 780l130 160h150l130 -160h-155l-50 70l-50 -70h-155z" />
    <glyph glyph-name="Atilde" unicode="&#xc3;" horiz-adv-x="730" 
d="M300 305h130l-63 200h-4zM-5 0l265 700h210l265 -700h-205l-50 150h-230l-50 -150h-205zM180 770v40c0 41.333 9.66699 73.333 29 96s44.666 34 75.999 34c22 0 46 -7.5 72 -22.5s43.667 -22.5 53 -22.5c23.333 0 35 15 35 45h105v-40
c0 -41.333 -9.66699 -73.333 -29 -96s-44.666 -34 -75.999 -34c-22 0 -45.833 7.5 -71.5 22.5s-43.5 22.5 -53.5 22.5c-23.333 0 -35 -15 -35 -45h-105z" />
    <glyph glyph-name="Adieresis" unicode="&#xc4;" horiz-adv-x="730" 
d="M300 305h130l-63 200h-4zM-5 0l265 700h210l265 -700h-205l-50 150h-230l-50 -150h-205zM395 865c0 22.667 8.5 42.5 25.5 59.5s36.833 25.5 59.5 25.5s42.5 -8.5 59.5 -25.5s25.5 -36.833 25.5 -59.5s-8.5 -42.5 -25.5 -59.5s-36.833 -25.5 -59.5 -25.5
s-42.5 8.5 -59.5 25.5s-25.5 36.833 -25.5 59.5zM335 865c0 -22.667 -8.5 -42.5 -25.5 -59.5s-36.833 -25.5 -59.5 -25.5s-42.5 8.5 -59.5 25.5s-25.5 36.833 -25.5 59.5s8.5 42.5 25.5 59.5s36.833 25.5 59.5 25.5s42.5 -8.5 59.5 -25.5s25.5 -36.833 25.5 -59.5z" />
    <glyph glyph-name="Aring" unicode="&#xc5;" horiz-adv-x="730" 
d="M300 305h130l-63 200h-4zM-5 0l265 700h210l265 -700h-205l-50 150h-230l-50 -150h-205zM325 870c0 -12 4 -21.667 12 -29s17.333 -11 28 -11s20 3.66699 28 11s12 17 12 29s-4 21.667 -12 29s-17.333 11 -28 11s-20 -3.66699 -28 -11s-12 -17 -12 -29zM235 870
c0 32.667 12.5 60.834 37.5 84.501s55.833 35.5 92.5 35.5s67.5 -11.833 92.5 -35.5s37.5 -51.834 37.5 -84.501s-12.5 -60.834 -37.5 -84.501s-55.833 -35.5 -92.5 -35.5s-67.5 11.833 -92.5 35.5s-37.5 51.834 -37.5 84.501z" />
    <glyph glyph-name="AE" unicode="&#xc6;" horiz-adv-x="1015" 
d="M-50 0l390 700h625v-170h-315v-100h235v-160h-235v-100h325v-170h-515v155h-225l-85 -155h-200zM330 325h130v215h-10z" />
    <glyph glyph-name="Ccedilla" unicode="&#xc7;" horiz-adv-x="755" 
d="M285 -210l45.0049 70.001c4.66699 -5.33301 11 -10.333 19 -15c15.333 -10 30.666 -15 45.999 -15c23.333 0 35 10 35 30s-11.667 30 -35 30c-1.33301 0 -6 -1 -14 -3l-6 -2l-35 35l30 65c-96.667 12 -175.834 52.5 -237.501 121.5s-92.5 150.167 -92.5 243.5
c0 103.333 37.167 190.833 111.5 262.5s167.166 107.5 278.499 107.5c84 0 159 -22.667 225 -68c29.333 -20.667 54.333 -43 75 -67l-115 -130c-15.333 16.667 -32.333 31.667 -51 45c-43.333 30 -88 45 -134 45c-54.667 0 -100.834 -18.833 -138.501 -56.5
s-56.5 -83.834 -56.5 -138.501s18.833 -100.834 56.5 -138.501s83.834 -56.5 138.501 -56.5c45.333 0 90.666 15 135.999 45c20 13.333 38 28.333 54 45l115 -130c-22 -26 -46.667 -48 -74 -66c-64.667 -43.333 -136.667 -66.333 -216 -69l-15 -25
c18.667 -2.66699 37 -8.33398 55 -17.001c36.667 -20.667 55 -50 55 -88c0 -29.333 -12 -54.166 -36 -74.499s-55.333 -30.5 -94 -30.5c-34 0 -65 7.33301 -93 22c-14.667 8.66699 -25.334 16.334 -32.001 23.001z" />
    <glyph glyph-name="Egrave" unicode="&#xc8;" horiz-adv-x="665" 
d="M80 0v700h535v-170h-345v-100h265v-160h-265v-100h355v-170h-545zM275 780l-120 160h180l85 -160h-145z" />
    <glyph glyph-name="Eacute" unicode="&#xc9;" horiz-adv-x="665" 
d="M80 0v700h535v-170h-345v-100h265v-160h-265v-100h355v-170h-545zM270 780l85 160h180l-120 -160h-145z" />
    <glyph glyph-name="Ecircumflex" unicode="&#xca;" horiz-adv-x="665" 
d="M80 0v700h535v-170h-345v-100h265v-160h-265v-100h355v-170h-545zM140 780l130 160h150l130 -160h-155l-50 70l-50 -70h-155z" />
    <glyph glyph-name="Edieresis" unicode="&#xcb;" horiz-adv-x="665" 
d="M80 0v700h535v-170h-345v-100h265v-160h-265v-100h355v-170h-545zM375 865c0 22.667 8.5 42.5 25.5 59.5s36.833 25.5 59.5 25.5s42.5 -8.5 59.5 -25.5s25.5 -36.833 25.5 -59.5s-8.5 -42.5 -25.5 -59.5s-36.833 -25.5 -59.5 -25.5s-42.5 8.5 -59.5 25.5
s-25.5 36.833 -25.5 59.5zM315 865c0 -22.667 -8.5 -42.5 -25.5 -59.5s-36.833 -25.5 -59.5 -25.5s-42.5 8.5 -59.5 25.5s-25.5 36.833 -25.5 59.5s8.5 42.5 25.5 59.5s36.833 25.5 59.5 25.5s42.5 -8.5 59.5 -25.5s25.5 -36.833 25.5 -59.5z" />
    <glyph glyph-name="Igrave" unicode="&#xcc;" horiz-adv-x="350" 
d="M80 0v700h190v-700h-190zM105 780l-120 160h180l85 -160h-145z" />
    <glyph glyph-name="Iacute" unicode="&#xcd;" horiz-adv-x="350" 
d="M80 0v700h190v-700h-190zM100 780l85 160h180l-120 -160h-145z" />
    <glyph glyph-name="Icircumflex" unicode="&#xce;" horiz-adv-x="350" 
d="M80 0v700h190v-700h-190zM-30 780l130 160h150l130 -160h-155l-50 70l-50 -70h-155z" />
    <glyph glyph-name="Idieresis" unicode="&#xcf;" horiz-adv-x="350" 
d="M80 0v700h190v-700h-190zM205 865c0 22.667 8.5 42.5 25.5 59.5s36.833 25.5 59.5 25.5s42.5 -8.5 59.5 -25.5s25.5 -36.833 25.5 -59.5s-8.5 -42.5 -25.5 -59.5s-36.833 -25.5 -59.5 -25.5s-42.5 8.5 -59.5 25.5s-25.5 36.833 -25.5 59.5zM145 865
c0 -22.667 -8.5 -42.5 -25.5 -59.5s-36.833 -25.5 -59.5 -25.5s-42.5 8.5 -59.5 25.5s-25.5 36.833 -25.5 59.5s8.5 42.5 25.5 59.5s36.833 25.5 59.5 25.5s42.5 -8.5 59.5 -25.5s25.5 -36.833 25.5 -59.5z" />
    <glyph glyph-name="Eth" unicode="&#xd0;" horiz-adv-x="775" 
d="M95 0v315h-75v70h75v315h260c110.667 0 201.667 -33.667 273 -101s107 -150.333 107 -249s-35.667 -181.667 -107 -249s-162.333 -101 -273 -101h-260zM285 170h70c54 0 98.333 17 133 51s52 77 52 129s-17.333 95 -52 129s-79 51 -133 51h-70v-145h105v-70h-105v-145z
" />
    <glyph glyph-name="Ntilde" unicode="&#xd1;" horiz-adv-x="815" 
d="M80 0v700h165l300 -385v385h190v-700h-165l-300 385v-385h-190zM225 770v40c0 41.333 9.66699 73.333 29 96s44.666 34 75.999 34c21.333 0 45 -7.5 71 -22.5s44 -22.5 54 -22.5c23.333 0 35 15 35 45h105v-40c0 -41.333 -9.66699 -73.333 -29 -96
s-44.666 -34 -75.999 -34c-22 0 -45.833 7.5 -71.5 22.5s-43.5 22.5 -53.5 22.5c-23.333 0 -35 -15 -35 -45h-105z" />
    <glyph glyph-name="Ograve" unicode="&#xd2;" horiz-adv-x="860" 
d="M235 350c0 -54.667 18.833 -100.834 56.5 -138.501s83.834 -56.5 138.501 -56.5s100.834 18.833 138.501 56.5s56.5 83.834 56.5 138.501s-18.833 100.834 -56.5 138.501s-83.834 56.5 -138.501 56.5s-100.834 -18.833 -138.501 -56.5s-56.5 -83.834 -56.5 -138.501z
M40 350c0 103.333 37.167 190.833 111.5 262.5s167.166 107.5 278.499 107.5s204.166 -35.833 278.499 -107.5s111.5 -159.167 111.5 -262.5s-37.167 -190.833 -111.5 -262.5s-167.166 -107.5 -278.499 -107.5s-204.166 35.833 -278.499 107.5s-111.5 159.167 -111.5 262.5z
M360 780l-120 160h180l85 -160h-145z" />
    <glyph glyph-name="Oacute" unicode="&#xd3;" horiz-adv-x="860" 
d="M235 350c0 -54.667 18.833 -100.834 56.5 -138.501s83.834 -56.5 138.501 -56.5s100.834 18.833 138.501 56.5s56.5 83.834 56.5 138.501s-18.833 100.834 -56.5 138.501s-83.834 56.5 -138.501 56.5s-100.834 -18.833 -138.501 -56.5s-56.5 -83.834 -56.5 -138.501z
M40 350c0 103.333 37.167 190.833 111.5 262.5s167.166 107.5 278.499 107.5s204.166 -35.833 278.499 -107.5s111.5 -159.167 111.5 -262.5s-37.167 -190.833 -111.5 -262.5s-167.166 -107.5 -278.499 -107.5s-204.166 35.833 -278.499 107.5s-111.5 159.167 -111.5 262.5z
M355 780l85 160h180l-120 -160h-145z" />
    <glyph glyph-name="Ocircumflex" unicode="&#xd4;" horiz-adv-x="860" 
d="M235 350c0 -54.667 18.833 -100.834 56.5 -138.501s83.834 -56.5 138.501 -56.5s100.834 18.833 138.501 56.5s56.5 83.834 56.5 138.501s-18.833 100.834 -56.5 138.501s-83.834 56.5 -138.501 56.5s-100.834 -18.833 -138.501 -56.5s-56.5 -83.834 -56.5 -138.501z
M40 350c0 103.333 37.167 190.833 111.5 262.5s167.166 107.5 278.499 107.5s204.166 -35.833 278.499 -107.5s111.5 -159.167 111.5 -262.5s-37.167 -190.833 -111.5 -262.5s-167.166 -107.5 -278.499 -107.5s-204.166 35.833 -278.499 107.5s-111.5 159.167 -111.5 262.5z
M225 780l130 160h150l130 -160h-155l-50 70l-50 -70h-155z" />
    <glyph glyph-name="Otilde" unicode="&#xd5;" horiz-adv-x="860" 
d="M235 350c0 -54.667 18.833 -100.834 56.5 -138.501s83.834 -56.5 138.501 -56.5s100.834 18.833 138.501 56.5s56.5 83.834 56.5 138.501s-18.833 100.834 -56.5 138.501s-83.834 56.5 -138.501 56.5s-100.834 -18.833 -138.501 -56.5s-56.5 -83.834 -56.5 -138.501z
M40 350c0 103.333 37.167 190.833 111.5 262.5s167.166 107.5 278.499 107.5s204.166 -35.833 278.499 -107.5s111.5 -159.167 111.5 -262.5s-37.167 -190.833 -111.5 -262.5s-167.166 -107.5 -278.499 -107.5s-204.166 35.833 -278.499 107.5s-111.5 159.167 -111.5 262.5z
M245 770v40c0 41.333 9.66699 73.333 29 96s44.666 34 75.999 34c21.333 0 45 -7.5 71 -22.5s44 -22.5 54 -22.5c23.333 0 35 15 35 45h105v-40c0 -41.333 -9.66699 -73.333 -29 -96s-44.666 -34 -75.999 -34c-22 0 -45.833 7.5 -71.5 22.5s-43.5 22.5 -53.5 22.5
c-23.333 0 -35 -15 -35 -45h-105z" />
    <glyph glyph-name="Odieresis" unicode="&#xd6;" horiz-adv-x="860" 
d="M235 350c0 -54.667 18.833 -100.834 56.5 -138.501s83.834 -56.5 138.501 -56.5s100.834 18.833 138.501 56.5s56.5 83.834 56.5 138.501s-18.833 100.834 -56.5 138.501s-83.834 56.5 -138.501 56.5s-100.834 -18.833 -138.501 -56.5s-56.5 -83.834 -56.5 -138.501z
M40 350c0 103.333 37.167 190.833 111.5 262.5s167.166 107.5 278.499 107.5s204.166 -35.833 278.499 -107.5s111.5 -159.167 111.5 -262.5s-37.167 -190.833 -111.5 -262.5s-167.166 -107.5 -278.499 -107.5s-204.166 35.833 -278.499 107.5s-111.5 159.167 -111.5 262.5z
M460 865c0 22.667 8.5 42.5 25.5 59.5s36.833 25.5 59.5 25.5s42.5 -8.5 59.5 -25.5s25.5 -36.833 25.5 -59.5s-8.5 -42.5 -25.5 -59.5s-36.833 -25.5 -59.5 -25.5s-42.5 8.5 -59.5 25.5s-25.5 36.833 -25.5 59.5zM400 865c0 -22.667 -8.5 -42.5 -25.5 -59.5
s-36.833 -25.5 -59.5 -25.5s-42.5 8.5 -59.5 25.5s-25.5 36.833 -25.5 59.5s8.5 42.5 25.5 59.5s36.833 25.5 59.5 25.5s42.5 -8.5 59.5 -25.5s25.5 -36.833 25.5 -59.5z" />
    <glyph glyph-name="multiply" unicode="&#xd7;" horiz-adv-x="510" 
d="M35 190l120 120l-120 120l100 100l120 -120l120 120l100 -100l-120 -120l120 -120l-100 -100l-120 120l-120 -120z" />
    <glyph glyph-name="Oslash" unicode="&#xd8;" horiz-adv-x="860" 
d="M40 35l89.999 80c-16.667 18.667 -31.667 40.334 -45 65.001c-30 53.333 -45 110 -45 170c0 103.333 37.167 190.833 111.5 262.5s167.166 107.5 278.499 107.5c67.333 0 129.666 -15 186.999 -45c26.667 -13.333 49.334 -28.333 68.001 -45l90 80l45 -45l-90 -80
c16.667 -18.667 31.667 -40.334 45 -65.001c30 -53.333 45 -110 45 -170c0 -103.333 -37.167 -190.833 -111.5 -262.5s-167.166 -107.5 -278.499 -107.5c-68 0 -130.667 15 -188 45c-25.333 12.667 -47.666 27.667 -66.999 45l-90 -80zM594.999 455l-285 -260.001
c9.33301 -7.33301 20 -14 32 -20c25.333 -13.333 54.666 -20 87.999 -20c54.667 0 100.834 18.833 138.501 56.5s56.5 83.834 56.5 138.501c0 24 -5 49.667 -15 77c-4.66699 10 -9.66699 19.333 -15 28zM264.999 244.999l285 260.001c-9.33301 7.33301 -20 14 -32 20
c-25.333 13.333 -54.666 20 -87.999 20c-54.667 0 -100.834 -18.833 -138.501 -56.5s-56.5 -83.834 -56.5 -138.501c0 -27.333 5 -53 15 -77c4 -10.667 9 -20 15 -28z" />
    <glyph glyph-name="Ugrave" unicode="&#xd9;" horiz-adv-x="790" 
d="M75 290v410h190v-410c0 -40 12.167 -72.5 36.5 -97.5s55.5 -37.5 93.5 -37.5s69.167 12.5 93.5 37.5s36.5 57.5 36.5 97.5v410h190v-410c0 -90.667 -29.833 -165 -89.5 -223s-136.5 -87 -230.5 -87s-170.833 29 -230.5 87s-89.5 132.333 -89.5 223zM325 780l-120 160h180
l85 -160h-145z" />
    <glyph glyph-name="Uacute" unicode="&#xda;" horiz-adv-x="790" 
d="M75 290v410h190v-410c0 -40 12.167 -72.5 36.5 -97.5s55.5 -37.5 93.5 -37.5s69.167 12.5 93.5 37.5s36.5 57.5 36.5 97.5v410h190v-410c0 -90.667 -29.833 -165 -89.5 -223s-136.5 -87 -230.5 -87s-170.833 29 -230.5 87s-89.5 132.333 -89.5 223zM320 780l85 160h180
l-120 -160h-145z" />
    <glyph glyph-name="Ucircumflex" unicode="&#xdb;" horiz-adv-x="790" 
d="M75 290v410h190v-410c0 -40 12.167 -72.5 36.5 -97.5s55.5 -37.5 93.5 -37.5s69.167 12.5 93.5 37.5s36.5 57.5 36.5 97.5v410h190v-410c0 -90.667 -29.833 -165 -89.5 -223s-136.5 -87 -230.5 -87s-170.833 29 -230.5 87s-89.5 132.333 -89.5 223zM190 780l130 160h150
l130 -160h-155l-50 70l-50 -70h-155z" />
    <glyph glyph-name="Udieresis" unicode="&#xdc;" horiz-adv-x="790" 
d="M75 290v410h190v-410c0 -40 12.167 -72.5 36.5 -97.5s55.5 -37.5 93.5 -37.5s69.167 12.5 93.5 37.5s36.5 57.5 36.5 97.5v410h190v-410c0 -90.667 -29.833 -165 -89.5 -223s-136.5 -87 -230.5 -87s-170.833 29 -230.5 87s-89.5 132.333 -89.5 223zM425 865
c0 22.667 8.5 42.5 25.5 59.5s36.833 25.5 59.5 25.5s42.5 -8.5 59.5 -25.5s25.5 -36.833 25.5 -59.5s-8.5 -42.5 -25.5 -59.5s-36.833 -25.5 -59.5 -25.5s-42.5 8.5 -59.5 25.5s-25.5 36.833 -25.5 59.5zM365 865c0 -22.667 -8.5 -42.5 -25.5 -59.5
s-36.833 -25.5 -59.5 -25.5s-42.5 8.5 -59.5 25.5s-25.5 36.833 -25.5 59.5s8.5 42.5 25.5 59.5s36.833 25.5 59.5 25.5s42.5 -8.5 59.5 -25.5s25.5 -36.833 25.5 -59.5z" />
    <glyph glyph-name="Yacute" unicode="&#xdd;" horiz-adv-x="670" 
d="M240 0v250l-250 450h210l133 -275h4l133 275h210l-250 -450v-250h-190zM260 780l85 160h180l-120 -160h-145z" />
    <glyph glyph-name="Thorn" unicode="&#xde;" horiz-adv-x="765" 
d="M80 0v700h190v-110h220c72 0 130.833 -21.833 176.5 -65.5s68.5 -98.5 68.5 -164.5s-22.833 -120.833 -68.5 -164.5s-104.5 -65.5 -176.5 -65.5h-220v-130h-190zM270 300l210 0.00195312c17.333 0 32.5 6.16699 45.5 18.5s19.5 26.166 19.5 41.499
s-6.5 29.166 -19.5 41.499s-28.167 18.5 -45.5 18.5h-210v-120z" />
    <glyph glyph-name="germandbls" unicode="&#xdf;" horiz-adv-x="625" 
d="M65 0l0.000976562 480.002c0 68 22.333 123.333 67 166s104 64 178 64c67.333 0 122.5 -18.667 165.5 -56s64.5 -82 64.5 -134c0 -40.667 -14.333 -76.667 -43 -108c-12.667 -13.333 -26.667 -24 -42 -32c24.667 -8.66699 47 -20.667 67 -36
c45.333 -34.667 68 -79.334 68 -134.001c0 -60 -22.833 -110 -68.5 -150s-106.5 -60 -182.5 -60h-44v160h45c19.333 0 35.833 6 49.5 18s20.5 26 20.5 42c0 18 -6.66699 33.333 -20 46s-30 19 -50 19h-45v150h15c19.333 0 35 6 47 18s18 26 18 42
c0 18 -5.83301 32.5 -17.5 43.5s-27.5 16.5 -47.5 16.5c-22.667 0 -40.834 -6.83301 -54.501 -20.5s-20.5 -31.834 -20.5 -54.501v-480h-170z" />
    <glyph glyph-name="agrave" unicode="&#xe0;" horiz-adv-x="540" 
d="M315 0v65h-5c-10 -15.333 -20.333 -28 -31 -38c-27.333 -24.667 -60.333 -37 -99 -37c-44.667 0 -81.667 13.667 -111 41s-44 60.333 -44 99c0 42 12.833 76.667 38.5 104s62.834 46 111.501 56l140 30c-2.66699 13.333 -10.334 25 -23.001 35s-28.334 15 -47.001 15
c-26 0 -50.667 -8.33301 -74 -25c-9.33301 -6.66699 -18 -15 -26 -25l-90 85c16 18 34 33.667 54 47c46.667 32 97 48 151 48c66.667 0 120.834 -19 162.501 -57s62.5 -84.333 62.5 -139v-304h-170zM315 205l0.000976562 15.001l-70 -15
c-12.667 -2.66699 -23.334 -8.33398 -32.001 -17.001s-13 -18 -13 -28c0 -26.667 15 -40 45 -40c20.667 0 37.5 7.33301 50.5 22s19.5 35.667 19.5 63zM205.001 555.001l-120 160h180l85 -160h-145z" />
    <glyph glyph-name="aacute" unicode="&#xe1;" horiz-adv-x="540" 
d="M315 0v65h-5c-10 -15.333 -20.333 -28 -31 -38c-27.333 -24.667 -60.333 -37 -99 -37c-44.667 0 -81.667 13.667 -111 41s-44 60.333 -44 99c0 42 12.833 76.667 38.5 104s62.834 46 111.501 56l140 30c-2.66699 13.333 -10.334 25 -23.001 35s-28.334 15 -47.001 15
c-26 0 -50.667 -8.33301 -74 -25c-9.33301 -6.66699 -18 -15 -26 -25l-90 85c16 18 34 33.667 54 47c46.667 32 97 48 151 48c66.667 0 120.834 -19 162.501 -57s62.5 -84.333 62.5 -139v-304h-170zM315 205l0.000976562 15.001l-70 -15
c-12.667 -2.66699 -23.334 -8.33398 -32.001 -17.001s-13 -18 -13 -28c0 -26.667 15 -40 45 -40c20.667 0 37.5 7.33301 50.5 22s19.5 35.667 19.5 63zM200.001 555.001l85 160h180l-120 -160h-145z" />
    <glyph glyph-name="acircumflex" unicode="&#xe2;" horiz-adv-x="540" 
d="M315 0v65h-5c-10 -15.333 -20.333 -28 -31 -38c-27.333 -24.667 -60.333 -37 -99 -37c-44.667 0 -81.667 13.667 -111 41s-44 60.333 -44 99c0 42 12.833 76.667 38.5 104s62.834 46 111.501 56l140 30c-2.66699 13.333 -10.334 25 -23.001 35s-28.334 15 -47.001 15
c-26 0 -50.667 -8.33301 -74 -25c-9.33301 -6.66699 -18 -15 -26 -25l-90 85c16 18 34 33.667 54 47c46.667 32 97 48 151 48c66.667 0 120.834 -19 162.501 -57s62.5 -84.333 62.5 -139v-304h-170zM315 205l0.000976562 15.001l-70 -15
c-12.667 -2.66699 -23.334 -8.33398 -32.001 -17.001s-13 -18 -13 -28c0 -26.667 15 -40 45 -40c20.667 0 37.5 7.33301 50.5 22s19.5 35.667 19.5 63zM70.001 555.001l130 160h150l130 -160h-155l-50 70l-50 -70h-155z" />
    <glyph glyph-name="atilde" unicode="&#xe3;" horiz-adv-x="540" 
d="M315 0v65h-5c-10 -15.333 -20.333 -28 -31 -38c-27.333 -24.667 -60.333 -37 -99 -37c-44.667 0 -81.667 13.667 -111 41s-44 60.333 -44 99c0 42 12.833 76.667 38.5 104s62.834 46 111.501 56l140 30c-2.66699 13.333 -10.334 25 -23.001 35s-28.334 15 -47.001 15
c-26 0 -50.667 -8.33301 -74 -25c-9.33301 -6.66699 -18 -15 -26 -25l-90 85c16 18 34 33.667 54 47c46.667 32 97 48 151 48c66.667 0 120.834 -19 162.501 -57s62.5 -84.333 62.5 -139v-304h-170zM315 205l0.000976562 15.001l-70 -15
c-12.667 -2.66699 -23.334 -8.33398 -32.001 -17.001s-13 -18 -13 -28c0 -26.667 15 -40 45 -40c20.667 0 37.5 7.33301 50.5 22s19.5 35.667 19.5 63zM90.001 545.001v40c0 41.333 9.66699 73.333 29 96s44.666 34 75.999 34c22 0 46 -7.5 72 -22.5s43.667 -22.5 53 -22.5
c23.333 0 35 15 35 45h105v-40c0 -41.333 -9.66699 -73.333 -29 -96s-44.666 -34 -75.999 -34c-22 0 -45.833 7.5 -71.5 22.5s-43.5 22.5 -53.5 22.5c-23.333 0 -35 -15 -35 -45h-105z" />
    <glyph glyph-name="adieresis" unicode="&#xe4;" horiz-adv-x="540" 
d="M315 0v65h-5c-10 -15.333 -20.333 -28 -31 -38c-27.333 -24.667 -60.333 -37 -99 -37c-44.667 0 -81.667 13.667 -111 41s-44 60.333 -44 99c0 42 12.833 76.667 38.5 104s62.834 46 111.501 56l140 30c-2.66699 13.333 -10.334 25 -23.001 35s-28.334 15 -47.001 15
c-26 0 -50.667 -8.33301 -74 -25c-9.33301 -6.66699 -18 -15 -26 -25l-90 85c16 18 34 33.667 54 47c46.667 32 97 48 151 48c66.667 0 120.834 -19 162.501 -57s62.5 -84.333 62.5 -139v-304h-170zM315 205l0.000976562 15.001l-70 -15
c-12.667 -2.66699 -23.334 -8.33398 -32.001 -17.001s-13 -18 -13 -28c0 -26.667 15 -40 45 -40c20.667 0 37.5 7.33301 50.5 22s19.5 35.667 19.5 63zM305.001 640.001c0 22.667 8.5 42.5 25.5 59.5s36.833 25.5 59.5 25.5s42.5 -8.5 59.5 -25.5s25.5 -36.833 25.5 -59.5
s-8.5 -42.5 -25.5 -59.5s-36.833 -25.5 -59.5 -25.5s-42.5 8.5 -59.5 25.5s-25.5 36.833 -25.5 59.5zM245.001 640.001c0 -22.667 -8.5 -42.5 -25.5 -59.5s-36.833 -25.5 -59.5 -25.5s-42.5 8.5 -59.5 25.5s-25.5 36.833 -25.5 59.5s8.5 42.5 25.5 59.5
s36.833 25.5 59.5 25.5s42.5 -8.5 59.5 -25.5s25.5 -36.833 25.5 -59.5z" />
    <glyph glyph-name="aring" unicode="&#xe5;" horiz-adv-x="540" 
d="M315 0v65h-5c-10 -15.333 -20.333 -28 -31 -38c-27.333 -24.667 -60.333 -37 -99 -37c-44.667 0 -81.667 13.667 -111 41s-44 60.333 -44 99c0 42 12.833 76.667 38.5 104s62.834 46 111.501 56l140 30c-2.66699 13.333 -10.334 25 -23.001 35s-28.334 15 -47.001 15
c-26 0 -50.667 -8.33301 -74 -25c-9.33301 -6.66699 -18 -15 -26 -25l-90 85c16 18 34 33.667 54 47c46.667 32 97 48 151 48c66.667 0 120.834 -19 162.501 -57s62.5 -84.333 62.5 -139v-304h-170zM315 205l0.000976562 15.001l-70 -15
c-12.667 -2.66699 -23.334 -8.33398 -32.001 -17.001s-13 -18 -13 -28c0 -26.667 15 -40 45 -40c20.667 0 37.5 7.33301 50.5 22s19.5 35.667 19.5 63zM235.001 645.001c0 -12 4 -21.667 12 -29s17.333 -11 28 -11s20 3.66699 28 11s12 17 12 29s-4 21.667 -12 29
s-17.333 11 -28 11s-20 -3.66699 -28 -11s-12 -17 -12 -29zM145.001 645.001c0 32.667 12.5 60.834 37.5 84.501s55.833 35.5 92.5 35.5s67.5 -11.833 92.5 -35.5s37.5 -51.834 37.5 -84.501s-12.5 -60.834 -37.5 -84.501s-55.833 -35.5 -92.5 -35.5
s-67.5 11.833 -92.5 35.5s-37.5 51.834 -37.5 84.501z" />
    <glyph glyph-name="ae" unicode="&#xe6;" horiz-adv-x="865" 
d="M145 320l-90.0029 84.998c16 18.667 33.333 34.334 52 47.001c46.667 32 94.334 48 143.001 48c44.667 0 85 -13.333 121 -40c15.333 -12.667 28.333 -26 39 -40c10.667 14 25.334 27.333 44.001 40c38.667 26.667 82.334 40 131.001 40
c70 0 129.167 -24.167 177.5 -72.5s72.5 -107.5 72.5 -177.5c0 -4 -1 -17 -3 -39l-2 -16h-335c2.66699 -17.333 14.167 -33.333 34.5 -48s45.5 -22 75.5 -22c30.667 0 60 7.33301 88 22c14.667 8.66699 25.334 16.334 32.001 23.001l65 -110
c-15.333 -13.333 -33 -25 -53 -35c-42.667 -23.333 -91.667 -35 -147 -35c-53.333 0 -100.333 15 -141 45c-18 13.333 -32.667 28.333 -44 45c-14 -18 -29.667 -33 -47 -45c-42 -30 -91.333 -45 -148 -45c-57.333 0 -102.5 13.5 -135.5 40.5s-49.5 60.167 -49.5 99.5
c0 42 12.833 76.667 38.5 104s62.834 46 111.501 56l140 30c-2.66699 13.333 -10.334 25 -23.001 35s-28.334 15 -47.001 15c-26 0 -50.667 -8.33301 -74 -25c-9.33301 -6.66699 -18 -15 -26 -25zM494.997 299.998h170c-6 18.667 -16.333 34.167 -31 46.5
s-32.667 18.5 -54 18.5s-39.333 -6.16699 -54 -18.5s-25 -27.833 -31 -46.5zM314.997 204.998l0.000976562 15.001l-70 -15c-12.667 -2.66699 -23.334 -8.33398 -32.001 -17.001s-13 -18 -13 -28c0 -26.667 15 -40 45 -40c20.667 0 37.5 7.5 50.5 22.5
s19.5 35.833 19.5 62.5z" />
    <glyph glyph-name="ccedilla" unicode="&#xe7;" horiz-adv-x="535" 
d="M160 -210l45 69.998c4.66699 -5.33301 11 -10.333 19 -15c14.667 -10 30 -15 46 -15c23.333 0 35 10 35 30s-11.667 30 -35 30c-1.33301 0 -6 -1 -14 -3l-6 -2l-35 35l35 75c-59.333 10 -110 38.5 -152 85.5s-63 101.833 -63 164.5c0 70.667 25.833 130.834 77.5 180.501
s115.834 74.5 192.501 74.5c59.333 0 112.333 -16.667 159 -50c21.333 -16 38.333 -32.667 51 -50l-100 -105c-8 10 -16.667 18.333 -26 25c-23.333 16.667 -48 25 -74 25c-30 0 -55 -9.66699 -75 -29s-30 -43 -30 -71s10 -51.667 30 -71s45 -29 75 -29
c27.333 0 52 8.33301 74 25c9.33301 6.66699 18 15 26 25l100 -105c-12.667 -16.667 -28 -32 -46 -46c-41.333 -32 -89.333 -50 -144 -54l-20 -35c18.667 -2.66699 37 -8.33398 55 -17.001c36.667 -20.667 55 -50 55 -88c0 -29.333 -12 -54.166 -36 -74.499
s-55.333 -30.5 -94 -30.5c-34 0 -65 7.33301 -93 22c-14.667 8.66699 -25.334 16.334 -32.001 23.001z" />
    <glyph glyph-name="egrave" unicode="&#xe8;" horiz-adv-x="580" 
d="M440 170l65 -110.002c-15.333 -13.333 -33 -25 -53 -35c-42.667 -23.333 -91.667 -35 -147 -35c-76.667 0 -140.834 24.833 -192.501 74.5s-77.5 109.834 -77.5 180.501c0 70 25.333 130 76 180s112 75 184 75s132.5 -24.167 181.5 -72.5s73.5 -107.5 73.5 -177.5
c0 -4 -1 -17 -3 -39l-2 -16h-335c2.66699 -17.333 14.167 -33.333 34.5 -48s45.5 -22 75.5 -22c30.667 0 60 7.33301 88 22c14.667 8.66699 25.334 16.334 32.001 23.001zM210 299.998h170c-6 18.667 -16.333 34.167 -31 46.5s-32.667 18.5 -54 18.5
s-39.333 -6.16699 -54 -18.5s-25 -27.833 -31 -46.5zM225 554.998l-120 160h180l85 -160h-145z" />
    <glyph glyph-name="eacute" unicode="&#xe9;" horiz-adv-x="580" 
d="M440 170l65 -110.002c-15.333 -13.333 -33 -25 -53 -35c-42.667 -23.333 -91.667 -35 -147 -35c-76.667 0 -140.834 24.833 -192.501 74.5s-77.5 109.834 -77.5 180.501c0 70 25.333 130 76 180s112 75 184 75s132.5 -24.167 181.5 -72.5s73.5 -107.5 73.5 -177.5
c0 -4 -1 -17 -3 -39l-2 -16h-335c2.66699 -17.333 14.167 -33.333 34.5 -48s45.5 -22 75.5 -22c30.667 0 60 7.33301 88 22c14.667 8.66699 25.334 16.334 32.001 23.001zM210 299.998h170c-6 18.667 -16.333 34.167 -31 46.5s-32.667 18.5 -54 18.5
s-39.333 -6.16699 -54 -18.5s-25 -27.833 -31 -46.5zM220 554.998l85 160h180l-120 -160h-145z" />
    <glyph glyph-name="ecircumflex" unicode="&#xea;" horiz-adv-x="580" 
d="M440 170l65 -110.002c-15.333 -13.333 -33 -25 -53 -35c-42.667 -23.333 -91.667 -35 -147 -35c-76.667 0 -140.834 24.833 -192.501 74.5s-77.5 109.834 -77.5 180.501c0 70 25.333 130 76 180s112 75 184 75s132.5 -24.167 181.5 -72.5s73.5 -107.5 73.5 -177.5
c0 -4 -1 -17 -3 -39l-2 -16h-335c2.66699 -17.333 14.167 -33.333 34.5 -48s45.5 -22 75.5 -22c30.667 0 60 7.33301 88 22c14.667 8.66699 25.334 16.334 32.001 23.001zM210 299.998h170c-6 18.667 -16.333 34.167 -31 46.5s-32.667 18.5 -54 18.5
s-39.333 -6.16699 -54 -18.5s-25 -27.833 -31 -46.5zM90 554.998l130 160h150l130 -160h-155l-50 70l-50 -70h-155z" />
    <glyph glyph-name="edieresis" unicode="&#xeb;" horiz-adv-x="580" 
d="M440 170l65 -110.002c-15.333 -13.333 -33 -25 -53 -35c-42.667 -23.333 -91.667 -35 -147 -35c-76.667 0 -140.834 24.833 -192.501 74.5s-77.5 109.834 -77.5 180.501c0 70 25.333 130 76 180s112 75 184 75s132.5 -24.167 181.5 -72.5s73.5 -107.5 73.5 -177.5
c0 -4 -1 -17 -3 -39l-2 -16h-335c2.66699 -17.333 14.167 -33.333 34.5 -48s45.5 -22 75.5 -22c30.667 0 60 7.33301 88 22c14.667 8.66699 25.334 16.334 32.001 23.001zM210 299.998h170c-6 18.667 -16.333 34.167 -31 46.5s-32.667 18.5 -54 18.5
s-39.333 -6.16699 -54 -18.5s-25 -27.833 -31 -46.5zM325 639.998c0 22.667 8.5 42.5 25.5 59.5s36.833 25.5 59.5 25.5s42.5 -8.5 59.5 -25.5s25.5 -36.833 25.5 -59.5s-8.5 -42.5 -25.5 -59.5s-36.833 -25.5 -59.5 -25.5s-42.5 8.5 -59.5 25.5s-25.5 36.833 -25.5 59.5z
M265 639.998c0 -22.667 -8.5 -42.5 -25.5 -59.5s-36.833 -25.5 -59.5 -25.5s-42.5 8.5 -59.5 25.5s-25.5 36.833 -25.5 59.5s8.5 42.5 25.5 59.5s36.833 25.5 59.5 25.5s42.5 -8.5 59.5 -25.5s25.5 -36.833 25.5 -59.5z" />
    <glyph glyph-name="igrave" unicode="&#xec;" horiz-adv-x="300" 
d="M65 0v490h170v-490h-170zM80 555l-120 160h180l85 -160h-145z" />
    <glyph glyph-name="iacute" unicode="&#xed;" horiz-adv-x="300" 
d="M65 0v490h170v-490h-170zM75 555l85 160h180l-120 -160h-145z" />
    <glyph glyph-name="icircumflex" unicode="&#xee;" horiz-adv-x="300" 
d="M65 0v490h170v-490h-170zM-55 555l130 160h150l130 -160h-155l-50 70l-50 -70h-155z" />
    <glyph glyph-name="idieresis" unicode="&#xef;" horiz-adv-x="300" 
d="M65 0v490h170v-490h-170zM180 640c0 22.667 8.5 42.5 25.5 59.5s36.833 25.5 59.5 25.5s42.5 -8.5 59.5 -25.5s25.5 -36.833 25.5 -59.5s-8.5 -42.5 -25.5 -59.5s-36.833 -25.5 -59.5 -25.5s-42.5 8.5 -59.5 25.5s-25.5 36.833 -25.5 59.5zM120 640
c0 -22.667 -8.5 -42.5 -25.5 -59.5s-36.833 -25.5 -59.5 -25.5s-42.5 8.5 -59.5 25.5s-25.5 36.833 -25.5 59.5s8.5 42.5 25.5 59.5s36.833 25.5 59.5 25.5s42.5 -8.5 59.5 -25.5s25.5 -36.833 25.5 -59.5z" />
    <glyph glyph-name="eth" unicode="&#xf0;" horiz-adv-x="615" 
d="M165 540l-39.999 45l100 45c-18.667 17.333 -44 36.333 -76 57c-17.333 10.667 -30.333 18.334 -39 23.001l130 60c8 -4.66699 20 -12.334 36 -23.001c36 -25.333 60.667 -44.333 74 -57l95 45l40 -45l-90 -40c120 -123.333 180 -251.666 180 -384.999
c0 -80 -25.833 -145.833 -77.5 -197.5s-117.5 -77.5 -197.5 -77.5c-78.667 0 -143.334 23.333 -194.001 70s-76 103.334 -76 170.001c0 66 24.5 122.5 73.5 169.5s109.5 70.5 181.5 70.5c20.667 0 44.667 -5 72 -15c6.66699 -2.66699 16 -7.33398 28 -14.001h5
c-15.333 33.333 -40.333 68.666 -75 105.999c-13.333 14 -28.333 28.333 -45 43zM300.001 135c25.333 0 47.5 9.5 66.5 28.5s28.5 41.167 28.5 66.5s-9.5 47.5 -28.5 66.5s-41.167 28.5 -66.5 28.5s-47.5 -9.5 -66.5 -28.5s-28.5 -41.167 -28.5 -66.5s9.5 -47.5 28.5 -66.5
s41.167 -28.5 66.5 -28.5z" />
    <glyph glyph-name="ntilde" unicode="&#xf1;" horiz-adv-x="605" 
d="M60 0v489.999h170v-70h5c7.33301 14 18 27.333 32 40c30.667 26.667 66.667 40 108 40c51.333 0 93.333 -18.333 126 -55s49 -86.667 49 -150v-295h-170v260c0 24.667 -6.5 44.167 -19.5 58.5s-29.833 21.5 -50.5 21.5c-23.333 0 -42.5 -8.16699 -57.5 -24.5
s-22.5 -38.166 -22.5 -65.499v-250h-170zM120 544.999v40c0 41.333 9.66699 73.333 29 96s44.666 34 75.999 34c22 0 46 -7.5 72 -22.5s43.667 -22.5 53 -22.5c23.333 0 35 15 35 45h105v-40c0 -41.333 -9.66699 -73.333 -29 -96s-44.666 -34 -75.999 -34
c-22 0 -45.833 7.5 -71.5 22.5s-43.5 22.5 -53.5 22.5c-23.333 0 -35 -15 -35 -45h-105z" />
    <glyph glyph-name="ograve" unicode="&#xf2;" 
d="M305 145c25.333 0 47.5 9.83301 66.5 29.5s28.5 43.167 28.5 70.5s-9.5 50.833 -28.5 70.5s-41.167 29.5 -66.5 29.5s-47.5 -9.83301 -66.5 -29.5s-28.5 -43.167 -28.5 -70.5s9.5 -50.833 28.5 -70.5s41.167 -29.5 66.5 -29.5zM35 245
c0 70.667 25.833 130.834 77.5 180.501s115.834 74.5 192.501 74.5s140.834 -24.833 192.501 -74.5s77.5 -109.834 77.5 -180.501s-25.833 -130.834 -77.5 -180.501s-115.834 -74.5 -192.501 -74.5s-140.834 24.833 -192.501 74.5s-77.5 109.834 -77.5 180.501zM235 555
l-120 160h180l85 -160h-145z" />
    <glyph glyph-name="oacute" unicode="&#xf3;" 
d="M305 145c25.333 0 47.5 9.83301 66.5 29.5s28.5 43.167 28.5 70.5s-9.5 50.833 -28.5 70.5s-41.167 29.5 -66.5 29.5s-47.5 -9.83301 -66.5 -29.5s-28.5 -43.167 -28.5 -70.5s9.5 -50.833 28.5 -70.5s41.167 -29.5 66.5 -29.5zM35 245
c0 70.667 25.833 130.834 77.5 180.501s115.834 74.5 192.501 74.5s140.834 -24.833 192.501 -74.5s77.5 -109.834 77.5 -180.501s-25.833 -130.834 -77.5 -180.501s-115.834 -74.5 -192.501 -74.5s-140.834 24.833 -192.501 74.5s-77.5 109.834 -77.5 180.501zM230 555
l85 160h180l-120 -160h-145z" />
    <glyph glyph-name="ocircumflex" unicode="&#xf4;" 
d="M305 145c25.333 0 47.5 9.83301 66.5 29.5s28.5 43.167 28.5 70.5s-9.5 50.833 -28.5 70.5s-41.167 29.5 -66.5 29.5s-47.5 -9.83301 -66.5 -29.5s-28.5 -43.167 -28.5 -70.5s9.5 -50.833 28.5 -70.5s41.167 -29.5 66.5 -29.5zM35 245
c0 70.667 25.833 130.834 77.5 180.501s115.834 74.5 192.501 74.5s140.834 -24.833 192.501 -74.5s77.5 -109.834 77.5 -180.501s-25.833 -130.834 -77.5 -180.501s-115.834 -74.5 -192.501 -74.5s-140.834 24.833 -192.501 74.5s-77.5 109.834 -77.5 180.501zM100 555
l130 160h150l130 -160h-155l-50 70l-50 -70h-155z" />
    <glyph glyph-name="otilde" unicode="&#xf5;" 
d="M305 145c25.333 0 47.5 9.83301 66.5 29.5s28.5 43.167 28.5 70.5s-9.5 50.833 -28.5 70.5s-41.167 29.5 -66.5 29.5s-47.5 -9.83301 -66.5 -29.5s-28.5 -43.167 -28.5 -70.5s9.5 -50.833 28.5 -70.5s41.167 -29.5 66.5 -29.5zM35 245
c0 70.667 25.833 130.834 77.5 180.501s115.834 74.5 192.501 74.5s140.834 -24.833 192.501 -74.5s77.5 -109.834 77.5 -180.501s-25.833 -130.834 -77.5 -180.501s-115.834 -74.5 -192.501 -74.5s-140.834 24.833 -192.501 74.5s-77.5 109.834 -77.5 180.501zM120 545v40
c0 41.333 9.66699 73.333 29 96s44.666 34 75.999 34c22 0 46 -7.5 72 -22.5s43.667 -22.5 53 -22.5c23.333 0 35 15 35 45h105v-40c0 -41.333 -9.66699 -73.333 -29 -96s-44.666 -34 -75.999 -34c-22 0 -45.833 7.5 -71.5 22.5s-43.5 22.5 -53.5 22.5
c-23.333 0 -35 -15 -35 -45h-105z" />
    <glyph glyph-name="odieresis" unicode="&#xf6;" 
d="M305 145c25.333 0 47.5 9.83301 66.5 29.5s28.5 43.167 28.5 70.5s-9.5 50.833 -28.5 70.5s-41.167 29.5 -66.5 29.5s-47.5 -9.83301 -66.5 -29.5s-28.5 -43.167 -28.5 -70.5s9.5 -50.833 28.5 -70.5s41.167 -29.5 66.5 -29.5zM35 245
c0 70.667 25.833 130.834 77.5 180.501s115.834 74.5 192.501 74.5s140.834 -24.833 192.501 -74.5s77.5 -109.834 77.5 -180.501s-25.833 -130.834 -77.5 -180.501s-115.834 -74.5 -192.501 -74.5s-140.834 24.833 -192.501 74.5s-77.5 109.834 -77.5 180.501zM335 640
c0 22.667 8.5 42.5 25.5 59.5s36.833 25.5 59.5 25.5s42.5 -8.5 59.5 -25.5s25.5 -36.833 25.5 -59.5s-8.5 -42.5 -25.5 -59.5s-36.833 -25.5 -59.5 -25.5s-42.5 8.5 -59.5 25.5s-25.5 36.833 -25.5 59.5zM275 640c0 -22.667 -8.5 -42.5 -25.5 -59.5
s-36.833 -25.5 -59.5 -25.5s-42.5 8.5 -59.5 25.5s-25.5 36.833 -25.5 59.5s8.5 42.5 25.5 59.5s36.833 25.5 59.5 25.5s42.5 -8.5 59.5 -25.5s25.5 -36.833 25.5 -59.5z" />
    <glyph glyph-name="divide" unicode="&#xf7;" horiz-adv-x="530" 
d="M40 230v130h450v-130h-450zM170 95c0 26 8.83301 47.5 26.5 64.5s40.5 25.5 68.5 25.5s50.833 -8.5 68.5 -25.5s26.5 -38.5 26.5 -64.5s-8.83301 -47.5 -26.5 -64.5s-40.5 -25.5 -68.5 -25.5s-50.833 8.5 -68.5 25.5s-26.5 38.5 -26.5 64.5zM170 495
c0 26 8.83301 47.5 26.5 64.5s40.5 25.5 68.5 25.5s50.833 -8.5 68.5 -25.5s26.5 -38.5 26.5 -64.5s-8.83301 -47.5 -26.5 -64.5s-40.5 -25.5 -68.5 -25.5s-50.833 8.5 -68.5 25.5s-26.5 38.5 -26.5 64.5z" />
    <glyph glyph-name="oslash" unicode="&#xf8;" 
d="M85 -15l-45 45l55 55c-10.667 10.667 -20.667 24.334 -30 41.001c-20 36 -30 75.667 -30 119c0 70.667 25.833 130.834 77.5 180.501s115.834 74.5 192.501 74.5c40 0 80 -8.33301 120 -25c14.667 -6 29.667 -14.333 45 -25l55 55l45 -45l-55 -55
c10.667 -10.667 20.667 -24.334 30 -41.001c20 -36 30 -75.667 30 -119c0 -70.667 -25.833 -130.834 -77.5 -180.501s-115.834 -74.5 -192.501 -74.5c-42.667 0 -82.667 8.33301 -120 25c-14.667 6 -29.667 14.333 -45 25zM394 285l-133.999 -130
c4 -2.66699 7.66699 -4.33398 11 -5.00098c8.66699 -3.33301 20 -5 34 -5c25.333 0 47.5 9.83301 66.5 29.5s28.5 43.167 28.5 70.5c0 6 -0.5 12.333 -1.5 19s-1.83301 11.834 -2.5 15.501s-1.33398 5.5 -2.00098 5.5zM216.001 205l133.999 130.001l-11 5
c-8.66699 3.33301 -20 5 -34 5c-25.333 0 -47.5 -9.83301 -66.5 -29.5s-28.5 -43.167 -28.5 -70.5c0 -6 0.5 -12.333 1.5 -19s1.83301 -11.834 2.5 -15.501s1.33398 -5.5 2.00098 -5.5z" />
    <glyph glyph-name="ugrave" unicode="&#xf9;" 
d="M60 195l0.000976562 295.001h170v-260c0 -24.667 6.5 -44.167 19.5 -58.5s29.833 -21.5 50.5 -21.5c23.333 0 42.5 8.16699 57.5 24.5s22.5 38.166 22.5 65.499v250h170v-490h-170v70h-5c-8.66699 -14 -19.667 -27.333 -33 -40c-30.667 -26.667 -66.334 -40 -107.001 -40
c-51.333 0 -93.333 18.167 -126 54.5s-49 86.5 -49 150.5zM235.001 555.001l-120 160h180l85 -160h-145z" />
    <glyph glyph-name="uacute" unicode="&#xfa;" 
d="M60 195l0.000976562 295.001h170v-260c0 -24.667 6.5 -44.167 19.5 -58.5s29.833 -21.5 50.5 -21.5c23.333 0 42.5 8.16699 57.5 24.5s22.5 38.166 22.5 65.499v250h170v-490h-170v70h-5c-8.66699 -14 -19.667 -27.333 -33 -40c-30.667 -26.667 -66.334 -40 -107.001 -40
c-51.333 0 -93.333 18.167 -126 54.5s-49 86.5 -49 150.5zM230.001 555.001l85 160h180l-120 -160h-145z" />
    <glyph glyph-name="ucircumflex" unicode="&#xfb;" 
d="M60 195l0.000976562 295.001h170v-260c0 -24.667 6.5 -44.167 19.5 -58.5s29.833 -21.5 50.5 -21.5c23.333 0 42.5 8.16699 57.5 24.5s22.5 38.166 22.5 65.499v250h170v-490h-170v70h-5c-8.66699 -14 -19.667 -27.333 -33 -40c-30.667 -26.667 -66.334 -40 -107.001 -40
c-51.333 0 -93.333 18.167 -126 54.5s-49 86.5 -49 150.5zM100.001 555.001l130 160h150l130 -160h-155l-50 70l-50 -70h-155z" />
    <glyph glyph-name="udieresis" unicode="&#xfc;" 
d="M60 195l0.000976562 295.001h170v-260c0 -24.667 6.5 -44.167 19.5 -58.5s29.833 -21.5 50.5 -21.5c23.333 0 42.5 8.16699 57.5 24.5s22.5 38.166 22.5 65.499v250h170v-490h-170v70h-5c-8.66699 -14 -19.667 -27.333 -33 -40c-30.667 -26.667 -66.334 -40 -107.001 -40
c-51.333 0 -93.333 18.167 -126 54.5s-49 86.5 -49 150.5zM335.001 640.001c0 22.667 8.5 42.5 25.5 59.5s36.833 25.5 59.5 25.5s42.5 -8.5 59.5 -25.5s25.5 -36.833 25.5 -59.5s-8.5 -42.5 -25.5 -59.5s-36.833 -25.5 -59.5 -25.5s-42.5 8.5 -59.5 25.5
s-25.5 36.833 -25.5 59.5zM275.001 640.001c0 -22.667 -8.5 -42.5 -25.5 -59.5s-36.833 -25.5 -59.5 -25.5s-42.5 8.5 -59.5 25.5s-25.5 36.833 -25.5 59.5s8.5 42.5 25.5 59.5s36.833 25.5 59.5 25.5s42.5 -8.5 59.5 -25.5s25.5 -36.833 25.5 -59.5z" />
    <glyph glyph-name="yacute" unicode="&#xfd;" horiz-adv-x="540" 
d="M45 -195v155c6 -2.66699 11.333 -4.33398 16 -5.00098c11.333 -3.33301 22.666 -5 33.999 -5c35.333 0 60.333 13.333 75 40l10 20l-180 480h185l83 -285h4l83 285h185l-195 -515c-26 -66.667 -54.667 -114.167 -86 -142.5s-72.666 -42.5 -123.999 -42.5
c-24 0 -45.333 2.33301 -64 7c-2.66699 0.666992 -7 1.83398 -13 3.50098s-10.333 3.16699 -13 4.5zM195 555l85 160h180l-120 -160h-145z" />
    <glyph glyph-name="thorn" unicode="&#xfe;" horiz-adv-x="635" 
d="M65 -210v909.998h170v-280h5c8.66699 14 19.667 27.333 33 40c30.667 26.667 68 40 112 40c59.333 0 110 -23.667 152 -71s63 -108.666 63 -183.999s-21 -136.666 -63 -183.999s-92.667 -71 -152 -71c-44 0 -81.333 13.333 -112 40c-13.333 12.667 -24.333 26 -33 40h-5
v-280h-170zM330 144.998c25.333 0 47.5 9.83301 66.5 29.5s28.5 43.167 28.5 70.5s-9.5 50.833 -28.5 70.5s-41.167 29.5 -66.5 29.5s-47.5 -9.83301 -66.5 -29.5s-28.5 -43.167 -28.5 -70.5s9.5 -50.833 28.5 -70.5s41.167 -29.5 66.5 -29.5z" />
    <glyph glyph-name="ydieresis" unicode="&#xff;" horiz-adv-x="540" 
d="M45 -195v155c6 -2.66699 11.333 -4.33398 16 -5.00098c11.333 -3.33301 22.666 -5 33.999 -5c35.333 0 60.333 13.333 75 40l10 20l-180 480h185l83 -285h4l83 285h185l-195 -515c-26 -66.667 -54.667 -114.167 -86 -142.5s-72.666 -42.5 -123.999 -42.5
c-24 0 -45.333 2.33301 -64 7c-2.66699 0.666992 -7 1.83398 -13 3.50098s-10.333 3.16699 -13 4.5zM300 640c0 22.667 8.5 42.5 25.5 59.5s36.833 25.5 59.5 25.5s42.5 -8.5 59.5 -25.5s25.5 -36.833 25.5 -59.5s-8.5 -42.5 -25.5 -59.5s-36.833 -25.5 -59.5 -25.5
s-42.5 8.5 -59.5 25.5s-25.5 36.833 -25.5 59.5zM240 640c0 -22.667 -8.5 -42.5 -25.5 -59.5s-36.833 -25.5 -59.5 -25.5s-42.5 8.5 -59.5 25.5s-25.5 36.833 -25.5 59.5s8.5 42.5 25.5 59.5s36.833 25.5 59.5 25.5s42.5 -8.5 59.5 -25.5s25.5 -36.833 25.5 -59.5z" />
    <glyph glyph-name="Amacron" unicode="&#x100;" horiz-adv-x="730" 
d="M300 305h130l-63 200h-4zM-5 0l265 700h210l265 -700h-205l-50 150h-230l-50 -150h-205zM205 800v130h320v-130h-320z" />
    <glyph glyph-name="amacron" unicode="&#x101;" horiz-adv-x="540" 
d="M315 0v65h-5c-10 -15.333 -20.333 -28 -31 -38c-27.333 -24.667 -60.333 -37 -99 -37c-44.667 0 -81.667 13.667 -111 41s-44 60.333 -44 99c0 42 12.833 76.667 38.5 104s62.834 46 111.501 56l140 30c-2.66699 13.333 -10.334 25 -23.001 35s-28.334 15 -47.001 15
c-26 0 -50.667 -8.33301 -74 -25c-9.33301 -6.66699 -18 -15 -26 -25l-90 85c16 18 34 33.667 54 47c46.667 32 97 48 151 48c66.667 0 120.834 -19 162.501 -57s62.5 -84.333 62.5 -139v-304h-170zM315 205l0.000976562 15.001l-70 -15
c-12.667 -2.66699 -23.334 -8.33398 -32.001 -17.001s-13 -18 -13 -28c0 -26.667 15 -40 45 -40c20.667 0 37.5 7.33301 50.5 22s19.5 35.667 19.5 63zM115.001 575.001v130h320v-130h-320z" />
    <glyph glyph-name="Abreve" unicode="&#x102;" horiz-adv-x="730" 
d="M300 305h130l-63 200h-4zM-5 0l265 700h210l265 -700h-205l-50 150h-230l-50 -150h-205zM195 940h120c0 -15.333 4.5 -27.5 13.5 -36.5s21.167 -13.5 36.5 -13.5s27.5 4.5 36.5 13.5s13.5 21.167 13.5 36.5h120c0 -45.333 -16 -83.333 -48 -114s-72.667 -46 -122 -46
s-90 15.333 -122 46s-48 68.667 -48 114z" />
    <glyph glyph-name="abreve" unicode="&#x103;" horiz-adv-x="540" 
d="M315 0v65h-5c-10 -15.333 -20.333 -28 -31 -38c-27.333 -24.667 -60.333 -37 -99 -37c-44.667 0 -81.667 13.667 -111 41s-44 60.333 -44 99c0 42 12.833 76.667 38.5 104s62.834 46 111.501 56l140 30c-2.66699 13.333 -10.334 25 -23.001 35s-28.334 15 -47.001 15
c-26 0 -50.667 -8.33301 -74 -25c-9.33301 -6.66699 -18 -15 -26 -25l-90 85c16 18 34 33.667 54 47c46.667 32 97 48 151 48c66.667 0 120.834 -19 162.501 -57s62.5 -84.333 62.5 -139v-304h-170zM315 205l0.000976562 15.001l-70 -15
c-12.667 -2.66699 -23.334 -8.33398 -32.001 -17.001s-13 -18 -13 -28c0 -26.667 15 -40 45 -40c20.667 0 37.5 7.33301 50.5 22s19.5 35.667 19.5 63zM105.001 715.001h120c0 -15.333 4.5 -27.5 13.5 -36.5s21.167 -13.5 36.5 -13.5s27.5 4.5 36.5 13.5
s13.5 21.167 13.5 36.5h120c0 -45.333 -16 -83.333 -48 -114s-72.667 -46 -122 -46s-90 15.333 -122 46s-48 68.667 -48 114z" />
    <glyph glyph-name="Aogonek" unicode="&#x104;" horiz-adv-x="730" 
d="M-5 0l265.002 699.999h210l265 -700h-135c-6 -9.33301 -11 -20 -15 -32c-10 -24 -15 -48.333 -15 -73c0 -26.667 13.333 -40 40 -40c14 0 26 2.33301 36 7l7 3.5c3.33301 1.66699 5.66602 3.16699 6.99902 4.5v-90c-6.66699 -4 -14.334 -7.33301 -23.001 -10
c-20 -6.66699 -42.333 -10 -67 -10c-34 0 -62.5 10.667 -85.5 32s-34.5 47.333 -34.5 78c0 32.667 13.333 64.334 40 95.001c10.667 12 24 23.667 40 35l-50 150h-230l-50 -150h-205zM300.002 304.999h130l-63 200h-4z" />
    <glyph glyph-name="aogonek" unicode="&#x105;" horiz-adv-x="540" 
d="M315 0l0.00195312 64.999h-5c-10 -15.333 -20.333 -28 -31 -38c-27.333 -24.667 -60.333 -37 -99 -37c-44.667 0 -81.667 13.667 -111 41s-44 60.333 -44 99c0 42 12.833 76.667 38.5 104s62.834 46 111.501 56l140 30c-2.66699 13.333 -10.334 25 -23.001 35
s-28.334 15 -47.001 15c-26 0 -50.667 -8.33301 -74 -25c-9.33301 -6.66699 -18 -15 -26 -25l-90 85c16 18 34 33.667 54 47c46.667 32 97 48 151 48c66.667 0 120.834 -19 162.501 -57s62.5 -84.333 62.5 -139v-304h-100c-6 -9.33301 -11 -20 -15 -32
c-10 -24 -15 -48.333 -15 -73c0 -26.667 13.333 -40 40 -40c14 0 26 2.33301 36 7l7 3.5c3.33301 1.66699 5.66602 3.16699 6.99902 4.5v-90c-6.66699 -4 -14.334 -7.33301 -23.001 -10c-20 -6.66699 -42.333 -10 -67 -10c-34 0 -62.5 10.667 -85.5 32
s-34.5 47.333 -34.5 78c0 32.667 13.333 64.334 40 95.001c10.667 12 24 23.667 40 35zM315.002 204.999l0.000976562 15.001l-70 -15c-12.667 -2.66699 -23.334 -8.33398 -32.001 -17.001s-13 -18 -13 -28c0 -26.667 15 -40 45 -40c20.667 0 37.5 7.33301 50.5 22
s19.5 35.667 19.5 63z" />
    <glyph glyph-name="Cacute" unicode="&#x106;" horiz-adv-x="755" 
d="M620 245l115.001 -129.998c-22.667 -26 -48.667 -48.667 -78 -68c-65.333 -44.667 -141 -67 -227 -67c-111.333 0 -204.166 35.833 -278.499 107.5s-111.5 159.167 -111.5 262.5s37.167 190.833 111.5 262.5s167.166 107.5 278.499 107.5c84 0 159 -22.667 225 -68
c29.333 -20.667 54.333 -43 75 -67l-115 -130c-15.333 16.667 -32.333 31.667 -51 45c-43.333 30 -88 45 -134 45c-54.667 0 -100.834 -18.833 -138.501 -56.5s-56.5 -83.834 -56.5 -138.501s18.833 -100.834 56.5 -138.501s83.834 -56.5 138.501 -56.5
c45.333 0 90.666 15 135.999 45c20 13.333 38 28.333 54 45zM330.001 780.002l85 160h180l-120 -160h-145z" />
    <glyph glyph-name="cacute" unicode="&#x107;" horiz-adv-x="535" 
d="M415 195l100 -105.002c-12.667 -17.333 -29.667 -34 -51 -50c-46.667 -33.333 -99.667 -50 -159 -50c-76.667 0 -140.834 24.833 -192.501 74.5s-77.5 109.834 -77.5 180.501s25.833 130.834 77.5 180.501s115.834 74.5 192.501 74.5c59.333 0 112.333 -16.667 159 -50
c21.333 -16 38.333 -32.667 51 -50l-100 -105c-8 10 -16.667 18.333 -26 25c-23.333 16.667 -48 25 -74 25c-30 0 -55 -9.66699 -75 -29s-30 -43 -30 -71s10 -51.667 30 -71s45 -29 75 -29c27.333 0 52 8.33301 74 25c9.33301 6.66699 18 15 26 25zM220 554.998l85 160h180
l-120 -160h-145z" />
    <glyph glyph-name="Ccircumflex" unicode="&#x108;" horiz-adv-x="755" 
d="M620 245l115.001 -129.998c-22.667 -26 -48.667 -48.667 -78 -68c-65.333 -44.667 -141 -67 -227 -67c-111.333 0 -204.166 35.833 -278.499 107.5s-111.5 159.167 -111.5 262.5s37.167 190.833 111.5 262.5s167.166 107.5 278.499 107.5c84 0 159 -22.667 225 -68
c29.333 -20.667 54.333 -43 75 -67l-115 -130c-15.333 16.667 -32.333 31.667 -51 45c-43.333 30 -88 45 -134 45c-54.667 0 -100.834 -18.833 -138.501 -56.5s-56.5 -83.834 -56.5 -138.501s18.833 -100.834 56.5 -138.501s83.834 -56.5 138.501 -56.5
c45.333 0 90.666 15 135.999 45c20 13.333 38 28.333 54 45zM205.001 780.002l130 160h150l130 -160h-155l-50 70l-50 -70h-155z" />
    <glyph glyph-name="ccircumflex" unicode="&#x109;" horiz-adv-x="535" 
d="M415 195l100 -105.002c-12.667 -17.333 -29.667 -34 -51 -50c-46.667 -33.333 -99.667 -50 -159 -50c-76.667 0 -140.834 24.833 -192.501 74.5s-77.5 109.834 -77.5 180.501s25.833 130.834 77.5 180.501s115.834 74.5 192.501 74.5c59.333 0 112.333 -16.667 159 -50
c21.333 -16 38.333 -32.667 51 -50l-100 -105c-8 10 -16.667 18.333 -26 25c-23.333 16.667 -48 25 -74 25c-30 0 -55 -9.66699 -75 -29s-30 -43 -30 -71s10 -51.667 30 -71s45 -29 75 -29c27.333 0 52 8.33301 74 25c9.33301 6.66699 18 15 26 25zM90 554.998l130 160h150
l130 -160h-155l-50 70l-50 -70h-155z" />
    <glyph glyph-name="Cdotaccent" unicode="&#x10a;" horiz-adv-x="755" 
d="M620 245l115.001 -129.998c-22.667 -26 -48.667 -48.667 -78 -68c-65.333 -44.667 -141 -67 -227 -67c-111.333 0 -204.166 35.833 -278.499 107.5s-111.5 159.167 -111.5 262.5s37.167 190.833 111.5 262.5s167.166 107.5 278.499 107.5c84 0 159 -22.667 225 -68
c29.333 -20.667 54.333 -43 75 -67l-115 -130c-15.333 16.667 -32.333 31.667 -51 45c-43.333 30 -88 45 -134 45c-54.667 0 -100.834 -18.833 -138.501 -56.5s-56.5 -83.834 -56.5 -138.501s18.833 -100.834 56.5 -138.501s83.834 -56.5 138.501 -56.5
c45.333 0 90.666 15 135.999 45c20 13.333 38 28.333 54 45zM315.001 860.002c0 26 8.83301 47.5 26.5 64.5s40.5 25.5 68.5 25.5s50.833 -8.5 68.5 -25.5s26.5 -38.5 26.5 -64.5s-8.83301 -47.5 -26.5 -64.5s-40.5 -25.5 -68.5 -25.5s-50.833 8.5 -68.5 25.5
s-26.5 38.5 -26.5 64.5z" />
    <glyph glyph-name="cdotaccent" unicode="&#x10b;" horiz-adv-x="535" 
d="M415 195l100 -105.002c-12.667 -17.333 -29.667 -34 -51 -50c-46.667 -33.333 -99.667 -50 -159 -50c-76.667 0 -140.834 24.833 -192.501 74.5s-77.5 109.834 -77.5 180.501s25.833 130.834 77.5 180.501s115.834 74.5 192.501 74.5c59.333 0 112.333 -16.667 159 -50
c21.333 -16 38.333 -32.667 51 -50l-100 -105c-8 10 -16.667 18.333 -26 25c-23.333 16.667 -48 25 -74 25c-30 0 -55 -9.66699 -75 -29s-30 -43 -30 -71s10 -51.667 30 -71s45 -29 75 -29c27.333 0 52 8.33301 74 25c9.33301 6.66699 18 15 26 25zM200 634.998
c0 26 8.83301 47.5 26.5 64.5s40.5 25.5 68.5 25.5s50.833 -8.5 68.5 -25.5s26.5 -38.5 26.5 -64.5s-8.83301 -47.5 -26.5 -64.5s-40.5 -25.5 -68.5 -25.5s-50.833 8.5 -68.5 25.5s-26.5 38.5 -26.5 64.5z" />
    <glyph glyph-name="Ccaron" unicode="&#x10c;" horiz-adv-x="755" 
d="M620 245l115.001 -129.998c-22.667 -26 -48.667 -48.667 -78 -68c-65.333 -44.667 -141 -67 -227 -67c-111.333 0 -204.166 35.833 -278.499 107.5s-111.5 159.167 -111.5 262.5s37.167 190.833 111.5 262.5s167.166 107.5 278.499 107.5c84 0 159 -22.667 225 -68
c29.333 -20.667 54.333 -43 75 -67l-115 -130c-15.333 16.667 -32.333 31.667 -51 45c-43.333 30 -88 45 -134 45c-54.667 0 -100.834 -18.833 -138.501 -56.5s-56.5 -83.834 -56.5 -138.501s18.833 -100.834 56.5 -138.501s83.834 -56.5 138.501 -56.5
c45.333 0 90.666 15 135.999 45c20 13.333 38 28.333 54 45zM335.001 780.002l-130 160h155l50 -70l50 70h155l-130 -160h-150z" />
    <glyph glyph-name="ccaron" unicode="&#x10d;" horiz-adv-x="535" 
d="M415 195l100 -105.002c-12.667 -17.333 -29.667 -34 -51 -50c-46.667 -33.333 -99.667 -50 -159 -50c-76.667 0 -140.834 24.833 -192.501 74.5s-77.5 109.834 -77.5 180.501s25.833 130.834 77.5 180.501s115.834 74.5 192.501 74.5c59.333 0 112.333 -16.667 159 -50
c21.333 -16 38.333 -32.667 51 -50l-100 -105c-8 10 -16.667 18.333 -26 25c-23.333 16.667 -48 25 -74 25c-30 0 -55 -9.66699 -75 -29s-30 -43 -30 -71s10 -51.667 30 -71s45 -29 75 -29c27.333 0 52 8.33301 74 25c9.33301 6.66699 18 15 26 25zM220 554.998l-130 160
h155l50 -70l50 70h155l-130 -160h-150z" />
    <glyph glyph-name="Dcaron" unicode="&#x10e;" horiz-adv-x="760" 
d="M80 0v700h260c110.667 0 201.667 -33.667 273 -101s107 -150.333 107 -249s-35.667 -181.667 -107 -249s-162.333 -101 -273 -101h-260zM270 170h70c54 0 98.333 17 133 51s52 77 52 129s-17.333 95 -52 129s-79 51 -133 51h-70v-360zM300 780l-130 160h155l50 -70l50 70
h155l-130 -160h-150z" />
    <glyph glyph-name="dcaron" unicode="&#x10f;" horiz-adv-x="730" 
d="M305 145c25.333 0 47.5 9.83301 66.5 29.5s28.5 43.167 28.5 70.5s-9.5 50.833 -28.5 70.5s-41.167 29.5 -66.5 29.5s-47.5 -9.83301 -66.5 -29.5s-28.5 -43.167 -28.5 -70.5s9.5 -50.833 28.5 -70.5s41.167 -29.5 66.5 -29.5zM400 0v70.002h-5
c-8.66699 -14 -19.667 -27.333 -33 -40c-30.667 -26.667 -68 -40 -112 -40c-59.333 0 -110 23.667 -152 71s-63 108.666 -63 183.999s21 136.666 63 183.999s92.667 71 152 71c44 0 81.333 -13.333 112 -40c13.333 -12.667 24.333 -26 33 -40h5v280h170v-700h-170z
M600 540.002l50 160h160l-75 -160h-135z" />
    <glyph glyph-name="Dcroat" unicode="&#x110;" horiz-adv-x="775" 
d="M95 0v315h-75v70h75v315h260c110.667 0 201.667 -33.667 273 -101s107 -150.333 107 -249s-35.667 -181.667 -107 -249s-162.333 -101 -273 -101h-260zM285 170h70c54 0 98.333 17 133 51s52 77 52 129s-17.333 95 -52 129s-79 51 -133 51h-70v-145h105v-70h-105v-145z
" />
    <glyph glyph-name="dslash" unicode="&#x111;" horiz-adv-x="630" 
d="M385 0v65.001h-5c-9.33301 -14.667 -20.333 -27.334 -33 -38.001c-30 -24.667 -67.333 -37 -112 -37c-56.667 0 -105 22 -145 66s-60 100.333 -60 169s20 125 60 169s88.333 66 145 66c44 0 81.333 -12.667 112 -38c12 -10 23 -22.333 33 -37h5v160h-95v65h95v90h170v-90
h75v-65h-75v-545h-170zM295 130.001c26 0 47.5 8.83301 64.5 26.5s25.5 40.5 25.5 68.5s-8.5 50.833 -25.5 68.5s-38.5 26.5 -64.5 26.5s-47.5 -8.83301 -64.5 -26.5s-25.5 -40.5 -25.5 -68.5s8.5 -50.833 25.5 -68.5s38.5 -26.5 64.5 -26.5z" />
    <glyph glyph-name="Emacron" unicode="&#x112;" horiz-adv-x="665" 
d="M80 0v700h535v-170h-345v-100h265v-160h-265v-100h355v-170h-545zM185 800v130h320v-130h-320z" />
    <glyph glyph-name="emacron" unicode="&#x113;" horiz-adv-x="580" 
d="M440 170l65 -110.002c-15.333 -13.333 -33 -25 -53 -35c-42.667 -23.333 -91.667 -35 -147 -35c-76.667 0 -140.834 24.833 -192.501 74.5s-77.5 109.834 -77.5 180.501c0 70 25.333 130 76 180s112 75 184 75s132.5 -24.167 181.5 -72.5s73.5 -107.5 73.5 -177.5
c0 -4 -1 -17 -3 -39l-2 -16h-335c2.66699 -17.333 14.167 -33.333 34.5 -48s45.5 -22 75.5 -22c30.667 0 60 7.33301 88 22c14.667 8.66699 25.334 16.334 32.001 23.001zM210 299.998h170c-6 18.667 -16.333 34.167 -31 46.5s-32.667 18.5 -54 18.5
s-39.333 -6.16699 -54 -18.5s-25 -27.833 -31 -46.5zM135 574.998v130h320v-130h-320z" />
    <glyph glyph-name="Ebreve" unicode="&#x114;" horiz-adv-x="665" 
d="M80 0v700h535v-170h-345v-100h265v-160h-265v-100h355v-170h-545zM175 940h120c0 -15.333 4.5 -27.5 13.5 -36.5s21.167 -13.5 36.5 -13.5s27.5 4.5 36.5 13.5s13.5 21.167 13.5 36.5h120c0 -45.333 -16 -83.333 -48 -114s-72.667 -46 -122 -46s-90 15.333 -122 46
s-48 68.667 -48 114z" />
    <glyph glyph-name="ebreve" unicode="&#x115;" horiz-adv-x="580" 
d="M440 170l65 -110.002c-15.333 -13.333 -33 -25 -53 -35c-42.667 -23.333 -91.667 -35 -147 -35c-76.667 0 -140.834 24.833 -192.501 74.5s-77.5 109.834 -77.5 180.501c0 70 25.333 130 76 180s112 75 184 75s132.5 -24.167 181.5 -72.5s73.5 -107.5 73.5 -177.5
c0 -4 -1 -17 -3 -39l-2 -16h-335c2.66699 -17.333 14.167 -33.333 34.5 -48s45.5 -22 75.5 -22c30.667 0 60 7.33301 88 22c14.667 8.66699 25.334 16.334 32.001 23.001zM210 299.998h170c-6 18.667 -16.333 34.167 -31 46.5s-32.667 18.5 -54 18.5
s-39.333 -6.16699 -54 -18.5s-25 -27.833 -31 -46.5zM125 714.998h120c0 -15.333 4.5 -27.5 13.5 -36.5s21.167 -13.5 36.5 -13.5s27.5 4.5 36.5 13.5s13.5 21.167 13.5 36.5h120c0 -45.333 -16 -83.333 -48 -114s-72.667 -46 -122 -46s-90 15.333 -122 46
s-48 68.667 -48 114z" />
    <glyph glyph-name="Edotaccent" unicode="&#x116;" horiz-adv-x="665" 
d="M80 0v700h535v-170h-345v-100h265v-160h-265v-100h355v-170h-545zM250 860c0 26 8.83301 47.5 26.5 64.5s40.5 25.5 68.5 25.5s50.833 -8.5 68.5 -25.5s26.5 -38.5 26.5 -64.5s-8.83301 -47.5 -26.5 -64.5s-40.5 -25.5 -68.5 -25.5s-50.833 8.5 -68.5 25.5
s-26.5 38.5 -26.5 64.5z" />
    <glyph glyph-name="edotaccent" unicode="&#x117;" horiz-adv-x="580" 
d="M440 170l65 -110.002c-15.333 -13.333 -33 -25 -53 -35c-42.667 -23.333 -91.667 -35 -147 -35c-76.667 0 -140.834 24.833 -192.501 74.5s-77.5 109.834 -77.5 180.501c0 70 25.333 130 76 180s112 75 184 75s132.5 -24.167 181.5 -72.5s73.5 -107.5 73.5 -177.5
c0 -4 -1 -17 -3 -39l-2 -16h-335c2.66699 -17.333 14.167 -33.333 34.5 -48s45.5 -22 75.5 -22c30.667 0 60 7.33301 88 22c14.667 8.66699 25.334 16.334 32.001 23.001zM210 299.998h170c-6 18.667 -16.333 34.167 -31 46.5s-32.667 18.5 -54 18.5
s-39.333 -6.16699 -54 -18.5s-25 -27.833 -31 -46.5zM200 634.998c0 26 8.83301 47.5 26.5 64.5s40.5 25.5 68.5 25.5s50.833 -8.5 68.5 -25.5s26.5 -38.5 26.5 -64.5s-8.83301 -47.5 -26.5 -64.5s-40.5 -25.5 -68.5 -25.5s-50.833 8.5 -68.5 25.5s-26.5 38.5 -26.5 64.5z
" />
    <glyph glyph-name="Eogonek" unicode="&#x118;" horiz-adv-x="665" 
d="M80 0l0.00195312 699.999h535v-170h-345v-100h265v-160h-265v-100h355v-170c-6 -9.33301 -11 -20 -15 -32c-10 -24 -15 -48.333 -15 -73c0 -26.667 13.333 -40 40 -40c14 0 26 2.33301 36 7l7 3.5c3.33301 1.66699 5.66602 3.16699 6.99902 4.5v-90
c-6.66699 -4 -14.334 -7.33301 -23.001 -10c-20 -6.66699 -42.333 -10 -67 -10c-34 0 -62.5 10.667 -85.5 32s-34.5 47.333 -34.5 78c0 32.667 13.333 64.334 40 95.001c10.667 12 24 23.667 40 35h-475z" />
    <glyph glyph-name="eogonek" unicode="&#x119;" horiz-adv-x="580" 
d="M415 -130l0.000976562 -90c-6.66699 -4 -14.334 -7.33301 -23.001 -10c-20 -6.66699 -42.333 -10 -67 -10c-34 0 -62.5 10.667 -85.5 32s-34.5 47.333 -34.5 78c0 29.333 10.667 58 32 86c8 11.333 19 22.666 33 33.999c-64.667 8 -120 36 -166 84s-69 105 -69 171
c0 70 25.333 130 76 180s112 75 184 75s132.5 -24.167 181.5 -72.5s73.5 -107.5 73.5 -177.5c0 -4 -1 -17 -3 -39l-2 -16h-335c2.66699 -17.333 14.167 -33.333 34.5 -48s45.5 -22 75.5 -22c30.667 0 60 7.33301 88 22c14.667 8.66699 25.334 16.334 32.001 23.001l65 -110
c-10 -9.33301 -24 -19 -42 -29c-35.333 -20 -73 -32 -113 -36c-6.66699 -12 -11 -21.667 -13 -29c-8 -22 -12 -45.667 -12 -71c0 -26.667 13.333 -40 40 -40c14 0 26 2.33301 36 7l7 3.5c3.33301 1.66699 5.66602 3.16699 6.99902 4.5zM210.001 300h170
c-6 18.667 -16.333 34.167 -31 46.5s-32.667 18.5 -54 18.5s-39.333 -6.16699 -54 -18.5s-25 -27.833 -31 -46.5z" />
    <glyph glyph-name="Ecaron" unicode="&#x11a;" horiz-adv-x="665" 
d="M80 0v700h535v-170h-345v-100h265v-160h-265v-100h355v-170h-545zM270 780l-130 160h155l50 -70l50 70h155l-130 -160h-150z" />
    <glyph glyph-name="ecaron" unicode="&#x11b;" horiz-adv-x="580" 
d="M440 170l65 -110.002c-15.333 -13.333 -33 -25 -53 -35c-42.667 -23.333 -91.667 -35 -147 -35c-76.667 0 -140.834 24.833 -192.501 74.5s-77.5 109.834 -77.5 180.501c0 70 25.333 130 76 180s112 75 184 75s132.5 -24.167 181.5 -72.5s73.5 -107.5 73.5 -177.5
c0 -4 -1 -17 -3 -39l-2 -16h-335c2.66699 -17.333 14.167 -33.333 34.5 -48s45.5 -22 75.5 -22c30.667 0 60 7.33301 88 22c14.667 8.66699 25.334 16.334 32.001 23.001zM210 299.998h170c-6 18.667 -16.333 34.167 -31 46.5s-32.667 18.5 -54 18.5
s-39.333 -6.16699 -54 -18.5s-25 -27.833 -31 -46.5zM220 554.998l-130 160h155l50 -70l50 70h155l-130 -160h-150z" />
    <glyph glyph-name="Gcircumflex" unicode="&#x11c;" horiz-adv-x="795" 
d="M440 250l-0.000976562 140.001h300v-270c-20.667 -25.333 -46.667 -48.666 -78 -69.999c-69.333 -46.667 -146.666 -70 -231.999 -70c-111.333 0 -204.166 35.833 -278.499 107.5s-111.5 159.167 -111.5 262.5s37.167 190.833 111.5 262.5s167.166 107.5 278.499 107.5
c84 0 159 -22.667 225 -68c29.333 -20.667 54.333 -43 75 -67l-115 -130c-15.333 16.667 -32.333 31.667 -51 45c-43.333 30 -88 45 -134 45c-54.667 0 -100.834 -18.833 -138.501 -56.5s-56.5 -83.834 -56.5 -138.501s18.833 -100.834 56.5 -138.501
s83.834 -56.5 138.501 -56.5c36 0 66.667 6.66699 92 20c10.667 5.33301 21.667 12 33 20v55h-115zM209.999 780.001l130 160h150l130 -160h-155l-50 70l-50 -70h-155z" />
    <glyph glyph-name="gcircumflex" unicode="&#x11d;" horiz-adv-x="620" 
d="M210 260c0 -25.333 8.66699 -46.666 26 -63.999s38.666 -26 63.999 -26s46.666 8.66699 63.999 26s26 38.666 26 63.999s-8.66699 46.666 -26 63.999s-38.666 26 -63.999 26s-46.666 -8.66699 -63.999 -26s-26 -38.666 -26 -63.999zM50 -110l100 104.998
c7.33301 -10.667 17.333 -20 30 -28c24 -18 54 -27 90 -27c35.333 0 64.166 11 86.499 33s33.5 49.333 33.5 82v45h-5c-8.66699 -14 -19.667 -27.333 -33 -40c-30.667 -26.667 -68 -40 -112 -40c-56.667 0 -105 22.333 -145 67s-60 102.334 -60 173.001
s20 128.334 60 173.001s88.333 67 145 67c44 0 81.333 -13.333 112 -40c13.333 -12.667 24.333 -26 33 -40h5v70h170v-435c0 -73.333 -27 -135.833 -81 -187.5s-120.333 -77.5 -199 -77.5c-67.333 0 -125.666 16.667 -174.999 50c-22.667 15.333 -41 32 -55 50zM105 554.998
l130 160h150l130 -160h-155l-50 70l-50 -70h-155z" />
    <glyph glyph-name="Gbreve" unicode="&#x11e;" horiz-adv-x="795" 
d="M440 250l-0.000976562 140.001h300v-270c-20.667 -25.333 -46.667 -48.666 -78 -69.999c-69.333 -46.667 -146.666 -70 -231.999 -70c-111.333 0 -204.166 35.833 -278.499 107.5s-111.5 159.167 -111.5 262.5s37.167 190.833 111.5 262.5s167.166 107.5 278.499 107.5
c84 0 159 -22.667 225 -68c29.333 -20.667 54.333 -43 75 -67l-115 -130c-15.333 16.667 -32.333 31.667 -51 45c-43.333 30 -88 45 -134 45c-54.667 0 -100.834 -18.833 -138.501 -56.5s-56.5 -83.834 -56.5 -138.501s18.833 -100.834 56.5 -138.501
s83.834 -56.5 138.501 -56.5c36 0 66.667 6.66699 92 20c10.667 5.33301 21.667 12 33 20v55h-115zM244.999 940.001h120c0 -15.333 4.5 -27.5 13.5 -36.5s21.167 -13.5 36.5 -13.5s27.5 4.5 36.5 13.5s13.5 21.167 13.5 36.5h120c0 -45.333 -16 -83.333 -48 -114
s-72.667 -46 -122 -46s-90 15.333 -122 46s-48 68.667 -48 114z" />
    <glyph glyph-name="gbreve" unicode="&#x11f;" horiz-adv-x="620" 
d="M210 260c0 -25.333 8.66699 -46.666 26 -63.999s38.666 -26 63.999 -26s46.666 8.66699 63.999 26s26 38.666 26 63.999s-8.66699 46.666 -26 63.999s-38.666 26 -63.999 26s-46.666 -8.66699 -63.999 -26s-26 -38.666 -26 -63.999zM50 -110l100 104.998
c7.33301 -10.667 17.333 -20 30 -28c24 -18 54 -27 90 -27c35.333 0 64.166 11 86.499 33s33.5 49.333 33.5 82v45h-5c-8.66699 -14 -19.667 -27.333 -33 -40c-30.667 -26.667 -68 -40 -112 -40c-56.667 0 -105 22.333 -145 67s-60 102.334 -60 173.001
s20 128.334 60 173.001s88.333 67 145 67c44 0 81.333 -13.333 112 -40c13.333 -12.667 24.333 -26 33 -40h5v70h170v-435c0 -73.333 -27 -135.833 -81 -187.5s-120.333 -77.5 -199 -77.5c-67.333 0 -125.666 16.667 -174.999 50c-22.667 15.333 -41 32 -55 50zM140 714.998
h120c0 -15.333 4.5 -27.5 13.5 -36.5s21.167 -13.5 36.5 -13.5s27.5 4.5 36.5 13.5s13.5 21.167 13.5 36.5h120c0 -45.333 -16 -83.333 -48 -114s-72.667 -46 -122 -46s-90 15.333 -122 46s-48 68.667 -48 114z" />
    <glyph glyph-name="Gdotaccent" unicode="&#x120;" horiz-adv-x="795" 
d="M440 250l-0.000976562 140.001h300v-270c-20.667 -25.333 -46.667 -48.666 -78 -69.999c-69.333 -46.667 -146.666 -70 -231.999 -70c-111.333 0 -204.166 35.833 -278.499 107.5s-111.5 159.167 -111.5 262.5s37.167 190.833 111.5 262.5s167.166 107.5 278.499 107.5
c84 0 159 -22.667 225 -68c29.333 -20.667 54.333 -43 75 -67l-115 -130c-15.333 16.667 -32.333 31.667 -51 45c-43.333 30 -88 45 -134 45c-54.667 0 -100.834 -18.833 -138.501 -56.5s-56.5 -83.834 -56.5 -138.501s18.833 -100.834 56.5 -138.501
s83.834 -56.5 138.501 -56.5c36 0 66.667 6.66699 92 20c10.667 5.33301 21.667 12 33 20v55h-115zM319.999 860.001c0 26 8.83301 47.5 26.5 64.5s40.5 25.5 68.5 25.5s50.833 -8.5 68.5 -25.5s26.5 -38.5 26.5 -64.5s-8.83301 -47.5 -26.5 -64.5s-40.5 -25.5 -68.5 -25.5
s-50.833 8.5 -68.5 25.5s-26.5 38.5 -26.5 64.5z" />
    <glyph glyph-name="gdotaccent" unicode="&#x121;" horiz-adv-x="620" 
d="M210 260c0 -25.333 8.66699 -46.666 26 -63.999s38.666 -26 63.999 -26s46.666 8.66699 63.999 26s26 38.666 26 63.999s-8.66699 46.666 -26 63.999s-38.666 26 -63.999 26s-46.666 -8.66699 -63.999 -26s-26 -38.666 -26 -63.999zM50 -110l100 104.998
c7.33301 -10.667 17.333 -20 30 -28c24 -18 54 -27 90 -27c35.333 0 64.166 11 86.499 33s33.5 49.333 33.5 82v45h-5c-8.66699 -14 -19.667 -27.333 -33 -40c-30.667 -26.667 -68 -40 -112 -40c-56.667 0 -105 22.333 -145 67s-60 102.334 -60 173.001
s20 128.334 60 173.001s88.333 67 145 67c44 0 81.333 -13.333 112 -40c13.333 -12.667 24.333 -26 33 -40h5v70h170v-435c0 -73.333 -27 -135.833 -81 -187.5s-120.333 -77.5 -199 -77.5c-67.333 0 -125.666 16.667 -174.999 50c-22.667 15.333 -41 32 -55 50zM215 634.998
c0 26 8.83301 47.5 26.5 64.5s40.5 25.5 68.5 25.5s50.833 -8.5 68.5 -25.5s26.5 -38.5 26.5 -64.5s-8.83301 -47.5 -26.5 -64.5s-40.5 -25.5 -68.5 -25.5s-50.833 8.5 -68.5 25.5s-26.5 38.5 -26.5 64.5z" />
    <glyph glyph-name="Gcommaaccent" unicode="&#x122;" horiz-adv-x="795" 
d="M440 250l-0.000976562 140.001h300v-270c-20.667 -25.333 -46.667 -48.666 -78 -69.999c-69.333 -46.667 -146.666 -70 -231.999 -70c-111.333 0 -204.166 35.833 -278.499 107.5s-111.5 159.167 -111.5 262.5s37.167 190.833 111.5 262.5s167.166 107.5 278.499 107.5
c84 0 159 -22.667 225 -68c29.333 -20.667 54.333 -43 75 -67l-115 -130c-15.333 16.667 -32.333 31.667 -51 45c-43.333 30 -88 45 -134 45c-54.667 0 -100.834 -18.833 -138.501 -56.5s-56.5 -83.834 -56.5 -138.501s18.833 -100.834 56.5 -138.501
s83.834 -56.5 138.501 -56.5c36 0 66.667 6.66699 92 20c10.667 5.33301 21.667 12 33 20v55h-115zM289.999 -239.999l50 160h160l-75 -160h-135z" />
    <glyph glyph-name="gcommaaccent" unicode="&#x123;" horiz-adv-x="620" 
d="M225 555l75 160h135l-50 -160h-160zM210 260c0 -25.333 8.66699 -46.666 26 -63.999s38.666 -26 63.999 -26s46.666 8.66699 63.999 26s26 38.666 26 63.999s-8.66699 46.666 -26 63.999s-38.666 26 -63.999 26s-46.666 -8.66699 -63.999 -26s-26 -38.666 -26 -63.999z
M50 -110l100 104.998c7.33301 -10.667 17.333 -20 30 -28c24 -18 54 -27 90 -27c35.333 0 64.166 11 86.499 33s33.5 49.333 33.5 82v45h-5c-8.66699 -14 -19.667 -27.333 -33 -40c-30.667 -26.667 -68 -40 -112 -40c-56.667 0 -105 22.333 -145 67s-60 102.334 -60 173.001
s20 128.334 60 173.001s88.333 67 145 67c44 0 81.333 -13.333 112 -40c13.333 -12.667 24.333 -26 33 -40h5v70h170v-435c0 -73.333 -27 -135.833 -81 -187.5s-120.333 -77.5 -199 -77.5c-67.333 0 -125.666 16.667 -174.999 50c-22.667 15.333 -41 32 -55 50z" />
    <glyph glyph-name="Hcircumflex" unicode="&#x124;" horiz-adv-x="795" 
d="M80 0v700h190v-255h255v255h190v-700h-190v265h-255v-265h-190zM190 780l130 160h150l130 -160h-155l-50 70l-50 -70h-155z" />
    <glyph glyph-name="hcircumflex" unicode="&#x125;" 
d="M65 0v699.999h170v-280h5c7.33301 14 18 27.333 32 40c30.667 26.667 66.667 40 108 40c51.333 0 93.333 -18.333 126 -55s49 -86.667 49 -150v-295h-170v260c0 24.667 -6.5 44.167 -19.5 58.5s-29.833 21.5 -50.5 21.5c-23.333 0 -42.5 -8.16699 -57.5 -24.5
s-22.5 -38.166 -22.5 -65.499v-250h-170zM105 779.999l130 160h150l130 -160h-155l-50 70l-50 -70h-155z" />
    <glyph glyph-name="Hbar" unicode="&#x126;" horiz-adv-x="795" 
d="M95 0v530h-75v60h75v110h190v-110h235v110h190v-110h75v-60h-75v-530h-190v265h-235v-265h-190zM285 445h235v85h-235v-85z" />
    <glyph glyph-name="hbar" unicode="&#x127;" horiz-adv-x="630" 
d="M85 0v544.999h-75v65h75v90h170v-90h105v-65h-105v-145h5c7.33301 14 18 27.333 32 40c30.667 26.667 66.667 40 108 40c51.333 0 93.333 -18.333 126 -55s49 -86.667 49 -150v-275h-170v240c0 24.667 -6.5 44.167 -19.5 58.5s-29.833 21.5 -50.5 21.5
c-23.333 0 -42.5 -8.16699 -57.5 -24.5s-22.5 -38.166 -22.5 -65.499v-230h-170z" />
    <glyph glyph-name="Imacron" unicode="&#x12a;" horiz-adv-x="350" 
d="M80 0v700h190v-700h-190zM15 800v130h320v-130h-320z" />
    <glyph glyph-name="imacron" unicode="&#x12b;" horiz-adv-x="300" 
d="M65 0v490h170v-490h-170zM-10 575v130h320v-130h-320z" />
    <glyph glyph-name="Ibreve" unicode="&#x12c;" horiz-adv-x="350" 
d="M80 0v700h190v-700h-190zM5 940h120c0 -15.333 4.5 -27.5 13.5 -36.5s21.167 -13.5 36.5 -13.5s27.5 4.5 36.5 13.5s13.5 21.167 13.5 36.5h120c0 -45.333 -16 -83.333 -48 -114s-72.667 -46 -122 -46s-90 15.333 -122 46s-48 68.667 -48 114z" />
    <glyph glyph-name="ibreve" unicode="&#x12d;" horiz-adv-x="300" 
d="M65 0v490h170v-490h-170zM-20 715h120c0 -15.333 4.5 -27.5 13.5 -36.5s21.167 -13.5 36.5 -13.5s27.5 4.5 36.5 13.5s13.5 21.167 13.5 36.5h120c0 -45.333 -16 -83.333 -48 -114s-72.667 -46 -122 -46s-90 15.333 -122 46s-48 68.667 -48 114z" />
    <glyph glyph-name="Iogonek" unicode="&#x12e;" horiz-adv-x="350" 
d="M80 0l0.00195312 699.999h190v-700h-120c-6 -9.33301 -11 -20 -15 -32c-10 -24 -15 -48.333 -15 -73c0 -26.667 13.333 -40 40 -40c14 0 26 2.33301 36 7l7 3.5c3.33301 1.66699 5.66602 3.16699 6.99902 4.5v-90c-6.66699 -4 -14.334 -7.33301 -23.001 -10
c-20 -6.66699 -42.333 -10 -67 -10c-34 0 -62.5 10.667 -85.5 32s-34.5 47.333 -34.5 78c-0 32.667 13.333 64.334 40 95.001c10.667 12 24 23.667 40 35z" />
    <glyph glyph-name="iogonek" unicode="&#x12f;" horiz-adv-x="300" 
d="M65 0l0.00195312 489.999h170v-490h-100c-6 -9.33301 -11 -20 -15 -32c-10 -24 -15 -48.333 -15 -73c0 -26.667 13.333 -40 40 -40c14 0 26 2.33301 36 7l7 3.5c3.33301 1.66699 5.66602 3.16699 6.99902 4.5v-90c-6.66699 -4 -14.334 -7.33301 -23.001 -10
c-20 -6.66699 -42.333 -10 -67 -10c-34 0 -62.5 10.667 -85.5 32s-34.5 47.333 -34.5 78c0 32.667 13.333 64.334 40 95.001c10.667 12 24 23.667 40 35zM55.002 629.999c0 26 8.83301 47.5 26.5 64.5s40.5 25.5 68.5 25.5s50.833 -8.5 68.5 -25.5s26.5 -38.5 26.5 -64.5
s-8.83301 -47.5 -26.5 -64.5s-40.5 -25.5 -68.5 -25.5s-50.833 8.5 -68.5 25.5s-26.5 38.5 -26.5 64.5z" />
    <glyph glyph-name="Idot" unicode="&#x130;" horiz-adv-x="350" 
d="M80 0v700h190v-700h-190zM80 860c0 26 8.83301 47.5 26.5 64.5s40.5 25.5 68.5 25.5s50.833 -8.5 68.5 -25.5s26.5 -38.5 26.5 -64.5s-8.83301 -47.5 -26.5 -64.5s-40.5 -25.5 -68.5 -25.5s-50.833 8.5 -68.5 25.5s-26.5 38.5 -26.5 64.5z" />
    <glyph glyph-name="dotlessi" unicode="&#x131;" horiz-adv-x="300" 
d="M65 0v490h170v-490h-170z" />
    <glyph glyph-name="uni0132" unicode="&#x132;" horiz-adv-x="835" 
d="M80 0v700h190v-700h-190zM290 70l119.999 125.001c4.66699 -6.66699 11 -13.334 19 -20.001c14.667 -13.333 33.334 -20 56.001 -20c25.333 0 45.833 7.83301 61.5 23.5s23.5 36.167 23.5 61.5v460h190v-460c0 -77.333 -24 -140 -72 -188s-110.667 -72 -188 -72
c-60.667 0 -113.667 15 -159 45c-20 12.667 -37 27.667 -51 45z" />
    <glyph glyph-name="uni0133" unicode="&#x133;" horiz-adv-x="585" 
d="M65 0v490h170v-490h-170zM55 630c0 26 8.83301 47.5 26.5 64.5s40.5 25.5 68.5 25.5s50.833 -8.5 68.5 -25.5s26.5 -38.5 26.5 -64.5s-8.83301 -47.5 -26.5 -64.5s-40.5 -25.5 -68.5 -25.5s-50.833 8.5 -68.5 25.5s-26.5 38.5 -26.5 64.5zM245 -195l0.000976562 155.001
c6 -2.66699 11.333 -4.33398 16 -5.00098c11.333 -3.33301 22.666 -5 33.999 -5c36.667 0 55 20 55 60v480h170v-510c0 -59.333 -15.833 -105.833 -47.5 -139.5s-74.167 -50.5 -127.5 -50.5c-25.333 0 -49 2.33301 -71 7zM340.001 630.001c0 26 8.83301 47.5 26.5 64.5
s40.5 25.5 68.5 25.5s50.833 -8.5 68.5 -25.5s26.5 -38.5 26.5 -64.5s-8.83301 -47.5 -26.5 -64.5s-40.5 -25.5 -68.5 -25.5s-50.833 8.5 -68.5 25.5s-26.5 38.5 -26.5 64.5z" />
    <glyph glyph-name="Jcircumflex" unicode="&#x134;" horiz-adv-x="535" 
d="M-10 70l119.999 125.001c4.66699 -6.66699 11 -13.334 19 -20.001c14.667 -13.333 33.334 -20 56.001 -20c25.333 0 45.833 7.83301 61.5 23.5s23.5 36.167 23.5 61.5v460h190v-460c0 -77.333 -24 -140 -72 -188s-110.667 -72 -188 -72c-60.667 0 -113.667 15 -159 45
c-20 12.667 -37 27.667 -51 45zM159.999 780.001l130 160h150l130 -160h-155l-50 70l-50 -70h-155z" />
    <glyph glyph-name="jcircumflex" unicode="&#x135;" horiz-adv-x="300" 
d="M-40 -195l0.000976562 155.001c6 -2.66699 11.333 -4.33398 16 -5.00098c11.333 -3.33301 22.666 -5 33.999 -5c36.667 0 55 20 55 60v480h170v-510c0 -59.333 -15.833 -105.833 -47.5 -139.5s-74.167 -50.5 -127.5 -50.5c-25.333 0 -49 2.33301 -71 7zM-54.999 555.001
l130 160h150l130 -160h-155l-50 70l-50 -70h-155z" />
    <glyph glyph-name="Kcommaaccent" unicode="&#x136;" horiz-adv-x="720" 
d="M80 0v700h190v-270l230 270h220l-250 -290l270 -410h-220l-175 265l-75 -85v-180h-190zM260 -240l50 160h160l-75 -160h-135z" />
    <glyph glyph-name="kcommaaccent" unicode="&#x137;" horiz-adv-x="575" 
d="M65 0v700h170v-375l145 165h200l-185 -205l190 -285h-190l-115 180l-45 -55v-125h-170zM185 -240l50 160h160l-75 -160h-135z" />
    <glyph glyph-name="Lacute" unicode="&#x139;" horiz-adv-x="595" 
d="M80 0v700h190v-520h305v-180h-495zM100 780l85 160h180l-120 -160h-145z" />
    <glyph glyph-name="lacute" unicode="&#x13a;" horiz-adv-x="300" 
d="M65 0v700h170v-700h-170zM75 780l85 160h180l-120 -160h-145z" />
    <glyph glyph-name="Lcommaaccent" unicode="&#x13b;" horiz-adv-x="595" 
d="M80 0v700h190v-520h305v-180h-495zM210 -240l50 160h160l-75 -160h-135z" />
    <glyph glyph-name="lcommaaccent" unicode="&#x13c;" horiz-adv-x="300" 
d="M65 0v700h170v-700h-170zM20 -240l50 160h160l-75 -160h-135z" />
    <glyph glyph-name="Lcaron" unicode="&#x13d;" horiz-adv-x="595" 
d="M80 0v700h190v-520h305v-180h-495zM310 540l50 160h160l-75 -160h-135z" />
    <glyph glyph-name="lcaron" unicode="&#x13e;" horiz-adv-x="395" 
d="M65 0v700h170v-700h-170zM265 540l50 160h160l-75 -160h-135z" />
    <glyph glyph-name="Ldot" unicode="&#x13f;" horiz-adv-x="595" 
d="M80 0v700h190v-520h305v-180h-495zM340 410c0 26 8.83301 47.5 26.5 64.5s40.5 25.5 68.5 25.5s50.833 -8.5 68.5 -25.5s26.5 -38.5 26.5 -64.5s-8.83301 -47.5 -26.5 -64.5s-40.5 -25.5 -68.5 -25.5s-50.833 8.5 -68.5 25.5s-26.5 38.5 -26.5 64.5z" />
    <glyph glyph-name="ldot" unicode="&#x140;" horiz-adv-x="485" 
d="M65 0v700h170v-700h-170zM265 355c0 26 8.83301 47.5 26.5 64.5s40.5 25.5 68.5 25.5s50.833 -8.5 68.5 -25.5s26.5 -38.5 26.5 -64.5s-8.83301 -47.5 -26.5 -64.5s-40.5 -25.5 -68.5 -25.5s-50.833 8.5 -68.5 25.5s-26.5 38.5 -26.5 64.5z" />
    <glyph glyph-name="Lslash" unicode="&#x141;" horiz-adv-x="635" 
d="M120 0v270l-95 -50l-25 55l120 65v360h190v-255l95 50l25 -55l-120 -65v-195h305v-180h-495z" />
    <glyph glyph-name="lslash" unicode="&#x142;" horiz-adv-x="400" 
d="M115 0v272l-85 -52l-30 50l115 70v360h170v-257l85 52l30 -50l-115 -70v-375h-170z" />
    <glyph glyph-name="Nacute" unicode="&#x143;" horiz-adv-x="815" 
d="M80 0v700h165l300 -385v385h190v-700h-165l-300 385v-385h-190zM335 780l85 160h180l-120 -160h-145z" />
    <glyph glyph-name="nacute" unicode="&#x144;" horiz-adv-x="605" 
d="M60 0v489.999h170v-70h5c7.33301 14 18 27.333 32 40c30.667 26.667 66.667 40 108 40c51.333 0 93.333 -18.333 126 -55s49 -86.667 49 -150v-295h-170v260c0 24.667 -6.5 44.167 -19.5 58.5s-29.833 21.5 -50.5 21.5c-23.333 0 -42.5 -8.16699 -57.5 -24.5
s-22.5 -38.166 -22.5 -65.499v-250h-170zM230 554.999l85 160h180l-120 -160h-145z" />
    <glyph glyph-name="Ncommaaccent" unicode="&#x145;" horiz-adv-x="815" 
d="M80 0v700h165l300 -385v385h190v-700h-165l-300 385v-385h-190zM295 -240l50 160h160l-75 -160h-135z" />
    <glyph glyph-name="ncommaaccent" unicode="&#x146;" horiz-adv-x="605" 
d="M60 0v489.999h170v-70h5c7.33301 14 18 27.333 32 40c30.667 26.667 66.667 40 108 40c51.333 0 93.333 -18.333 126 -55s49 -86.667 49 -150v-295h-170v260c0 24.667 -6.5 44.167 -19.5 58.5s-29.833 21.5 -50.5 21.5c-23.333 0 -42.5 -8.16699 -57.5 -24.5
s-22.5 -38.166 -22.5 -65.499v-250h-170zM175 -240.001l50 160h160l-75 -160h-135z" />
    <glyph glyph-name="Ncaron" unicode="&#x147;" horiz-adv-x="815" 
d="M80 0v700h165l300 -385v385h190v-700h-165l-300 385v-385h-190zM335 780l-130 160h155l50 -70l50 70h155l-130 -160h-150z" />
    <glyph glyph-name="ncaron" unicode="&#x148;" horiz-adv-x="605" 
d="M60 0v489.999h170v-70h5c7.33301 14 18 27.333 32 40c30.667 26.667 66.667 40 108 40c51.333 0 93.333 -18.333 126 -55s49 -86.667 49 -150v-295h-170v260c0 24.667 -6.5 44.167 -19.5 58.5s-29.833 21.5 -50.5 21.5c-23.333 0 -42.5 -8.16699 -57.5 -24.5
s-22.5 -38.166 -22.5 -65.499v-250h-170zM230 554.999l-130 160h155l50 -70l50 70h155l-130 -160h-150z" />
    <glyph glyph-name="napostrophe" unicode="&#x149;" horiz-adv-x="615" 
d="M70 0v489.999h170v-70h5c7.33301 14 18 27.333 32 40c30.667 26.667 66.667 40 108 40c51.333 0 93.333 -18.333 126 -55s49 -86.667 49 -150v-295h-170v260c0 24.667 -6.5 44.167 -19.5 58.5s-29.833 21.5 -50.5 21.5c-23.333 0 -42.5 -8.16699 -57.5 -24.5
s-22.5 -38.166 -22.5 -65.499v-250h-170zM-50 519.999l50 160h160l-75 -160h-135z" />
    <glyph glyph-name="Eng" unicode="&#x14a;" horiz-adv-x="815" 
d="M80 0l-0.000976562 700.001h165l300 -385v385h190v-700c0 -77.333 -24 -140 -72 -188s-110.667 -72 -188 -72c-60.667 0 -113.667 15 -159 45c-20 12.667 -37 27.667 -51 45l120 125c4.66699 -6.66699 11 -13.334 19 -20.001c14.667 -13.333 33.334 -20 56.001 -20
c25.333 0 45.833 7.83301 61.5 23.5s23.5 36.167 23.5 61.5v35l-275 350v-385h-190z" />
    <glyph glyph-name="eng" unicode="&#x14b;" 
d="M60 0l0.000976562 489.999h170v-70h5c7.33301 14 18 27.333 32 40c30.667 26.667 66.667 40 108 40c51.333 0 93.333 -18.333 126 -55s49 -86.667 49 -150v-330c0 -59.333 -15.833 -105.833 -47.5 -139.5s-74.167 -50.5 -127.5 -50.5c-20.667 0 -39.667 2.33301 -57 7
l-11 3.5c-5.33301 1.66699 -9.33301 3.16699 -12 4.5v150l10 -3c9.33301 -1.33301 17.666 -2 24.999 -2c15.333 0 27.5 4.83301 36.5 14.5s13.5 23.167 13.5 40.5v270c0 24.667 -6.5 44.167 -19.5 58.5s-29.833 21.5 -50.5 21.5c-23.333 0 -42.5 -8.16699 -57.5 -24.5
s-22.5 -38.166 -22.5 -65.499v-250h-170z" />
    <glyph glyph-name="Omacron" unicode="&#x14c;" horiz-adv-x="860" 
d="M235 350c0 -54.667 18.833 -100.834 56.5 -138.501s83.834 -56.5 138.501 -56.5s100.834 18.833 138.501 56.5s56.5 83.834 56.5 138.501s-18.833 100.834 -56.5 138.501s-83.834 56.5 -138.501 56.5s-100.834 -18.833 -138.501 -56.5s-56.5 -83.834 -56.5 -138.501z
M40 350c0 103.333 37.167 190.833 111.5 262.5s167.166 107.5 278.499 107.5s204.166 -35.833 278.499 -107.5s111.5 -159.167 111.5 -262.5s-37.167 -190.833 -111.5 -262.5s-167.166 -107.5 -278.499 -107.5s-204.166 35.833 -278.499 107.5s-111.5 159.167 -111.5 262.5z
M270 800v130h320v-130h-320z" />
    <glyph glyph-name="omacron" unicode="&#x14d;" 
d="M305 145c25.333 0 47.5 9.83301 66.5 29.5s28.5 43.167 28.5 70.5s-9.5 50.833 -28.5 70.5s-41.167 29.5 -66.5 29.5s-47.5 -9.83301 -66.5 -29.5s-28.5 -43.167 -28.5 -70.5s9.5 -50.833 28.5 -70.5s41.167 -29.5 66.5 -29.5zM35 245
c0 70.667 25.833 130.834 77.5 180.501s115.834 74.5 192.501 74.5s140.834 -24.833 192.501 -74.5s77.5 -109.834 77.5 -180.501s-25.833 -130.834 -77.5 -180.501s-115.834 -74.5 -192.501 -74.5s-140.834 24.833 -192.501 74.5s-77.5 109.834 -77.5 180.501zM145 575v130
h320v-130h-320z" />
    <glyph glyph-name="Obreve" unicode="&#x14e;" horiz-adv-x="860" 
d="M235 350c0 -54.667 18.833 -100.834 56.5 -138.501s83.834 -56.5 138.501 -56.5s100.834 18.833 138.501 56.5s56.5 83.834 56.5 138.501s-18.833 100.834 -56.5 138.501s-83.834 56.5 -138.501 56.5s-100.834 -18.833 -138.501 -56.5s-56.5 -83.834 -56.5 -138.501z
M40 350c0 103.333 37.167 190.833 111.5 262.5s167.166 107.5 278.499 107.5s204.166 -35.833 278.499 -107.5s111.5 -159.167 111.5 -262.5s-37.167 -190.833 -111.5 -262.5s-167.166 -107.5 -278.499 -107.5s-204.166 35.833 -278.499 107.5s-111.5 159.167 -111.5 262.5z
M260 940h120c0 -15.333 4.5 -27.5 13.5 -36.5s21.167 -13.5 36.5 -13.5s27.5 4.5 36.5 13.5s13.5 21.167 13.5 36.5h120c0 -45.333 -16 -83.333 -48 -114s-72.667 -46 -122 -46s-90 15.333 -122 46s-48 68.667 -48 114z" />
    <glyph glyph-name="obreve" unicode="&#x14f;" 
d="M305 145c25.333 0 47.5 9.83301 66.5 29.5s28.5 43.167 28.5 70.5s-9.5 50.833 -28.5 70.5s-41.167 29.5 -66.5 29.5s-47.5 -9.83301 -66.5 -29.5s-28.5 -43.167 -28.5 -70.5s9.5 -50.833 28.5 -70.5s41.167 -29.5 66.5 -29.5zM35 245
c0 70.667 25.833 130.834 77.5 180.501s115.834 74.5 192.501 74.5s140.834 -24.833 192.501 -74.5s77.5 -109.834 77.5 -180.501s-25.833 -130.834 -77.5 -180.501s-115.834 -74.5 -192.501 -74.5s-140.834 24.833 -192.501 74.5s-77.5 109.834 -77.5 180.501zM135 715h120
c0 -15.333 4.5 -27.5 13.5 -36.5s21.167 -13.5 36.5 -13.5s27.5 4.5 36.5 13.5s13.5 21.167 13.5 36.5h120c0 -45.333 -16 -83.333 -48 -114s-72.667 -46 -122 -46s-90 15.333 -122 46s-48 68.667 -48 114z" />
    <glyph glyph-name="Ohungarumlaut" unicode="&#x150;" horiz-adv-x="860" 
d="M235 350c0 -54.667 18.833 -100.834 56.5 -138.501s83.834 -56.5 138.501 -56.5s100.834 18.833 138.501 56.5s56.5 83.834 56.5 138.501s-18.833 100.834 -56.5 138.501s-83.834 56.5 -138.501 56.5s-100.834 -18.833 -138.501 -56.5s-56.5 -83.834 -56.5 -138.501z
M40 350c0 103.333 37.167 190.833 111.5 262.5s167.166 107.5 278.499 107.5s204.166 -35.833 278.499 -107.5s111.5 -159.167 111.5 -262.5s-37.167 -190.833 -111.5 -262.5s-167.166 -107.5 -278.499 -107.5s-204.166 35.833 -278.499 107.5s-111.5 159.167 -111.5 262.5z
M260 780l90 160h160l-125 -160h-125zM470 780l90 160h160l-125 -160h-125z" />
    <glyph glyph-name="ohungarumlaut" unicode="&#x151;" 
d="M305 145c25.333 0 47.5 9.83301 66.5 29.5s28.5 43.167 28.5 70.5s-9.5 50.833 -28.5 70.5s-41.167 29.5 -66.5 29.5s-47.5 -9.83301 -66.5 -29.5s-28.5 -43.167 -28.5 -70.5s9.5 -50.833 28.5 -70.5s41.167 -29.5 66.5 -29.5zM35 245
c0 70.667 25.833 130.834 77.5 180.501s115.834 74.5 192.501 74.5s140.834 -24.833 192.501 -74.5s77.5 -109.834 77.5 -180.501s-25.833 -130.834 -77.5 -180.501s-115.834 -74.5 -192.501 -74.5s-140.834 24.833 -192.501 74.5s-77.5 109.834 -77.5 180.501zM135 555
l90 160h160l-125 -160h-125zM345 555l90 160h160l-125 -160h-125z" />
    <glyph glyph-name="OE" unicode="&#x152;" horiz-adv-x="1020" 
d="M655 170h325v-170h-560c-110.667 0 -201.667 33.667 -273 101s-107 150.333 -107 249s35.667 181.667 107 249s162.333 101 273 101h550v-170h-315v-100h235v-160h-235v-100zM420 170h45v360h-45c-54 0 -98.333 -17 -133 -51s-52 -77 -52 -129s17.333 -95 52 -129
s79 -51 133 -51z" />
    <glyph glyph-name="oe" unicode="&#x153;" horiz-adv-x="940" 
d="M800 170l64.999 -110.003c-15.333 -13.333 -33 -25 -53 -35c-42.667 -23.333 -91.667 -35 -147 -35c-54 0 -100.333 14 -139 42c-18 12.667 -31.667 27 -41 43c-12.667 -16.667 -28 -31 -46 -43c-41.333 -28 -87.666 -42 -138.999 -42c-74 0 -136.667 24.833 -188 74.5
s-77 109.834 -77 180.501s25.667 130.834 77 180.501s114 74.5 188 74.5c50.667 0 97 -14.333 139 -43c17.333 -11.333 32.666 -25.333 45.999 -42c11.333 15.333 26 29.333 44 42c39.333 28.667 83 43 131 43c70 0 129.167 -24.167 177.5 -72.5s72.5 -107.5 72.5 -177.5
c0 -9.33301 -1 -23 -3 -41l-2 -14h-335c2.66699 -17.333 14.167 -33.333 34.5 -48s45.5 -22 75.5 -22c30.667 0 60 7.33301 88 22c14.667 8.66699 25.334 16.334 32.001 23.001zM299.999 144.997c26 0 47.5 9.33301 64.5 28s25.5 42.667 25.5 72s-8.5 53.333 -25.5 72
s-38.5 28 -64.5 28s-47.5 -9.33301 -64.5 -28s-25.5 -42.667 -25.5 -72s8.5 -53.333 25.5 -72s38.5 -28 64.5 -28zM569.999 299.997h170c-6 18.667 -16.333 34.167 -31 46.5s-32.667 18.5 -54 18.5s-39.333 -6.16699 -54 -18.5s-25 -27.833 -31 -46.5z" />
    <glyph glyph-name="Racute" unicode="&#x154;" horiz-adv-x="715" 
d="M80 0v700.001h330c74 0 135 -23 183 -69s72 -103 72 -171c0 -64 -20 -116 -60 -156c-17.333 -18.667 -37.333 -33.334 -60 -44.001l145 -260h-200l-115 220h-105v-220h-190zM270 390.001h130c22 0 40 6.66699 54 20s21 30 21 50s-7 36.667 -21 50s-32 20 -54 20h-130
v-140zM280 780.001l85 160h180l-120 -160h-145z" />
    <glyph glyph-name="racute" unicode="&#x155;" horiz-adv-x="395" 
d="M60 0l-0.000976562 490h170v-60c8.66699 12 20 22.667 34 32c31.333 22 65 33 101 33h20v-180l-14 5c-10 3.33301 -22 5 -36 5c-33.333 0 -59.166 -9.83301 -77.499 -29.5s-27.5 -48.167 -27.5 -85.5v-210h-170zM149.999 555l85 160h180l-120 -160h-145z" />
    <glyph glyph-name="Rcommaaccent" unicode="&#x156;" horiz-adv-x="715" 
d="M80 0v700.001h330c74 0 135 -23 183 -69s72 -103 72 -171c0 -64 -20 -116 -60 -156c-17.333 -18.667 -37.333 -33.334 -60 -44.001l145 -260h-200l-115 220h-105v-220h-190zM270 390.001h130c22 0 40 6.66699 54 20s21 30 21 50s-7 36.667 -21 50s-32 20 -54 20h-130
v-140zM245 -239.999l50 160h160l-75 -160h-135z" />
    <glyph glyph-name="rcommaaccent" unicode="&#x157;" horiz-adv-x="395" 
d="M60 0l-0.000976562 490h170v-60c8.66699 12 20 22.667 34 32c31.333 22 65 33 101 33h20v-180l-14 5c-10 3.33301 -22 5 -36 5c-33.333 0 -59.166 -9.83301 -77.499 -29.5s-27.5 -48.167 -27.5 -85.5v-210h-170zM14.999 -240l50 160h160l-75 -160h-135z" />
    <glyph glyph-name="Rcaron" unicode="&#x158;" horiz-adv-x="715" 
d="M80 0v700.001h330c74 0 135 -23 183 -69s72 -103 72 -171c0 -64 -20 -116 -60 -156c-17.333 -18.667 -37.333 -33.334 -60 -44.001l145 -260h-200l-115 220h-105v-220h-190zM270 390.001h130c22 0 40 6.66699 54 20s21 30 21 50s-7 36.667 -21 50s-32 20 -54 20h-130
v-140zM279 780.001l-130 160h155l50 -70l50 70h155l-130 -160h-150z" />
    <glyph glyph-name="rcaron" unicode="&#x159;" horiz-adv-x="395" 
d="M60 0l-0.000976562 490h170v-60c8.66699 12 20 22.667 34 32c31.333 22 65 33 101 33h20v-180l-14 5c-10 3.33301 -22 5 -36 5c-33.333 0 -59.166 -9.83301 -77.499 -29.5s-27.5 -48.167 -27.5 -85.5v-210h-170zM149.999 555l-130 160h155l50 -70l50 70h155l-130 -160
h-150z" />
    <glyph glyph-name="Sacute" unicode="&#x15a;" 
d="M25 100l109.998 120c12 -14 25.667 -26.667 41 -38c35.333 -24.667 71.666 -37 108.999 -37c28.667 0 50.834 5.83301 66.501 17.5s23.5 25.834 23.5 42.501c0 14.667 -8.16699 27.5 -24.5 38.5s-36.666 20 -60.999 27s-50.833 16.5 -79.5 28.5s-55.167 25.5 -79.5 40.5
s-44.666 36.667 -60.999 65s-24.5 61.833 -24.5 100.5c0 58 24.333 108.333 73 151s112.667 64 192 64c70.667 0 132.667 -16.667 186 -50c24.667 -16 44.334 -32.667 59.001 -50l-110 -120c-9.33301 10.667 -19.666 19.667 -30.999 27c-24.667 18.667 -52.667 28 -84 28
c-26 0 -45.833 -4.83301 -59.5 -14.5s-20.5 -21.5 -20.5 -35.5c0 -14.667 8.16699 -27.5 24.5 -38.5s36.666 -20 60.999 -27s50.833 -16.5 79.5 -28.5s55.167 -25.5 79.5 -40.5s44.666 -36.667 60.999 -65s24.5 -61.833 24.5 -100.5
c0 -62.667 -25.167 -115.834 -75.5 -159.501s-116.833 -65.5 -199.5 -65.5c-80 0 -150.333 20 -211 60c-26.667 17.333 -49.667 37.333 -69 60zM229.998 780l85 160h180l-120 -160h-145z" />
    <glyph glyph-name="sacute" unicode="&#x15b;" horiz-adv-x="465" 
d="M10 80l90.002 95.001c8 -10 17 -18.333 27 -25c22 -16.667 46.333 -25 73 -25s40 8.33301 40 25c0 8 -7 15.667 -21 23s-31 15 -51 23s-40.167 17.833 -60.5 29.5s-37.5 28.167 -51.5 49.5s-21 46.333 -21 75c0 42 17.667 77.5 53 106.5s84.333 43.5 147 43.5
c54 0 104.333 -12.667 151 -38c19.333 -10 37.333 -22.333 54 -37l-90 -95c-6.66699 6 -13.334 11.667 -20.001 17c-17.333 12 -34 18 -50 18c-26.667 0 -40 -8.33301 -40 -25c0 -8 7 -15.667 21 -23s31 -15 51 -23s40.167 -17.833 60.5 -29.5s37.5 -28.167 51.5 -49.5
s21 -46.333 21 -75c0 -42.667 -18.333 -78.334 -55 -107.001s-88.334 -43 -155.001 -43c-59.333 0 -114.333 15 -165 45c-22.667 12.667 -42.667 27.667 -60 45zM160.002 555.001l85 160h180l-120 -160h-145z" />
    <glyph glyph-name="Scircumflex" unicode="&#x15c;" 
d="M25 100l109.998 120c12 -14 25.667 -26.667 41 -38c35.333 -24.667 71.666 -37 108.999 -37c28.667 0 50.834 5.83301 66.501 17.5s23.5 25.834 23.5 42.501c0 14.667 -8.16699 27.5 -24.5 38.5s-36.666 20 -60.999 27s-50.833 16.5 -79.5 28.5s-55.167 25.5 -79.5 40.5
s-44.666 36.667 -60.999 65s-24.5 61.833 -24.5 100.5c0 58 24.333 108.333 73 151s112.667 64 192 64c70.667 0 132.667 -16.667 186 -50c24.667 -16 44.334 -32.667 59.001 -50l-110 -120c-9.33301 10.667 -19.666 19.667 -30.999 27c-24.667 18.667 -52.667 28 -84 28
c-26 0 -45.833 -4.83301 -59.5 -14.5s-20.5 -21.5 -20.5 -35.5c0 -14.667 8.16699 -27.5 24.5 -38.5s36.666 -20 60.999 -27s50.833 -16.5 79.5 -28.5s55.167 -25.5 79.5 -40.5s44.666 -36.667 60.999 -65s24.5 -61.833 24.5 -100.5
c0 -62.667 -25.167 -115.834 -75.5 -159.501s-116.833 -65.5 -199.5 -65.5c-80 0 -150.333 20 -211 60c-26.667 17.333 -49.667 37.333 -69 60zM99.998 780l130 160h150l130 -160h-155l-50 70l-50 -70h-155z" />
    <glyph glyph-name="scircumflex" unicode="&#x15d;" horiz-adv-x="465" 
d="M10 80l90.002 95.001c8 -10 17 -18.333 27 -25c22 -16.667 46.333 -25 73 -25s40 8.33301 40 25c0 8 -7 15.667 -21 23s-31 15 -51 23s-40.167 17.833 -60.5 29.5s-37.5 28.167 -51.5 49.5s-21 46.333 -21 75c0 42 17.667 77.5 53 106.5s84.333 43.5 147 43.5
c54 0 104.333 -12.667 151 -38c19.333 -10 37.333 -22.333 54 -37l-90 -95c-6.66699 6 -13.334 11.667 -20.001 17c-17.333 12 -34 18 -50 18c-26.667 0 -40 -8.33301 -40 -25c0 -8 7 -15.667 21 -23s31 -15 51 -23s40.167 -17.833 60.5 -29.5s37.5 -28.167 51.5 -49.5
s21 -46.333 21 -75c0 -42.667 -18.333 -78.334 -55 -107.001s-88.334 -43 -155.001 -43c-59.333 0 -114.333 15 -165 45c-22.667 12.667 -42.667 27.667 -60 45zM30.002 555.001l130 160h150l130 -160h-155l-50 70l-50 -70h-155z" />
    <glyph glyph-name="Scedilla" unicode="&#x15e;" 
d="M175 -210l44.999 70c4.66699 -5.33301 11 -10.333 19 -15c15.333 -10 30.666 -15 45.999 -15c23.333 0 35 10 35 30s-11.667 30 -35 30c-1.33301 0 -6 -1 -14 -3l-6 -2l-35 35l28 62c-64 7.33301 -122.667 29.333 -176 66c-23.333 16.667 -42.333 34 -57 52l110 120
c12 -14 25.667 -26.667 41 -38c35.333 -24.667 71.666 -37 108.999 -37c28.667 0 50.834 5.83301 66.501 17.5s23.5 25.834 23.5 42.501c0 14.667 -8.16699 27.5 -24.5 38.5s-36.666 20 -60.999 27s-50.833 16.5 -79.5 28.5s-55.167 25.5 -79.5 40.5
s-44.666 36.667 -60.999 65s-24.5 61.833 -24.5 100.5c0 58 24.333 108.333 73 151s112.667 64 192 64c70.667 0 132.667 -16.667 186 -50c24.667 -16 44.334 -32.667 59.001 -50l-110 -120c-9.33301 10.667 -19.666 19.667 -30.999 27c-24.667 18.667 -52.667 28 -84 28
c-26 0 -45.833 -4.83301 -59.5 -14.5s-20.5 -21.5 -20.5 -35.5c0 -14.667 8.16699 -27.5 24.5 -38.5s36.666 -20 60.999 -27s50.833 -16.5 79.5 -28.5s55.167 -25.5 79.5 -40.5s44.666 -36.667 60.999 -65s24.5 -61.833 24.5 -100.5
c0 -60.667 -22.167 -111.334 -66.5 -152.001s-104.166 -64.334 -179.499 -71.001l-14 -27c18.667 -2.66699 37 -8.33398 55 -17.001c36.667 -20.667 55 -50 55 -88c0 -29.333 -12 -54.166 -36 -74.499s-55.333 -30.5 -94 -30.5c-34 0 -65 7.33301 -93 22
c-14.667 8.66699 -25.334 16.334 -32.001 23.001z" />
    <glyph glyph-name="scedilla" unicode="&#x15f;" horiz-adv-x="465" 
d="M100 -210l45.0029 69.999c4.66699 -5.33301 11 -10.333 19 -15c14.667 -10 30 -15 46 -15c23.333 0 35 10 35 30s-11.667 30 -35 30c-1.33301 0 -6 -1 -14 -3l-6 -2l-35 35l30 70c-46.667 9.33301 -89.667 26.666 -129 51.999c-18 12.667 -33.333 25.334 -46 38.001
l90 95c8 -10 17 -18.333 27 -25c22 -16.667 46.333 -25 73 -25s40 8.33301 40 25c0 8 -7 15.667 -21 23s-31 15 -51 23s-40.167 17.833 -60.5 29.5s-37.5 28.167 -51.5 49.5s-21 46.333 -21 75c0 42 17.667 77.5 53 106.5s84.333 43.5 147 43.5
c54 0 104.333 -12.667 151 -38c19.333 -10 37.333 -22.333 54 -37l-90 -95c-6.66699 6 -13.334 11.667 -20.001 17c-17.333 12 -34 18 -50 18c-26.667 0 -40 -8.33301 -40 -25c0 -8 7 -15.667 21 -23s31 -15 51 -23s40.167 -17.833 60.5 -29.5s37.5 -28.167 51.5 -49.5
s21 -46.333 21 -75c0 -37.333 -15.833 -70.333 -47.5 -99s-75.834 -45.667 -132.501 -51l-20 -35c18.667 -2.66699 37 -8.33398 55 -17.001c36.667 -20.667 55 -50 55 -88c0 -29.333 -12 -54.166 -36 -74.499s-55.333 -30.5 -94 -30.5c-34 0 -65 7.33301 -93 22
c-14.667 8.66699 -25.334 16.334 -32.001 23.001z" />
    <glyph glyph-name="Scaron" unicode="&#x160;" 
d="M25 100l109.998 120c12 -14 25.667 -26.667 41 -38c35.333 -24.667 71.666 -37 108.999 -37c28.667 0 50.834 5.83301 66.501 17.5s23.5 25.834 23.5 42.501c0 14.667 -8.16699 27.5 -24.5 38.5s-36.666 20 -60.999 27s-50.833 16.5 -79.5 28.5s-55.167 25.5 -79.5 40.5
s-44.666 36.667 -60.999 65s-24.5 61.833 -24.5 100.5c0 58 24.333 108.333 73 151s112.667 64 192 64c70.667 0 132.667 -16.667 186 -50c24.667 -16 44.334 -32.667 59.001 -50l-110 -120c-9.33301 10.667 -19.666 19.667 -30.999 27c-24.667 18.667 -52.667 28 -84 28
c-26 0 -45.833 -4.83301 -59.5 -14.5s-20.5 -21.5 -20.5 -35.5c0 -14.667 8.16699 -27.5 24.5 -38.5s36.666 -20 60.999 -27s50.833 -16.5 79.5 -28.5s55.167 -25.5 79.5 -40.5s44.666 -36.667 60.999 -65s24.5 -61.833 24.5 -100.5
c0 -62.667 -25.167 -115.834 -75.5 -159.501s-116.833 -65.5 -199.5 -65.5c-80 0 -150.333 20 -211 60c-26.667 17.333 -49.667 37.333 -69 60zM229.998 780l-130 160h155l50 -70l50 70h155l-130 -160h-150z" />
    <glyph glyph-name="scaron" unicode="&#x161;" horiz-adv-x="465" 
d="M10 80l90.002 95.001c8 -10 17 -18.333 27 -25c22 -16.667 46.333 -25 73 -25s40 8.33301 40 25c0 8 -7 15.667 -21 23s-31 15 -51 23s-40.167 17.833 -60.5 29.5s-37.5 28.167 -51.5 49.5s-21 46.333 -21 75c0 42 17.667 77.5 53 106.5s84.333 43.5 147 43.5
c54 0 104.333 -12.667 151 -38c19.333 -10 37.333 -22.333 54 -37l-90 -95c-6.66699 6 -13.334 11.667 -20.001 17c-17.333 12 -34 18 -50 18c-26.667 0 -40 -8.33301 -40 -25c0 -8 7 -15.667 21 -23s31 -15 51 -23s40.167 -17.833 60.5 -29.5s37.5 -28.167 51.5 -49.5
s21 -46.333 21 -75c0 -42.667 -18.333 -78.334 -55 -107.001s-88.334 -43 -155.001 -43c-59.333 0 -114.333 15 -165 45c-22.667 12.667 -42.667 27.667 -60 45zM160.002 555.001l-130 160h155l50 -70l50 70h155l-130 -160h-150z" />
    <glyph glyph-name="uni0162" unicode="&#x162;" horiz-adv-x="620" 
d="M180 -210l45.001 69.999c4.66699 -5.33301 11 -10.333 19 -15c14.667 -10 30 -15 46 -15c23.333 0 35 10 35 30s-11.667 30 -35 30c-1.33301 0 -6 -1 -14 -3l-6 -2l-35 35l35 80h-55v530h-195v170h580v-170h-195v-530h-55l-25 -45
c18.667 -2.66699 37 -8.33398 55 -17.001c36.667 -20.667 55 -50 55 -88c0 -29.333 -12 -54.166 -36 -74.499s-55.333 -30.5 -94 -30.5c-34 0 -65 7.33301 -93 22c-14.667 8.66699 -25.334 16.334 -32.001 23.001z" />
    <glyph glyph-name="uni0163" unicode="&#x163;" horiz-adv-x="420" 
d="M115 -210l45.0059 69.999c4.66699 -5.33301 11 -10.333 19 -15c14.667 -10 30 -15 46 -15c23.333 0 35 10 35 30s-11.667 30 -35 30c-1.33301 0 -6 -1 -14 -3l-6 -2l-35 35l35 80c-28.667 10 -53.334 30.5 -74.001 61.5s-31 70.5 -31 118.5v140h-70v160h30
c17.333 0 31.666 5.66699 42.999 17s17 25.666 17 42.999v90h150v-150h95v-160h-95v-110c0 -40 18.333 -60 55 -60c12 0 23.667 1.66699 35 5c3.33301 0.666992 8.33301 2.33398 15 5.00098v-155c-2.66699 -0.666992 -5.33398 -1.5 -8.00098 -2.5s-5.83398 -2 -9.50098 -3
l-9.50098 -2.5c-20 -4.66699 -42.667 -7 -68 -7l-20 -35c18.667 -2.66699 37 -8.33398 55 -17.001c36.667 -20.667 55 -50 55 -88c0 -29.333 -12 -54.166 -36 -74.499s-55.333 -30.5 -94 -30.5c-34 0 -65 7.33301 -93 22c-14.667 8.66699 -25.334 16.334 -32.001 23.001z
" />
    <glyph glyph-name="Tcaron" unicode="&#x164;" horiz-adv-x="620" 
d="M215 0v530h-195v170h580v-170h-195v-530h-190zM235 780l-130 160h155l50 -70l50 70h155l-130 -160h-150z" />
    <glyph glyph-name="tcaron" unicode="&#x165;" horiz-adv-x="480" 
d="M100 180v140h-70v160h30c17.333 0 31.666 5.66699 42.999 17s17 25.666 17 42.999v90h150v-150h95v-160h-95v-110c0 -40 18.333 -60 55 -60c12.667 0 24.667 1.66699 36 5c4.66699 0.666992 9.33398 2.33398 14.001 5.00098v-155l-29 -8c-22 -4.66699 -45.667 -7 -71 -7
c-53.333 0 -95.833 16.667 -127.5 50s-47.5 80 -47.5 140zM350 540l50 160h160l-75 -160h-135z" />
    <glyph glyph-name="Tbar" unicode="&#x166;" horiz-adv-x="620" 
d="M215 0v320h-130v60h130v150h-195v170h580v-170h-195v-150h130v-60h-130v-320h-190z" />
    <glyph glyph-name="tbar" unicode="&#x167;" horiz-adv-x="420" 
d="M30 230v65h70v45h-70v140h30c17.333 0 31.666 5.66699 42.999 17s17 25.666 17 42.999v90h150v-150h95v-140h-95v-45h95v-65h-95v-20c0 -40 18.333 -60 55 -60c12.667 0 24.667 1.66699 36 5c4.66699 0.666992 9.33398 2.33398 14.001 5.00098v-155l-29 -8
c-22 -4.66699 -45.667 -7 -71 -7c-53.333 0 -95.833 16.667 -127.5 50s-47.5 80 -47.5 140v50h-70z" />
    <glyph glyph-name="Umacron" unicode="&#x16a;" horiz-adv-x="790" 
d="M75 290v410h190v-410c0 -40 12.167 -72.5 36.5 -97.5s55.5 -37.5 93.5 -37.5s69.167 12.5 93.5 37.5s36.5 57.5 36.5 97.5v410h190v-410c0 -90.667 -29.833 -165 -89.5 -223s-136.5 -87 -230.5 -87s-170.833 29 -230.5 87s-89.5 132.333 -89.5 223zM235 800v130h320v-130
h-320z" />
    <glyph glyph-name="umacron" unicode="&#x16b;" 
d="M60 195l0.000976562 295.001h170v-260c0 -24.667 6.5 -44.167 19.5 -58.5s29.833 -21.5 50.5 -21.5c23.333 0 42.5 8.16699 57.5 24.5s22.5 38.166 22.5 65.499v250h170v-490h-170v70h-5c-8.66699 -14 -19.667 -27.333 -33 -40c-30.667 -26.667 -66.334 -40 -107.001 -40
c-51.333 0 -93.333 18.167 -126 54.5s-49 86.5 -49 150.5zM145.001 575.001v130h320v-130h-320z" />
    <glyph glyph-name="Ubreve" unicode="&#x16c;" horiz-adv-x="790" 
d="M75 290v410h190v-410c0 -40 12.167 -72.5 36.5 -97.5s55.5 -37.5 93.5 -37.5s69.167 12.5 93.5 37.5s36.5 57.5 36.5 97.5v410h190v-410c0 -90.667 -29.833 -165 -89.5 -223s-136.5 -87 -230.5 -87s-170.833 29 -230.5 87s-89.5 132.333 -89.5 223zM225 940h120
c0 -15.333 4.5 -27.5 13.5 -36.5s21.167 -13.5 36.5 -13.5s27.5 4.5 36.5 13.5s13.5 21.167 13.5 36.5h120c0 -45.333 -16 -83.333 -48 -114s-72.667 -46 -122 -46s-90 15.333 -122 46s-48 68.667 -48 114z" />
    <glyph glyph-name="ubreve" unicode="&#x16d;" 
d="M60 195l0.000976562 295.001h170v-260c0 -24.667 6.5 -44.167 19.5 -58.5s29.833 -21.5 50.5 -21.5c23.333 0 42.5 8.16699 57.5 24.5s22.5 38.166 22.5 65.499v250h170v-490h-170v70h-5c-8.66699 -14 -19.667 -27.333 -33 -40c-30.667 -26.667 -66.334 -40 -107.001 -40
c-51.333 0 -93.333 18.167 -126 54.5s-49 86.5 -49 150.5zM135.001 715.001h120c0 -15.333 4.5 -27.5 13.5 -36.5s21.167 -13.5 36.5 -13.5s27.5 4.5 36.5 13.5s13.5 21.167 13.5 36.5h120c0 -45.333 -16 -83.333 -48 -114s-72.667 -46 -122 -46s-90 15.333 -122 46
s-48 68.667 -48 114z" />
    <glyph glyph-name="Uring" unicode="&#x16e;" horiz-adv-x="790" 
d="M75 290v410h190v-410c0 -40 12.167 -72.5 36.5 -97.5s55.5 -37.5 93.5 -37.5s69.167 12.5 93.5 37.5s36.5 57.5 36.5 97.5v410h190v-410c0 -90.667 -29.833 -165 -89.5 -223s-136.5 -87 -230.5 -87s-170.833 29 -230.5 87s-89.5 132.333 -89.5 223zM355 870
c0 -12 4 -21.667 12 -29s17.333 -11 28 -11s20 3.66699 28 11s12 17 12 29s-4 21.667 -12 29s-17.333 11 -28 11s-20 -3.66699 -28 -11s-12 -17 -12 -29zM265 870c0 32.667 12.5 60.834 37.5 84.501s55.833 35.5 92.5 35.5s67.5 -11.833 92.5 -35.5
s37.5 -51.834 37.5 -84.501s-12.5 -60.834 -37.5 -84.501s-55.833 -35.5 -92.5 -35.5s-67.5 11.833 -92.5 35.5s-37.5 51.834 -37.5 84.501z" />
    <glyph glyph-name="uring" unicode="&#x16f;" 
d="M60 195l0.000976562 295.001h170v-260c0 -24.667 6.5 -44.167 19.5 -58.5s29.833 -21.5 50.5 -21.5c23.333 0 42.5 8.16699 57.5 24.5s22.5 38.166 22.5 65.499v250h170v-490h-170v70h-5c-8.66699 -14 -19.667 -27.333 -33 -40c-30.667 -26.667 -66.334 -40 -107.001 -40
c-51.333 0 -93.333 18.167 -126 54.5s-49 86.5 -49 150.5zM265.001 645.001c0 -12 4 -21.667 12 -29s17.333 -11 28 -11s20 3.66699 28 11s12 17 12 29s-4 21.667 -12 29s-17.333 11 -28 11s-20 -3.66699 -28 -11s-12 -17 -12 -29zM175.001 645.001
c0 32.667 12.5 60.834 37.5 84.501s55.833 35.5 92.5 35.5s67.5 -11.833 92.5 -35.5s37.5 -51.834 37.5 -84.501s-12.5 -60.834 -37.5 -84.501s-55.833 -35.5 -92.5 -35.5s-67.5 11.833 -92.5 35.5s-37.5 51.834 -37.5 84.501z" />
    <glyph glyph-name="Uhungarumlaut" unicode="&#x170;" horiz-adv-x="790" 
d="M75 290v410h190v-410c0 -40 12.167 -72.5 36.5 -97.5s55.5 -37.5 93.5 -37.5s69.167 12.5 93.5 37.5s36.5 57.5 36.5 97.5v410h190v-410c0 -90.667 -29.833 -165 -89.5 -223s-136.5 -87 -230.5 -87s-170.833 29 -230.5 87s-89.5 132.333 -89.5 223zM225 780l90 160h160
l-125 -160h-125zM435 780l90 160h160l-125 -160h-125z" />
    <glyph glyph-name="uhungarumlaut" unicode="&#x171;" 
d="M60 195l0.000976562 295.001h170v-260c0 -24.667 6.5 -44.167 19.5 -58.5s29.833 -21.5 50.5 -21.5c23.333 0 42.5 8.16699 57.5 24.5s22.5 38.166 22.5 65.499v250h170v-490h-170v70h-5c-8.66699 -14 -19.667 -27.333 -33 -40c-30.667 -26.667 -66.334 -40 -107.001 -40
c-51.333 0 -93.333 18.167 -126 54.5s-49 86.5 -49 150.5zM135.001 555.001l90 160h160l-125 -160h-125zM345.001 555.001l90 160h160l-125 -160h-125z" />
    <glyph glyph-name="Uogonek" unicode="&#x172;" horiz-adv-x="790" 
d="M75 290l0.000976562 410.002h190v-410c0 -40 12.167 -72.5 36.5 -97.5s55.5 -37.5 93.5 -37.5s69.167 12.5 93.5 37.5s36.5 57.5 36.5 97.5v410h190v-410c0 -82.667 -25 -151.667 -75 -207s-113.333 -88 -190 -98c-3.33301 -7.33301 -6.66602 -16.666 -9.99902 -27.999
c-6.66699 -22.667 -10 -43.334 -10 -62.001c0 -26.667 13.333 -40 40 -40c14 0 26 2.33301 36 7l7 3.5c3.33301 1.66699 5.66602 3.16699 6.99902 4.5v-90c-6.66699 -4 -14.334 -7.33301 -23.001 -10c-20 -6.66699 -42.333 -10 -67 -10c-34 0 -62.5 10.667 -85.5 32
s-34.5 47.333 -34.5 78c0 30 9 56.333 27 79c10 13.333 19.333 23.666 28 30.999c-84 5.33301 -153.333 36.666 -208 93.999s-82 129.333 -82 216z" />
    <glyph glyph-name="uogonek" unicode="&#x173;" 
d="M60 194l0.00292969 296.001h170v-260c0 -24.667 6.5 -44.167 19.5 -58.5s29.833 -21.5 50.5 -21.5c23.333 0 42.5 8.16699 57.5 24.5s22.5 38.166 22.5 65.499v250h170v-490h-100c-6 -9.33301 -11 -20 -15 -32c-10 -24 -15 -48.333 -15 -73c0 -26.667 13.333 -40 40 -40
c14 0 26 2.33301 36 7l7 3.5c3.33301 1.66699 5.66602 3.16699 6.99902 4.5v-90c-6.66699 -4 -14.334 -7.33301 -23.001 -10c-20 -6.66699 -42.333 -10 -67 -10c-34 0 -62.5 10.667 -85.5 32s-34.5 47.333 -34.5 78c0 32.667 13.333 64.334 40 95.001
c10.667 12 24 23.667 40 35v70h-5c-8.66699 -14 -19.667 -27.333 -33 -40c-30.667 -26.667 -66.334 -40 -107.001 -40c-51.333 0 -93.333 18.167 -126 54.5s-49 86.166 -49 149.499z" />
    <glyph glyph-name="Wcircumflex" unicode="&#x174;" horiz-adv-x="1060" 
d="M230 0l-230 700h205l110 -410h5l125 410h170l125 -410h5l110 410h205l-230 -700h-170l-128 420h-4l-128 -420h-170zM325 780l130 160h150l130 -160h-155l-50 70l-50 -70h-155z" />
    <glyph glyph-name="wcircumflex" unicode="&#x175;" horiz-adv-x="800" 
d="M170 0l-170 490h180l68 -245h4l83 245h130l83 -245h4l68 245h180l-170 -490h-140l-88 260h-4l-88 -260h-140zM195 555l130 160h150l130 -160h-155l-50 70l-50 -70h-155z" />
    <glyph glyph-name="Ycircumflex" unicode="&#x176;" horiz-adv-x="670" 
d="M240 0v250l-250 450h210l133 -275h4l133 275h210l-250 -450v-250h-190zM130 780l130 160h150l130 -160h-155l-50 70l-50 -70h-155z" />
    <glyph glyph-name="ycircumflex" unicode="&#x177;" horiz-adv-x="540" 
d="M45 -195v155c6 -2.66699 11.333 -4.33398 16 -5.00098c11.333 -3.33301 22.666 -5 33.999 -5c35.333 0 60.333 13.333 75 40l10 20l-180 480h185l83 -285h4l83 285h185l-195 -515c-26 -66.667 -54.667 -114.167 -86 -142.5s-72.666 -42.5 -123.999 -42.5
c-24 0 -45.333 2.33301 -64 7c-2.66699 0.666992 -7 1.83398 -13 3.50098s-10.333 3.16699 -13 4.5zM65 555l130 160h150l130 -160h-155l-50 70l-50 -70h-155z" />
    <glyph glyph-name="Ydieresis" unicode="&#x178;" horiz-adv-x="670" 
d="M240 0v250l-250 450h210l133 -275h4l133 275h210l-250 -450v-250h-190zM365 865c0 22.667 8.5 42.5 25.5 59.5s36.833 25.5 59.5 25.5s42.5 -8.5 59.5 -25.5s25.5 -36.833 25.5 -59.5s-8.5 -42.5 -25.5 -59.5s-36.833 -25.5 -59.5 -25.5s-42.5 8.5 -59.5 25.5
s-25.5 36.833 -25.5 59.5zM305 865c0 -22.667 -8.5 -42.5 -25.5 -59.5s-36.833 -25.5 -59.5 -25.5s-42.5 8.5 -59.5 25.5s-25.5 36.833 -25.5 59.5s8.5 42.5 25.5 59.5s36.833 25.5 59.5 25.5s42.5 -8.5 59.5 -25.5s25.5 -36.833 25.5 -59.5z" />
    <glyph glyph-name="Zacute" unicode="&#x179;" horiz-adv-x="660" 
d="M45 0v180l305 340h-290v180h545v-180l-305 -340h315v-180h-570zM255 780l85 160h180l-120 -160h-145z" />
    <glyph glyph-name="zacute" unicode="&#x17a;" horiz-adv-x="520" 
d="M40 0v160l195 170h-185v160h420v-160l-195 -170h205v-160h-440zM185 555l85 160h180l-120 -160h-145z" />
    <glyph glyph-name="Zdotaccent" unicode="&#x17b;" horiz-adv-x="660" 
d="M45 0v180l305 340h-290v180h545v-180l-305 -340h315v-180h-570zM235 860c0 26 8.83301 47.5 26.5 64.5s40.5 25.5 68.5 25.5s50.833 -8.5 68.5 -25.5s26.5 -38.5 26.5 -64.5s-8.83301 -47.5 -26.5 -64.5s-40.5 -25.5 -68.5 -25.5s-50.833 8.5 -68.5 25.5
s-26.5 38.5 -26.5 64.5z" />
    <glyph glyph-name="zdotaccent" unicode="&#x17c;" horiz-adv-x="520" 
d="M40 0v160l195 170h-185v160h420v-160l-195 -170h205v-160h-440zM165 635c0 26 8.83301 47.5 26.5 64.5s40.5 25.5 68.5 25.5s50.833 -8.5 68.5 -25.5s26.5 -38.5 26.5 -64.5s-8.83301 -47.5 -26.5 -64.5s-40.5 -25.5 -68.5 -25.5s-50.833 8.5 -68.5 25.5
s-26.5 38.5 -26.5 64.5z" />
    <glyph glyph-name="Zcaron" unicode="&#x17d;" horiz-adv-x="660" 
d="M45 0v180l305 340h-290v180h545v-180l-305 -340h315v-180h-570zM255 780l-130 160h155l50 -70l50 70h155l-130 -160h-150z" />
    <glyph glyph-name="zcaron" unicode="&#x17e;" horiz-adv-x="520" 
d="M40 0v160l195 170h-185v160h420v-160l-195 -170h205v-160h-440zM185 555l-130 160h155l50 -70l50 70h155l-130 -160h-150z" />
    <glyph glyph-name="uni018F" unicode="&#x18f;" horiz-adv-x="815" 
d="M35 350v45h540c-6 42 -25.5 77.5 -58.5 106.5s-73.5 43.5 -121.5 43.5c-44.667 0 -88.334 -11.667 -131.001 -35c-19.333 -12 -35.666 -23.667 -48.999 -35l-105 130c21.333 20.667 46.333 39.667 75 57c65.333 38.667 135.333 58 210 58c109.333 0 200 -35.333 272 -106
s108 -158.667 108 -264s-35.5 -193.333 -106.5 -264s-158.833 -106 -263.5 -106s-192.5 35.333 -263.5 106s-106.5 158.667 -106.5 264zM570 285h-329.998c6 -34.667 24.167 -65 54.5 -91s67.166 -39 110.499 -39s80.166 13 110.499 39s48.5 56.333 54.5 91z" />
    <glyph glyph-name="florin" unicode="&#x192;" horiz-adv-x="434" 
d="M-60 -195v144.999c4.66699 -2.66699 9.33398 -4.33398 14.001 -5.00098c11.333 -3.33301 23.333 -5 36 -5c36 0 57.667 16.667 65 50l55 290h-60v150h85l20 105c12 65.333 32.5 111.666 61.5 138.999s71.833 41 128.5 41c21.333 0 42.666 -2.66699 63.999 -8
c4 -1.33301 12.667 -3.66602 26 -6.99902v-145l-14 5c-10 3.33301 -22 5 -36 5c-38 0 -59.667 -16.667 -65 -50l-15 -85h90v-150h-115l-60 -310c-12 -65.333 -32.5 -111.666 -61.5 -138.999s-71.833 -41 -128.5 -41c-24 0 -45.333 2.33301 -64 7
c-2.66699 0.666992 -7 1.83398 -13 3.50098s-10.333 3.16699 -13 4.5z" />
    <glyph glyph-name="Aringacute" unicode="&#x1fa;" horiz-adv-x="730" 
d="M-5 0l265 700.001h40c-10 5.33301 -18.333 12 -25 20c-16.667 19.333 -25 41 -25 65c0 28 11.167 52.5 33.5 73.5s49.5 31.5 81.5 31.5s59.167 -10.5 81.5 -31.5s33.5 -45.5 33.5 -73.5c0 -22.667 -8.33301 -44.334 -25 -65.001c-6.66699 -8 -15 -14.667 -25 -20h40
l265 -700h-205l-50 150h-230l-50 -150h-205zM295 910.001l50 100h160l-65 -100h-145zM325 780.001c0 -12 4 -21.667 12 -29s17.333 -11 28 -11s20 3.66699 28 11s12 17 12 29s-4 21.667 -12 29s-17.333 11 -28 11s-20 -3.66699 -28 -11s-12 -17 -12 -29zM300 305.001h130
l-63 200h-4z" />
    <glyph glyph-name="aringacute" unicode="&#x1fb;" horiz-adv-x="540" 
d="M315 0l0.00195312 64.999h-5c-10 -15.333 -20.333 -28 -31 -38c-27.333 -24.667 -60.333 -37 -99 -37c-44.667 0 -81.667 13.667 -111 41s-44 60.333 -44 99c0 42 12.833 76.667 38.5 104s62.834 46 111.501 56l140 30c-2.66699 13.333 -10.334 25 -23.001 35
s-28.334 15 -47.001 15c-26 0 -50.667 -8.33301 -74 -25c-9.33301 -6.66699 -18 -15 -26 -25l-90 85c12.667 14.667 28 28.334 46 41.001c39.333 28.667 80.666 45 123.999 49c-11.333 6 -21.333 14 -30 24c-20 22.667 -30 49.667 -30 81c0 32.667 12.5 60.834 37.5 84.501
s55.833 35.5 92.5 35.5s67.5 -11.833 92.5 -35.5s37.5 -51.834 37.5 -84.501c0 -34 -13.333 -63.667 -40 -89c-10.667 -10 -24 -18.667 -40 -26c26.667 -9.33301 50 -22 70 -38c46.667 -37.333 70 -85 70 -143v-304h-170zM220.002 734.999l55 95h165l-70 -95h-150z
M315.002 204.999l0.000976562 15.001l-70 -15c-12.667 -2.66699 -23.334 -8.33398 -32.001 -17.001s-13 -18 -13 -28c0 -26.667 15 -40 45 -40c20.667 0 37.5 7.33301 50.5 22s19.5 35.667 19.5 63zM255.003 600c0 -12 4 -21.667 12 -29s17.333 -11 28 -11s20 3.66699 28 11
s12 17 12 29s-4 21.667 -12 29s-17.333 11 -28 11s-20 -3.66699 -28 -11s-12 -17 -12 -29z" />
    <glyph glyph-name="AEacute" unicode="&#x1fc;" horiz-adv-x="1015" 
d="M-50 0l390 700h625v-170h-315v-100h235v-160h-235v-100h325v-170h-515v155h-225l-85 -155h-200zM330 325h130v215h-10zM510 780l85 160h180l-120 -160h-145z" />
    <glyph glyph-name="aeacute" unicode="&#x1fd;" horiz-adv-x="865" 
d="M145 320l-90.0029 84.998c16 18.667 33.333 34.334 52 47.001c46.667 32 94.334 48 143.001 48c44.667 0 85 -13.333 121 -40c15.333 -12.667 28.333 -26 39 -40c10.667 14 25.334 27.333 44.001 40c38.667 26.667 82.334 40 131.001 40
c70 0 129.167 -24.167 177.5 -72.5s72.5 -107.5 72.5 -177.5c0 -4 -1 -17 -3 -39l-2 -16h-335c2.66699 -17.333 14.167 -33.333 34.5 -48s45.5 -22 75.5 -22c30.667 0 60 7.33301 88 22c14.667 8.66699 25.334 16.334 32.001 23.001l65 -110
c-15.333 -13.333 -33 -25 -53 -35c-42.667 -23.333 -91.667 -35 -147 -35c-53.333 0 -100.333 15 -141 45c-18 13.333 -32.667 28.333 -44 45c-14 -18 -29.667 -33 -47 -45c-42 -30 -91.333 -45 -148 -45c-57.333 0 -102.5 13.5 -135.5 40.5s-49.5 60.167 -49.5 99.5
c0 42 12.833 76.667 38.5 104s62.834 46 111.501 56l140 30c-2.66699 13.333 -10.334 25 -23.001 35s-28.334 15 -47.001 15c-26 0 -50.667 -8.33301 -74 -25c-9.33301 -6.66699 -18 -15 -26 -25zM494.997 299.998h170c-6 18.667 -16.333 34.167 -31 46.5
s-32.667 18.5 -54 18.5s-39.333 -6.16699 -54 -18.5s-25 -27.833 -31 -46.5zM314.997 204.998l0.000976562 15.001l-70 -15c-12.667 -2.66699 -23.334 -8.33398 -32.001 -17.001s-13 -18 -13 -28c0 -26.667 15 -40 45 -40c20.667 0 37.5 7.5 50.5 22.5
s19.5 35.833 19.5 62.5zM349.998 554.999l85 160h180l-120 -160h-145z" />
    <glyph glyph-name="Oslashacute" unicode="&#x1fe;" horiz-adv-x="860" 
d="M40 35l89.999 80c-16.667 18.667 -31.667 40.334 -45 65.001c-30 53.333 -45 110 -45 170c0 103.333 37.167 190.833 111.5 262.5s167.166 107.5 278.499 107.5c67.333 0 129.666 -15 186.999 -45c26.667 -13.333 49.334 -28.333 68.001 -45l90 80l45 -45l-90 -80
c16.667 -18.667 31.667 -40.334 45 -65.001c30 -53.333 45 -110 45 -170c0 -103.333 -37.167 -190.833 -111.5 -262.5s-167.166 -107.5 -278.499 -107.5c-68 0 -130.667 15 -188 45c-25.333 12.667 -47.666 27.667 -66.999 45l-90 -80zM594.999 455l-285 -260.001
c9.33301 -7.33301 20 -14 32 -20c25.333 -13.333 54.666 -20 87.999 -20c54.667 0 100.834 18.833 138.501 56.5s56.5 83.834 56.5 138.501c0 24 -5 49.667 -15 77c-4.66699 10 -9.66699 19.333 -15 28zM264.999 244.999l285 260.001c-9.33301 7.33301 -20 14 -32 20
c-25.333 13.333 -54.666 20 -87.999 20c-54.667 0 -100.834 -18.833 -138.501 -56.5s-56.5 -83.834 -56.5 -138.501c0 -27.333 5 -53 15 -77c4 -10.667 9 -20 15 -28zM354.999 780l85 160h180l-120 -160h-145z" />
    <glyph glyph-name="oslashacute" unicode="&#x1ff;" 
d="M85 -15l-45 45l55 55c-10.667 10.667 -20.667 24.334 -30 41.001c-20 36 -30 75.667 -30 119c0 70.667 25.833 130.834 77.5 180.501s115.834 74.5 192.501 74.5c40 0 80 -8.33301 120 -25c14.667 -6 29.667 -14.333 45 -25l55 55l45 -45l-55 -55
c10.667 -10.667 20.667 -24.334 30 -41.001c20 -36 30 -75.667 30 -119c0 -70.667 -25.833 -130.834 -77.5 -180.501s-115.834 -74.5 -192.501 -74.5c-42.667 0 -82.667 8.33301 -120 25c-14.667 6 -29.667 14.333 -45 25zM394 285l-133.999 -130
c4 -2.66699 7.66699 -4.33398 11 -5.00098c8.66699 -3.33301 20 -5 34 -5c25.333 0 47.5 9.83301 66.5 29.5s28.5 43.167 28.5 70.5c0 6 -0.5 12.333 -1.5 19s-1.83301 11.834 -2.5 15.501s-1.33398 5.5 -2.00098 5.5zM216.001 205l133.999 130.001l-11 5
c-8.66699 3.33301 -20 5 -34 5c-25.333 0 -47.5 -9.83301 -66.5 -29.5s-28.5 -43.167 -28.5 -70.5c0 -6 0.5 -12.333 1.5 -19s1.83301 -11.834 2.5 -15.501s1.33398 -5.5 2.00098 -5.5zM230 555.001l85 160h180l-120 -160h-145z" />
    <glyph glyph-name="Scommaaccent" unicode="&#x218;" 
d="M25 100l109.998 120c12 -14 25.667 -26.667 41 -38c35.333 -24.667 71.666 -37 108.999 -37c28.667 0 50.834 5.83301 66.501 17.5s23.5 25.834 23.5 42.501c0 14.667 -8.16699 27.5 -24.5 38.5s-36.666 20 -60.999 27s-50.833 16.5 -79.5 28.5s-55.167 25.5 -79.5 40.5
s-44.666 36.667 -60.999 65s-24.5 61.833 -24.5 100.5c0 58 24.333 108.333 73 151s112.667 64 192 64c70.667 0 132.667 -16.667 186 -50c24.667 -16 44.334 -32.667 59.001 -50l-110 -120c-9.33301 10.667 -19.666 19.667 -30.999 27c-24.667 18.667 -52.667 28 -84 28
c-26 0 -45.833 -4.83301 -59.5 -14.5s-20.5 -21.5 -20.5 -35.5c0 -14.667 8.16699 -27.5 24.5 -38.5s36.666 -20 60.999 -27s50.833 -16.5 79.5 -28.5s55.167 -25.5 79.5 -40.5s44.666 -36.667 60.999 -65s24.5 -61.833 24.5 -100.5
c0 -62.667 -25.167 -115.834 -75.5 -159.501s-116.833 -65.5 -199.5 -65.5c-80 0 -150.333 20 -211 60c-26.667 17.333 -49.667 37.333 -69 60zM184.998 -240l50 160h160l-75 -160h-135z" />
    <glyph glyph-name="scommaaccent" unicode="&#x219;" horiz-adv-x="465" 
d="M10 80l90.002 95.001c8 -10 17 -18.333 27 -25c22 -16.667 46.333 -25 73 -25s40 8.33301 40 25c0 8 -7 15.667 -21 23s-31 15 -51 23s-40.167 17.833 -60.5 29.5s-37.5 28.167 -51.5 49.5s-21 46.333 -21 75c0 42 17.667 77.5 53 106.5s84.333 43.5 147 43.5
c54 0 104.333 -12.667 151 -38c19.333 -10 37.333 -22.333 54 -37l-90 -95c-6.66699 6 -13.334 11.667 -20.001 17c-17.333 12 -34 18 -50 18c-26.667 0 -40 -8.33301 -40 -25c0 -8 7 -15.667 21 -23s31 -15 51 -23s40.167 -17.833 60.5 -29.5s37.5 -28.167 51.5 -49.5
s21 -46.333 21 -75c0 -42.667 -18.333 -78.334 -55 -107.001s-88.334 -43 -155.001 -43c-59.333 0 -114.333 15 -165 45c-22.667 12.667 -42.667 27.667 -60 45zM105.002 -239.999l50 160h160l-75 -160h-135z" />
    <glyph glyph-name="uni021A" unicode="&#x21a;" horiz-adv-x="620" 
d="M215 0v530h-195v170h580v-170h-195v-530h-190zM180 -240l50 160h160l-75 -160h-135z" />
    <glyph glyph-name="uni021B" unicode="&#x21b;" horiz-adv-x="420" 
d="M100 180v140h-70v160h30c17.333 0 31.666 5.66699 42.999 17s17 25.666 17 42.999v90h150v-150h95v-160h-95v-110c0 -40 18.333 -60 55 -60c12.667 0 24.667 1.66699 36 5c4.66699 0.666992 9.33398 2.33398 14.001 5.00098v-155l-29 -8c-22 -4.66699 -45.667 -7 -71 -7
c-53.333 0 -95.833 16.667 -127.5 50s-47.5 80 -47.5 140zM125 -240l50 160h160l-75 -160h-135z" />
    <glyph glyph-name="uni0232" unicode="&#x232;" horiz-adv-x="670" 
d="M240 0v250l-250 450h210l133 -275h4l133 275h210l-250 -450v-250h-190zM175 800v130h320v-130h-320z" />
    <glyph glyph-name="uni0233" unicode="&#x233;" horiz-adv-x="540" 
d="M45 -195v155c6 -2.66699 11.333 -4.33398 16 -5.00098c11.333 -3.33301 22.666 -5 33.999 -5c35.333 0 60.333 13.333 75 40l10 20l-180 480h185l83 -285h4l83 285h185l-195 -515c-26 -66.667 -54.667 -114.167 -86 -142.5s-72.666 -42.5 -123.999 -42.5
c-24 0 -45.333 2.33301 -64 7c-2.66699 0.666992 -7 1.83398 -13 3.50098s-10.333 3.16699 -13 4.5zM110 575v130h320v-130h-320z" />
    <glyph glyph-name="uni0244" unicode="&#x244;" horiz-adv-x="790" 
d="M85 285v90h-75v70h75v255h190v-255h240v255h190v-255h75v-70h-75v-90c0 -88 -29.167 -160.833 -87.5 -218.5s-132.5 -86.5 -222.5 -86.5s-164.167 28.833 -222.5 86.5s-87.5 130.5 -87.5 218.5zM275 375l-0.00195312 -90c0 -36.667 11.833 -67.5 35.5 -92.5
s51.834 -37.5 84.501 -37.5s60.834 12.5 84.501 37.5s35.5 55.833 35.5 92.5v90h-240z" />
    <glyph glyph-name="uni0259" unicode="&#x259;" horiz-adv-x="580" 
d="M35 295h334.998c-2.66699 17.333 -14.167 33.333 -34.5 48s-45.5 22 -75.5 22c-29.333 0 -58.666 -7.66699 -87.999 -23c-14 -8 -24.667 -15.333 -32 -22l-65 110c12 10.667 29.667 22.334 53 35.001c48 23.333 97 35 147 35c76.667 0 140.834 -24.833 192.501 -74.5
s77.5 -109.834 77.5 -180.501c0 -70 -25.333 -130 -76 -180s-112 -75 -184 -75s-132.5 24.167 -181.5 72.5s-73.5 107.5 -73.5 177.5c0 11.333 0.666992 24.333 2 39zM369.998 190h-170c6 -18.667 16.333 -34.167 31 -46.5s32.667 -18.5 54 -18.5s39.333 6.16699 54 18.5
s25 27.833 31 46.5z" />
    <glyph glyph-name="uni0289" unicode="&#x289;" horiz-adv-x="640" 
d="M75 195l0.000976562 75h-55v65h55v155h170v-155h150v155h170v-155h55v-65h-55v-270h-170v70h-5c-8.66699 -14 -19.667 -27.333 -33 -40c-30.667 -26.667 -66.334 -40 -107.001 -40c-51.333 0 -93.333 18.167 -126 54.5s-49 86.5 -49 150.5zM245.001 270v-39.999
c0 -24.667 6.5 -44.167 19.5 -58.5s29.833 -21.5 50.5 -21.5c23.333 0 42.5 8.16699 57.5 24.5s22.5 38.166 22.5 65.499v30h-150z" />
    <glyph glyph-name="uni02BC" unicode="&#x2bc;" horiz-adv-x="270" 
d="M30 550l50 160h160l-75 -160h-135z" />
    <glyph glyph-name="circumflex" unicode="&#x2c6;" horiz-adv-x="470" 
d="M30 550l130 160h150l130 -160h-155l-50 70l-50 -70h-155z" />
    <glyph glyph-name="caron" unicode="&#x2c7;" horiz-adv-x="470" 
d="M160 550l-130 160h155l50 -70l50 70h155l-130 -160h-150z" />
    <glyph glyph-name="breve" unicode="&#x2d8;" horiz-adv-x="400" 
d="M30 710h120c0 -15.333 4.5 -27.5 13.5 -36.5s21.167 -13.5 36.5 -13.5s27.5 4.5 36.5 13.5s13.5 21.167 13.5 36.5h120c0 -45.333 -16 -83.333 -48 -114s-72.667 -46 -122 -46s-90 15.333 -122 46s-48 68.667 -48 114z" />
    <glyph glyph-name="dotaccent" unicode="&#x2d9;" horiz-adv-x="250" 
d="M30 640c0 26 8.83301 47.5 26.5 64.5s40.5 25.5 68.5 25.5s50.833 -8.5 68.5 -25.5s26.5 -38.5 26.5 -64.5s-8.83301 -47.5 -26.5 -64.5s-40.5 -25.5 -68.5 -25.5s-50.833 8.5 -68.5 25.5s-26.5 38.5 -26.5 64.5z" />
    <glyph glyph-name="ring" unicode="&#x2da;" horiz-adv-x="320" 
d="M120 610c0 -12 4 -21.667 12 -29s17.333 -11 28 -11s20 3.66699 28 11s12 17 12 29s-4 21.667 -12 29s-17.333 11 -28 11s-20 -3.66699 -28 -11s-12 -17 -12 -29zM30 610c0 32.667 12.5 60.834 37.5 84.501s55.833 35.5 92.5 35.5s67.5 -11.833 92.5 -35.5
s37.5 -51.834 37.5 -84.501s-12.5 -60.834 -37.5 -84.501s-55.833 -35.5 -92.5 -35.5s-67.5 11.833 -92.5 35.5s-37.5 51.834 -37.5 84.501z" />
    <glyph glyph-name="ogonek" unicode="&#x2db;" horiz-adv-x="270" 
d="M110 0l70.002 -0.000976562c-6 -9.33301 -11 -20 -15 -32c-10 -24 -15 -48.333 -15 -73c0 -26.667 13.333 -40 40 -40c14 0 26 2.33301 36 7l7 3.5c3.33301 1.66699 5.66602 3.16699 6.99902 4.5v-90c-6.66699 -4 -14.334 -7.33301 -23.001 -10
c-20 -6.66699 -42.333 -10 -67 -10c-34 0 -62.5 10.667 -85.5 32s-34.5 47.333 -34.5 78c0 32.667 13.333 64.334 40 95.001c10.667 12 24 23.667 40 35z" />
    <glyph glyph-name="tilde" unicode="&#x2dc;" horiz-adv-x="430" 
d="M30 550v40c0 41.333 9.66699 73.333 29 96s44.666 34 75.999 34c22 0 45.833 -7.5 71.5 -22.5s43.5 -22.5 53.5 -22.5c23.333 0 35 15 35 45h105v-40c0 -41.333 -9.66699 -73.333 -29 -96s-44.666 -34 -75.999 -34c-22 0 -45.833 7.5 -71.5 22.5s-43.5 22.5 -53.5 22.5
c-23.333 0 -35 -15 -35 -45h-105z" />
    <glyph glyph-name="hungarumlaut" unicode="&#x2dd;" horiz-adv-x="520" 
d="M30 550l90 160h160l-125 -160h-125zM240 550l90 160h160l-125 -160h-125z" />
    <glyph glyph-name="acutecomb" unicode="&#x301;" horiz-adv-x="0" 
d="M-470 750l85 160h180l-120 -160h-145z" />
    <glyph glyph-name="uni0302" unicode="&#x302;" horiz-adv-x="0" 
d="M-605 750l130 160h150l130 -160h-155l-50 70l-50 -70h-155z" />
    <glyph glyph-name="uni0304" unicode="&#x304;" horiz-adv-x="0" 
d="M-555 790v130h320v-130h-320z" />
    <glyph glyph-name="uni0306" unicode="&#x306;" horiz-adv-x="0" 
d="M-565 910h120c0 -15.333 4.5 -27.5 13.5 -36.5s21.167 -13.5 36.5 -13.5s27.5 4.5 36.5 13.5s13.5 21.167 13.5 36.5h120c0 -45.333 -16 -83.333 -48 -114s-72.667 -46 -122 -46s-90 15.333 -122 46s-48 68.667 -48 114z" />
    <glyph glyph-name="uni0307" unicode="&#x307;" horiz-adv-x="0" 
d="M-490 840c0 26 8.83301 47.5 26.5 64.5s40.5 25.5 68.5 25.5s50.833 -8.5 68.5 -25.5s26.5 -38.5 26.5 -64.5s-8.83301 -47.5 -26.5 -64.5s-40.5 -25.5 -68.5 -25.5s-50.833 8.5 -68.5 25.5s-26.5 38.5 -26.5 64.5z" />
    <glyph glyph-name="uni0308" unicode="&#x308;" horiz-adv-x="0" 
d="M-370 845c0 22.667 8.5 42.5 25.5 59.5s36.833 25.5 59.5 25.5s42.5 -8.5 59.5 -25.5s25.5 -36.833 25.5 -59.5s-8.5 -42.5 -25.5 -59.5s-36.833 -25.5 -59.5 -25.5s-42.5 8.5 -59.5 25.5s-25.5 36.833 -25.5 59.5zM-430 845c0 -22.667 -8.5 -42.5 -25.5 -59.5
s-36.833 -25.5 -59.5 -25.5s-42.5 8.5 -59.5 25.5s-25.5 36.833 -25.5 59.5s8.5 42.5 25.5 59.5s36.833 25.5 59.5 25.5s42.5 -8.5 59.5 -25.5s25.5 -36.833 25.5 -59.5z" />
    <glyph glyph-name="uni030A" unicode="&#x30a;" horiz-adv-x="0" 
d="M-435 850c0 -12 4 -21.667 12 -29s17.333 -11 28 -11s20 3.66699 28 11s12 17 12 29s-4 21.667 -12 29s-17.333 11 -28 11s-20 -3.66699 -28 -11s-12 -17 -12 -29zM-525 850c0 32.667 12.5 60.834 37.5 84.501s55.833 35.5 92.5 35.5s67.5 -11.833 92.5 -35.5
s37.5 -51.834 37.5 -84.501s-12.5 -60.834 -37.5 -84.501s-55.833 -35.5 -92.5 -35.5s-67.5 11.833 -92.5 35.5s-37.5 51.834 -37.5 84.501z" />
    <glyph glyph-name="uni030C" unicode="&#x30c;" horiz-adv-x="0" 
d="M-465 750l-130 160h155l50 -70l50 70h155l-130 -160h-150z" />
    <glyph glyph-name="uni0326" unicode="&#x326;" horiz-adv-x="270" 
d="M30 -240l50 160h160l-75 -160h-135z" />
    <glyph glyph-name="Alphatonos" unicode="&#x386;" horiz-adv-x="740" 
d="M310 305h130l-63 200h-4zM5 0l265 700h210l265 -700h-205l-50 150h-230l-50 -150h-205zM-40 540l85 160h180l-120 -160h-145z" />
    <glyph glyph-name="Epsilontonos" unicode="&#x388;" horiz-adv-x="765" 
d="M180 0v700h535v-170h-345v-100h265v-160h-265v-100h355v-170h-545zM-86 540l85 160h180l-120 -160h-145z" />
    <glyph glyph-name="Etatonos" unicode="&#x389;" horiz-adv-x="895" 
d="M180 0v700h190v-255h255v255h190v-700h-190v265h-255v-265h-190zM-85 540l85 160h180l-120 -160h-145z" />
    <glyph glyph-name="Iotatonos" unicode="&#x38a;" horiz-adv-x="460" 
d="M190 0v700h190v-700h-190zM-85 540l85 160h180l-120 -160h-145z" />
    <glyph glyph-name="Omicrontonos" unicode="&#x38c;" horiz-adv-x="900" 
d="M275 350c0 -54.667 18.833 -100.834 56.5 -138.501s83.834 -56.5 138.501 -56.5s100.834 18.833 138.501 56.5s56.5 83.834 56.5 138.501s-18.833 100.834 -56.5 138.501s-83.834 56.5 -138.501 56.5s-100.834 -18.833 -138.501 -56.5s-56.5 -83.834 -56.5 -138.501z
M80 350c0 103.333 37.167 190.833 111.5 262.5s167.166 107.5 278.499 107.5s204.166 -35.833 278.499 -107.5s111.5 -159.167 111.5 -262.5s-37.167 -190.833 -111.5 -262.5s-167.166 -107.5 -278.499 -107.5s-204.166 35.833 -278.499 107.5s-111.5 159.167 -111.5 262.5z
M-40 540l85 160h180l-120 -160h-145z" />
    <glyph glyph-name="Upsilontonos" unicode="&#x38e;" horiz-adv-x="860" 
d="M430 0v250l-250 450h210l133 -275h4l133 275h210l-250 -450v-250h-190zM-85 540l85 160h180l-120 -160h-145z" />
    <glyph glyph-name="Omegatonos" unicode="&#x38f;" horiz-adv-x="930" 
d="M115 0l-0.00195312 150h105c-23.333 15.333 -43.333 33.666 -60 54.999c-40 48 -60 106.333 -60 175c0 94.667 36.333 175 109 241s166.334 99 281.001 99s208.334 -33 281.001 -99s109 -146.333 109 -241c0 -68.667 -20 -127 -60 -175
c-16.667 -21.333 -36.667 -39.666 -60 -54.999h105v-150h-325v160c96.667 28.667 145 92 145 190c0 57.333 -18.833 105 -56.5 143s-83.834 57 -138.501 57c-55.333 0 -101.666 -19 -138.999 -57s-56 -85.667 -56 -143c0 -98 48.333 -161.333 145 -190v-160h-325z
M-70.002 540l85 160h180l-120 -160h-145z" />
    <glyph glyph-name="iotadieresistonos" unicode="&#x390;" horiz-adv-x="320" 
d="M-95 635c0 22.667 8.5 42.5 25.5 59.5s36.833 25.5 59.5 25.5s42.5 -8.5 59.5 -25.5s25.5 -36.833 25.5 -59.5s-8.5 -42.5 -25.5 -59.5s-36.833 -25.5 -59.5 -25.5s-42.5 8.5 -59.5 25.5s-25.5 36.833 -25.5 59.5zM215 635c0 22.667 8.5 42.5 25.5 59.5
s36.833 25.5 59.5 25.5s42.5 -8.5 59.5 -25.5s25.5 -36.833 25.5 -59.5s-8.5 -42.5 -25.5 -59.5s-36.833 -25.5 -59.5 -25.5s-42.5 8.5 -59.5 25.5s-25.5 36.833 -25.5 59.5zM60 555l80 160h100l-120 -160h-60zM60 165v325.001h170v-285c0 -17.333 4.5 -30.833 13.5 -40.5
s21.167 -14.5 36.5 -14.5c4.66699 0 11.667 0.666992 21 2l9 3v-150c-2.66699 -1.33301 -7 -2.83301 -13 -4.5s-10.333 -2.83398 -13 -3.50098c-18.667 -4.66699 -40 -7 -64 -7c-48.667 0 -87.5 15.5 -116.5 46.5s-43.5 73.833 -43.5 128.5z" />
    <glyph glyph-name="Alpha" unicode="&#x391;" horiz-adv-x="730" 
d="M300 305h130l-63 200h-4zM-5 0l265 700h210l265 -700h-205l-50 150h-230l-50 -150h-205z" />
    <glyph glyph-name="Beta" unicode="&#x392;" horiz-adv-x="705" 
d="M80 0l-0.00195312 699.998h310c76.667 0 136.667 -17.667 180 -53s65 -79.333 65 -132c0 -47.333 -17.667 -86 -53 -116c-13.333 -11.333 -30.666 -21 -51.999 -29c26 -9.33301 49.333 -21.666 70 -36.999c46.667 -36 70 -82 70 -138
c0 -55.333 -22.667 -101.666 -68 -138.999s-107.666 -56 -186.999 -56h-335zM269.998 149.998h130c22 0 40 6.66699 54 20s21 30 21 50s-7 36.667 -21 50s-32 20 -54 20h-130v-140zM269.998 429.998h105c20 0 35.833 5.5 47.5 16.5s17.5 25.5 17.5 43.5
s-5.83301 32.5 -17.5 43.5s-27.5 16.5 -47.5 16.5h-105v-120z" />
    <glyph glyph-name="Gamma" unicode="&#x393;" horiz-adv-x="590" 
d="M80 0v700h490v-180h-300v-520h-190z" />
    <glyph glyph-name="uni0394" unicode="&#x394;" horiz-adv-x="720" 
d="M-10 0l265 700h210l265 -700h-740zM240 170h240l-118 335h-4z" />
    <glyph glyph-name="Epsilon" unicode="&#x395;" horiz-adv-x="665" 
d="M80 0v700h535v-170h-345v-100h265v-160h-265v-100h355v-170h-545z" />
    <glyph glyph-name="Zeta" unicode="&#x396;" horiz-adv-x="660" 
d="M45 0v180l305 340h-290v180h545v-180l-305 -340h315v-180h-570z" />
    <glyph glyph-name="Eta" unicode="&#x397;" horiz-adv-x="795" 
d="M80 0v700h190v-255h255v255h190v-700h-190v265h-255v-265h-190z" />
    <glyph glyph-name="Theta" unicode="&#x398;" horiz-adv-x="860" 
d="M40 350c0 103.333 37.167 190.833 111.5 262.5s167.166 107.5 278.499 107.5s204.166 -35.833 278.499 -107.5s111.5 -159.167 111.5 -262.5s-37.167 -190.833 -111.5 -262.5s-167.166 -107.5 -278.499 -107.5s-204.166 35.833 -278.499 107.5
s-111.5 159.167 -111.5 262.5zM235 350c0 -54.667 18.833 -100.834 56.5 -138.501s83.834 -56.5 138.501 -56.5s100.834 18.833 138.501 56.5s56.5 83.834 56.5 138.501s-18.833 100.834 -56.5 138.501s-83.834 56.5 -138.501 56.5s-100.834 -18.833 -138.501 -56.5
s-56.5 -83.834 -56.5 -138.501zM290 315v70h280v-70h-280z" />
    <glyph glyph-name="Iota" unicode="&#x399;" horiz-adv-x="350" 
d="M80 0v700h190v-700h-190z" />
    <glyph glyph-name="Kappa" unicode="&#x39a;" horiz-adv-x="720" 
d="M80 0v700h190v-270l230 270h220l-250 -290l270 -410h-220l-175 265l-75 -85v-180h-190z" />
    <glyph glyph-name="Lambda" unicode="&#x39b;" horiz-adv-x="730" 
d="M-5 0l265 700h210l265 -700h-205l-163 505h-4l-163 -505h-205z" />
    <glyph glyph-name="Mu" unicode="&#x39c;" horiz-adv-x="930" 
d="M80 0v700h170l215 -270l215 270h170v-700h-190v415l-195 -245l-195 245v-415h-190z" />
    <glyph glyph-name="Nu" unicode="&#x39d;" horiz-adv-x="815" 
d="M80 0v700h165l300 -385v385h190v-700h-165l-300 385v-385h-190z" />
    <glyph glyph-name="Xi" unicode="&#x39e;" horiz-adv-x="680" 
d="M40 0v160h600v-160h-600zM50 540v160h580v-160h-580zM125 280v150h430v-150h-430z" />
    <glyph glyph-name="Omicron" unicode="&#x39f;" horiz-adv-x="860" 
d="M235 350c0 -54.667 18.833 -100.834 56.5 -138.501s83.834 -56.5 138.501 -56.5s100.834 18.833 138.501 56.5s56.5 83.834 56.5 138.501s-18.833 100.834 -56.5 138.501s-83.834 56.5 -138.501 56.5s-100.834 -18.833 -138.501 -56.5s-56.5 -83.834 -56.5 -138.501z
M40 350c0 103.333 37.167 190.833 111.5 262.5s167.166 107.5 278.499 107.5s204.166 -35.833 278.499 -107.5s111.5 -159.167 111.5 -262.5s-37.167 -190.833 -111.5 -262.5s-167.166 -107.5 -278.499 -107.5s-204.166 35.833 -278.499 107.5s-111.5 159.167 -111.5 262.5z
" />
    <glyph glyph-name="Pi" unicode="&#x3a0;" horiz-adv-x="785" 
d="M80 0v700h625v-700h-190v520h-245v-520h-190z" />
    <glyph glyph-name="Rho" unicode="&#x3a1;" horiz-adv-x="695" 
d="M80 0v700h315c76.667 0 139.167 -23.167 187.5 -69.5s72.5 -104.833 72.5 -175.5s-24.167 -129.167 -72.5 -175.5s-110.833 -69.5 -187.5 -69.5h-125v-210h-190zM270 380h115c22 0 40.833 7.5 56.5 22.5s23.5 32.5 23.5 52.5s-7.83301 37.5 -23.5 52.5
s-34.5 22.5 -56.5 22.5h-115v-150z" />
    <glyph glyph-name="Sigma" unicode="&#x3a3;" horiz-adv-x="625" 
d="M50 0v150l175 205l-175 195v150h535v-180h-300l150 -165l-150 -175h300v-180h-535z" />
    <glyph glyph-name="Tau" unicode="&#x3a4;" horiz-adv-x="620" 
d="M215 0v530h-195v170h580v-170h-195v-530h-190z" />
    <glyph glyph-name="Upsilon" unicode="&#x3a5;" horiz-adv-x="670" 
d="M240 0v250l-250 450h210l133 -275h4l133 275h210l-250 -450v-250h-190z" />
    <glyph glyph-name="Phi" unicode="&#x3a6;" horiz-adv-x="900" 
d="M355 195v320c-39.333 -6 -70.833 -22.5 -94.5 -49.5s-35.5 -63.833 -35.5 -110.5s11.833 -83.5 35.5 -110.5s55.167 -43.5 94.5 -49.5zM545 515v-320c39.333 6 70.833 22.5 94.5 49.5s35.5 63.833 35.5 110.5s-11.833 83.5 -35.5 110.5s-55.167 43.5 -94.5 49.5zM355 -50
v80c-92.667 9.33301 -169.167 44.666 -229.5 105.999s-90.5 134.333 -90.5 219c0 85.333 30 158.166 90 218.499s136.667 95.833 230 106.5v80h190v-80c93.333 -10.667 170 -46.167 230 -106.5s90 -133.166 90 -218.499c0 -84.667 -30.167 -157.667 -90.5 -219
s-136.833 -96.666 -229.5 -105.999v-80h-190z" />
    <glyph glyph-name="Chi" unicode="&#x3a7;" horiz-adv-x="680" 
d="M-10 0l225 365l-205 335h210l118 -210h4l118 210h210l-205 -335l225 -365h-210l-138 240h-4l-138 -240h-210z" />
    <glyph glyph-name="Psi" unicode="&#x3a8;" horiz-adv-x="900" 
d="M355 0l0.00195312 180c-92.667 5.33301 -165.834 35.333 -219.501 90s-80.5 128 -80.5 220v210h190v-210c0 -81.333 36.667 -124.666 110 -129.999v340h190v-340c73.333 5.33301 110 48.666 110 129.999v210h190v-210c0 -92 -26.833 -165.333 -80.5 -220
s-126.834 -84.667 -219.501 -90v-180h-190z" />
    <glyph glyph-name="uni03A9" unicode="&#x3a9;" horiz-adv-x="880" 
d="M65 0l-0.00195312 150h105c-23.333 15.333 -43.333 33.666 -60 54.999c-40 48 -60 106.333 -60 175c0 94.667 36.333 175 109 241s166.334 99 281.001 99s208.334 -33 281.001 -99s109 -146.333 109 -241c0 -68.667 -20 -127 -60 -175
c-16.667 -21.333 -36.667 -39.666 -60 -54.999h105v-150h-325v160c96.667 28.667 145 92 145 190c0 57.333 -18.833 105 -56.5 143s-83.834 57 -138.501 57c-55.333 0 -101.666 -19 -138.999 -57s-56 -85.667 -56 -143c0 -98 48.333 -161.333 145 -190v-160h-325z" />
    <glyph glyph-name="Iotadieresis" unicode="&#x3aa;" horiz-adv-x="350" 
d="M80 0v700h190v-700h-190zM205 865c0 22.667 8.5 42.5 25.5 59.5s36.833 25.5 59.5 25.5s42.5 -8.5 59.5 -25.5s25.5 -36.833 25.5 -59.5s-8.5 -42.5 -25.5 -59.5s-36.833 -25.5 -59.5 -25.5s-42.5 8.5 -59.5 25.5s-25.5 36.833 -25.5 59.5zM145 865
c0 -22.667 -8.5 -42.5 -25.5 -59.5s-36.833 -25.5 -59.5 -25.5s-42.5 8.5 -59.5 25.5s-25.5 36.833 -25.5 59.5s8.5 42.5 25.5 59.5s36.833 25.5 59.5 25.5s42.5 -8.5 59.5 -25.5s25.5 -36.833 25.5 -59.5z" />
    <glyph glyph-name="Upsilondieresis" unicode="&#x3ab;" horiz-adv-x="670" 
d="M240 0v250l-250 450h210l133 -275h4l133 275h210l-250 -450v-250h-190zM365 865c0 22.667 8.5 42.5 25.5 59.5s36.833 25.5 59.5 25.5s42.5 -8.5 59.5 -25.5s25.5 -36.833 25.5 -59.5s-8.5 -42.5 -25.5 -59.5s-36.833 -25.5 -59.5 -25.5s-42.5 8.5 -59.5 25.5
s-25.5 36.833 -25.5 59.5zM305 865c0 -22.667 -8.5 -42.5 -25.5 -59.5s-36.833 -25.5 -59.5 -25.5s-42.5 8.5 -59.5 25.5s-25.5 36.833 -25.5 59.5s8.5 42.5 25.5 59.5s36.833 25.5 59.5 25.5s42.5 -8.5 59.5 -25.5s25.5 -36.833 25.5 -59.5z" />
    <glyph glyph-name="alphatonos" unicode="&#x3ac;" horiz-adv-x="640" 
d="M430 70l-5.00098 0.00195312c-9.33301 -14 -22 -27.333 -38 -40c-36 -26.667 -78.333 -40 -127 -40c-64 0 -117.5 23.5 -160.5 70.5s-64.5 108.5 -64.5 184.5c0 75.333 21 136.666 63 183.999s92.667 71 152 71c44 0 81.333 -13.333 112 -40
c13.333 -12.667 24.333 -26 33 -40h5v70h170v-310c0 -20 10 -30 30 -30c2.66699 0 7.33398 0.666992 14.001 2l6 3v-150c-2.66699 -2 -8 -4.66699 -16 -8c-12.667 -4.66699 -29 -7 -49 -7c-42.667 0 -76.667 13.333 -102 40c-10 11.333 -17.667 24.666 -23 39.999z
M304.999 145.002c25.333 0 47.5 9.83301 66.5 29.5s28.5 43.167 28.5 70.5s-9.5 50.833 -28.5 70.5s-41.167 29.5 -66.5 29.5s-47.5 -9.83301 -66.5 -29.5s-28.5 -43.167 -28.5 -70.5s9.5 -50.833 28.5 -70.5s41.167 -29.5 66.5 -29.5zM249.999 555.002l85 160h180
l-120 -160h-145z" />
    <glyph glyph-name="epsilontonos" unicode="&#x3ad;" horiz-adv-x="480" 
d="M330 194l-49.9971 0.00195312c-40 0 -60 -11.333 -60 -34c0 -23.333 20 -35 60 -35c28 0 54.333 8.33301 79 25c11.333 7.33301 21.666 15.666 30.999 24.999l90 -95c-14.667 -16.667 -33.334 -31.667 -56.001 -45c-50.667 -30 -107 -45 -169 -45
c-70.667 0 -125 14 -163 42s-57 62.333 -57 103c0 40 18.333 71 55 93c15.333 9.33301 33.666 16.666 54.999 21.999c-18 4.66699 -34.667 11.667 -50 21c-33.333 21.333 -50 51 -50 89s18.167 70.833 54.5 98.5s86.5 41.5 150.5 41.5c56.667 0 109 -11.667 157 -35
c21.333 -11.333 39 -23 53 -35l-90 -95c-4.66699 3.33301 -13 8.33301 -25 15c-22.667 10 -46 15 -70 15c-14.667 0 -25.834 -3 -33.501 -9s-11.5 -13 -11.5 -21s3.83301 -15 11.5 -21s18.834 -9 33.501 -9h55v-111zM175.003 555.002l85 160h180l-120 -160h-145z" />
    <glyph glyph-name="etatonos" unicode="&#x3ae;" horiz-adv-x="605" 
d="M60 0v489.999h170v-70h5c7.33301 14 18 27.333 32 40c30.667 26.667 66.667 40 108 40c51.333 0 93.333 -18.333 126 -55s49 -86.667 49 -150v-295h-170v260c0 24.667 -6.5 44.167 -19.5 58.5s-29.833 21.5 -50.5 21.5c-23.333 0 -42.5 -8.16699 -57.5 -24.5
s-22.5 -38.166 -22.5 -65.499v-250h-170zM235 554.999l85 160h180l-120 -160h-145z" />
    <glyph glyph-name="iotatonos" unicode="&#x3af;" horiz-adv-x="320" 
d="M60 165v325.001h170v-285c0 -17.333 4.5 -30.833 13.5 -40.5s21.167 -14.5 36.5 -14.5c4.66699 0 11.667 0.666992 21 2l9 3v-150c-2.66699 -1.33301 -7 -2.83301 -13 -4.5s-10.333 -2.83398 -13 -3.50098c-18.667 -4.66699 -40 -7 -64 -7
c-48.667 0 -87.5 15.5 -116.5 46.5s-43.5 73.833 -43.5 128.5zM70 555.001l85 160h180l-120 -160h-145z" />
    <glyph glyph-name="upsilondieresistonos" unicode="&#x3b0;" 
d="M65 635c0 22.667 8.5 42.5 25.5 59.5s36.833 25.5 59.5 25.5s42.5 -8.5 59.5 -25.5s25.5 -36.833 25.5 -59.5s-8.5 -42.5 -25.5 -59.5s-36.833 -25.5 -59.5 -25.5s-42.5 8.5 -59.5 25.5s-25.5 36.833 -25.5 59.5zM375 635c0 22.667 8.5 42.5 25.5 59.5
s36.833 25.5 59.5 25.5s42.5 -8.5 59.5 -25.5s25.5 -36.833 25.5 -59.5s-8.5 -42.5 -25.5 -59.5s-36.833 -25.5 -59.5 -25.5s-42.5 8.5 -59.5 25.5s-25.5 36.833 -25.5 59.5zM220 555l80 160h100l-120 -160h-60zM60 220v270h170v-260c0 -20 7 -36.667 21 -50s32 -20 54 -20
s40 6.66699 54 20s21 30 21 50v260h170v-270c0 -68 -22.333 -123.333 -67 -166s-104 -64 -178 -64s-133.333 21.333 -178 64s-67 98 -67 166z" />
    <glyph glyph-name="alpha" unicode="&#x3b1;" horiz-adv-x="640" 
d="M430 70l-5.00098 0.00195312c-9.33301 -14 -22 -27.333 -38 -40c-36 -26.667 -78.333 -40 -127 -40c-64 0 -117.5 23.5 -160.5 70.5s-64.5 108.5 -64.5 184.5c0 75.333 21 136.666 63 183.999s92.667 71 152 71c44 0 81.333 -13.333 112 -40
c13.333 -12.667 24.333 -26 33 -40h5v70h170v-310c0 -20 10 -30 30 -30c2.66699 0 7.33398 0.666992 14.001 2l6 3v-150c-2.66699 -2 -8 -4.66699 -16 -8c-12.667 -4.66699 -29 -7 -49 -7c-42.667 0 -76.667 13.333 -102 40c-10 11.333 -17.667 24.666 -23 39.999z
M304.999 145.002c25.333 0 47.5 9.83301 66.5 29.5s28.5 43.167 28.5 70.5s-9.5 50.833 -28.5 70.5s-41.167 29.5 -66.5 29.5s-47.5 -9.83301 -66.5 -29.5s-28.5 -43.167 -28.5 -70.5s9.5 -50.833 28.5 -70.5s41.167 -29.5 66.5 -29.5z" />
    <glyph glyph-name="beta" unicode="&#x3b2;" 
d="M65 -210l-0.00195312 695c0 68 21.167 122.5 63.5 163.5s99.5 61.5 171.5 61.5c68 0 122.5 -18.167 163.5 -54.5s61.5 -81.5 61.5 -135.5c0 -38 -13.333 -72.333 -40 -103c-11.333 -12 -24.666 -22.667 -39.999 -32c24.667 -10 46.334 -23 65.001 -39
c43.333 -38 65 -83.333 65 -136c0 -62 -22.167 -112.5 -66.5 -151.5s-105.833 -58.5 -184.5 -58.5h-89v-210h-170zM234.998 155h85c23.333 0 41.666 5.83301 54.999 17.5s20 27.5 20 47.5c0 22 -6.5 39.167 -19.5 51.5s-31.5 18.5 -55.5 18.5h-45v145h20
c20 0 35.833 5.83301 47.5 17.5s17.5 27.5 17.5 47.5c0 17.333 -5.66699 31.666 -17 42.999s-25.666 17 -42.999 17c-20 0 -35.833 -6.66699 -47.5 -20s-17.5 -31.666 -17.5 -54.999v-330z" />
    <glyph glyph-name="gamma" unicode="&#x3b3;" horiz-adv-x="540" 
d="M185 -210v210l-185 490h185l83 -285h4l83 285h185l-185 -490v-210h-170z" />
    <glyph glyph-name="delta" unicode="&#x3b4;" horiz-adv-x="600" 
d="M85 570v130h430v-140h-180c153.333 -96.667 230 -206.667 230 -330c0 -66.667 -25.167 -123.334 -75.5 -170.001s-113.5 -70 -189.5 -70s-139.167 23.333 -189.5 70s-75.5 103.334 -75.5 170.001c0 58.667 19.667 109 59 151s89.666 68.333 150.999 79
c-27.333 27.333 -62.666 54.333 -105.999 81c-20 12 -38 21.667 -54 29zM210 230c0 -22.667 8.66699 -42.5 26 -59.5s38.666 -25.5 63.999 -25.5s46.666 8.5 63.999 25.5s26 36.833 26 59.5s-8.66699 42.5 -26 59.5s-38.666 25.5 -63.999 25.5s-46.666 -8.5 -63.999 -25.5
s-26 -36.833 -26 -59.5z" />
    <glyph glyph-name="epsilon" unicode="&#x3b5;" horiz-adv-x="480" 
d="M330 194l-49.9971 0.00195312c-40 0 -60 -11.333 -60 -34c0 -23.333 20 -35 60 -35c28 0 54.333 8.33301 79 25c11.333 7.33301 21.666 15.666 30.999 24.999l90 -95c-14.667 -16.667 -33.334 -31.667 -56.001 -45c-50.667 -30 -107 -45 -169 -45
c-70.667 0 -125 14 -163 42s-57 62.333 -57 103c0 40 18.333 71 55 93c15.333 9.33301 33.666 16.666 54.999 21.999c-18 4.66699 -34.667 11.667 -50 21c-33.333 21.333 -50 51 -50 89s18.167 70.833 54.5 98.5s86.5 41.5 150.5 41.5c56.667 0 109 -11.667 157 -35
c21.333 -11.333 39 -23 53 -35l-90 -95c-4.66699 3.33301 -13 8.33301 -25 15c-22.667 10 -46 15 -70 15c-14.667 0 -25.834 -3 -33.501 -9s-11.5 -13 -11.5 -21s3.83301 -15 11.5 -21s18.834 -9 33.501 -9h55v-111z" />
    <glyph glyph-name="zeta" unicode="&#x3b6;" horiz-adv-x="520" 
d="M450 -140l-139.999 -0.00195312c0 33.333 5 64.333 15 93c4.66699 14.667 9.66699 27 15 37l-17 -3c-14.667 -1.33301 -29 -2 -43 -2c-76 0 -135.833 19.833 -179.5 59.5s-65.5 91.5 -65.5 155.5c0 83.333 33.333 165 100 245c28.667 34.667 62 66.334 100 95.001h-180
v160h430v-140c-51.333 -29.333 -97.333 -61.333 -138 -96c-91.333 -78 -137 -152.667 -137 -224c0 -66.667 38.333 -100 115 -100c29.333 0 56 4 80 12c9.33301 2.66699 21 7 35 13l80 -100c-14.667 -21.333 -26.334 -41.666 -35.001 -60.999c-23.333 -48 -35 -96 -35 -144z
" />
    <glyph glyph-name="eta" unicode="&#x3b7;" horiz-adv-x="605" 
d="M60 0v489.999h170v-70h5c7.33301 14 18 27.333 32 40c30.667 26.667 66.667 40 108 40c51.333 0 93.333 -18.333 126 -55s49 -86.667 49 -150v-295h-170v260c0 24.667 -6.5 44.167 -19.5 58.5s-29.833 21.5 -50.5 21.5c-23.333 0 -42.5 -8.16699 -57.5 -24.5
s-22.5 -38.166 -22.5 -65.499v-250h-170z" />
    <glyph glyph-name="theta" unicode="&#x3b8;" horiz-adv-x="660" 
d="M330 -15c-83.333 0 -151.666 31.833 -204.999 95.5s-80 153.5 -80 269.5s26.667 205.833 80 269.5s121.666 95.5 204.999 95.5s151.666 -31.833 204.999 -95.5s80 -153.5 80 -269.5s-26.667 -205.833 -80 -269.5s-121.666 -95.5 -204.999 -95.5zM220 380h220
c-2.66699 61.333 -14 106.666 -34 135.999s-45.333 44 -76 44s-56 -14.667 -76 -44s-31.333 -74.666 -34 -135.999zM440 320h-220c2.66699 -61.333 14 -106.666 34 -135.999s45.333 -44 76 -44s56 14.667 76 44s31.333 74.666 34 135.999z" />
    <glyph glyph-name="iota" unicode="&#x3b9;" horiz-adv-x="320" 
d="M60 165v325.001h170v-285c0 -17.333 4.5 -30.833 13.5 -40.5s21.167 -14.5 36.5 -14.5c4.66699 0 11.667 0.666992 21 2l9 3v-150c-2.66699 -1.33301 -7 -2.83301 -13 -4.5s-10.333 -2.83398 -13 -3.50098c-18.667 -4.66699 -40 -7 -64 -7
c-48.667 0 -87.5 15.5 -116.5 46.5s-43.5 73.833 -43.5 128.5z" />
    <glyph glyph-name="kappa" unicode="&#x3ba;" horiz-adv-x="570" 
d="M60 0v490h170v-165l145 165h200l-185 -205l190 -285h-190l-115 180l-45 -55v-125h-170z" />
    <glyph glyph-name="lambda" unicode="&#x3bb;" horiz-adv-x="540" 
d="M0 0l194.999 489.999l-10 19c-16 30.667 -41 46 -75 46c-14 0 -26 -1.66699 -36 -5l-14 -5v150l27 7c22.667 5.33301 45.334 8 68.001 8c50.667 0 92.667 -16.167 126 -48.5s63 -86.166 89 -161.499l170 -500h-180l-78 280h-4l-98 -280h-180z" />
    <glyph glyph-name="uni03BC" unicode="&#x3bc;" 
d="M60 -210l0.000976562 700.001h170v-260c0 -24.667 6.5 -44.167 19.5 -58.5s29.833 -21.5 50.5 -21.5c23.333 0 42.5 8.16699 57.5 24.5s22.5 38.166 22.5 65.499v250h170v-490h-170v70h-5c-8.66699 -14 -19.667 -27.333 -33 -40
c-30.667 -26.667 -66.334 -40 -107.001 -40h-6v-200h-169z" />
    <glyph glyph-name="nu" unicode="&#x3bd;" horiz-adv-x="540" 
d="M185 0l-185 490h185l83 -285h4l83 285h185l-185 -490h-170z" />
    <glyph glyph-name="xi" unicode="&#x3be;" horiz-adv-x="515" 
d="M450 -140l-139.998 -0.000976562c0 33.333 5 64.333 15 93c4.66699 14.667 9.66699 27 15 37l-16 -3c-12 -1.33301 -23.333 -2 -34 -2c-74.667 0 -135.834 20.5 -183.501 61.5s-71.5 88.833 -71.5 143.5c0 62 24 111.667 72 149c20.667 16 45 28 73 36v4
c-24 7.33301 -45 17.333 -63 30c-41.333 30.667 -62 71 -62 121s22.333 93.333 67 130s104 55 178 55c56.667 0 103 -9.33301 139 -28c17.333 -8 31 -17 41 -27l-85 -125c-7.33301 4.66699 -15.333 8.66699 -24 12c-18.667 8.66699 -39 13 -61 13
c-24.667 0 -44.167 -5.83301 -58.5 -17.5s-21.5 -25.834 -21.5 -42.501s7.16699 -30.834 21.5 -42.501s33.833 -17.5 58.5 -17.5h80v-150h-80c-31.333 0 -55.833 -7.16699 -73.5 -21.5s-26.5 -32.166 -26.5 -53.499s9.66699 -39.166 29 -53.499s48 -21.5 86 -21.5
c30.667 0 58 4 82 12c9.33301 2.66699 20.333 7 33 13l80 -100c-14.667 -21.333 -26.334 -41.666 -35.001 -60.999c-23.333 -48 -35 -96 -35 -144z" />
    <glyph glyph-name="omicron" unicode="&#x3bf;" 
d="M305 145c25.333 0 47.5 9.83301 66.5 29.5s28.5 43.167 28.5 70.5s-9.5 50.833 -28.5 70.5s-41.167 29.5 -66.5 29.5s-47.5 -9.83301 -66.5 -29.5s-28.5 -43.167 -28.5 -70.5s9.5 -50.833 28.5 -70.5s41.167 -29.5 66.5 -29.5zM35 245
c0 70.667 25.833 130.834 77.5 180.501s115.834 74.5 192.501 74.5s140.834 -24.833 192.501 -74.5s77.5 -109.834 77.5 -180.501s-25.833 -130.834 -77.5 -180.501s-115.834 -74.5 -192.501 -74.5s-140.834 24.833 -192.501 74.5s-77.5 109.834 -77.5 180.501z" />
    <glyph glyph-name="pi" unicode="&#x3c0;" 
d="M60 0v490h490v-490h-170v330h-150v-330h-170z" />
    <glyph glyph-name="rho" unicode="&#x3c1;" horiz-adv-x="625" 
d="M55 -210l0.000976562 455.003c0 70 26 130 78 180s114.333 75 187 75c76.667 0 140.834 -24.833 192.501 -74.5s77.5 -109.834 77.5 -180.501s-25.833 -130.834 -77.5 -180.501s-115.834 -74.5 -192.501 -74.5c-22.667 0 -45.334 3.33301 -68.001 10
c-11.333 3.33301 -20.333 6.66602 -27 9.99902v-220h-170zM320.001 145.003c25.333 0 47.5 9.83301 66.5 29.5s28.5 43.167 28.5 70.5s-9.5 50.833 -28.5 70.5s-41.167 29.5 -66.5 29.5s-47.5 -9.83301 -66.5 -29.5s-28.5 -43.167 -28.5 -70.5s9.5 -50.833 28.5 -70.5
s41.167 -29.5 66.5 -29.5z" />
    <glyph glyph-name="sigma1" unicode="&#x3c2;" horiz-adv-x="535" 
d="M420 -140l-140.001 -0.00390625c0 33.333 5 64.333 15 93c4.66699 14.667 9.66699 27 15 37h-5c-76.667 0 -140.834 24.833 -192.501 74.5s-77.5 109.834 -77.5 180.501s25.833 130.834 77.5 180.501s115.834 74.5 192.501 74.5c54.667 0 105.334 -12.667 152.001 -38
c17.333 -9.33301 35 -21.666 53 -36.999l-100 -120c-6.66699 6.66699 -15 13.334 -25 20.001c-19.333 13.333 -42.666 20 -69.999 20c-30 0 -55 -9.66699 -75 -29s-30 -43 -30 -71c0 -30 10.167 -54.167 30.5 -72.5s48.5 -27.5 84.5 -27.5c20.667 0 41 3.33301 61 10
c10.667 3.33301 18.667 6.66602 24 9.99902l80 -100c-14.667 -21.333 -26.334 -41.666 -35.001 -60.999c-23.333 -48 -35 -96 -35 -144z" />
    <glyph glyph-name="sigma" unicode="&#x3c3;" horiz-adv-x="645" 
d="M305 490h330.002v-165h-80c3.33301 -5.33301 6.66602 -13.333 9.99902 -24c6.66699 -20 10 -40.333 10 -61c0 -68.667 -25.833 -127.5 -77.5 -176.5s-115.834 -73.5 -192.501 -73.5s-140.834 24.5 -192.501 73.5s-77.5 107.833 -77.5 176.5s25.833 127.5 77.5 176.5
s115.834 73.5 192.501 73.5zM210.002 240c0 -26 9 -48.333 27 -67s40.667 -28 68 -28s50 9.33301 68 28s27 41 27 67s-9 48.333 -27 67s-40.667 28 -68 28s-50 -9.33301 -68 -28s-27 -41 -27 -67z" />
    <glyph glyph-name="tau" unicode="&#x3c4;" horiz-adv-x="490" 
d="M160 165v165.001h-140v160h450v-160h-140v-125c0 -17.333 4.5 -30.833 13.5 -40.5s21.167 -14.5 36.5 -14.5c4.66699 0 11.667 0.666992 21 2l9 3v-150c-2.66699 -1.33301 -7 -2.83301 -13 -4.5s-10.333 -2.83398 -13 -3.50098c-18.667 -4.66699 -40 -7 -64 -7
c-48.667 0 -87.5 15.5 -116.5 46.5s-43.5 73.833 -43.5 128.5z" />
    <glyph glyph-name="upsilon" unicode="&#x3c5;" 
d="M60 220v270h170v-260c0 -20 7 -36.667 21 -50s32 -20 54 -20s40 6.66699 54 20s21 30 21 50v260h170v-270c0 -68 -22.333 -123.333 -67 -166s-104 -64 -178 -64s-133.333 21.333 -178 64s-67 98 -67 166z" />
    <glyph glyph-name="phi" unicode="&#x3c6;" horiz-adv-x="770" 
d="M470 350v-220c30.667 2.66699 55 13.667 73 33s27 45 27 77s-9 57.667 -27 77s-42.333 30.333 -73 33zM300 -210l-0.00292969 190c-77.333 5.33301 -141.666 33 -192.999 83s-77 109 -77 177c0 56 16 104.5 48 145.5s72.667 72.5 122 94.5l75 -134
c-21.333 -6 -39.166 -18 -53.499 -36s-21.5 -41.333 -21.5 -70c0 -32 9 -57.667 27 -77s42.333 -30.333 73 -33v370h140c88 0 160 -25.333 216 -76s84 -112 84 -184c0 -68 -25.667 -127 -77 -177s-115.666 -77.667 -192.999 -83v-190h-170z" />
    <glyph glyph-name="chi" unicode="&#x3c7;" horiz-adv-x="530" 
d="M-5 0l155 250l-145 240h185l73 -145h4l73 145h185l-145 -240l155 -250h-185l-83 155h-4l-83 -155h-185z" />
    <glyph glyph-name="psi" unicode="&#x3c8;" horiz-adv-x="800" 
d="M315 -210l-0.00195312 190c-173.333 20 -260 113.333 -260 280v230h170v-230c0 -37.333 7.33301 -64.333 22 -81s37.334 -26.334 68.001 -29.001v340h170v-340c30.667 2.66699 53.334 12.334 68.001 29.001s22 43.667 22 81v230h170v-230
c0 -166.667 -86.667 -260 -260 -280v-190h-170z" />
    <glyph glyph-name="omega" unicode="&#x3c9;" horiz-adv-x="830" 
d="M330 240l-0.00585938 105h170v-105c0 -30.667 5.83301 -54.167 17.5 -70.5s25.834 -24.5 42.501 -24.5s30.834 8.16699 42.501 24.5s17.5 39.833 17.5 70.5c0 21.333 -3.16699 40.833 -9.5 58.5s-12.666 30.334 -18.999 38.001s-15.166 17.167 -26.499 28.5l75 130
c40.667 -17.333 76.667 -48.166 108 -92.499s47 -98.5 47 -162.5c0 -75.333 -21.667 -137.5 -65 -186.5s-95 -73.5 -155 -73.5c-50.667 0 -92.334 15.667 -125.001 47c-14 12.667 -25.667 28.667 -35 48c-9.33301 -19.333 -21 -35.333 -35 -48
c-32.667 -31.333 -74.334 -47 -125.001 -47c-60 0 -111.667 24.5 -155 73.5s-65 111.167 -65 186.5c0 64 15.667 118.167 47 162.5s67.333 75.166 108 92.499l75 -130c-11.333 -11.333 -20.166 -20.833 -26.499 -28.5s-12.666 -20.334 -18.999 -38.001
s-9.5 -37.167 -9.5 -58.5c0 -30.667 5.83301 -54.167 17.5 -70.5s25.834 -24.5 42.501 -24.5s30.834 8.16699 42.501 24.5s17.5 39.833 17.5 70.5z" />
    <glyph glyph-name="iotadieresis" unicode="&#x3ca;" horiz-adv-x="320" 
d="M60 165v325.001h170v-285c0 -17.333 4.5 -30.833 13.5 -40.5s21.167 -14.5 36.5 -14.5c4.66699 0 11.667 0.666992 21 2l9 3v-150c-2.66699 -1.33301 -7 -2.83301 -13 -4.5s-10.333 -2.83398 -13 -3.50098c-18.667 -4.66699 -40 -7 -64 -7
c-48.667 0 -87.5 15.5 -116.5 46.5s-43.5 73.833 -43.5 128.5zM175 640.001c0 22.667 8.5 42.5 25.5 59.5s36.833 25.5 59.5 25.5s42.5 -8.5 59.5 -25.5s25.5 -36.833 25.5 -59.5s-8.5 -42.5 -25.5 -59.5s-36.833 -25.5 -59.5 -25.5s-42.5 8.5 -59.5 25.5
s-25.5 36.833 -25.5 59.5zM115 640.001c0 -22.667 -8.5 -42.5 -25.5 -59.5s-36.833 -25.5 -59.5 -25.5s-42.5 8.5 -59.5 25.5s-25.5 36.833 -25.5 59.5s8.5 42.5 25.5 59.5s36.833 25.5 59.5 25.5s42.5 -8.5 59.5 -25.5s25.5 -36.833 25.5 -59.5z" />
    <glyph glyph-name="upsilondieresis" unicode="&#x3cb;" 
d="M60 220v270h170v-260c0 -20 7 -36.667 21 -50s32 -20 54 -20s40 6.66699 54 20s21 30 21 50v260h170v-270c0 -68 -22.333 -123.333 -67 -166s-104 -64 -178 -64s-133.333 21.333 -178 64s-67 98 -67 166zM335 640c0 22.667 8.5 42.5 25.5 59.5s36.833 25.5 59.5 25.5
s42.5 -8.5 59.5 -25.5s25.5 -36.833 25.5 -59.5s-8.5 -42.5 -25.5 -59.5s-36.833 -25.5 -59.5 -25.5s-42.5 8.5 -59.5 25.5s-25.5 36.833 -25.5 59.5zM275 640c0 -22.667 -8.5 -42.5 -25.5 -59.5s-36.833 -25.5 -59.5 -25.5s-42.5 8.5 -59.5 25.5s-25.5 36.833 -25.5 59.5
s8.5 42.5 25.5 59.5s36.833 25.5 59.5 25.5s42.5 -8.5 59.5 -25.5s25.5 -36.833 25.5 -59.5z" />
    <glyph glyph-name="omicrontonos" unicode="&#x3cc;" 
d="M305 145c25.333 0 47.5 9.83301 66.5 29.5s28.5 43.167 28.5 70.5s-9.5 50.833 -28.5 70.5s-41.167 29.5 -66.5 29.5s-47.5 -9.83301 -66.5 -29.5s-28.5 -43.167 -28.5 -70.5s9.5 -50.833 28.5 -70.5s41.167 -29.5 66.5 -29.5zM35 245
c0 70.667 25.833 130.834 77.5 180.501s115.834 74.5 192.501 74.5s140.834 -24.833 192.501 -74.5s77.5 -109.834 77.5 -180.501s-25.833 -130.834 -77.5 -180.501s-115.834 -74.5 -192.501 -74.5s-140.834 24.833 -192.501 74.5s-77.5 109.834 -77.5 180.501zM230 555
l85 160h180l-120 -160h-145z" />
    <glyph glyph-name="upsilontonos" unicode="&#x3cd;" 
d="M60 220v270h170v-260c0 -20 7 -36.667 21 -50s32 -20 54 -20s40 6.66699 54 20s21 30 21 50v260h170v-270c0 -68 -22.333 -123.333 -67 -166s-104 -64 -178 -64s-133.333 21.333 -178 64s-67 98 -67 166zM230 555l85 160h180l-120 -160h-145z" />
    <glyph glyph-name="omegatonos" unicode="&#x3ce;" horiz-adv-x="840" 
d="M335 240l-0.00585938 105h170v-105c0 -30.667 5.83301 -54.167 17.5 -70.5s25.834 -24.5 42.501 -24.5s30.834 8.16699 42.501 24.5s17.5 39.833 17.5 70.5c0 21.333 -3.16699 40.833 -9.5 58.5s-12.666 30.334 -18.999 38.001s-15.166 17.167 -26.499 28.5l75 130
c40.667 -17.333 76.667 -48.166 108 -92.499s47 -98.5 47 -162.5c0 -75.333 -21.667 -137.5 -65 -186.5s-95 -73.5 -155 -73.5c-50.667 0 -92.334 15.667 -125.001 47c-14 12.667 -25.667 28.667 -35 48c-9.33301 -19.333 -21 -35.333 -35 -48
c-32.667 -31.333 -74.334 -47 -125.001 -47c-60 0 -111.667 24.5 -155 73.5s-65 111.167 -65 186.5c0 64 15.667 118.167 47 162.5s67.333 75.166 108 92.499l75 -130c-11.333 -11.333 -20.166 -20.833 -26.499 -28.5s-12.666 -20.334 -18.999 -38.001
s-9.5 -37.167 -9.5 -58.5c0 -30.667 5.83301 -54.167 17.5 -70.5s25.834 -24.5 42.501 -24.5s30.834 8.16699 42.501 24.5s17.5 39.833 17.5 70.5zM344.994 555l85 160h180l-120 -160h-145z" />
    <glyph glyph-name="uni0400" unicode="&#x400;" horiz-adv-x="665" 
d="M80 0v700h535v-170h-345v-100h265v-160h-265v-100h355v-170h-545zM275 780l-120 160h180l85 -160h-145z" />
    <glyph glyph-name="uni0401" unicode="&#x401;" horiz-adv-x="665" 
d="M80 0v700h535v-170h-345v-100h265v-160h-265v-100h355v-170h-545zM375 865c0 22.667 8.5 42.5 25.5 59.5s36.833 25.5 59.5 25.5s42.5 -8.5 59.5 -25.5s25.5 -36.833 25.5 -59.5s-8.5 -42.5 -25.5 -59.5s-36.833 -25.5 -59.5 -25.5s-42.5 8.5 -59.5 25.5
s-25.5 36.833 -25.5 59.5zM315 865c0 -22.667 -8.5 -42.5 -25.5 -59.5s-36.833 -25.5 -59.5 -25.5s-42.5 8.5 -59.5 25.5s-25.5 36.833 -25.5 59.5s8.5 42.5 25.5 59.5s36.833 25.5 59.5 25.5s42.5 -8.5 59.5 -25.5s25.5 -36.833 25.5 -59.5z" />
    <glyph glyph-name="uni0402" unicode="&#x402;" horiz-adv-x="755" 
d="M155 0v530.003h-155v170h490v-170h-145v-120c10 7.33301 23 14.666 39 21.999c34.667 15.333 70 23 106 23c70 0 126.667 -21.667 170 -65s65 -100 65 -170c0 -72.667 -22.333 -130.834 -67 -174.501s-105.667 -65.5 -183 -65.5h-40v165c31.333 0 55 6.66699 71 20
s24 31.666 24 54.999c0 18 -7.16699 33.333 -21.5 46s-33.833 19 -58.5 19c-28.667 0 -55 -7.66699 -79 -23c-10 -6.66699 -18.667 -14 -26 -22v-240h-190z" />
    <glyph glyph-name="uni0403" unicode="&#x403;" horiz-adv-x="590" 
d="M245 780l85 160h180l-120 -160h-145zM80 0v700h490v-180h-300v-520h-190z" />
    <glyph glyph-name="uni0404" unicode="&#x404;" horiz-adv-x="755" 
d="M250 430h260v-160h-260c13.333 -32.667 35.5 -60 66.5 -82s68.833 -33 113.5 -33c44 0 89.333 14 136 42c20.667 12.667 38.667 27 54 43l115 -125c-22.667 -26 -48.667 -48.667 -78 -68c-65.333 -44.667 -141 -67 -227 -67c-111.333 0 -204.166 35.833 -278.499 107.5
s-111.5 159.167 -111.5 262.5s37.167 190.833 111.5 262.5s167.166 107.5 278.499 107.5c84 0 159 -22.667 225 -68c29.333 -20.667 54.333 -43 75 -67l-115 -125c-15.333 16 -32.333 30 -51 42c-45.333 28.667 -90 43 -134 43c-44.667 0 -82.5 -11 -113.5 -33
s-53.167 -49.333 -66.5 -82z" />
    <glyph glyph-name="uni0405" unicode="&#x405;" 
d="M25 100l109.998 120c12 -14 25.667 -26.667 41 -38c35.333 -24.667 71.666 -37 108.999 -37c28.667 0 50.834 5.83301 66.501 17.5s23.5 25.834 23.5 42.501c0 14.667 -8.16699 27.5 -24.5 38.5s-36.666 20 -60.999 27s-50.833 16.5 -79.5 28.5s-55.167 25.5 -79.5 40.5
s-44.666 36.667 -60.999 65s-24.5 61.833 -24.5 100.5c0 58 24.333 108.333 73 151s112.667 64 192 64c70.667 0 132.667 -16.667 186 -50c24.667 -16 44.334 -32.667 59.001 -50l-110 -120c-9.33301 10.667 -19.666 19.667 -30.999 27c-24.667 18.667 -52.667 28 -84 28
c-26 0 -45.833 -4.83301 -59.5 -14.5s-20.5 -21.5 -20.5 -35.5c0 -14.667 8.16699 -27.5 24.5 -38.5s36.666 -20 60.999 -27s50.833 -16.5 79.5 -28.5s55.167 -25.5 79.5 -40.5s44.666 -36.667 60.999 -65s24.5 -61.833 24.5 -100.5
c0 -62.667 -25.167 -115.834 -75.5 -159.501s-116.833 -65.5 -199.5 -65.5c-80 0 -150.333 20 -211 60c-26.667 17.333 -49.667 37.333 -69 60z" />
    <glyph glyph-name="uni0406" unicode="&#x406;" horiz-adv-x="350" 
d="M80 0v700h190v-700h-190z" />
    <glyph glyph-name="uni0407" unicode="&#x407;" horiz-adv-x="350" 
d="M80 0v700h190v-700h-190zM205 865c0 22.667 8.5 42.5 25.5 59.5s36.833 25.5 59.5 25.5s42.5 -8.5 59.5 -25.5s25.5 -36.833 25.5 -59.5s-8.5 -42.5 -25.5 -59.5s-36.833 -25.5 -59.5 -25.5s-42.5 8.5 -59.5 25.5s-25.5 36.833 -25.5 59.5zM145 865
c0 -22.667 -8.5 -42.5 -25.5 -59.5s-36.833 -25.5 -59.5 -25.5s-42.5 8.5 -59.5 25.5s-25.5 36.833 -25.5 59.5s8.5 42.5 25.5 59.5s36.833 25.5 59.5 25.5s42.5 -8.5 59.5 -25.5s25.5 -36.833 25.5 -59.5z" />
    <glyph glyph-name="uni0408" unicode="&#x408;" horiz-adv-x="535" 
d="M-10 70l119.999 125.001c4.66699 -6.66699 11 -13.334 19 -20.001c14.667 -13.333 33.334 -20 56.001 -20c25.333 0 45.833 7.83301 61.5 23.5s23.5 36.167 23.5 61.5v460h190v-460c0 -77.333 -24 -140 -72 -188s-110.667 -72 -188 -72c-60.667 0 -113.667 15 -159 45
c-20 12.667 -37 27.667 -51 45z" />
    <glyph glyph-name="uni0409" unicode="&#x409;" horiz-adv-x="1090" 
d="M5 0l-0.000976562 175c6.66699 -2.66699 11.667 -4.33398 15 -5.00098c11.333 -3.33301 21.333 -5 30 -5c16 0 30.167 4.16699 42.5 12.5s23.833 23.333 34.5 45s18.834 54 24.501 97s8.5 96.167 8.5 159.5v221h520v-210h115c76.667 0 139.167 -23.167 187.5 -69.5
s72.5 -104.833 72.5 -175.5s-24.167 -129.167 -72.5 -175.5s-110.833 -69.5 -187.5 -69.5h-305v520h-140v-40c0 -77.333 -4.16699 -145.166 -12.5 -203.499s-19.5 -106.166 -33.5 -143.499s-31.833 -67.5 -53.5 -90.5s-44.5 -39.167 -68.5 -48.5s-51.333 -14 -82 -14
c-21.333 0 -43.333 3.33301 -66 10c-11.333 3.33301 -21 6.66602 -29 9.99902zM679.999 170h105c22 0 40.833 7.5 56.5 22.5s23.5 32.5 23.5 52.5s-7.83301 37.5 -23.5 52.5s-34.5 22.5 -56.5 22.5h-105v-150z" />
    <glyph glyph-name="uni040A" unicode="&#x40a;" horiz-adv-x="1110" 
d="M80 0v700h190v-210h240v210h190v-210h115c76.667 0 139.167 -23.167 187.5 -69.5s72.5 -104.833 72.5 -175.5s-24.167 -129.167 -72.5 -175.5s-110.833 -69.5 -187.5 -69.5h-305v310h-240v-310h-190zM700 170h105c22 0 40.833 7.5 56.5 22.5s23.5 32.5 23.5 52.5
s-7.83301 37.5 -23.5 52.5s-34.5 22.5 -56.5 22.5h-105v-150z" />
    <glyph glyph-name="uni040B" unicode="&#x40b;" horiz-adv-x="775" 
d="M155 0v530.001h-155v170h490v-170h-145v-120c10 7.33301 23 14.666 39 21.999c34.667 15.333 70 23 106 23c70 0 126.667 -21.667 170 -65s65 -100 65 -170v-220h-190v200c0 25.333 -7.83301 45.833 -23.5 61.5s-36.167 23.5 -61.5 23.5c-28.667 0 -55 -7.66699 -79 -23
c-10 -6.66699 -18.667 -14 -26 -22v-240h-190z" />
    <glyph glyph-name="uni040C" unicode="&#x40c;" horiz-adv-x="720" 
d="M80 0v700h190v-270l230 270h220l-250 -290l270 -410h-220l-175 265l-75 -85v-180h-190zM300 780l85 160h180l-120 -160h-145z" />
    <glyph glyph-name="uni040D" unicode="&#x40d;" horiz-adv-x="815" 
d="M80 0v700h190v-385l300 385h165v-700h-190v385l-300 -385h-165zM340 780l-120 160h180l85 -160h-145z" />
    <glyph glyph-name="uni040E" unicode="&#x40e;" horiz-adv-x="650" 
d="M155 945h120c0 -36.667 18.333 -55 55 -55s55 18.333 55 55h120c0 -48 -16.167 -87.5 -48.5 -118.5s-74.5 -46.5 -126.5 -46.5s-94.167 15.5 -126.5 46.5s-48.5 70.5 -48.5 118.5zM70 5v170.001c6.66699 -2.66699 12.334 -4.33398 17.001 -5.00098
c13.333 -3.33301 27.666 -5 42.999 -5c50.667 0 85.667 20 105 60l5 10l-240 465h210l128 -290h4l108 290h210l-245 -520c-30 -62 -65 -109.167 -105 -141.5s-90 -48.5 -150 -48.5c-25.333 0 -47.333 2.33301 -66 7z" />
    <glyph glyph-name="uni040F" unicode="&#x40f;" horiz-adv-x="790" 
d="M80 0v700h190v-520h250v520h190v-700h-220v-140h-190v140h-220z" />
    <glyph glyph-name="uni0410" unicode="&#x410;" horiz-adv-x="730" 
d="M300 305h130l-63 200h-4zM-5 0l265 700h210l265 -700h-205l-50 150h-230l-50 -150h-205z" />
    <glyph glyph-name="uni0411" unicode="&#x411;" horiz-adv-x="685" 
d="M270 165h125c20 0 36.667 6.33301 50 19s20 28 20 46s-6.66699 33.333 -20 46s-30 19 -50 19h-125v-130zM80 0v700h510v-165h-320v-75h135c74 0 134.167 -21.833 180.5 -65.5s69.5 -98.5 69.5 -164.5s-23.167 -120.833 -69.5 -164.5s-106.5 -65.5 -180.5 -65.5h-325z" />
    <glyph glyph-name="uni0412" unicode="&#x412;" horiz-adv-x="705" 
d="M80 0l-0.00195312 699.998h310c76.667 0 136.667 -17.667 180 -53s65 -79.333 65 -132c0 -47.333 -17.667 -86 -53 -116c-13.333 -11.333 -30.666 -21 -51.999 -29c26 -9.33301 49.333 -21.666 70 -36.999c46.667 -36 70 -82 70 -138
c0 -55.333 -22.667 -101.666 -68 -138.999s-107.666 -56 -186.999 -56h-335zM269.998 149.998h130c22 0 40 6.66699 54 20s21 30 21 50s-7 36.667 -21 50s-32 20 -54 20h-130v-140zM269.998 429.998h105c20 0 35.833 5.5 47.5 16.5s17.5 25.5 17.5 43.5
s-5.83301 32.5 -17.5 43.5s-27.5 16.5 -47.5 16.5h-105v-120z" />
    <glyph glyph-name="uni0413" unicode="&#x413;" horiz-adv-x="590" 
d="M80 0v700h490v-180h-300v-520h-190z" />
    <glyph glyph-name="uni0414" unicode="&#x414;" horiz-adv-x="760" 
d="M0 -140v319.999h40c18 16 34.667 38.333 50 67c33.333 62.667 50 140.334 50 233.001v220h520v-520h80v-320h-190v140h-360v-140h-190zM240 179.999l230 -0.000976562v340h-140v-40c0 -94 -15 -171.667 -45 -233c-12.667 -27.333 -27.667 -49.666 -45 -66.999z" />
    <glyph glyph-name="uni0415" unicode="&#x415;" horiz-adv-x="665" 
d="M80 0v700h535v-170h-345v-100h265v-160h-265v-100h355v-170h-545z" />
    <glyph glyph-name="uni0416" unicode="&#x416;" horiz-adv-x="1050" 
d="M-20 0l270 410l-250 290h220l210 -245v245h190v-245l210 245h220l-250 -290l270 -410h-220l-175 270l-55 -65v-205h-190v205l-55 65l-175 -270h-220z" />
    <glyph glyph-name="uni0417" unicode="&#x417;" horiz-adv-x="620" 
d="M10 100l110.001 119.996c10.667 -13.333 24.667 -24.333 42 -33c36 -21.333 75.333 -32 118 -32c33.333 0 58.333 5.83301 75 17.5s25 25.834 25 42.501s-7.83301 30.834 -23.5 42.501s-37.834 17.5 -66.501 17.5h-90v160h75c28.667 0 50 5 64 15s21 23.333 21 40
c0 36.667 -30 55 -90 55c-28.667 0 -59 -8.33301 -91 -25c-10 -5.33301 -21.333 -13.666 -34 -24.999l-110 120c20 20 42.667 37.333 68 52c57.333 35.333 121.333 53 192 53c84 0 150 -19.5 198 -58.5s72 -86.167 72 -141.5c0 -48.667 -21 -88.667 -63 -120
c-18 -12.667 -38.667 -22.667 -62 -30c28 -9.33301 52 -21.666 72 -36.999c48.667 -36.667 73 -82.667 73 -138c0 -60.667 -25.5 -111.667 -76.5 -153s-122.167 -62 -213.5 -62c-76.667 0 -146.667 20 -210 60c-28.667 17.333 -53.667 37.333 -75 60z" />
    <glyph glyph-name="uni0418" unicode="&#x418;" horiz-adv-x="815" 
d="M80 0v700h190v-385l300 385h165v-700h-190v385l-300 -385h-165z" />
    <glyph glyph-name="uni0419" unicode="&#x419;" horiz-adv-x="815" 
d="M235 945h120c0 -36.667 18.333 -55 55 -55s55 18.333 55 55h120c0 -48 -16.167 -87.5 -48.5 -118.5s-74.5 -46.5 -126.5 -46.5s-94.167 15.5 -126.5 46.5s-48.5 70.5 -48.5 118.5zM80 0v700h190v-385l300 385h165v-700h-190v385l-300 -385h-165z" />
    <glyph glyph-name="uni041A" unicode="&#x41a;" horiz-adv-x="720" 
d="M80 0v700h190v-270l230 270h220l-250 -290l270 -410h-220l-175 265l-75 -85v-180h-190z" />
    <glyph glyph-name="uni041B" unicode="&#x41b;" horiz-adv-x="780" 
d="M5 0l-0.000976562 175c6.66699 -2.66699 11.667 -4.33398 15 -5.00098c11.333 -3.33301 21.333 -5 30 -5c16 0 30.167 4.16699 42.5 12.5s23.833 23.333 34.5 45s18.834 54 24.501 97s8.5 96.167 8.5 159.5v221h540v-700h-190v520h-160v-40
c0 -77.333 -4.16699 -145.166 -12.5 -203.499s-19.5 -106.166 -33.5 -143.499s-31.833 -67.5 -53.5 -90.5s-44.5 -39.167 -68.5 -48.5s-51.333 -14 -82 -14c-21.333 0 -43.333 3.33301 -66 10c-11.333 3.33301 -21 6.66602 -29 9.99902z" />
    <glyph glyph-name="uni041C" unicode="&#x41c;" horiz-adv-x="930" 
d="M80 0v700h170l215 -270l215 270h170v-700h-190v415l-195 -245l-195 245v-415h-190z" />
    <glyph glyph-name="uni041D" unicode="&#x41d;" horiz-adv-x="795" 
d="M80 0v700h190v-255h255v255h190v-700h-190v265h-255v-265h-190z" />
    </font>
</defs>
</svg>
