<svg width="899" height="467" fill="none" xmlns="http://www.w3.org/2000/svg"><path d="M98.2 2.2V103h-28V68.7c-7.8 2.6-15 4-21.5 4-14.1 0-25-3.4-32.4-10.2C8.9 55.7 5.2 46 5.2 33.2v-31h28V30c0 13 6.4 19.4 19 19.4 7 0 13-1.1 18-3.4V2.2h28ZM203.2 24.8h-30.9V103h-28V24.8h-31V2.2h89.9v22.6ZM266.6 105a60.7 60.7 0 0 1-28.8-6.8 51.5 51.5 0 0 1-20-18.7c-4.8-8-7.2-17-7.2-26.9 0-10 2.4-19 7.2-27 4.9-7.9 11.5-14.1 20-18.6A60.7 60.7 0 0 1 266.6.2c10.6 0 20.2 2.2 28.6 6.8a50.2 50.2 0 0 1 27.4 45.6 50.4 50.4 0 0 1-27.4 45.6c-8.4 4.6-18 6.8-28.6 6.8Zm0-23.6a26 26 0 0 0 23.6-13.7c2.4-4.4 3.6-9.4 3.6-15.1 0-5.7-1.2-10.7-3.6-15a25.8 25.8 0 0 0-23.6-13.8A25.8 25.8 0 0 0 243 37.6a30.3 30.3 0 0 0-3.6 15c0 5.7 1.2 10.7 3.6 15.1a26 26 0 0 0 23.6 13.7ZM0 117.4h327v7.2H0v-7.2ZM193.2 225.3c6 2 10.5 4.9 13.6 9 3.1 4 4.7 9 4.7 14.9 0 9-3.5 16-10.5 21.2-6.9 5-16.7 7.6-29.5 7.6h-51.7V177.2h49c12 0 21.4 2.3 28 7 6.8 4.4 10.1 10.9 10.1 19.2a23.5 23.5 0 0 1-13.7 21.9Zm-45.3-7.8H166c8 0 12.1-3.3 12.1-10 0-6.5-4-9.9-12-9.9h-18.2v20Zm22.4 40c8.3 0 12.4-3.5 12.4-10.5 0-6.8-4.1-10.2-12.4-10.2H148v20.8h22.4ZM280.5 209.3c12.4 0 22 2.8 28.7 8.4 6.7 5.4 10 13.6 10 24.4 0 11.7-3.7 20.5-11.2 26.7a48 48 0 0 1-31.2 9.2H229V177.2h28.1v32.1h23.3Zm-5.6 48.3a16 16 0 0 0 11.4-4 14 14 0 0 0 4.3-10.9c0-8.7-5.2-13-15.7-13h-17.7v27.9h17.7Zm55.4-80.4h28.1V278h-28V177.2ZM382.3 177.2h84.2v22h-56.1v16.3h26c12.2 0 21.6 2.6 28.1 7.8a26.8 26.8 0 0 1 9.8 22.3c0 10.2-3.6 18.1-11 23.9a49 49 0 0 1-30.6 8.5h-50.4V177.2Zm48.5 80.4c4.8 0 8.5-1 11-3 2.5-1.8 3.7-4.6 3.7-8.1 0-7.1-4.9-10.7-14.7-10.7h-20.4v21.8h20.4ZM537.3 177.2c9.1 0 17 1.5 23.7 4.6 6.8 3 12 7.3 15.6 13a35.2 35.2 0 0 1 5.5 19.7c0 7.6-1.9 14.2-5.5 19.7a35.9 35.9 0 0 1-15.6 13c-6.7 3-14.6 4.4-23.7 4.4h-17.6V278h-28.5V177.2h46Zm-1.7 52c5.8 0 10.2-1.3 13.2-3.8 3-2.6 4.5-6.2 4.5-10.9s-1.5-8.4-4.5-11c-3-2.5-7.4-3.8-13.2-3.8h-15.9v29.5h15.9ZM661.6 258.4H619l-8 19.6h-29l44.5-100.8h28L699.3 278h-29.6l-8-19.6Zm-8.3-21-13-32.3-13 32.3h26ZM789 199.8h-30.7V278h-28.1v-78.2h-31v-22.6h89.9v22.6ZM855.8 209.3c12.4 0 22 2.8 28.6 8.4 6.8 5.4 10.1 13.6 10.1 24.4 0 11.7-3.7 20.5-11.2 26.7A48 48 0 0 1 852 278h-47.6V177.2h28v32.1h23.4Zm-5.6 48.3a16 16 0 0 0 11.4-4 14 14 0 0 0 4.3-10.9c0-8.7-5.3-13-15.7-13h-17.7v27.9h17.7ZM109 292.4h789.1v7.2H109v-7.2ZM700.5 408.3c0-4.8 1-8.8 3.2-11.8 2.1-3.2 5.2-6.7 9.2-10.4 2.8-2.6 4.9-4.7 6.2-6.5 1.3-1.8 2-3.7 2-5.7 0-2.8-1.2-5-3.6-6.7a14.7 14.7 0 0 0-9-2.6c-3.9 0-7.4 1-10.6 2.8-3 1.8-5.5 4.4-7.5 7.6L669 363.5c4-6.7 9.5-12 16.7-15.7a55.9 55.9 0 0 1 26-5.6c11.5 0 20.7 2.4 27.6 7.2 7 4.7 10.5 11.3 10.5 19.9a26 26 0 0 1-7 18.1c-1.8 2-4.2 4.3-7.1 7a50.2 50.2 0 0 0-7.2 7.1c-1.6 2-2.3 4.2-2.3 6.8h-25.7Zm12.8 38c-4.7 0-8.5-1.4-11.6-4.3-3-3-4.6-6.6-4.6-10.8a14 14 0 0 1 4.4-10.7c3.1-2.8 7-4.2 11.8-4.2a17 17 0 0 1 11.9 4.2c3 2.8 4.6 6.4 4.6 10.7 0 4.2-1.6 7.8-4.6 10.8-3.1 2.9-7 4.3-11.9 4.3ZM670 459.4h86v7.2h-86v-7.2Z" fill="#222"/></svg>