<?xml version="1.0" standalone="no"?>
<!DOCTYPE svg PUBLIC "-//W3C//DTD SVG 1.1//EN" "http://www.w3.org/Graphics/SVG/1.1/DTD/svg11.dtd" >
<svg>
<metadata>
Created by FontForge 20090914 at Thu Oct 28 17:53:10 2021
 By www-data
Copyright (c) 2016 by THOMAS GILLETT. All rights reserved.
</metadata>
<defs>
<font id="Gordita-Medium" horiz-adv-x="589" >
  <font-face 
    font-family="Gordita Medium"
    font-weight="500"
    font-stretch="normal"
    units-per-em="1000"
    panose-1="0 0 0 0 0 0 0 0 0 0"
    ascent="800"
    descent="-200"
    x-height="497"
    cap-height="729"
    bbox="-203 -332.002 1354 1053"
    underline-thickness="46"
    underline-position="-139"
    unicode-range="U+000D-U+FB04"
  />
<missing-glyph horiz-adv-x="744" 
d="M84 0v729h614v-729h-614zM657 688h-537l537 -651v651z" />
    <glyph glyph-name="ff" unicode="ff" horiz-adv-x="712" 
d="M564 399v-399h-111v399h-221v-399h-112v399h-95v98h95v58c0 72.667 18.333 125.667 55 159c34.667 30.667 77.667 46 129 46c28 0 48.667 -2.66699 62 -8v-94c-10.667 2.66699 -24 4 -40 4c-28 0 -51.333 -9.33301 -70 -28c-16 -17.333 -24 -43.333 -24 -78v-59h221v58
c0 73.333 18.333 126.333 55 159c33.333 30.667 76 46 128 46c28 0 49 -2.66699 63 -8v-94c-12 2.66699 -25.333 4 -40 4c-28.667 0 -52 -9.33301 -70 -28c-16.667 -16.667 -25 -42.667 -25 -78v-59h131v-98h-131z" />
    <glyph glyph-name="fi" unicode="fi" horiz-adv-x="638" 
d="M453 399h-222.001v-399h-111v399h-95v98h95v58c0 72.667 18.333 125.667 55 159c34.667 30.667 77.667 46 129 46c28 0 48.667 -2.66699 62 -8v-94c-10.667 2.66699 -24 4 -40 4c-19.333 0 -38.666 -5.66699 -57.999 -17c-24.667 -16 -37 -45.667 -37 -89v-59h333v-497
h-111v399zM434.999 658c0 20 7.33301 37.333 22 52c14 14.667 31 22 51 22s37.333 -7.33301 52 -22c14 -14 21 -31.333 21 -52c0 -20 -7 -37 -21 -51c-14.667 -14.667 -32 -22 -52 -22c-19.333 0 -36.333 7.33301 -51 22s-22 31.667 -22 51z" />
    <glyph glyph-name="fl" unicode="fl" horiz-adv-x="638" 
d="M231 399l-0.000976562 -399h-111v399h-95v98h95v58c0 72.667 18.333 125.667 55 159c34.667 30.667 77.667 46 129 46c28 0 48.667 -2.66699 62 -8v-94c-10.667 2.66699 -24 4 -40 4c-19.333 0 -38.666 -5.66699 -57.999 -17c-24.667 -16 -37 -45.667 -37 -89v-59h222
v262h111v-759h-111v399h-222z" />
    <glyph glyph-name="ffi" unicode="ffi" horiz-adv-x="970" 
d="M785 399h-221v-399h-111v399h-221v-399h-112v399h-95v98h95v58c0 72.667 18.333 125.667 55 159c34.667 30.667 77.667 46 129 46c28 0 48.667 -2.66699 62 -8v-94c-10.667 2.66699 -24 4 -40 4c-28 0 -51.333 -9.33301 -70 -28c-16 -17.333 -24 -43.333 -24 -78v-59h221
v58c0 73.333 18.333 126.333 55 159c33.333 30.667 76 46 128 46c28 0 49 -2.66699 63 -8v-94c-12 2.66699 -25.333 4 -40 4c-28.667 0 -52 -9.33301 -70 -28c-16.667 -16.667 -25 -42.667 -25 -78v-59h332v-497h-111v399zM767 658c0 20 7.33301 37.333 22 52
c14 14.667 31 22 51 22c20.667 0 38 -7.33301 52 -22c14.667 -14.667 22 -32 22 -52c0 -19.333 -7.33301 -36.333 -22 -51s-32 -22 -52 -22c-19.333 0 -36.333 7.33301 -51 22s-22 31.667 -22 51z" />
    <glyph glyph-name="ffl" unicode="ffl" horiz-adv-x="970" 
d="M564 399v-399h-111v399h-221v-399h-112v399h-95v98h95v58c0 72.667 18.333 125.667 55 159c34.667 30.667 77.667 46 129 46c28 0 48.667 -2.66699 62 -8v-94c-10.667 2.66699 -24 4 -40 4c-28 0 -51.333 -9.33301 -70 -28c-16 -17.333 -24 -43.333 -24 -78v-59h221v58
c0 73.333 18.333 126.333 55 159c33.333 30.667 76 46 128 46c28 0 49 -2.66699 63 -8v-94c-12 2.66699 -25.333 4 -40 4c-28.667 0 -52 -9.33301 -70 -28c-16.667 -16.667 -25 -42.667 -25 -78v-59h221v262h111v-759h-111v399h-221z" />
    <glyph glyph-name=".notdef" horiz-adv-x="744" 
d="M84 0v729h614v-729h-614zM657 688h-537l537 -651v651z" />
    <glyph glyph-name="NULL" horiz-adv-x="0" 
 />
    <glyph glyph-name="NULL" horiz-adv-x="0" 
 />
    <glyph glyph-name="CR" unicode="&#xd;" horiz-adv-x="246" 
 />
    <glyph glyph-name="space" unicode=" " horiz-adv-x="246" 
 />
    <glyph glyph-name="exclam" unicode="!" horiz-adv-x="290" 
d="M85 729h120v-111l-10 -393h-100l-10 393v111zM72 66c0 -20 7 -37 21 -51s31.333 -21 52 -21c20 0 37 7 51 21c14.667 14.667 22 31.667 22 51c0 20 -7.33301 37.333 -22 52s-31.667 22 -51 22c-20 0 -37.333 -7.33301 -52 -22c-14 -14 -21 -31.333 -21 -52z" />
    <glyph glyph-name="quotedbl" unicode="&#x22;" horiz-adv-x="432" 
d="M189 647c0 -9.33301 -1.33398 -18.333 -4.00098 -27l-39 -188h-51l-40 188c-2 9.33301 -3 18.333 -3 27c0 22.667 6.33301 41.167 19 55.5s29.334 21.5 50.001 21.5c20 0 36.333 -7.16699 49 -21.5s19 -32.833 19 -55.5zM285.999 432l-39 188
c-2.66699 13.333 -4 22.333 -4 27c0 22.667 6.5 41.167 19.5 55.5s29.5 21.5 49.5 21.5c20.667 0 37.167 -7 49.5 -21s18.5 -32.667 18.5 -56c0 -8 -1 -17 -3 -27l-40 -188h-51z" />
    <glyph glyph-name="numbersign" unicode="#" horiz-adv-x="771" 
d="M676 283v-90h-142l-42 -193h-97l43 193h-183l-42 -193h-97l42 193h-122v90h142l39 178h-122v90h142l39 178h97l-39 -178h182l39 178h97l-39 -178h122v-90h-142l-39 -178h122zM458 283l39 178h-184l-39 -178h184z" />
    <glyph glyph-name="dollar" unicode="$" horiz-adv-x="596" 
d="M553 206c0 -49.333 -18 -93.998 -54 -133.998c-37.333 -42 -90.333 -67 -159 -75v-92h-74v92c-70 8 -125.333 33.333 -166 76c-38 40.667 -59.333 85 -64 133l110 30c7.33301 -36 21.333 -65.667 42 -89s47 -38.333 79 -45v215l-26 5
c-59.333 13.333 -104.333 37.333 -135 72c-32 34.667 -48 76.334 -48 125.001c-0.666992 53.333 19.5 101.166 60.5 143.499s90.167 66.166 147.5 71.499v96h74v-97c64 -8 112.667 -30.333 146 -67c30 -32.667 48.667 -68.334 56 -107.001l-106 -34
c-6 23.333 -17.333 44.333 -34 63s-37.667 32 -63 40v-209l17 -4c64 -12.667 112.833 -37.167 146.5 -73.5s50.5 -81.5 50.5 -135.5zM267 433.002v197c-26 -4.66699 -48.333 -17 -67 -37c-17.333 -19.333 -26 -40.333 -26 -63s8.33301 -42.667 25 -60
c16 -18.667 38 -30.667 66 -36zM339 302.002v-201c28 4.66699 51.333 16 70 34c18 18 27 39.333 27 64c0 52.667 -32.333 87 -97 103z" />
    <glyph glyph-name="percent" unicode="%" horiz-adv-x="815" 
d="M315 688c32 -32 48 -70.667 48 -116s-16 -84.333 -48 -117c-32 -32 -70.667 -48 -116 -48c-44.667 0 -83.667 16 -117 48c-32 32.667 -48 71.667 -48 117s16 84 48 116c32.667 32 71.667 48 117 48s84 -16 116 -48zM115 0l475 729h109l-474 -729h-110zM249 522
c14 14 21 30.667 21 50s-7 36 -21 50s-30.667 21 -50 21c-20.667 0 -37.334 -7 -50.001 -21c-14 -14 -21 -30.667 -21 -50s7 -36 21 -50c12.667 -14 29.334 -21 50.001 -21c19.333 0 36 7 50 21zM780 160c0 -46.667 -16 -85.668 -48 -117.001c-32 -32 -70.667 -48 -116 -48
s-84 16 -116 48c-32.667 32 -49 71 -49 117c0 44.667 16.333 83 49 115c32 32.667 70.667 49 116 49s84 -16.333 116 -49c32 -31.333 48 -69.666 48 -114.999zM687 159.999c0 18.667 -6.99805 35.334 -20.998 50.001c-14.667 13.333 -31.334 20 -50.001 20
s-35.334 -6.66699 -50.001 -20c-14 -14.667 -21 -31.334 -21 -50.001c0 -20 7 -36.667 21 -50c13.333 -14 30 -21 50 -21s36.667 7 50 21c14 13.333 21 30 21 50z" />
    <glyph glyph-name="ampersand" unicode="&#x26;" horiz-adv-x="679" 
d="M518 0l-59.999 69.999c-66.667 -52.667 -129 -79 -187 -79c-62.667 0 -115.334 15.667 -158.001 47c-45.333 32.667 -68 81 -68 145c0 38.667 11.667 73.5 35 104.5s60 62.167 110 93.5l-42 49c-35.333 40.667 -53 82 -53 124c0 50.667 19 94.334 57 131.001
s85.667 55 143 55c52.667 0 99.667 -18 141 -54c40 -36 60 -78.333 60 -127c0 -65.333 -38 -121.333 -114 -168l-46 -27l130 -150c35.333 42.667 60 84.667 74 126h107c-17.333 -65.333 -56.333 -132 -117 -200l121 -140h-133zM364.001 615.999
c-18 18 -40.333 27.001 -67 27.001s-49 -9 -67 -27c-18 -17.333 -27 -38 -27 -62c0 -24.667 10.667 -49.334 32 -74.001l40 -46l68 41c31.333 18.667 47 45 47 79c0 24 -8.66699 44.667 -26 62zM273.001 93c38 0 78.334 16.999 121.001 50.999l-144 168
c-22.667 -13.333 -43 -28.666 -61 -45.999c-20.667 -19.333 -31 -42 -31 -68c0 -46.667 19 -77.667 57 -93c17.333 -8 36.666 -12 57.999 -12z" />
    <glyph glyph-name="quotesingle" unicode="'" horiz-adv-x="240" 
d="M95 432l-40.001 188c-2 10 -3 19 -3 27c0 22.667 6.33301 41.167 19 55.5s29.334 21.5 50.001 21.5c20 0 36.333 -7.16699 49 -21.5s19 -32.833 19 -55.5c0 -9.33301 -1.33301 -18.333 -4 -27l-39 -188h-51z" />
    <glyph glyph-name="parenleft" unicode="(" horiz-adv-x="372" 
d="M353 -65l-48 -62.001c-82.667 47.333 -146.334 109.666 -191.001 186.999c-45.333 78.667 -68 168.334 -68 269.001v27c0 100.667 22.667 191.334 68 272.001c46.667 80 110.334 142.667 191.001 188l48 -61c-62 -44.667 -111.667 -101.667 -149 -171
c-35.333 -68.667 -53 -144.667 -53 -228v-26c0 -165.333 67.333 -297 202 -395z" />
    <glyph glyph-name="parenright" unicode=")" horiz-adv-x="372" 
d="M67 -127l-47 62.001c134 98 201 229.667 201 395v26c0 83.333 -17.667 159.333 -53 228c-34.667 67.333 -84 124.333 -148 171l47 61c82 -46 145.667 -108.667 191 -188c45.333 -78.667 68 -169.334 68 -272.001v-27c0 -102 -22.333 -191.667 -67 -269
c-46 -78.667 -110 -141 -192 -187z" />
    <glyph glyph-name="asterisk" unicode="*" horiz-adv-x="465" 
d="M314 360l-83 110l-80 -110l-63 46l79 110l-129 43l25 73l128 -42v139h81v-139l129 42l25 -73l-129 -43l79 -110z" />
    <glyph glyph-name="plus" unicode="+" horiz-adv-x="577" 
d="M340 99h-103v191h-195v101h195v188h103v-188h195v-101h-195v-191z" />
    <glyph glyph-name="comma" unicode="," horiz-adv-x="279" 
d="M69 -152l0.00195312 52c24.667 4.66699 45 17 61 37c15.333 18.667 23.666 41 24.999 67c-8 -4.66699 -17.333 -7 -28 -7c-20.667 0 -37.334 7 -50.001 21c-13.333 13.333 -20 30 -20 50c0 21.333 7.66699 39 23 53c14 13.333 32.333 20 55 20
c28 0 49.333 -9.66699 64 -29c15.333 -19.333 23 -43 23 -71c1.33301 -48 -12.167 -90.5 -40.5 -127.5s-65.833 -58.833 -112.5 -65.5z" />
    <glyph glyph-name="hyphen" unicode="-" horiz-adv-x="432" 
d="M367 359v-113h-302v113h302z" />
    <glyph glyph-name="period" unicode="." horiz-adv-x="272" 
d="M55 76c0 23.333 8.00098 42.999 24.001 58.999c17.333 16 36.333 24 57 24c21.333 0 40.666 -8 57.999 -24c15.333 -15.333 23 -35 23 -59c0 -22.667 -7.66699 -41.667 -23 -57c-16 -16 -35.333 -24 -58 -24c-21.333 0 -40.333 8.33301 -57 25
c-16 14.667 -24 33.334 -24 56.001z" />
    <glyph glyph-name="slash" unicode="/" horiz-adv-x="502" 
d="M363 759h111l-333 -764h-111z" />
    <glyph glyph-name="zero" unicode="0" horiz-adv-x="711" 
d="M515 42c-47.333 -34 -100.666 -51 -159.999 -51c-60 0 -113.333 16.667 -160 50c-47.333 34 -83.333 78.667 -108 134c-24.667 56 -37 119.333 -37 190c0 106 28 194.333 84 265c57.333 72.667 131.666 109 222.999 109c60 0 113.333 -16.333 160 -49
c47.333 -34.667 83.333 -79.667 108 -135s37 -118.333 37 -189c0 -70 -12.333 -133 -37 -189c-26 -58 -62.667 -103 -110 -135zM455 597c-30.667 24.667 -64 37 -100 37c-36.667 0 -69.667 -12 -99 -36c-58.667 -49.333 -88 -126.666 -88 -231.999
c-1.33301 -74 16 -137.5 52 -190.5s81.667 -79.167 137 -78.5c37.333 0 70.333 12.333 99 37c28 23.333 49.667 55.333 65 96c15.333 42 23 87 23 135c0 103.333 -29.667 180.666 -89 231.999z" />
    <glyph glyph-name="one" unicode="1" horiz-adv-x="430" 
d="M223 606l-163 -98l-53 87l222 134h109v-729h-115v606z" />
    <glyph glyph-name="two" unicode="2" horiz-adv-x="619" 
d="M47 0l-1 31.001c-0.666992 106.667 57.333 194.667 174 264l113 66c38 22.667 65.833 45.5 83.5 68.5s26.5 50.167 26.5 81.5c0 34.667 -12.333 64 -37 88c-25.333 23.333 -58 35 -98 35c-58.667 0 -100 -23.333 -124 -70c-9.33301 -18 -14.333 -44 -15 -78l-116 15
c-1.33301 32.667 5.66699 65.667 21 99s37.666 62 66.999 86c44 36 100.333 54 169 54c77.333 0 139.333 -23.333 186 -70c43.333 -44.667 65 -97 65 -157c0 -44.667 -12 -85.667 -36 -123c-23.333 -38 -56.666 -69.667 -99.999 -95l-133 -78c-4 -2 -8.83301 -5 -14.5 -9
l-11.5 -8c-12 -8.66699 -21.667 -16 -29 -22c-24.667 -20.667 -40.667 -45.334 -48 -74.001h379v-104h-521z" />
    <glyph glyph-name="three" unicode="3" horiz-adv-x="625" 
d="M306 -8c-76.667 0 -139.335 21.9971 -188.002 65.9971c-46 40.667 -72.667 92 -80 154l111 20c3.33301 -39.333 19 -71.666 47 -96.999c28.667 -26.667 65.334 -40 110.001 -40c54.667 0 96.334 20 125.001 60c15.333 20.667 23 45.334 23 74.001
c0 36.667 -13.333 66.334 -40 89.001c-27.333 21.333 -60.333 32 -99 32c-28.667 0 -52.334 -5 -71.001 -15l-54 85l215 206h-344v103h494v-96l-200 -189c66 -3.33301 119.333 -25.333 160 -66s60.334 -89.667 59.001 -147c0 -75.333 -27 -134.333 -81 -177
c-50.667 -41.333 -113 -62 -187 -62z" />
    <glyph glyph-name="four" unicode="4" horiz-adv-x="663" 
d="M404 0v161h-375v128l347 440h140v-464h109v-104h-109v-161h-112zM404 265v337l-267 -337h267z" />
    <glyph glyph-name="five" unicode="5" horiz-adv-x="607" 
d="M297 -8c-63.333 0 -120.334 17.334 -171.001 52.001s-81 85.667 -91 153l110 24c4.66699 -46 25 -79.333 61 -100c30.667 -17.333 61.667 -26 93 -26c34.667 0 67 11.333 97 34c32.667 24.667 49 60 49 106c0 44 -14.333 78.667 -43 104c-28.667 24.667 -63 37 -103 37
c-55.333 0 -100.666 -20 -135.999 -60l-104 40l85 373h387v-103h-306l-45 -196c23.333 20 52 33.333 86 40c20 3.33301 40 5 60 5c72 0 130 -22 174 -66c42.667 -43.333 64 -100.333 64 -171c0 -76.667 -26.667 -137.334 -80 -182.001c-50.667 -42.667 -113 -64 -187 -64z
" />
    <glyph glyph-name="six" unicode="6" horiz-adv-x="638" 
d="M395 638c-67.333 0 -122.667 -26.0029 -166 -78.0029c-40 -49.333 -62.667 -107.666 -68 -174.999h2c20 28.667 47.667 51.667 83 69c34.667 16 70.334 24 107.001 24c74.667 0 134.334 -24.333 179.001 -73c42 -44.667 63 -99.667 63 -165
c0 -47.333 -12.333 -90.666 -37 -129.999c-24 -38 -56.667 -67.667 -98 -89c-40 -20 -84.333 -30 -133 -30c-91.333 0 -161 34.333 -209 103c-45.333 64.667 -68 141.334 -68 230.001c-0.666992 64.667 9.66602 126.167 30.999 184.5s52 106.833 92 145.5
c57.333 57.333 131.666 86 222.999 86c71.333 0 131 -13.333 179 -40l-38 -99c-40.667 24.667 -88 37 -142 37zM327.999 377.997c-42 0 -77.667 -13.332 -107 -39.999c-30.667 -26.667 -46 -60.334 -46 -101.001c0 -42.667 14.667 -77 44 -103c28.667 -26 65 -39 109 -39
c43.333 0 79 12.667 107 38c28 26 42 60 42 102c0 43.333 -14 78 -42 104s-63.667 39 -107 39z" />
    <glyph glyph-name="seven" unicode="7" horiz-adv-x="573" 
d="M416 625h-389v104h521v-94l-335 -635h-132z" />
    <glyph glyph-name="eight" unicode="8" horiz-adv-x="632" 
d="M316 -8c-68 0 -128.337 16.998 -181.004 50.998c-25.333 16.667 -45.666 38.834 -60.999 66.501s-23 57.5 -23 89.5c0 38.667 12 74 36 106c24.667 33.333 58 57 100 71c-35.333 12 -64.333 33.333 -87 64c-22 30 -33 63 -33 99c0 29.333 7.16699 57 21.5 83
s33.833 47.333 58.5 64c50 36 106.333 54 169 54c42.667 0 82.334 -8 119.001 -24c38 -16 69.333 -39.333 94 -70c24 -31.333 36 -67 36 -107c0 -34 -11 -66.333 -33 -97c-20.667 -30 -49.667 -52 -87 -66c42.667 -13.333 76.334 -37 101.001 -71
c23.333 -31.333 35 -66.666 35 -105.999c0 -38.667 -10.667 -73 -32 -103s-49.666 -53.333 -84.999 -70c-44.667 -22.667 -94 -34 -148 -34zM179.996 529.998c0 -30.667 13.332 -56.667 39.999 -78c26.667 -20.667 58.667 -31 96 -31c40 0 72.667 10.333 98 31
c24.667 20 37 46 37 78s-13.333 58.333 -40 79c-25.333 20.667 -57.333 31 -96 31c-39.333 0 -71.666 -10 -96.999 -30c-25.333 -21.333 -38 -48 -38 -80zM164.995 209.998c0 -32.667 14.665 -61 43.998 -85c28.667 -22.667 64.334 -34 107.001 -34s78.667 11 108 33
c28.667 22.667 43 51.334 43 86.001c0 33.333 -14.667 61.666 -44 84.999c-30.667 22.667 -66.667 34 -108 34c-43.333 0 -78.666 -11.333 -105.999 -34c-29.333 -22 -44 -50.333 -44 -85z" />
    <glyph glyph-name="nine" unicode="9" horiz-adv-x="636" 
d="M245 92c68 0 123.332 26.3359 165.999 79.0029c40.667 50 63 109 67 177h-2c-20.667 -30.667 -48.667 -54.334 -84 -71.001c-34 -16.667 -70.667 -25 -110 -25c-66 -1.33301 -122.5 21 -169.5 67s-70.167 103 -69.5 171c0 75.333 26.667 136 80 182
c52 45.333 114.333 68 187 68c52.667 0 98.834 -13 138.501 -39s70.834 -61.333 93.501 -106c30 -55.333 45 -119.333 45 -192c0.666992 -64.667 -9.33301 -125.834 -30 -183.501s-50.334 -105.834 -89.001 -144.501c-58 -56 -131.667 -84 -221 -84c-76 0 -137 13 -183 39
l37 99c42 -24.667 90 -37 144 -37zM305.999 352.003c42 0 78.333 13.3311 109 39.998c30 26.667 45 60.334 45 101.001c0 42.667 -14.667 77.334 -44 104.001c-29.333 26 -66 39 -110 39c-42 0 -77 -13 -105 -39c-27.333 -25.333 -41 -59.333 -41 -102
c0 -43.333 13.333 -78 40 -104c28 -26 63.333 -39 106 -39z" />
    <glyph glyph-name="colon" unicode=":" horiz-adv-x="292" 
d="M65 423c0 22.667 8 41.999 24 57.999s35 24 57 24c22.667 0 42 -8 58 -24c15.333 -15.333 23 -34.666 23 -57.999c0 -22.667 -7.66699 -41.667 -23 -57c-16 -16 -35.333 -24 -58 -24c-22 0 -41 8 -57 24s-24 35 -24 57zM65 75.999c0 23.333 8.00098 42.999 24.001 58.999
c17.333 16 36.333 24 57 24c21.333 0 40.666 -8 57.999 -24c15.333 -15.333 23 -35 23 -59c0 -22.667 -7.66699 -41.667 -23 -57c-16 -16 -35.333 -24 -58 -24c-21.333 0 -40.333 8.33301 -57 25c-16 14.667 -24 33.334 -24 56.001z" />
    <glyph glyph-name="semicolon" unicode=";" horiz-adv-x="300" 
d="M68 423c0 22.667 8 41.999 24 57.999s35 24 57 24c22.667 0 42 -8 58 -24c15.333 -15.333 23 -34.666 23 -57.999c0 -22.667 -7.66699 -41.667 -23 -57c-16 -16 -35.333 -24 -58 -24c-22 0 -41 8 -57 24s-24 35 -24 57zM80 -152.001v52.001
c25.333 5.33301 45.333 17.666 60 36.999c16.667 20 25 42.333 25 67c-7.33301 -4.66699 -16.333 -7 -27 -7c-21.333 0 -38.333 7 -51 21c-12.667 12.667 -19 29.334 -19 50.001c0 21.333 7.33301 39 22 53c14 13.333 32.333 20 55 20c28 0 49.667 -9.66699 65 -29
c14.667 -18.667 22 -42.334 22 -71.001c1.33301 -48 -12 -90.5 -40 -127.5s-65.333 -58.833 -112 -65.5z" />
    <glyph glyph-name="less" unicode="&#x3c;" horiz-adv-x="617" 
d="M545 578v-108l-368 -162l368 -162v-110l-510 231v82z" />
    <glyph glyph-name="equal" unicode="=" horiz-adv-x="584" 
d="M517 522v-103h-450v103h450zM517 262v-103h-450v103h450z" />
    <glyph glyph-name="greater" unicode="&#x3e;" horiz-adv-x="617" 
d="M440 308l-368 162v108l510 -229v-82l-510 -231v110z" />
    <glyph glyph-name="question" unicode="?" horiz-adv-x="535" 
d="M154 488l-117 3.99707c-1.33301 20 -2 33 -2 39c0 41.333 11 78 33 110c21.333 32 50 56.667 86 74c36.667 16.667 74.334 25 113.001 25c57.333 0 109.666 -17.667 156.999 -53c22.667 -16.667 40.667 -37.5 54 -62.5s20 -51.5 20 -79.5c0 -68 -32.667 -126 -98 -174
c-28 -19.333 -49.333 -37.666 -64 -54.999c-21.333 -25.333 -32 -55.666 -32 -90.999h-104c-4 15.333 -6 30 -6 44c0 39.333 12 73.333 36 102c14 16 39 38.333 75 67c48.667 34.667 73 69.334 73 104.001c0 26 -11.333 48.333 -34 67c-22.667 17.333 -48 26 -76 26
c-33.333 0 -61 -11.667 -83 -35c-22 -22.667 -33 -51 -33 -85c0 -4.66699 0.666992 -13.667 2 -27zM201 117.997c-14 -14 -21 -31.333 -21 -52c0 -20 7 -37 21 -51s31 -21 51 -21c20.667 0 38 7 52 21s21 31 21 51c0 20.667 -7 38 -21 52c-14.667 14.667 -32 22 -52 22
c-19.333 0 -36.333 -7.33301 -51 -22z" />
    <glyph glyph-name="at" unicode="@" horiz-adv-x="807" 
d="M580 110c-19.333 0 -39.6641 5.33008 -60.9971 15.9971c-20.667 12 -35 26 -43 42c-13.333 -18 -30.333 -32 -51 -42c-20 -10 -39.667 -15 -59 -15c-28 0 -54 8 -78 24s-42 35.667 -54 59c-12.667 22.667 -19 47 -19 73c-1.33301 56.667 16.667 106.5 54 149.5
s82.333 64.167 135 63.5c22 0 43 -7.33301 63 -22c10.667 -6.66699 19.334 -17.667 26.001 -33l10 51h102l-39 -232c-6 -37.333 5 -56 33 -56c26 0 51.333 16 76 48c23.333 32.667 35 71.334 35 116.001c0 73.333 -26 134.333 -78 183c-52.667 49.333 -120.667 74 -204 74
c-43.333 0 -84 -8.33301 -122 -25c-40.667 -18 -74.334 -40.667 -101.001 -68c-29.333 -28.667 -52.333 -62.334 -69 -101.001c-17.333 -40.667 -26 -82 -26 -124c0 -84 27.333 -155.333 82 -214c57.333 -62 134.333 -93 231 -93c72 0 137 21.667 195 65l32 -51
c-24.667 -22 -59.334 -40 -104.001 -54c-44 -14 -85 -21 -123 -21c-72.667 0 -137.667 16 -195 48c-56 32.667 -100.333 77.334 -133 134.001c-30.667 54.667 -46 116.334 -46 185.001c0 52 10 101.667 30 149c21.333 46 48.666 86.333 81.999 121
c34.667 34 75 60.667 121 80c46 20 94.667 30 146 30c63.333 0 121.666 -13.667 174.999 -41c52 -27.333 93.333 -65 124 -113c30 -49.333 45 -103.666 45 -162.999c0 -71.333 -19.333 -130.333 -58 -177c-37.333 -44 -82 -66 -134 -66zM414.002 382.997
c-26 0 -48 -10.999 -66 -32.999c-18 -21.333 -27 -45.333 -27 -72c1.33301 -18.667 7.66602 -35.334 18.999 -50.001c12.667 -14.667 29.334 -22 50.001 -22c24 0 45 11 63 33c17.333 22.667 26 47.667 26 75c0 20 -6 36.5 -18 49.5s-27.667 19.5 -47 19.5z" />
    <glyph glyph-name="A" unicode="A" horiz-adv-x="729" 
d="M185 171l-68 -171h-117l297 729h135l295 -729h-119l-67 171h-356zM225 273h277l-139 346z" />
    <glyph glyph-name="B" unicode="B" horiz-adv-x="684" 
d="M93 729l278.998 0.000976562c70.667 0 127.334 -17 170.001 -51c42.667 -34.667 64 -81.667 64 -141c0 -24.667 -6.66699 -50.667 -20 -78c-15.333 -34 -43.666 -60.333 -84.999 -79c52 -16.667 89 -43.334 111 -80.001c18 -32 27 -64 27 -96
c0 -60.667 -22 -110 -66 -148c-44.667 -37.333 -109 -56 -193 -56h-287v729zM205.998 420.001h144c48 0 83.333 10 106 30c24 20 36 45 36 75c0 31.333 -11.333 56 -34 74s-56.667 27 -102 27h-150v-206zM206.998 103.001h175.001c45.333 0 80.5 9.83301 105.5 29.5
s37.5 46.5 37.5 80.5c0 32.667 -12.833 58.667 -38.5 78s-62.834 29 -111.501 29h-168v-217z" />
    <glyph glyph-name="C" unicode="C" horiz-adv-x="785" 
d="M411 -9c-55.333 -0.666992 -108.834 11.3301 -160.501 35.9971s-94.834 59 -129.501 103c-50.667 62.667 -76 140 -76 232c0 53.333 10 104 30 152c20 46.667 47 86.667 81 120c34.667 32.667 74.334 58.334 119.001 77.001c46 19.333 93 29 141 29
c76.667 0 143.667 -18.333 201 -55c26.667 -18.667 48.667 -37.667 66 -57c34.667 -39.333 58 -81.666 70 -126.999l-113 -39c-6 26.667 -18 53 -36 79c-12.667 18 -26.667 32.667 -42 44c-37.333 31.333 -86.333 47 -147 47c-65.333 0 -123 -24 -173 -72
c-51.333 -50 -77 -114.667 -77 -194c0 -80.667 25.333 -145.667 76 -195c49.333 -48 107 -72 173 -72c55.333 0 102.333 15 141 45c18 14.667 32.667 29.334 44 44.001c20.667 27.333 35 55.333 43 84l113 -39c-16.667 -60 -50 -111.333 -100 -154
c-43.333 -36.667 -91.666 -62 -144.999 -76c-32 -8 -65 -12 -99 -12z" />
    <glyph glyph-name="D" unicode="D" horiz-adv-x="757" 
d="M713 364c1.33301 -52 -9.66797 -103.5 -33.001 -154.5s-57 -94.167 -101 -129.5c-65.333 -53.333 -149.666 -80 -252.999 -80h-233v729h231c77.333 0 144 -15 200 -45c53.333 -30 95 -67.667 125 -113c42.667 -64.667 64 -133.667 64 -207zM592.999 364
c1.33301 35.333 -6.16797 71.166 -22.501 107.499s-39.5 67.5 -69.5 93.5c-45.333 38.667 -105 58 -179 58h-115v-517h114c72.667 0 132.334 18.667 179.001 56c20 17.333 37.667 37 53 59c26.667 42.667 40 90.334 40 143.001z" />
    <glyph glyph-name="E" unicode="E" horiz-adv-x="617" 
d="M93 729h467v-104h-353v-202h321v-104h-321v-215h356v-104h-470v729z" />
    <glyph glyph-name="F" unicode="F" horiz-adv-x="597" 
d="M207 412h323v-106h-323v-306h-114v729h465v-106h-351v-211z" />
    <glyph glyph-name="G" unicode="G" horiz-adv-x="794" 
d="M740 518l-111.998 -34.998c-9.33301 35.333 -30.666 68 -63.999 98c-38 34.667 -87.667 52 -149 52c-46.667 0 -89.334 -11.333 -128.001 -34c-38 -24 -68 -56.333 -90 -97c-22 -41.333 -33 -87 -33 -137c-1.33301 -74 22.167 -137.333 70.5 -190
s108.166 -78.667 179.499 -78c60.667 0 110 15.333 148 46c38 31.333 61 70.666 69 117.999h-261v104h385v-40c0 -92.667 -30 -171 -90 -235c-61.333 -65.333 -144.666 -98 -249.999 -98c-72 0 -136 16 -192 48c-57.333 33.333 -101.333 77.666 -132 132.999
c-30.667 56.667 -46 120 -46 190c0 52.667 9.66699 103 29 151c18 46 43.667 85.667 77 119c71.333 71.333 159.666 107 264.999 107c83.333 0 153.666 -21.5 210.999 -64.5s95 -95.5 113 -157.5z" />
    <glyph glyph-name="H" unicode="H" horiz-adv-x="775" 
d="M207 315v-315h-114v729h114v-306h361v306h115v-729h-115v315h-361z" />
    <glyph glyph-name="I" unicode="I" horiz-adv-x="300" 
d="M207 729v-729h-114v729h114z" />
    <glyph glyph-name="J" unicode="J" horiz-adv-x="587" 
d="M271 -8c-73.333 0 -131 20.668 -173 62.001c-43.333 41.333 -65 96.666 -65 165.999v77h112v-71c0 -40 12 -71 36 -93c23.333 -22.667 51.333 -34 84 -34c35.333 0 64.333 11.333 87 34s34 51.667 34 87v509h115v-509c0 -66 -21.667 -120.333 -65 -163
c-43.333 -43.333 -98.333 -65 -165 -65z" />
    <glyph glyph-name="K" unicode="K" horiz-adv-x="662" 
d="M207 0h-114v729h114v-315l291 315h152l-326 -349l345 -380h-155l-307 344v-344z" />
    <glyph glyph-name="L" unicode="L" horiz-adv-x="551" 
d="M93 729h114v-623h329v-106h-443v729z" />
    <glyph glyph-name="M" unicode="M" horiz-adv-x="969" 
d="M876 0h-114v546h-2l-228 -546h-97l-227 544h-3v-544h-112v729h155l236 -564h1l232 564h159v-729z" />
    <glyph glyph-name="N" unicode="N" horiz-adv-x="800" 
d="M708 0h-128l-374 558v-558h-113v729h132l370 -555v555h113v-729z" />
    <glyph glyph-name="O" unicode="O" horiz-adv-x="838" 
d="M45 363c0 52.667 9.99902 101.999 29.999 147.999c18.667 46.667 45.334 86.667 80.001 120c32.667 33.333 72.667 59.666 120 78.999c44.667 20 93 30 145 30c67.333 0 130 -16.333 188 -49c57.333 -32 102.333 -77 135 -135c33.333 -57.333 50 -120.666 50 -189.999
c0 -52 -10 -101.667 -30 -149s-46.667 -87 -80 -119c-34 -33.333 -74 -59.333 -120 -78c-48 -19.333 -96.667 -29 -146 -29c-50 0 -98.333 9.66699 -145 29c-45.333 18 -85 43.333 -119 76c-32.667 32.667 -59 72.334 -79 119.001c-19.333 46 -29 95.333 -29 148z
M164.999 364.999c-1.33301 -72.667 23.167 -135.668 73.5 -189.001s110.5 -79.333 180.5 -78c70 0 130.333 26 181 78c48.667 52 73 115 73 189c0 48.667 -11 93.667 -33 135c-22.667 40.667 -53.667 73 -93 97s-82 36 -128 36c-70 1.33301 -130.167 -24.667 -180.5 -78
s-74.833 -116.666 -73.5 -189.999z" />
    <glyph glyph-name="P" unicode="P" horiz-adv-x="635" 
d="M606 502c0 -64.667 -22.668 -119 -68.001 -163c-47.333 -46 -114.333 -69 -201 -69h-130v-270h-114v729h258c102.667 0 175.334 -32.667 218.001 -98c24.667 -38 37 -81 37 -129zM489.999 500c0 33.333 -11.333 62.167 -34 86.5s-61 36.5 -115 36.5h-134v-248h134
c53.333 0 92 13.667 116 41c22 25.333 33 53.333 33 84z" />
    <glyph glyph-name="Q" unicode="Q" horiz-adv-x="840" 
d="M729 -15l-89.002 78c-66 -48 -140.333 -72 -223 -72c-50 0 -98.333 9.66699 -145 29c-45.333 18 -85 43.333 -119 76c-32.667 32.667 -59 72.334 -79 119.001c-19.333 46 -29 95.333 -29 148s10 102 30 148c18.667 46.667 45.334 86.667 80.001 120
c32.667 33.333 72.667 59.666 120 78.999c44.667 20 93 30 145 30c50.667 0 99 -9.66699 145 -29c46.667 -19.333 86.334 -45.333 119.001 -78c33.333 -33.333 60 -73 80 -119c19.333 -48 29 -97.333 29 -148c0 -85.333 -25 -161 -75 -227l83 -71zM164.998 365
c0 -48.667 11 -93.334 33 -134.001c21.333 -40 52 -72.333 92 -97c38.667 -24 81.667 -36 129 -36c48.667 0 93.667 13 135 39l-135 116l73 84l138 -122c28.667 44.667 43 94.667 43 150c0 48.667 -11 93.667 -33 135c-22.667 40.667 -53.667 73 -93 97s-82 36 -128 36
c-70 1.33301 -130.167 -24.667 -180.5 -78s-74.833 -116.666 -73.5 -189.999z" />
    <glyph glyph-name="R" unicode="R" horiz-adv-x="670" 
d="M359 277l-151.998 0.000976562v-277h-114v729h274c87.333 0 151.666 -23.333 192.999 -70c36.667 -42.667 55 -94.334 55 -155.001c0 -48 -12.333 -90 -37 -126s-60.334 -62 -107.001 -78l162 -300h-127zM207.002 380.001h147.999c50.667 0 87.334 11.833 110.001 35.5
s34 52.167 34 85.5c0 81.333 -48 122 -144 122h-148v-243z" />
    <glyph glyph-name="S" unicode="S" horiz-adv-x="606" 
d="M309 -8c-82.667 0 -147.669 22.6699 -195.002 68.0029c-44.667 42 -69.667 90.333 -75 145l111 30c8 -43.333 26 -77.333 54 -102c28.667 -25.333 64.334 -38 107.001 -38c36 0 67.333 9.66699 94 29c25.333 19.333 38 43.666 38 72.999c0 28 -9.66699 51 -29 69
s-45.666 30.667 -78.999 38l-90 18c-58 12 -103 36 -135 72c-32.667 35.333 -49 77.333 -49 126c-1.33301 58.667 22.334 110.334 71.001 155.001s105 66.334 169 65.001c92 -0.666992 159.333 -28.334 202 -83.001c24 -28 39.667 -60.333 47 -97l-107 -33
c-7.33301 28.667 -23.333 54 -48 76s-55 33 -91 33s-65.667 -10.333 -89 -31c-24.667 -20.667 -37 -45.334 -37 -74.001c0 -22 8.33301 -42.333 25 -61c17.333 -18 39.666 -30 66.999 -36l92 -18c64 -12.667 113.167 -37.334 147.5 -74.001s51.5 -82.334 51.5 -137.001
c0 -55.333 -21.667 -104 -65 -146c-46.667 -44.667 -109 -67 -187 -67z" />
    <glyph glyph-name="T" unicode="T" horiz-adv-x="614" 
d="M250 0v623h-232v106h578v-106h-232v-623h-114z" />
    <glyph glyph-name="U" unicode="U" horiz-adv-x="736" 
d="M652 729l0.000976562 -446c0 -86.667 -24 -156.667 -72 -210c-47.333 -54.667 -118.333 -82 -213 -82s-166 27.667 -214 83c-45.333 52.667 -68 120.667 -68 204v451h114v-447c0 -56 15.667 -100.667 47 -134c32 -32.667 73 -49 123 -49
c53.333 0 94.666 16.667 123.999 50s44 76.333 44 129v451h115z" />
    <glyph glyph-name="V" unicode="V" horiz-adv-x="720" 
d="M18 729h127l217 -597l219 597h121l-276 -729h-131z" />
    <glyph glyph-name="W" unicode="W" horiz-adv-x="1093" 
d="M22 729h122l164 -567l175 567h127l177 -567l167 567h119l-223 -729h-130l-174 570h-1l-175 -570h-129z" />
    <glyph glyph-name="X" unicode="X" horiz-adv-x="682" 
d="M340 286l-205 -286h-133l271 375l-255 354h137l187 -266l187 266h135l-254 -353l269 -376h-136z" />
    <glyph glyph-name="Y" unicode="Y" horiz-adv-x="699" 
d="M292 0v291l-274 438h132l200 -327l201 327h131l-275 -435v-294h-115z" />
    <glyph glyph-name="Z" unicode="Z" horiz-adv-x="619" 
d="M433 626h-383v103h522v-98l-398 -528h406v-103h-545v99z" />
    <glyph glyph-name="bracketleft" unicode="[" horiz-adv-x="399" 
d="M365 807v-88h-172v-747h172v-89h-276v924h276z" />
    <glyph glyph-name="backslash" unicode="\" horiz-adv-x="502" 
d="M472 -5h-111l-333 764h112z" />
    <glyph glyph-name="bracketright" unicode="]" horiz-adv-x="399" 
d="M205 -28v747h-171v88h276v-924h-276v89h171z" />
    <glyph glyph-name="asciicircum" unicode="^" horiz-adv-x="576" 
d="M160 420h-116l201 309h86l202 -309h-115l-130 203z" />
    <glyph glyph-name="underscore" unicode="_" horiz-adv-x="501" 
d="M501 -65v-99h-501v99h501z" />
    <glyph glyph-name="grave" unicode="`" horiz-adv-x="273" 
d="M252 582h-96l-135 160h135z" />
    <glyph glyph-name="a" unicode="a" horiz-adv-x="535" 
d="M470 0h-108c-3.33301 15.333 -5 38 -5 68c-16.667 -27.333 -38 -47 -64 -59c-26.667 -12 -54 -18 -82 -18c-48.667 0 -88.667 14 -120 42c-31.333 27.333 -47 62.333 -47 105v5c0.666992 63.333 32.667 107.333 96 132c34 13.333 70.667 20 110 20h62
c30.667 0 46 14 46 42c0 21.333 -8.33301 39.333 -25 54c-18 14.667 -42.333 22 -73 22c-29.333 0 -53.666 -7.5 -72.999 -22.5s-31 -35.167 -35 -60.5l-101 23c3.33301 23.333 14.666 48.333 33.999 75c20.667 26.667 46.667 46.667 78 60c27.333 12.667 61 19 101 19
c93.333 0 155.333 -34 186 -102c11.333 -24.667 17 -54 17 -88v-237c0 -33.333 1 -60 3 -80zM357 201v16h-107c-23.333 0 -45 -6 -65 -18c-20 -12.667 -30 -29.667 -30 -51c0 -20.667 7.33301 -37.167 22 -49.5s33.667 -18.5 57 -18.5c38 0 68 11 90 33s33 51.333 33 88z
" />
    <glyph glyph-name="b" unicode="b" horiz-adv-x="634" 
d="M593 250c0 -45.333 -10.001 -87.332 -30.001 -125.999c-21.333 -40 -50.666 -71.667 -87.999 -95c-40 -24.667 -83 -37 -129 -37c-26.667 0 -57 7.66699 -91 23c-32.667 14.667 -57 35 -73 61v-76h-108v758h111v-334c16 25.333 40 45.666 72 60.999
c31.333 14.667 62 22 92 22c74 0 134 -27.333 180 -82c42.667 -52 64 -110.333 64 -175zM182.999 249.001c0 -43.333 14 -80.334 42 -111.001c28 -30 63.667 -45 107 -45c44 0 80 15 108 45c27.333 30 41 67 41 111c0 44.667 -13.667 82 -41 112c-28 30 -64 45 -108 45
c-43.333 0 -79 -15 -107 -45c-28 -31.333 -42 -68.666 -42 -111.999z" />
    <glyph glyph-name="c" unicode="c" horiz-adv-x="567" 
d="M300 -9c-72 -1.33301 -133.497 23.5029 -184.497 74.5029s-75.833 112.5 -74.5 184.5c0 46.667 11.333 89.667 34 129c22 39.333 53.333 70.666 94 93.999c39.333 22.667 83.333 34 132 34c59.333 0 109.666 -15.667 150.999 -47
c41.333 -30.667 67.666 -68.334 78.999 -113.001l-100 -33c-6 21.333 -18.667 41.666 -38 60.999c-22.667 21.333 -53.334 32 -92.001 32c-40.667 0 -75.334 -14.333 -104.001 -43c-28 -29.333 -42 -67 -42 -113c0 -45.333 13.667 -83.333 41 -114
c28 -30 63.333 -45 106 -45c63.333 0 107 31.667 131 95l101 -33c-11.333 -40.667 -36 -77 -74 -109c-41.333 -36 -94.666 -54 -159.999 -54z" />
    <glyph glyph-name="d" unicode="d" horiz-adv-x="634" 
d="M40 249c0 65.333 21.665 124 64.998 176c46.667 54.667 107.667 82 183 82c26.667 0 55.667 -7 87 -21c32.667 -13.333 57.334 -33.333 74.001 -60v332h111v-758h-109v78c-12 -20 -29 -37 -51 -51c-22.667 -12.667 -43.667 -21.667 -63 -27
c-20 -5.33301 -37.333 -8 -52 -8c-46 0 -88 12.333 -126 37c-37.333 23.333 -66.666 55 -87.999 95c-20.667 40 -31 81.667 -31 125zM449.998 249c0 44.667 -13.667 81.999 -41 111.999c-28 30 -64 45 -108 45c-43.333 0 -79 -15 -107 -45
c-28 -31.333 -42 -68.666 -42 -111.999s14 -80.333 42 -111c28 -30 63.667 -45 107 -45c44 0 80 15 108 45c27.333 30 41 67 41 111z" />
    <glyph glyph-name="e" unicode="e" horiz-adv-x="573" 
d="M532 216l-378.001 -0.00195312c0.666992 -36 16 -66.833 46 -92.5s63.333 -38.167 100 -37.5c69.333 0 113.333 28 132 84l93 -29c-8.66699 -30 -24.5 -56.667 -47.5 -80s-49.833 -41 -80.5 -53c-32 -11.333 -64 -17 -96 -17c-72 -1.33301 -133.667 23.334 -185 74.001
s-76.333 112 -75 184c0 46.667 10.667 89.667 32 129c22 40.667 52 72 90 94c38.667 23.333 81.334 35 128.001 35c76 0 135.333 -23.667 178 -71c43.333 -47.333 65 -109.333 65 -186c0 -9.33301 -0.666992 -20.666 -2 -33.999zM291.999 411.998
c-35.333 0 -64.666 -10.332 -87.999 -30.999c-24.667 -20 -39.334 -47 -44.001 -81h261c-2 33.333 -15 60.666 -39 81.999c-25.333 20 -55.333 30 -90 30z" />
    <glyph glyph-name="f" unicode="f" horiz-adv-x="380" 
d="M232 399v-399h-112v399h-95v98h95v58c0 72.667 18.333 125.667 55 159c34.667 30.667 77.667 46 129 46c28 0 48.667 -2.66699 62 -8v-94c-10.667 2.66699 -24 4 -40 4c-28 0 -51.333 -9.33301 -70 -28c-16 -17.333 -24 -43.333 -24 -78v-59h130v-98h-130z" />
    <glyph glyph-name="g" unicode="g" horiz-adv-x="630" 
d="M282 -4c-71.333 0 -129.335 25.667 -174.002 77c-45.333 50.667 -68 109.667 -68 177c0 63.333 21.667 121 65 173c20.667 25.333 46.834 45.333 78.501 60s65.5 22 101.5 22c28 0 57.333 -6.66699 88 -20c33.333 -15.333 58.333 -36.666 75 -63.999v76h108v-494
c0 -51.333 -12 -96.333 -36 -135c-25.333 -40 -57.333 -69 -96 -87c-40 -20 -85.667 -30 -137 -30c-81.333 0 -146.666 24.667 -195.999 74c-25.333 25.333 -41.666 56.666 -48.999 93.999l104 30c6 -27.333 22 -50.333 48 -69c26 -20 55.667 -30 89 -30
c45.333 0 83.666 12.5 114.999 37.5s47 61.833 47 110.5v82c-12 -19.333 -29 -36 -51 -50c-22 -13.333 -42.333 -22.333 -61 -27c-20.667 -4.66699 -37.667 -7 -51 -7zM446.998 252c0 44 -13.666 80.667 -40.999 110c-26.667 29.333 -62.334 44 -107.001 44
s-80.667 -14.667 -108 -44s-41 -66 -41 -110s14 -81 42 -111c28 -30.667 63.667 -46 107 -46s79 15.333 107 46c27.333 30.667 41 67.667 41 111z" />
    <glyph glyph-name="h" unicode="h" 
d="M410 0l0.000976562 278c0 38.667 -9.33301 69 -28 91s-46 33 -82 33c-35.333 0 -63.333 -11.333 -84 -34s-31 -53 -31 -91v-277h-111v758h111v-324c14.667 18.667 31.667 34 51 46c22 12 39.667 19.333 53 22c16.667 3.33301 31.667 5 45 5
c61.333 0 107.666 -18.667 138.999 -56c31.333 -36 47 -84.333 47 -145v-306h-110z" />
    <glyph glyph-name="i" unicode="i" horiz-adv-x="259" 
d="M78 607c-14.667 14.667 -22 31.667 -22 51c0 20 7.33301 37.333 22 52c14 14.667 31 22 51 22c20.667 0 38 -7.33301 52 -22c14 -14 21 -31.333 21 -52c0 -20 -7 -37 -21 -51c-14.667 -14.667 -32 -22 -52 -22c-19.333 0 -36.333 7.33301 -51 22zM74 0v497h111v-497h-111
z" />
    <glyph glyph-name="j" unicode="j" horiz-adv-x="266" 
d="M64 658c0 20.667 6.99902 38 20.999 52c14.667 14.667 31.667 22 51 22c20.667 0 38.334 -7.33301 53.001 -22c14 -14 21 -31.333 21 -52c0 -20 -7 -37 -21 -51c-16 -14.667 -33.667 -22 -53 -22s-36.333 7.33301 -51 22c-14 14 -21 31 -21 51zM80.999 -70
l0.000976562 567h111v-573c0 -58.667 -12 -101.667 -36 -129s-61 -41 -111 -41c-24.667 0 -48.334 3 -71.001 9v94c16 -2 28 -3 36 -3c47.333 0 71 25.333 71 76z" />
    <glyph glyph-name="k" unicode="k" horiz-adv-x="540" 
d="M185 243v-243h-111v758h111v-457h1l193 196h151l-225 -225l237 -272h-147l-207 243h-3z" />
    <glyph glyph-name="l" unicode="l" horiz-adv-x="259" 
d="M185 758v-758h-111v758h111z" />
    <glyph glyph-name="m" unicode="m" horiz-adv-x="907" 
d="M401 0l0.00292969 278.999c0 38.667 -8.83301 69 -26.5 91s-44.167 33 -79.5 33c-34.667 0 -61.334 -11.333 -80.001 -34c-20 -24 -30 -54.667 -30 -92v-277h-111v497h108v-67c15.333 20.667 32.666 36.667 51.999 48c20.667 13.333 37.667 21.666 51 24.999
c16.667 3.33301 32 5 46 5c71.333 0 122.333 -27 153 -81c24 26.667 50 47.334 78 62.001c26 12.667 57.667 19 95 19c60.667 0 106.667 -19.333 138 -58c28.667 -36.667 43 -84.334 43 -143.001v-307h-111v280c0 38.667 -8.83301 68.834 -26.5 90.501
s-44.167 32.5 -79.5 32.5c-34.667 0 -61.334 -11.333 -80.001 -34c-20 -23.333 -30 -53.666 -30 -90.999v-278h-110z" />
    <glyph glyph-name="n" unicode="n" 
d="M410 0l-0.000976562 278c0 38.667 -9.33301 69 -28 91s-46 33 -82 33c-35.333 0 -63.333 -11.333 -84 -34s-31 -53 -31 -91v-277h-111v497h108v-67c14.667 19.333 32.334 35.333 53.001 48c20.667 12 38.334 20 53.001 24c16.667 3.33301 32 5 46 5
c61.333 0 107.666 -18.667 138.999 -56c31.333 -36 47 -84.333 47 -145v-306h-110z" />
    <glyph glyph-name="o" unicode="o" horiz-adv-x="605" 
d="M40 249c0 48 11.999 92.002 35.999 132.002c25.333 41.333 57.333 72.333 96 93c40 22 84 33 132 33c46.667 0 90 -11 130 -33s72 -52.667 96 -92c23.333 -40.667 35 -84.334 35 -131.001c1.33301 -71.333 -24.167 -132.833 -76.5 -184.5
s-114.166 -76.834 -185.499 -75.501c-46 0 -89.667 11.333 -131 34c-38.667 20.667 -70.667 51.667 -96 93c-24 40 -36 83.667 -36 131zM153.999 251.002c0 -43.333 14.001 -80.667 42.001 -112s64 -47 108 -47c43.333 0 79 15.333 107 46c27.333 30.667 41 67.667 41 111
c0 44.667 -14 82 -42 112c-26.667 30.667 -62.334 46 -107.001 46c-44 0 -80 -15 -108 -45c-27.333 -29.333 -41 -66.333 -41 -111z" />
    <glyph glyph-name="p" unicode="p" horiz-adv-x="634" 
d="M593 250c0 -45.333 -10 -87.333 -30 -126c-21.333 -40 -50.666 -71.667 -87.999 -95c-40 -24.667 -83 -37 -129 -37c-34.667 0 -71.334 11 -110.001 33c-22 12.667 -39 28.667 -51 48v-318h-111v742h108v-77c20 32.667 47.667 55.667 83 69c30.667 12 58.667 18 84 18
c74 0 134 -27.333 180 -82c42.667 -52 64 -110.333 64 -175zM183 249c0 -43.333 14 -80.334 42 -111.001c28 -30 63.667 -45 107 -45c44 0 80 15 108 45c27.333 30 41 67 41 111c0 44.667 -13.667 82 -41 112c-28 30 -64 45 -108 45c-43.333 0 -79 -15 -107 -45
c-28 -31.333 -42 -68.666 -42 -111.999z" />
    <glyph glyph-name="q" unicode="q" horiz-adv-x="634" 
d="M40 249c0 65.333 21.665 123.999 64.998 175.999c46.667 54.667 107.667 82 183 82c38 0 75.667 -11.667 113 -35c22 -13.333 38.667 -29.666 50 -48.999v74h109v-742h-111v319c-13.333 -19.333 -30.666 -35.333 -51.999 -48c-22 -13.333 -42.333 -22.333 -61 -27
c-21.333 -4.66699 -38.333 -7 -51 -7c-46 0 -88 12.333 -126 37c-37.333 23.333 -66.666 55 -87.999 95c-20.667 40 -31 81.667 -31 125zM449.998 248.999c0 44.667 -13.667 81.999 -41 111.999c-28 30 -64 45 -108 45c-43.333 0 -79 -15 -107 -45
c-28 -31.333 -42 -68.666 -42 -111.999s14 -80.333 42 -111c28 -30 63.667 -45 107 -45c44 0 80 15 108 45c27.333 30 41 67 41 111z" />
    <glyph glyph-name="r" unicode="r" horiz-adv-x="366" 
d="M346 499v-114.001c-8.66699 2 -19 3 -31 3c-42 0 -74.167 -11.667 -96.5 -35s-33.5 -56.666 -33.5 -99.999v-253h-111v497h109v-77c14 26 33.167 46 57.5 60s50.5 21 78.5 21c7.33301 0 16.333 -0.666992 27 -2z" />
    <glyph glyph-name="s" unicode="s" horiz-adv-x="461" 
d="M236 -9c-74 0.666992 -128.332 23.998 -162.999 69.998c-20 26 -31 51 -33 75l95 25c5.33301 -24 16.666 -43.167 33.999 -57.5s39.333 -21.5 66 -21.5c22 0 39.167 5.16699 51.5 15.5s18.5 24.5 18.5 42.5c0 27.333 -19.667 45.666 -59 54.999l-63 15
c-42.667 10 -75.334 27.5 -98.001 52.5s-34 54.833 -34 89.5c0 42.667 17 79.334 51 110.001s75.667 46 125 46c70 -0.666992 121 -22.667 153 -66c16.667 -22 26.667 -44.333 30 -67l-93 -26c-4.66699 20.667 -14.5 37.334 -29.5 50.001s-35.167 19 -60.5 19
c-18.667 0 -34.667 -5.33301 -48 -16c-13.333 -9.33301 -20 -22.666 -20 -39.999c0 -28 16.667 -45.333 50 -52l68 -14c44.667 -10 79.334 -28.333 104.001 -55c24.667 -28 37 -59.667 37 -95c0 -42 -15.833 -78.333 -47.5 -109s-76.5 -46 -134.5 -46z" />
    <glyph glyph-name="t" unicode="t" horiz-adv-x="396" 
d="M355 497l-0.000976562 -100h-126v-237c0 -22 6 -38.167 18 -48.5s31.333 -15.5 58 -15.5c13.333 0 28.333 1.33301 45 4v-95c-24.667 -6.66699 -51 -10 -79 -10c-51.333 0 -89.666 12 -114.999 36s-38 65 -38 123v243h-96v100h96v154h111v-154h126z" />
    <glyph glyph-name="u" unicode="u" 
d="M180 497l-0.000976562 -278.001c0 -38.667 9.33301 -69 28 -91s45.667 -33 81 -33s63.333 11.333 84 34s31 53 31 91v277h111v-497h-108v67c-15.333 -20.667 -32.666 -36.667 -51.999 -48c-17.333 -11.333 -35.333 -19.333 -54 -24c-12.667 -3.33301 -28 -5 -46 -5
c-39.333 0 -73.333 8.83301 -102 26.5s-50 41.834 -64 72.501c-13.333 28.667 -20 62.667 -20 102v306h111z" />
    <glyph glyph-name="v" unicode="v" horiz-adv-x="562" 
d="M337 0h-111l-210 497h120l146 -368l146 368h117z" />
    <glyph glyph-name="w" unicode="w" horiz-adv-x="819" 
d="M579 145h1l105 352h114l-160 -497h-114l-115 349h-2l-116 -349h-113l-159 497h115l105 -351h1l113 351h111z" />
    <glyph glyph-name="x" unicode="x" horiz-adv-x="531" 
d="M265 173l-125 -173h-127l189 251l-182 246h127l119 -165l120 165h125l-182 -244l188 -253h-127z" />
    <glyph glyph-name="y" unicode="y" horiz-adv-x="570" 
d="M236 56l-221 441h126l155 -326l143 326h120l-341 -742h-118z" />
    <glyph glyph-name="z" unicode="z" horiz-adv-x="492" 
d="M310 400h-263v97h402v-88l-274 -313h275v-96h-410v92z" />
    <glyph glyph-name="braceleft" unicode="{" horiz-adv-x="419" 
d="M123 90l15.001 102.001c6 42.667 -2.66699 71.667 -26 87c-20.667 13.333 -49.334 20 -86.001 20h-7v90h7c36 0 64.667 7 86 21c23.333 15.333 32 44.333 26 87l-15 103c-13.333 78 0.666992 133 42 165c37.333 28 93.666 42 168.999 42h50v-88h-44
c-62.667 -0.666992 -99 -17.667 -109 -51c-3.33301 -16.667 -4.66602 -32.334 -3.99902 -47.001c2.66699 -27.333 5 -47.666 7 -60.999l11 -74c4.66699 -30 -1 -59 -17 -87s-47 -46 -93 -54c46 -8.66699 77 -26.834 93 -54.501s21.667 -56.167 17 -85.5l-11 -75
c-4 -30 -6.33301 -52.667 -7 -68c-0.666992 -17.333 2 -33.666 8 -48.999c11.333 -27.333 46.333 -41.333 105 -42h44v-88h-50c-78.667 0 -136.5 15.167 -173.5 45.5s-49.5 84.166 -37.5 161.499z" />
    <glyph glyph-name="bar" unicode="|" horiz-adv-x="283" 
d="M194 830v-938h-105v938h105z" />
    <glyph glyph-name="braceright" unicode="}" horiz-adv-x="419" 
d="M281 192l15.002 -102.001c11.333 -77.333 -1.33398 -131.166 -38.001 -161.499s-94.334 -45.5 -173.001 -45.5h-50v88h45c31.333 0 57 4.66699 77 14c14 5.33301 24.667 18.666 32 39.999c4 11.333 4.66699 32.666 2 63.999c-1.33301 10.667 -3.33301 24.334 -6 41.001
l-12 75c-4.66699 29.333 1.16602 57.833 17.499 85.5s47.5 45.834 93.5 54.501c-46 8 -77 26 -93 54s-21.667 57 -17 87l11 74c2 13.333 4.33301 33.666 7 60.999c1.33301 10.667 1.33301 19 0 25c-2.66699 20 -6.66699 33.333 -12 40c-18 22 -51.333 33 -100 33h-45v88h50
c78 0.666992 135.5 -14.666 172.5 -45.999s49.833 -85 38.5 -161l-15 -103c-6 -42 3 -71 27 -87c20.667 -14 49 -21 85 -21h7v-90h-7c-37.333 0 -65.666 -6.66699 -84.999 -20c-24 -15.333 -33 -44.333 -27 -87z" />
    <glyph glyph-name="asciitilde" unicode="~" horiz-adv-x="591" 
d="M393 192c-16.667 0 -34.665 4 -53.998 12c-18.667 8 -35.334 16.667 -50.001 26c-14.667 10.667 -30.334 19.334 -47.001 26.001c-17.333 8 -32.333 12 -45 12c-28 0 -52 -14.333 -72 -43l-64 60c34 59.333 79.333 89 136 89c18 0 37.667 -4 59 -12
c18.667 -7.33301 35.667 -16 51 -26c15.333 -10.667 30.333 -19.334 45 -26.001c16 -8 29.667 -12 41 -12c27.333 0 51.333 14 72 42l64 -60c-34.667 -58.667 -80 -88 -136 -88z" />
    <glyph glyph-name="uni00A0" unicode="&#xa0;" horiz-adv-x="246" 
 />
    <glyph glyph-name="exclamdown" unicode="&#xa1;" horiz-adv-x="275" 
d="M64 435c0 20 7 37 21 51c14.667 14 32 21 52 21c20.667 0 38 -7 52 -21s21 -31 21 -51c0 -20.667 -7 -38 -21 -52c-14.667 -14.667 -32 -22 -52 -22c-19.333 0 -36.333 7.33301 -51 22c-14.667 14 -22 31.333 -22 52zM197 -228h-119v111l9 392l101 1l9 -393v-111z" />
    <glyph glyph-name="cent" unicode="&#xa2;" horiz-adv-x="577" 
d="M437 187l101 -32.998c-11.333 -37.333 -33 -71 -65 -101c-36 -34 -81.667 -54 -137 -60v-88h-70v89c-64.667 9.33301 -117.334 37.666 -158.001 84.999c-42 47.333 -63 104.333 -63 171c0 64 21 120.333 63 169c41.333 47.333 94 76 158 86v88h70v-88
c50.667 -4.66699 94.334 -22.334 131.001 -53.001c35.333 -29.333 58 -64.333 68 -105l-100 -33c-6 20 -17 38.667 -33 56c-16.667 18 -39 29.333 -67 34v-309c46.667 8 80.667 38.667 102 92zM189 350.002c-20 -26.667 -30 -59.668 -30 -99.001c0 -38 10 -71 30 -99
c19.333 -27.333 45.333 -45.666 78 -54.999v305c-31.333 -8 -57.333 -25.333 -78 -52z" />
    <glyph glyph-name="sterling" unicode="&#xa3;" horiz-adv-x="638" 
d="M492 206l110.004 -10.002c0 -57.333 -17.333 -104.333 -52 -141s-80.334 -55 -137.001 -55h-358v99c32 16 59.667 38.667 83 68c22.667 29.333 34 61.333 34 96c0 11.333 -1.66699 27 -5 47h-108v95h76c-19.333 52.667 -29 94 -29 124s6.33301 58.667 19 86
c12 26.667 28.667 49 50 67c43.333 38 96 57 158 57c63.333 1.33301 116.666 -16.5 159.999 -53.5s64.666 -83.833 63.999 -140.5l-112 -19c0 30.667 -10 56.334 -30 77.001c-22 20.667 -48.667 31 -80 31c-32 0 -58.333 -10.333 -79 -31c-20.667 -20 -31 -45.667 -31 -77
c0 -15.333 1.66699 -29.333 5 -42c4.66699 -18.667 8 -31 10 -37c2 -4.66699 7.33301 -18.667 16 -42h202v-95h-171c2 -9.33301 3 -21.333 3 -36c0 -69.333 -29.667 -126.333 -89 -171h192c31.333 0 55.666 10.667 72.999 32c17.333 20.667 26 44.334 26 71.001z" />
    <glyph glyph-name="currency" unicode="&#xa4;" horiz-adv-x="625" 
d="M90 252c0 41.333 12 80.6689 36 118.002l-79 81l68 68l82 -84c36.667 21.333 75.334 32 116.001 32s79 -10.333 115 -31l82 83l68 -69l-79 -80c24 -34.667 36 -74 36 -118c0 -36.667 -11.667 -75.334 -35 -116.001l-2 -3l81 -80l-68 -68l-82 84
c-44 -21.333 -82.667 -32 -116 -32c-34.667 0 -73.334 10.667 -116.001 32l-82 -84l-68 69l80 80c-24.667 35.333 -37 74.666 -37 117.999zM397 336.003c-23.333 22 -51.668 33.001 -85.001 33.001s-61.666 -11 -84.999 -33c-22.667 -22.667 -34 -51 -34 -85
c0 -32.667 11.333 -60.334 34 -83.001c22 -22 50.333 -33 85 -33s63 11 85 33s33 49.667 33 83c0 34.667 -11 63 -33 85z" />
    <glyph glyph-name="yen" unicode="&#xa5;" horiz-adv-x="705" 
d="M630 365v-85h-220v-74h220v-85h-220v-121h-116v121h-219v85h219v74h-219v85h180l-221 364h132l187 -323l187 323h131l-223 -364h182z" />
    <glyph glyph-name="brokenbar" unicode="&#xa6;" horiz-adv-x="281" 
d="M193 466h-105v364h105v-364zM88 -108v363h105v-363h-105z" />
    <glyph glyph-name="section" unicode="&#xa7;" horiz-adv-x="620" 
d="M318 83c28.667 0 51.9971 8.00195 69.9971 24.002c10 9.33301 15 20.666 15 33.999c0 26 -29.667 46.333 -89 61l-99 25c-46 11.333 -84.333 27 -115 47c-36.667 22.667 -55 52.667 -55 90c0 31.333 9.83301 57.5 29.5 78.5s46.834 35.833 81.501 44.5
c-38 24.667 -57 56.667 -57 96c0 50 23 89 69 117c44 26.667 91.333 40 142 40c70 0 127.333 -16.667 172 -50c38.667 -30 63.667 -66 75 -108l-94 -33c-9.33301 28.667 -26 51.667 -50 69c-24.667 18 -59 27 -103 27c-20.667 0 -41.167 -4.66699 -61.5 -14
s-30.5 -23.333 -30.5 -42c0 -27.333 32 -48.666 96 -63.999l93 -23c112.667 -26.667 169 -72 169 -136c0 -62.667 -37 -103.667 -111 -123c17.333 -9.33301 31.333 -22.833 42 -40.5s16 -36.167 16 -55.5c0 -50 -20.667 -89 -62 -117s-88.666 -42 -141.999 -42
c-69.333 0 -126.666 15.667 -171.999 47c-46 32 -75 71.333 -87 118l94 31c7.33301 -22.667 20 -41.834 38 -57.501s38 -26.834 60 -33.501c19.333 -6.66699 41.333 -10 66 -10zM236.997 440.002c-22.667 0 -41.499 -5.33203 -56.499 -15.999s-22.5 -24.334 -22.5 -41.001
c0 -15.333 9.16699 -28.5 27.5 -39.5s49.166 -22.167 92.499 -33.5c52 -12.667 87.667 -19 107 -19c22.667 0 41.667 5.66699 57 17c14.667 10 22 23.333 22 40c0 15.333 -9.16699 28.5 -27.5 39.5s-49.166 22.167 -92.499 33.5c-52.667 12.667 -88.334 19 -107.001 19z" />
    <glyph glyph-name="dieresis" unicode="&#xa8;" horiz-adv-x="391" 
d="M92 578c-19.333 0 -35.666 6.66602 -48.999 19.999c-13.333 14.667 -20 31.334 -20 50.001c0 18 6.66699 34.333 20 49c13.333 13.333 29.666 20 48.999 20s35.666 -6.66699 48.999 -20c14 -14 21 -30.333 21 -49c0 -19.333 -7 -36 -21 -50
c-13.333 -13.333 -29.666 -20 -48.999 -20zM299 577.999c-19.333 0 -35.666 6.66797 -48.999 20.001c-14 14 -21 30.667 -21 50c0 18 6.66699 34.333 20 49c13.333 13.333 30 20 50 20c19.333 0 35.666 -6.66699 48.999 -20c13.333 -14.667 20 -31 20 -49
c0 -18.667 -6.66699 -35.334 -20 -50.001c-14.667 -13.333 -31 -20 -49 -20z" />
    <glyph glyph-name="copyright" unicode="&#xa9;" horiz-adv-x="834" 
d="M416 -9c-49.333 0 -97.001 10.001 -143.001 30.001c-44 18 -83.333 44.333 -118 79c-33.333 33.333 -59.666 73.333 -78.999 120c-20 45.333 -30 93.666 -30 144.999c0 50.667 10 99 30 145c19.333 46.667 45.666 86.667 78.999 120c34 34 73.333 60.667 118 80
c46.667 19.333 94.334 29 143.001 29c50 0 98 -9.66699 144 -29c44 -19.333 83.667 -46 119 -80c32.667 -33.333 59 -73.333 79 -120c19.333 -46.667 29 -95 29 -145c0 -50.667 -9.66699 -99 -29 -145c-20 -46.667 -46.333 -86.667 -79 -120
c-36 -34.667 -75.667 -61 -119 -79c-45.333 -20 -93.333 -30 -144 -30zM415.999 680.001c-42.667 0 -82.668 -8.33398 -120.001 -25.001c-39.333 -17.333 -72 -39.666 -98 -66.999c-27.333 -28.667 -49 -62.334 -65 -101.001c-16 -39.333 -24 -80 -24 -122
c0 -43.333 8 -84.333 24 -123s37.667 -72 65 -100c58.667 -60.667 131.334 -91 218.001 -91c43.333 0 83.666 8.33301 120.999 25c36.667 15.333 69.334 37.333 98.001 66c28 28 49.667 61.333 65 100c16.667 40.667 25 81.667 25 123c0 40.667 -8.33301 81.334 -25 122.001
c-14.667 38.667 -36.334 72.334 -65.001 101.001c-26 27.333 -58.667 49.666 -98 66.999c-37.333 16.667 -77.666 25 -120.999 25zM541.998 309l90.002 -29.0029c-10.667 -37.333 -32.667 -69.666 -66 -96.999c-36.667 -32 -84.334 -48 -143.001 -48
c-65.333 0 -120 22 -164 66c-44.667 44.667 -67 99.334 -67 164.001c0 42 10.333 80.333 31 115c21.333 37.333 49 65.333 83 84c35.333 20.667 75 31 119 31c51.333 0 96.333 -13.667 135 -41c36.667 -28.667 60 -62.667 70 -102l-90 -29c-6 22 -18.5 41.167 -37.5 57.5
s-44.833 24.5 -77.5 24.5c-38 0 -69.333 -12.667 -94 -38s-37 -58.666 -37 -99.999s12.333 -75.333 37 -102c25.333 -26.667 56.666 -40 93.999 -40c56 0 95 28 117 84z" />
    <glyph glyph-name="ordfeminine" unicode="&#xaa;" horiz-adv-x="519" 
d="M351 360v44.999c-11.333 -16 -28.333 -28.667 -51 -38c-21.333 -8 -40.333 -12 -57 -12c-50 0 -91.333 17.667 -124 53c-33.333 36.667 -50 78.667 -50 126c0 46.667 16.167 88.334 48.5 125.001s74.833 55 127.5 55c18 0 37 -4 57 -12c20 -8.66699 36.333 -21 49 -37v42
h87v-347h-87zM255 633.999c-29.333 0 -52.668 -9.66699 -70.001 -29c-18 -19.333 -27 -43 -27 -71s9 -51.667 27 -71s41.333 -29 70 -29s52 9.66699 70 29c18 20 27 43.667 27 71c0 28 -9 51.667 -27 71c-17.333 19.333 -40.666 29 -69.999 29zM73.998 268.999h364v-79h-364
v79z" />
    <glyph glyph-name="guillemotleft" unicode="&#xab;" horiz-adv-x="591" 
d="M306 423l-145 -143l145 -142l-64 -63l-209 205l209 206zM539 423l-145 -143l146 -142l-65 -63l-209 205l209 206z" />
    <glyph glyph-name="logicalnot" unicode="&#xac;" horiz-adv-x="647" 
d="M46 417v103h530v-298h-105v195h-425z" />
    <glyph glyph-name="uni00AD" unicode="&#xad;" horiz-adv-x="432" 
d="M367 359v-113h-302v113h302z" />
    <glyph glyph-name="registered" unicode="&#xae;" horiz-adv-x="604" 
d="M427 274c-39.333 -22.667 -81 -34 -125 -34s-85.667 11.333 -125 34c-38 22 -68.333 52.333 -91 91c-22 38 -33 79.667 -33 125c0 44 11 85.667 33 125c24 39.333 54.333 69.666 91 90.999c39.333 22.667 81 34 125 34s85.667 -11.333 125 -34
c36.667 -21.333 67 -51.666 91 -90.999c22 -39.333 33 -81 33 -125c0 -45.333 -11 -87 -33 -125c-22.667 -38.667 -53 -69 -91 -91zM302 692c-55.333 0 -102.333 -19.665 -141 -58.998c-38.667 -38.667 -58 -86.334 -58 -143.001s19.333 -104.334 58 -143.001
c38.667 -39.333 85.667 -59 141 -59c56 0 103.333 19.667 142 59c38 39.333 57 87 57 143s-19 103.667 -57 143c-38.667 39.333 -86 59 -142 59zM305 450.002l-41 0.000976562v-103h-58v286h106c33.333 0 58.333 -8.66699 75 -26c16 -18 24 -39.667 24 -65
c0 -38.667 -16.333 -65.334 -49 -80.001l59 -115h-64zM353 541.003c0 25.333 -15.333 38 -46 38h-43v-76h43c15.333 0 26.833 3.66699 34.5 11s11.5 16.333 11.5 27z" />
    <glyph glyph-name="degree" unicode="&#xb0;" horiz-adv-x="422" 
d="M210 401c-45.333 0 -84.333 16.333 -117 49s-49 72.334 -49 119.001c0 45.333 16.333 84.333 49 117c32 32.667 71 49 117 49c46.667 0 86.334 -16.333 119.001 -49s49 -71.667 49 -117c0 -46.667 -16.333 -86.334 -49 -119.001s-72.334 -49 -119.001 -49zM210 645
c-21.333 0 -39.332 -7.33301 -53.999 -22c-14 -15.333 -21 -33.333 -21 -54s7 -38.667 21 -54c15.333 -15.333 33.333 -23 54 -23c21.333 0 39.666 7.66699 54.999 23c14.667 14.667 22 32.667 22 54c0 20 -7.66699 37.667 -23 53s-33.333 23 -54 23z" />
    <glyph glyph-name="plusminus" unicode="&#xb1;" horiz-adv-x="633" 
d="M369 176h-105v168h-199v101h199v166h105v-166h198v-101h-198v-168zM566 122v-99h-500v99h500z" />
    <glyph glyph-name="uni00B2" unicode="&#xb2;" horiz-adv-x="433" 
d="M215 830c45.333 0 82.667 -13.666 112 -40.999c28.667 -27.333 43 -60 43 -98c0 -25.333 -8 -50 -24 -74s-37.333 -44 -64 -60l-66 -40c-22 -12 -36 -24.667 -42 -38h198v-83h-315v26c0 66 35.667 120 107 162l58 34c37.333 21.333 56 45.333 56 72
c0 15.333 -6 28.5 -18 39.5s-27.667 16.5 -47 16.5c-18.667 0 -34.334 -6.66699 -47.001 -20c-12 -13.333 -18 -29 -18 -47l-88 13c0.666992 37.333 15.667 69.666 45 96.999c28.667 27.333 65.334 41 110.001 41z" />
    <glyph glyph-name="uni00B3" unicode="&#xb3;" horiz-adv-x="417" 
d="M365 529c0 -42.667 -16.001 -77 -48.001 -103c-32.667 -26.667 -70 -40 -112 -40c-40 0 -76.333 12.667 -109 38c-31.333 25.333 -48 58.333 -50 99l91 14c0 -19.333 6.66699 -35 20 -47c12.667 -12.667 28.667 -19 48 -19c18.667 0 34.334 5.5 47.001 16.5
s19 25.5 19 43.5c0 16 -6.33301 29 -19 39c-13.333 10 -28.333 15 -45 15c-12.667 0 -22.667 -1.66699 -30 -5l-41 64l113 95h-192v81h303v-77l-103 -88h2c32 -4 57.333 -18 76 -42c20 -24 30 -52 30 -84z" />
    <glyph glyph-name="acute" unicode="&#xb4;" horiz-adv-x="265" 
d="M111 742h136l-135 -160h-96z" />
    <glyph glyph-name="uni00B5" unicode="&#xb5;" horiz-adv-x="615" 
d="M195 497l-0.000976562 -277.999c0 -38.667 9.33301 -69 28 -91s46 -33 82 -33c34.667 0 62.334 11.333 83.001 34c21.333 23.333 32 53.666 32 90.999v277h110v-497h-108v67c-37.333 -50 -86.333 -75 -147 -75c-32 0 -59.667 7.66699 -83 23v-168h-108v650h111z" />
    <glyph glyph-name="paragraph" unicode="&#xb6;" horiz-adv-x="504" 
d="M290 335l-48.001 0.000976562c-57.333 0 -106.333 19.667 -147 59c-41.333 38 -62 84.333 -62 139c-0.666992 53.333 19.833 99.666 61.5 138.999s90.834 58.333 147.501 57h163v-729h-115v335z" />
    <glyph glyph-name="middot" unicode="&#xb7;" horiz-adv-x="281" 
d="M59 300c0 23.333 8 43 24 59s35 24 57 24c22.667 0 42 -8 58 -24s24 -35.667 24 -59c0 -21.333 -8 -40 -24 -56s-35.333 -24 -58 -24c-22 0 -41 8 -57 24s-24 34.667 -24 56z" />
    <glyph glyph-name="uni00B9" unicode="&#xb9;" horiz-adv-x="323" 
d="M156 723l-96 -58l-42 70l141 85h93v-424h-96v327z" />
    <glyph glyph-name="ordmasculine" unicode="&#xba;" horiz-adv-x="509" 
d="M255 355c-51.333 0 -94.999 16.999 -130.999 50.999c-36.667 34.667 -55 77.667 -55 129c0 50.667 18.333 93.334 55 128.001c36 34 79.667 51 131 51s94.666 -17 129.999 -51c36.667 -34.667 55 -77 55 -127c0 -50.667 -18 -93.667 -54 -129
c-35.333 -34.667 -79 -52 -131 -52zM255.001 633.999c-30 0 -53.3311 -9.33203 -69.998 -27.999c-18.667 -18.667 -28 -42 -28 -70c0 -28.667 9.33301 -52.667 28 -72c19.333 -19.333 42.666 -29 69.999 -29c29.333 0 52.666 9.66699 69.999 29s26 43 26 71
c0 27.333 -8.66699 50.666 -26 69.999c-18.667 19.333 -42 29 -70 29zM74.0029 269h361v-79h-361v79z" />
    <glyph glyph-name="guillemotright" unicode="&#xbb;" horiz-adv-x="591" 
d="M198 280l-145 143l64 63l208 -206l-208 -205l-65 63zM431 280l-145 143l64 63l209 -206l-209 -205l-65 63z" />
    <glyph glyph-name="onequarter" unicode="&#xbc;" horiz-adv-x="896" 
d="M169 631l-97 -57l-42 70l142 85h93v-424h-96v326zM144 0l475 729h109l-473 -729h-111zM691 0v86h-214v102l190 235h117v-255h72v-82h-72v-86h-93zM691 168v159l-128 -159h128z" />
    <glyph glyph-name="onehalf" unicode="&#xbd;" horiz-adv-x="902" 
d="M169 631l-97 -57l-42 70l141 85h94v-424h-96v326zM144 0l475 729h109l-474 -729h-110zM694 433c47.333 0 84.668 -13.3311 112.001 -39.998c28.667 -28 43 -60.667 43 -98c0 -26 -7.83301 -50.833 -23.5 -74.5s-37.167 -43.5 -64.5 -59.5l-66 -40
c-22.667 -14.667 -36.334 -27.334 -41.001 -38.001h197v-83h-315v25c0 66 35.667 120 107 162l58 34c37.333 22 56 46 56 72c0 16 -5.83301 29.5 -17.5 40.5s-27.167 16.5 -46.5 16.5c-20 0 -35.667 -6.66699 -47 -20c-12.667 -14 -19 -30 -19 -48l-88 14
c0.666992 37.333 15.667 69.666 45 96.999c27.333 26.667 64 40 110 40z" />
    <glyph glyph-name="threequarters" unicode="&#xbe;" horiz-adv-x="918" 
d="M359 438c0 -42.667 -16.0029 -77 -48.0029 -103c-31.333 -26.667 -68.666 -40 -111.999 -40c-41.333 0 -77.666 12.667 -108.999 38c-32 25.333 -48.667 58 -50 98l90 15c0 -19.333 6.66699 -35 20 -47c12.667 -12.667 28.667 -19 48 -19s35.333 5.5 48 16.5
s19 25.5 19 43.5c0 16.667 -6.66699 29.667 -20 39c-12.667 10 -27.667 15 -45 15c-10 0 -20 -1.66699 -30 -5l-40 64l112 94h-192v82h304v-78l-104 -87h2c30.667 -4 56.334 -18.333 77.001 -43c20 -24 30 -51.667 30 -83zM171.997 0l475 729h109l-474 -729h-110zM718.997 0
v86h-214v102l190 235h117v-255h72v-82h-72v-86h-93zM718.997 168v159l-129 -159h129z" />
    <glyph glyph-name="questiondown" unicode="&#xbf;" horiz-adv-x="524" 
d="M327 486c14 -14 21 -31 21 -51c0 -20.667 -7 -38 -21 -52c-14.667 -14.667 -31.667 -22 -51 -22c-20 0 -37.333 7.33301 -52 22s-22 32 -22 52c0 19.333 7.33301 36.333 22 51c14 14 31.333 21 52 21c20 0 37 -7 51 -21zM374 13l117.002 -4.99902
c0 -6 0.166992 -12 0.5 -18s0.666016 -10.5 0.999023 -13.5s0.5 -5.16699 0.5 -6.5c0 -41.333 -11 -78 -33 -110c-21.333 -32 -50 -56.667 -86 -74c-36.667 -16.667 -74.334 -25 -113.001 -25c-38 0 -74 8 -108 24c-34 14.667 -63.333 37.334 -88 68.001
c-23.333 31.333 -35 65.666 -35 102.999c0 67.333 33 125.333 99 174c27.333 20 48 38.333 62 55c22 24.667 33 55 33 91h104c4.66699 -18.667 7 -33.334 7 -44.001c0 -40 -12.333 -74 -37 -102c-16.667 -19.333 -41.667 -41.666 -75 -66.999
c-48.667 -34.667 -73 -69.334 -73 -104.001c0 -26.667 11.333 -49 34 -67c22.667 -17.333 48 -26 76 -26c33.333 0 61 11.667 83 35s33 51.333 33 84c0 6.66699 -0.666992 16 -2 28z" />
    <glyph glyph-name="Agrave" unicode="&#xc0;" horiz-adv-x="729" 
d="M415 796h-96l-135 160h136zM185 171l-68 -171h-117l297 729h135l295 -729h-119l-67 171h-356zM225 273h277l-139 346z" />
    <glyph glyph-name="Aacute" unicode="&#xc1;" horiz-adv-x="729" 
d="M411 955h136l-135 -160h-96zM185 171l-68 -171h-117l297 729h135l295 -729h-119l-67 171h-356zM225 273h277l-139 346z" />
    <glyph glyph-name="Acircumflex" unicode="&#xc2;" horiz-adv-x="729" 
d="M189 795l128 160h87l134 -160h-106l-69 86l-64 -86h-110zM185 171l-68 -171h-117l297 729h135l295 -729h-119l-67 171h-356zM225 273h277l-139 346z" />
    <glyph glyph-name="Atilde" unicode="&#xc3;" horiz-adv-x="729" 
d="M530 942v-10c0 -82.667 -32 -124 -96 -124c-17.333 -0.666992 -41 6.83301 -71 22.5s-50 23.5 -60 23.5c-18.667 0 -29 -15 -31 -45h-77v11c0 82.667 32.667 124 98 124c15.333 0.666992 39 -6.83301 71 -22.5s52.667 -23.167 62 -22.5c20 0 31.333 14.333 34 43h70z
M185 171l-68 -171h-117l297 729h135l295 -729h-119l-67 171h-356zM225 273h277l-139 346z" />
    <glyph glyph-name="Adieresis" unicode="&#xc4;" horiz-adv-x="729" 
d="M258 790c-20 0 -36.333 7.00098 -49 21.001c-13.333 13.333 -20 29.666 -20 48.999c0 20 6.66699 36.667 20 50c12.667 13.333 29 20 49 20s36.333 -6.66699 49 -20c14 -14 21 -30.667 21 -50c0 -18.667 -7 -35 -21 -49c-12.667 -14 -29 -21 -49 -21zM523 811.001
c-13.333 -14 -29.667 -21 -49 -21c-20 0 -36.333 7 -49 21c-13.333 12.667 -20 29 -20 49s6.66699 36.667 20 50c12.667 13.333 29 20 49 20s36.333 -6.66699 49 -20c14 -14 21 -30.667 21 -50c0 -18.667 -7 -35 -21 -49zM184.999 171.001l-68 -171h-117l297 729h135
l295 -729h-119l-67 171h-356zM224.999 273.001h277l-139 346z" />
    <glyph glyph-name="Aring" unicode="&#xc5;" horiz-adv-x="728" 
d="M608 0l-67.001 170.999h-356l-68 -171h-117l279 684c-33.333 26 -50 59.667 -50 101c0 36 13.333 66.333 40 91c26.667 25.333 58.334 38 95.001 38s68.667 -12.667 96 -38c26 -25.333 39 -55.666 39 -90.999c0 -42 -16.333 -75.333 -49 -100l277 -685h-119z
M363.999 844.999c-18 0 -33.332 -5.66699 -45.999 -17c-12 -12 -18 -26.333 -18 -43s6.33301 -31 19 -43c12 -12 27 -18 45 -18s33 6 45 18s18 26.333 18 43c0 16 -6.33301 30 -19 42s-27.334 18 -44.001 18zM363 618.999l-138 -346h277z" />
    <glyph glyph-name="AE" unicode="&#xc6;" horiz-adv-x="980" 
d="M114 0h-125l396 729h538v-104h-348v-202h316v-104h-316v-215h351v-104h-465v171h-255zM260 273h201v353h-11z" />
    <glyph glyph-name="Ccedilla" unicode="&#xc7;" horiz-adv-x="785" 
d="M457 -6c14 -22 20.998 -46.6699 20.998 -74.0029c0 -32.667 -8.33301 -59.667 -25 -81c-17.333 -23.333 -38.333 -40 -63 -50c-24 -10.667 -51.667 -16 -83 -16c-28 0 -52 3.66699 -72 11v74c18 -4.66699 38.667 -7 62 -7c30 0 53.833 7.33301 71.5 22s26.5 36 26.5 64
c0 17.333 -4.66699 36 -14 56c-52.667 4 -102.5 18.833 -149.5 44.5s-86.167 59.834 -117.5 102.501c-46 60 -69 134 -69 222c0 53.333 10 104 30 152c20 46.667 47 86.667 81 120c34.667 32.667 74.334 58.334 119.001 77.001c46 19.333 93 29 141 29
c76.667 0 143.667 -18.333 201 -55c26.667 -18.667 48.667 -37.667 66 -57c34.667 -39.333 58 -81.666 70 -126.999l-113 -39c-6 26.667 -18 53 -36 79c-12.667 18 -26.667 32.667 -42 44c-37.333 31.333 -86.333 47 -147 47c-65.333 0 -123 -24 -173 -72
c-51.333 -50 -77 -114.667 -77 -194c0 -80.667 25.333 -145.667 76 -195c49.333 -48 107 -72 173 -72c55.333 0 102.333 15 141 45c18 14.667 32.667 29.334 44 44.001c20.667 27.333 35 55.333 43 84l113 -39c-10 -39.333 -30.333 -77.333 -61 -114
c-17.333 -20.667 -37 -39.334 -59 -56.001c-49.333 -39.333 -108.666 -62.333 -177.999 -69z" />
    <glyph glyph-name="Egrave" unicode="&#xc8;" horiz-adv-x="618" 
d="M412 796h-96l-136 160h137zM528 319h-321v-215h357v-104h-471v729h467v-104h-353v-202h321v-104z" />
    <glyph glyph-name="Eacute" unicode="&#xc9;" horiz-adv-x="618" 
d="M368 955h135l-135 -160h-97zM93 729h467v-104h-353v-202h321v-104h-321v-215h357v-104h-471v729z" />
    <glyph glyph-name="Ecircumflex" unicode="&#xca;" horiz-adv-x="618" 
d="M264 795h-111l130 160h87l133 -160h-106l-68 86zM528 319h-321v-215h357v-104h-471v729h467v-104h-353v-202h321v-104z" />
    <glyph glyph-name="Edieresis" unicode="&#xcb;" horiz-adv-x="617" 
d="M221 790c-19.333 0 -35.666 6.99805 -48.999 20.998c-14 14 -21 30.333 -21 49s6.66699 35.334 20 50.001c13.333 13.333 30 20 50 20c19.333 0 35.666 -6.66699 48.999 -20s20 -30 20 -50c0 -19.333 -6.66699 -35.666 -20 -48.999c-14 -14 -30.333 -21 -49 -21z
M486 810.998c-14 -14 -30.667 -21.001 -50 -21.001c-20 0 -36.333 7 -49 21c-13.333 13.333 -20 29.666 -20 48.999c0 18.667 6.66699 35.334 20 50.001c12.667 13.333 29 20 49 20s36.667 -6.66699 50 -20s20 -30 20 -50c0 -19.333 -6.66699 -35.666 -20 -48.999z
M93 728.997h467v-104h-353v-202h321v-104h-321v-215h356v-104h-470v729z" />
    <glyph glyph-name="Igrave" unicode="&#xcc;" horiz-adv-x="300" 
d="M199 796h-96l-135 160h135zM93 0v729h114v-729h-114z" />
    <glyph glyph-name="Iacute" unicode="&#xcd;" horiz-adv-x="300" 
d="M198 955h135l-135 -160h-97zM207 729v-729h-114v729h114z" />
    <glyph glyph-name="Icircumflex" unicode="&#xce;" horiz-adv-x="300" 
d="M86 795h-111l130 160h86l134 -160h-106l-69 86zM93 0v729h114v-729h-114z" />
    <glyph glyph-name="Idieresis" unicode="&#xcf;" horiz-adv-x="300" 
d="M48 790c-20 0 -36.333 7.00195 -49 21.002c-13.333 13.333 -20 29.666 -20 48.999c0 20 6.66699 36.667 20 50c12.667 13.333 29 20 49 20s36.667 -6.66699 50 -20c13.333 -14.667 20 -31.334 20 -50.001c0 -18 -6.66699 -34.333 -20 -49c-14 -14 -30.667 -21 -50 -21z
M250 790.002c-18.667 0 -34.666 6.99805 -47.999 20.998c-14 14 -21 30.333 -21 49s6.66699 35.334 20 50.001c13.333 13.333 29.666 20 48.999 20c20 0 36.667 -6.66699 50 -20s20 -30 20 -50c0 -19.333 -6.66699 -35.666 -20 -48.999c-14 -14 -30.667 -21 -50 -21z
M207.001 729v-729h-114v729h114z" />
    <glyph glyph-name="Eth" unicode="&#xd0;" horiz-adv-x="777" 
d="M112 319h-98.002v104h98v306h232c92 0 167.333 -20.333 226 -61c24.667 -16 49.334 -37.333 74.001 -64c56.667 -66 86.334 -146 89.001 -240c0.666992 -52 -10.5 -103.5 -33.5 -154.5s-56.5 -94.167 -100.5 -129.5c-65.333 -53.333 -150 -80 -254 -80h-233v319z
M226.998 423h162v-104h-162v-213h113c72.667 0 132.667 18.667 180 56c20.667 18 38 37.667 52 59c27.333 42.667 41 90.334 41 143.001c0.666992 35.333 -7 71.166 -23 107.499s-39.333 67.5 -70 93.5c-44 38.667 -103.667 58 -179 58h-114v-200z" />
    <glyph glyph-name="Ntilde" unicode="&#xd1;" horiz-adv-x="800" 
d="M568 942v-10c0 -82.667 -32.333 -124 -97 -124c-17.333 -0.666992 -41 6.83301 -71 22.5s-50 23.5 -60 23.5c-18.667 0 -28.667 -15 -30 -45h-78v11c0 82.667 32.667 124 98 124c15.333 0.666992 39 -6.83301 71 -22.5s52.667 -23.167 62 -22.5c20 0 31.333 14.333 34 43
h71zM708 0h-128l-374 558v-558h-113v729h132l370 -555v555h113v-729z" />
    <glyph glyph-name="Ograve" unicode="&#xd2;" horiz-adv-x="838" 
d="M474 796h-96l-135 160h136zM45 363c0 52.667 9.99902 101.999 29.999 147.999c18.667 46.667 45.334 86.667 80.001 120c32.667 33.333 72.667 59.666 120 78.999c44.667 20 93 30 145 30c67.333 0 130 -16.333 188 -49c57.333 -32 102.333 -77 135 -135
c33.333 -57.333 50 -120.666 50 -189.999c0 -52 -10 -101.667 -30 -149s-46.667 -87 -80 -119c-34 -33.333 -74 -59.333 -120 -78c-48 -19.333 -96.667 -29 -146 -29c-50 0 -98.333 9.66699 -145 29c-45.333 18 -85 43.333 -119 76c-32.667 32.667 -59 72.334 -79 119.001
c-19.333 46 -29 95.333 -29 148zM164.999 364.999c-1.33301 -72.667 23.167 -135.668 73.5 -189.001s110.5 -79.333 180.5 -78c70 0 130.333 26 181 78c48.667 52 73 115 73 189c0 48.667 -11 93.667 -33 135c-22.667 40.667 -53.667 73 -93 97s-82 36 -128 36
c-70 1.33301 -130.167 -24.667 -180.5 -78s-74.833 -116.666 -73.5 -189.999z" />
    <glyph glyph-name="Oacute" unicode="&#xd3;" horiz-adv-x="838" 
d="M465 955h135l-135 -160h-96zM45 363c0 52.667 9.99902 101.999 29.999 147.999c18.667 46.667 45.334 86.667 80.001 120c32.667 33.333 72.667 59.666 120 78.999c44.667 20 93 30 145 30c67.333 0 130 -16.333 188 -49c57.333 -32 102.333 -77 135 -135
c33.333 -57.333 50 -120.666 50 -189.999c0 -52 -10 -101.667 -30 -149s-46.667 -87 -80 -119c-34 -33.333 -74 -59.333 -120 -78c-48 -19.333 -96.667 -29 -146 -29c-50 0 -98.333 9.66699 -145 29c-45.333 18 -85 43.333 -119 76c-32.667 32.667 -59 72.334 -79 119.001
c-19.333 46 -29 95.333 -29 148zM164.999 364.999c-1.33301 -72.667 23.167 -135.668 73.5 -189.001s110.5 -79.333 180.5 -78c70 0 130.333 26 181 78c48.667 52 73 115 73 189c0 48.667 -11 93.667 -33 135c-22.667 40.667 -53.667 73 -93 97s-82 36 -128 36
c-70 1.33301 -130.167 -24.667 -180.5 -78s-74.833 -116.666 -73.5 -189.999z" />
    <glyph glyph-name="Ocircumflex" unicode="&#xd4;" horiz-adv-x="838" 
d="M354 795h-110l129 160h87l133 -160h-106l-68 86zM45 363c0 52.667 9.99902 101.999 29.999 147.999c18.667 46.667 45.334 86.667 80.001 120c32.667 33.333 72.667 59.666 120 78.999c44.667 20 93 30 145 30c67.333 0 130 -16.333 188 -49
c57.333 -32 102.333 -77 135 -135c33.333 -57.333 50 -120.666 50 -189.999c0 -52 -10 -101.667 -30 -149s-46.667 -87 -80 -119c-34 -33.333 -74 -59.333 -120 -78c-48 -19.333 -96.667 -29 -146 -29c-50 0 -98.333 9.66699 -145 29c-45.333 18 -85 43.333 -119 76
c-32.667 32.667 -59 72.334 -79 119.001c-19.333 46 -29 95.333 -29 148zM164.999 364.999c-1.33301 -72.667 23.167 -135.668 73.5 -189.001s110.5 -79.333 180.5 -78c70 0 130.333 26 181 78c48.667 52 73 115 73 189c0 48.667 -11 93.667 -33 135
c-22.667 40.667 -53.667 73 -93 97s-82 36 -128 36c-70 1.33301 -130.167 -24.667 -180.5 -78s-74.833 -116.666 -73.5 -189.999z" />
    <glyph glyph-name="Otilde" unicode="&#xd5;" horiz-adv-x="838" 
d="M587 942v-10c0 -82.667 -32 -124 -96 -124c-17.333 -0.666992 -41 6.83301 -71 22.5s-50 23.5 -60 23.5c-20 0 -30.333 -15 -31 -45h-77v11c0 82.667 32.667 124 98 124c15.333 0.666992 38.833 -6.83301 70.5 -22.5s52.5 -23.167 62.5 -22.5c20 0 31.333 14.333 34 43
h70zM45 363c0 52.667 9.99902 101.999 29.999 147.999c18.667 46.667 45.334 86.667 80.001 120c32.667 33.333 72.667 59.666 120 78.999c44.667 20 93 30 145 30c67.333 0 130 -16.333 188 -49c57.333 -32 102.333 -77 135 -135c33.333 -57.333 50 -120.666 50 -189.999
c0 -52 -10 -101.667 -30 -149s-46.667 -87 -80 -119c-34 -33.333 -74 -59.333 -120 -78c-48 -19.333 -96.667 -29 -146 -29c-50 0 -98.333 9.66699 -145 29c-45.333 18 -85 43.333 -119 76c-32.667 32.667 -59 72.334 -79 119.001c-19.333 46 -29 95.333 -29 148z
M164.999 364.999c-1.33301 -72.667 23.167 -135.668 73.5 -189.001s110.5 -79.333 180.5 -78c70 0 130.333 26 181 78c48.667 52 73 115 73 189c0 48.667 -11 93.667 -33 135c-22.667 40.667 -53.667 73 -93 97s-82 36 -128 36c-70 1.33301 -130.167 -24.667 -180.5 -78
s-74.833 -116.666 -73.5 -189.999z" />
    <glyph glyph-name="Odieresis" unicode="&#xd6;" horiz-adv-x="838" 
d="M313 790c-19.333 0 -35.667 7 -49 21c-14 14 -21 30.333 -21 49s6.66699 35.334 20 50.001c12.667 13.333 29.334 20 50.001 20c19.333 0 35.666 -6.66699 48.999 -20c13.333 -14.667 20 -31.334 20 -50.001c0 -18 -6.66699 -34.333 -20 -49c-14 -14 -30.333 -21 -49 -21
zM577.999 811c-14 -14 -30.667 -20.999 -50 -20.999c-20 0 -36.333 7 -49 21c-13.333 13.333 -20 29.666 -20 48.999c0 18.667 6.66699 35.334 20 50.001c12.667 13.333 29 20 49 20s36.667 -6.66699 50 -20c13.333 -14.667 20 -31.334 20 -50.001
c0 -18 -6.66699 -34.333 -20 -49zM44.999 363.001c0 52.667 9.99902 101.999 29.999 147.999c18.667 46.667 45.334 86.667 80.001 120c32.667 33.333 72.667 59.666 120 78.999c44.667 20 93 30 145 30c67.333 0 130 -16.333 188 -49c57.333 -32 102.333 -77 135 -135
c33.333 -57.333 50 -120.666 50 -189.999c0 -52 -10 -101.667 -30 -149s-46.667 -87 -80 -119c-34 -33.333 -74 -59.333 -120 -78c-48 -19.333 -96.667 -29 -146 -29c-50 0 -98.333 9.66699 -145 29c-45.333 18 -85 43.333 -119 76c-32.667 32.667 -59 72.334 -79 119.001
c-19.333 46 -29 95.333 -29 148zM164.998 365c-1.33301 -72.667 23.167 -135.668 73.5 -189.001s110.5 -79.333 180.5 -78c70 0 130.333 26 181 78c48.667 52 73 115 73 189c0 48.667 -11 93.667 -33 135c-22.667 40.667 -53.667 73 -93 97s-82 36 -128 36
c-70 1.33301 -130.167 -24.667 -180.5 -78s-74.833 -116.666 -73.5 -189.999z" />
    <glyph glyph-name="multiply" unicode="&#xd7;" horiz-adv-x="629" 
d="M126 59l-71 73l188 188l-188 189l71 73l189 -191l188 191l72 -73l-189 -189l189 -188l-72 -73l-188 190z" />
    <glyph glyph-name="Oslash" unicode="&#xd8;" horiz-adv-x="843" 
d="M800 704l-91 -95.998c58 -68.667 87 -149.334 87 -242.001c0 -52 -10 -101.667 -30 -149s-47 -87 -81 -119c-34 -33.333 -74 -59.333 -120 -78c-46.667 -19.333 -95 -29 -145 -29c-85.333 0 -160.333 24.333 -225 73l-86 -88l-64 59l85 90
c-55.333 66.667 -83 146 -83 238c0 52.667 10 102 30 148c20 46.667 46.667 86.667 80 120s73.333 59.666 120 78.999c46 20 94.667 30 146 30c81.333 0 155.333 -24 222 -72l91 96zM167 365.002c0 -58 15 -109.334 45 -154.001l356 374c-42.667 32 -91.667 48 -147 48
c-70 1.33301 -130.167 -24.667 -180.5 -78s-74.833 -116.666 -73.5 -189.999zM675 365.001c0 60 -15.667 112.667 -47 158l-357 -375c44.667 -33.333 94.667 -50 150 -50c70.667 0 131 26 181 78c48.667 52 73 115 73 189z" />
    <glyph glyph-name="Ugrave" unicode="&#xd9;" horiz-adv-x="736" 
d="M426 796h-96l-135 160h136zM537 278l0.000976562 451h115v-446c0 -86.667 -24 -156.667 -72 -210c-47.333 -54.667 -118.333 -82 -213 -82s-166 27.667 -214 83c-45.333 52.667 -68 120.667 -68 204v451h114v-447c0 -56 15.667 -100.667 47 -134
c32 -32.667 73 -49 123 -49c53.333 0 94.666 16.667 123.999 50s44 76.333 44 129z" />
    <glyph glyph-name="Uacute" unicode="&#xda;" horiz-adv-x="737" 
d="M406 955h136l-135 -160h-96zM653 729l0.000976562 -446c0 -86.667 -24 -156.667 -72 -210c-47.333 -54.667 -118.333 -82 -213 -82s-166 27.667 -214 83c-46 52 -69 120 -69 204v451h115v-447c0 -56 15.667 -100.667 47 -134c32 -32.667 73 -49 123 -49
c53.333 0 94.666 16.667 123.999 50s44 76.333 44 129v451h115z" />
    <glyph glyph-name="Ucircumflex" unicode="&#xdb;" horiz-adv-x="737" 
d="M304 795h-110l129 160h87l133 -160h-106l-68 86zM538 278l0.000976562 451h115v-446c0 -86.667 -24 -156.667 -72 -210c-47.333 -54.667 -118.333 -82 -213 -82s-166 27.667 -214 83c-46 52 -69 120 -69 204v451h115v-447c0 -56 15.667 -100.667 47 -134
c32 -32.667 73 -49 123 -49c53.333 0 94.666 16.667 123.999 50s44 76.333 44 129z" />
    <glyph glyph-name="Udieresis" unicode="&#xdc;" horiz-adv-x="736" 
d="M260 790c-18.667 0 -35 7 -49 21c-13.333 14.667 -20 31 -20 49c0 18.667 6.66699 35.334 20 50.001c12.667 13.333 29 20 49 20s36.667 -6.66699 50 -20c13.333 -14.667 20 -31.334 20 -50.001c0 -18 -6.66699 -34.333 -20 -49c-14 -14 -30.667 -21 -50 -21zM525 811
c-12.667 -14 -29 -21 -49 -21s-36.333 7 -49 21c-13.333 13.333 -20 29.666 -20 48.999c0 18.667 6.66699 35.334 20 50.001c12.667 13.333 29 20 49 20s36.333 -6.66699 49 -20c14 -14 21 -30.667 21 -50c0 -18.667 -7 -35 -21 -49zM652 729l0.000976562 -446
c0 -86.667 -24 -156.667 -72 -210c-47.333 -54.667 -118.333 -82 -213 -82s-166 27.667 -214 83c-45.333 52.667 -68 120.667 -68 204v451h114v-447c0 -56 15.667 -100.667 47 -134c32 -32.667 73 -49 123 -49c53.333 0 94.666 16.667 123.999 50s44 76.333 44 129v451h115z
" />
    <glyph glyph-name="Yacute" unicode="&#xdd;" horiz-adv-x="700" 
d="M389 955h135l-135 -160h-96zM292 0v291l-274 438h133l200 -327l201 327h131l-275 -435v-294h-116z" />
    <glyph glyph-name="Thorn" unicode="&#xde;" horiz-adv-x="635" 
d="M207 600h142.999c104.667 -0.666992 177.334 -33.667 218.001 -99c24.667 -35.333 37 -78.333 37 -129c0 -64.667 -22.333 -118.667 -67 -162c-48 -46.667 -115 -70 -201 -70h-130v-140h-114v730h114v-130zM206.999 245h133c54 0 93 13.667 117 41c21.333 24 32 52 32 84
c0 34 -11.333 63.167 -34 87.5s-61 36.5 -115 36.5h-133v-249z" />
    <glyph glyph-name="germandbls" unicode="&#xdf;" horiz-adv-x="611" 
d="M580 147c0 -38 -12.998 -72.665 -38.998 -103.998c-29.333 -34.667 -74.666 -52 -135.999 -52c-50 0 -91.333 13.333 -124 40c-32.667 27.333 -49.334 62 -50.001 104l96 19c0 -22.667 7.66699 -40.667 23 -54c14.667 -12 32.667 -18 54 -18c24 0 41.333 6 52 18
c12 12 18 26 18 42c0 28 -19 49.667 -57 65l-36 15c-70.667 28.667 -106 71.667 -106 129c0 52.667 23.333 94 70 124l23 15c21.333 14 36.5 26.833 45.5 38.5s13.5 25.5 13.5 41.5c0 26.667 -10.333 48.667 -31 66c-20.667 16 -48.334 24 -83.001 24c-40 0 -71 -14 -93 -42
c-23.333 -28 -35 -66.333 -35 -115v-503h-111v510c0 82.667 23.333 145.667 70 189c44.667 40.667 101 61 169 61c59.333 0 111.5 -15.833 156.5 -47.5s67.5 -77.834 67.5 -138.501c0 -41.333 -11 -75 -33 -101c-18 -22 -39 -40 -63 -54l-21 -13
c-22 -13.333 -33 -28.333 -33 -45c0 -10 3.33301 -18.333 10 -25s18.667 -13.334 36 -20.001l38 -16c31.333 -12.667 57.666 -32.667 78.999 -60c20 -26 30 -57 30 -93z" />
    <glyph glyph-name="agrave" unicode="&#xe0;" horiz-adv-x="535" 
d="M318 582h-96l-135 160h136zM211 -9c-48.667 0 -88.667 14 -120 42c-31.333 27.333 -47 62.333 -47 105v5c0.666992 63.333 32.667 107.333 96 132c34 13.333 70.667 20 110 20h62c30.667 0 46 14 46 42c0 21.333 -8.33301 39.333 -25 54c-18 14.667 -42.333 22 -73 22
c-29.333 0 -53.666 -7.5 -72.999 -22.5s-31 -35.167 -35 -60.5l-101 23c3.33301 23.333 14.666 48.333 33.999 75c20.667 26.667 46.667 46.667 78 60c27.333 12.667 61 19 101 19c93.333 0 155.333 -34 186 -102c11.333 -24.667 17 -54 17 -88v-237c0 -33.333 1 -60 3 -80
h-108c-3.33301 15.333 -5 38 -5 68c-16.667 -27.333 -38 -47 -64 -59c-26.667 -12 -54 -18 -82 -18zM357 217h-107c-23.333 0 -45 -6 -65 -18c-20 -12.667 -30 -29.667 -30 -51c0 -20.667 7.33301 -37.167 22 -49.5s33.667 -18.5 57 -18.5c38 0 68 11 90 33s33 51.333 33 88
v16z" />
    <glyph glyph-name="aacute" unicode="&#xe1;" horiz-adv-x="535" 
d="M304 742h136l-135 -160h-96zM211 -9c-48.667 0 -88.667 14 -120 42c-31.333 27.333 -47 62.333 -47 105v5c0.666992 63.333 32.667 107.333 96 132c34 13.333 70.667 20 110 20h62c30.667 0 46 14 46 42c0 21.333 -8.33301 39.333 -25 54c-18 14.667 -42.333 22 -73 22
c-29.333 0 -53.666 -7.5 -72.999 -22.5s-31 -35.167 -35 -60.5l-101 23c3.33301 23.333 14.666 48.333 33.999 75c20.667 26.667 46.667 46.667 78 60c27.333 12.667 61 19 101 19c93.333 0 155.333 -34 186 -102c11.333 -24.667 17 -54 17 -88v-237c0 -33.333 1 -60 3 -80
h-108c-3.33301 15.333 -5 38 -5 68c-16.667 -27.333 -38 -47 -64 -59c-26.667 -12 -54 -18 -82 -18zM357 217h-107c-23.333 0 -45 -6 -65 -18c-20 -12.667 -30 -29.667 -30 -51c0 -20.667 7.33301 -37.167 22 -49.5s33.667 -18.5 57 -18.5c38 0 68 11 90 33s33 51.333 33 88
v16z" />
    <glyph glyph-name="acircumflex" unicode="&#xe2;" horiz-adv-x="535" 
d="M197 581h-110l129 161h87l133 -161h-106l-68 86zM211 -9c-48.667 0 -88.667 14 -120 42c-31.333 27.333 -47 62.333 -47 105v5c0.666992 63.333 32.667 107.333 96 132c34 13.333 70.667 20 110 20h62c30.667 0 46 14 46 42c0 21.333 -8.33301 39.333 -25 54
c-18 14.667 -42.333 22 -73 22c-29.333 0 -53.666 -7.5 -72.999 -22.5s-31 -35.167 -35 -60.5l-101 23c3.33301 23.333 14.666 48.333 33.999 75c20.667 26.667 46.667 46.667 78 60c27.333 12.667 61 19 101 19c93.333 0 155.333 -34 186 -102
c11.333 -24.667 17 -54 17 -88v-237c0 -33.333 1 -60 3 -80h-108c-3.33301 15.333 -5 38 -5 68c-16.667 -27.333 -38 -47 -64 -59c-26.667 -12 -54 -18 -82 -18zM357 217h-107c-23.333 0 -45 -6 -65 -18c-20 -12.667 -30 -29.667 -30 -51
c0 -20.667 7.33301 -37.167 22 -49.5s33.667 -18.5 57 -18.5c38 0 68 11 90 33s33 51.333 33 88v16z" />
    <glyph glyph-name="atilde" unicode="&#xe3;" horiz-adv-x="535" 
d="M429 724l-0.000976562 -10.002c0 -82.667 -32 -124 -96 -124c-17.333 -0.666992 -41.166 6.83301 -71.499 22.5s-50.5 23.167 -60.5 22.5c-18.667 0 -28.667 -14.667 -30 -44h-77v10c0 82.667 32.667 124 98 124c15.333 0.666992 38.833 -6.66602 70.5 -21.999
s52.5 -22.666 62.5 -21.999c18.667 0 30 14.333 34 43h70zM210.999 -9.00195c-48.667 0 -88.667 14 -120 42c-31.333 27.333 -47 62.333 -47 105v5c0.666992 63.333 32.667 107.333 96 132c34 13.333 70.667 20 110 20h62c30.667 0 46 14 46 42
c0 21.333 -8.33301 39.333 -25 54c-18 14.667 -42.333 22 -73 22c-29.333 0 -53.666 -7.5 -72.999 -22.5s-31 -35.167 -35 -60.5l-101 23c3.33301 23.333 14.666 48.333 33.999 75c20.667 26.667 46.667 46.667 78 60c27.333 12.667 61 19 101 19
c93.333 0 155.333 -34 186 -102c11.333 -24.667 17 -54 17 -88v-237c0 -33.333 1 -60 3 -80h-108c-3.33301 15.333 -5 38 -5 68c-16.667 -27.333 -38 -47 -64 -59c-26.667 -12 -54 -18 -82 -18zM356.999 216.998h-107c-23.333 0 -45 -6 -65 -18
c-20 -12.667 -30 -29.667 -30 -51c0 -20.667 7.33301 -37.167 22 -49.5s33.667 -18.5 57 -18.5c38 0 68 11 90 33s33 51.333 33 88v16z" />
    <glyph glyph-name="adieresis" unicode="&#xe4;" horiz-adv-x="535" 
d="M160 578c-19.333 0 -35.668 6.66699 -49.001 20c-14 14 -21 30.667 -21 50c0 18 6.66699 34.333 20 49c14.667 13.333 31.334 20 50.001 20c18 0 34.333 -6.66699 49 -20c14 -14 21 -30.333 21 -49c0 -19.333 -7 -36 -21 -50c-14.667 -13.333 -31 -20 -49 -20z
M365.998 578c-19.333 0 -35.668 6.66602 -49.001 19.999c-13.333 14.667 -20 31.334 -20 50.001c0 18 6.66699 34.333 20 49c13.333 13.333 29.666 20 48.999 20c18.667 0 35.334 -6.66699 50.001 -20c13.333 -14.667 20 -31 20 -49c0 -19.333 -7 -36 -21 -50
c-13.333 -13.333 -29.666 -20 -48.999 -20zM210.996 -9.00098c-48.667 0 -88.667 14 -120 42c-31.333 27.333 -47 62.333 -47 105v5c0.666992 63.333 32.667 107.333 96 132c34 13.333 70.667 20 110 20h62c30.667 0 46 14 46 42c0 21.333 -8.33301 39.333 -25 54
c-18 14.667 -42.333 22 -73 22c-29.333 0 -53.666 -7.5 -72.999 -22.5s-31 -35.167 -35 -60.5l-101 23c3.33301 23.333 14.666 48.333 33.999 75c20.667 26.667 46.667 46.667 78 60c27.333 12.667 61 19 101 19c93.333 0 155.333 -34 186 -102
c11.333 -24.667 17 -54 17 -88v-237c0 -33.333 1 -60 3 -80h-108c-3.33301 15.333 -5 38 -5 68c-16.667 -27.333 -38 -47 -64 -59c-26.667 -12 -54 -18 -82 -18zM356.996 200.999v16h-107c-23.333 0 -45 -6 -65 -18c-20 -12.667 -30 -29.667 -30 -51
c0 -20.667 7.33301 -37.167 22 -49.5s33.667 -18.5 57 -18.5c38 0 68 11 90 33s33 51.333 33 88z" />
    <glyph glyph-name="aring" unicode="&#xe5;" horiz-adv-x="535" 
d="M467 317l-0.000976562 -237.001c0 -26.667 1.33301 -53.334 4 -80.001h-109c-2.66699 12.667 -4 35.334 -4 68.001c-16.667 -27.333 -38.334 -47 -65.001 -59s-53.667 -18 -81 -18c-48.667 0 -89 14 -121 42c-31.333 27.333 -47 62.333 -47 105v5
c0.666992 63.333 33 107.333 97 132c32.667 13.333 69.334 20 110.001 20h61c31.333 0 47 14 47 42c0 20.667 -8.66699 38.667 -26 54c-18 14.667 -42 22 -72 22c-29.333 0 -53.666 -7.5 -72.999 -22.5s-31.333 -35.167 -36 -60.5l-100 23c3.33301 32 20 63 50 93
c16 16 34 29 54 39c-18.667 24 -28 50.667 -28 80c0 35.333 13.333 65.333 40 90c27.333 25.333 59 38 95 38c38 0 70.333 -12.333 97 -37c26 -25.333 39 -55.666 39 -90.999c0 -30 -9.33301 -56.333 -28 -79c36.667 -17.333 63 -44.333 79 -81
c11.333 -22.667 17 -52 17 -88zM263.999 620.999c-16.667 0 -30.666 -5.49902 -41.999 -16.499s-17 -24.167 -17 -39.5c0 -16 5.66699 -29.333 17 -40c10.667 -11.333 24.667 -17 42 -17s31.666 5.66699 42.999 17s17 24.666 17 39.999s-6 28.333 -18 39
c-12.667 11.333 -26.667 17 -42 17zM358 217h-107.999c-23.333 0 -45 -6 -65 -18c-20 -12.667 -30 -29.667 -30 -51c0 -20.667 7.33301 -37.167 22 -49.5s33.667 -18.5 57 -18.5c37.333 0 67.666 11 90.999 33c22 22 33 51.333 33 88v16z" />
    <glyph glyph-name="ae" unicode="&#xe6;" horiz-adv-x="885" 
d="M846 250c0 -14.667 -0.331055 -25.9961 -0.998047 -33.9961h-380c1.33301 -36.667 16.666 -67.334 45.999 -92.001c30.667 -25.333 64.667 -38 102 -38c68 0 111.667 27.667 131 83l95 -28c-14 -46.667 -42 -83.334 -84 -110.001c-44 -26.667 -91 -40 -141 -40
c-82 0 -148.667 30 -200 90c-50.667 -60 -116.667 -90 -198 -90h-2c-48 0 -88.667 14 -122 42c-32 27.333 -48 62.333 -48 105v5c0.666992 63.333 32.667 107.333 96 132c34 13.333 70.667 20 110 20h71c27.333 0 41 14 41 42c0 21.333 -8.83301 39.166 -26.5 53.499
s-41.5 21.833 -71.5 22.5c-30.667 0 -56.334 -7.66699 -77.001 -23c-20.667 -14.667 -33 -34.334 -37 -59.001l-99 22c3.33301 23.333 15 48 35 74c21.333 26 48.333 46.667 81 62c28 12 61 18 99 18c78 0 132.667 -23.667 164 -71c45.333 47.333 104 71 176 71
c75.333 0 134.333 -23.667 177 -71c42 -46.667 63 -108.667 63 -186zM470.002 300.004h265c-2 34.667 -15 62 -39 82s-54.333 30 -91 30c-35.333 0 -65.333 -10.333 -90 -31c-24.667 -20 -39.667 -47 -45 -81zM360.002 217.004h-110c-23.333 0 -45 -6 -65 -18
c-20 -12.667 -30 -29.667 -30 -51c0 -20.667 7.33301 -37.167 22 -49.5s33.667 -18.5 57 -18.5c38 0 68.667 10.667 92 32c22.667 22 34 51.667 34 89v16z" />
    <glyph glyph-name="ccedilla" unicode="&#xe7;" horiz-adv-x="567" 
d="M268 -7c-65.333 8 -119.662 36.002 -162.995 84.002c-42.667 47.333 -64 105 -64 173c0 46.667 11.333 89.667 34 129c22 39.333 53.333 70.666 94 93.999c39.333 22.667 83.333 34 132 34c59.333 0 109.666 -15.667 150.999 -47
c41.333 -30.667 67.666 -68.334 78.999 -113.001l-100 -33c-6 21.333 -18.667 41.666 -38 60.999c-22.667 21.333 -53.334 32 -92.001 32c-40.667 0 -75.334 -14.333 -104.001 -43c-28 -29.333 -42 -67 -42 -113c0 -45.333 13.667 -83.333 41 -114
c28 -30 63.333 -45 106 -45c63.333 0 107 31.667 131 95l101 -33c-16 -52.667 -48.667 -94.334 -98 -125.001c-27.333 -17.333 -58.333 -28.666 -93 -33.999c14.667 -23.333 22 -48.333 22 -75c0 -31.333 -8.33301 -58.333 -25 -81c-17.333 -23.333 -38.333 -40 -63 -50
c-25.333 -10.667 -53.333 -16 -84 -16c-28.667 0 -52.334 3.66699 -71.001 11v74c16.667 -4.66699 37 -7 61 -7c30 0 53.833 7.33301 71.5 22s26.5 36 26.5 64c0 16.667 -4.33301 35.334 -13 56.001z" />
    <glyph glyph-name="egrave" unicode="&#xe8;" horiz-adv-x="573" 
d="M345 582h-96l-135 160h135zM532 216l-378.001 -0.00195312c0.666992 -36 16 -66.833 46 -92.5s63.333 -38.167 100 -37.5c69.333 0 113.333 28 132 84l93 -29c-8.66699 -30 -24.5 -56.667 -47.5 -80s-49.833 -41 -80.5 -53c-32 -11.333 -64 -17 -96 -17
c-72 -1.33301 -133.667 23.334 -185 74.001s-76.333 112 -75 184c0 46.667 10.667 89.667 32 129c22 40.667 52 72 90 94c38.667 23.333 81.334 35 128.001 35c76 0 135.333 -23.667 178 -71c43.333 -47.333 65 -109.333 65 -186c0 -9.33301 -0.666992 -20.666 -2 -33.999z
M291.999 411.998c-35.333 0 -64.666 -10.332 -87.999 -30.999c-24.667 -20 -39.334 -47 -44.001 -81h261c-2 33.333 -15 60.666 -39 81.999c-25.333 20 -55.333 30 -90 30z" />
    <glyph glyph-name="eacute" unicode="&#xe9;" horiz-adv-x="573" 
d="M336 742h136l-135 -160h-96zM532 216l-378.001 -0.00195312c0.666992 -36 16 -66.833 46 -92.5s63.333 -38.167 100 -37.5c69.333 0 113.333 28 132 84l93 -29c-8.66699 -30 -24.5 -56.667 -47.5 -80s-49.833 -41 -80.5 -53c-32 -11.333 -64 -17 -96 -17
c-72 -1.33301 -133.667 23.334 -185 74.001s-76.333 112 -75 184c0 46.667 10.667 89.667 32 129c22 40.667 52 72 90 94c38.667 23.333 81.334 35 128.001 35c76 0 135.333 -23.667 178 -71c43.333 -47.333 65 -109.333 65 -186c0 -9.33301 -0.666992 -20.666 -2 -33.999z
M291.999 411.998c-35.333 0 -64.666 -10.332 -87.999 -30.999c-24.667 -20 -39.334 -47 -44.001 -81h261c-2 33.333 -15 60.666 -39 81.999c-25.333 20 -55.333 30 -90 30z" />
    <glyph glyph-name="ecircumflex" unicode="&#xea;" horiz-adv-x="573" 
d="M224 581h-110l128 161h87l134 -161h-106l-69 86zM532 216l-378.001 -0.00195312c0.666992 -36 16 -66.833 46 -92.5s63.333 -38.167 100 -37.5c69.333 0 113.333 28 132 84l93 -29c-8.66699 -30 -24.5 -56.667 -47.5 -80s-49.833 -41 -80.5 -53
c-32 -11.333 -64 -17 -96 -17c-72 -1.33301 -133.667 23.334 -185 74.001s-76.333 112 -75 184c0 46.667 10.667 89.667 32 129c22 40.667 52 72 90 94c38.667 23.333 81.334 35 128.001 35c76 0 135.333 -23.667 178 -71c43.333 -47.333 65 -109.333 65 -186
c0 -9.33301 -0.666992 -20.666 -2 -33.999zM291.999 411.998c-35.333 0 -64.666 -10.332 -87.999 -30.999c-24.667 -20 -39.334 -47 -44.001 -81h261c-2 33.333 -15 60.666 -39 81.999c-25.333 20 -55.333 30 -90 30z" />
    <glyph glyph-name="edieresis" unicode="&#xeb;" horiz-adv-x="573" 
d="M186 578c-19.333 0 -35.666 6.66602 -48.999 19.999c-13.333 14.667 -20 31.334 -20 50.001c0 18 6.66699 34.333 20 49c13.333 13.333 29.666 20 48.999 20s35.666 -6.66699 48.999 -20c14 -14 21 -30.333 21 -49c0 -19.333 -7 -36 -21 -50
c-13.333 -13.333 -29.666 -20 -48.999 -20zM393 577.999c-19.333 0 -35.666 6.66797 -48.999 20.001c-14 14 -21 30.667 -21 50c0 18 6.66699 34.333 20 49c13.333 13.333 30 20 50 20c19.333 0 35.666 -6.66699 48.999 -20c13.333 -14.667 20 -31 20 -49
c0 -18.667 -6.66699 -35.334 -20 -50.001c-14.667 -13.333 -31 -20 -49 -20zM534 250c0 -9.33301 -0.667969 -20.668 -2.00098 -34.001h-378c0.666992 -36 16 -66.833 46 -92.5s63.333 -38.167 100 -37.5c69.333 0 113.333 28 132 84l93 -29
c-8.66699 -30 -24.5 -56.667 -47.5 -80s-49.833 -41 -80.5 -53c-32 -11.333 -64 -17 -96 -17c-72 -1.33301 -133.667 23.334 -185 74.001s-76.333 112 -75 184c0 46.667 10.667 89.667 32 129c22 40.667 52 72 90 94c38.667 23.333 81.334 35 128.001 35
c76 0 135.333 -23.667 178 -71c43.333 -47.333 65 -109.333 65 -186zM159.999 299.998l261 0.000976562c-2 33.333 -15 60.666 -39 81.999c-25.333 20 -55.333 30 -90 30c-35.333 0 -64.666 -10.333 -87.999 -31c-24.667 -20 -39.334 -47 -44.001 -81z" />
    <glyph glyph-name="igrave" unicode="&#xec;" horiz-adv-x="260" 
d="M177 578h-96l-135 160h136zM74 0v497h111v-497h-111z" />
    <glyph glyph-name="iacute" unicode="&#xed;" horiz-adv-x="260" 
d="M178 742h136l-135 -160h-97zM185 497v-497h-111v497h111z" />
    <glyph glyph-name="icircumflex" unicode="&#xee;" horiz-adv-x="260" 
d="M65 581h-110l129 161h86l135 -161h-106l-69 86zM74 0v497h111v-497h-111z" />
    <glyph glyph-name="idieresis" unicode="&#xef;" horiz-adv-x="259" 
d="M24 578c-19.333 0 -35.666 6.66797 -48.999 20.001s-20 30 -20 50c0 19.333 6.66699 35.666 20 48.999s29.666 20 48.999 20s35.666 -6.66699 48.999 -20c14 -14 21 -30.333 21 -49c0 -19.333 -7 -36 -21 -50c-13.333 -13.333 -29.666 -20 -48.999 -20zM230 578.001
c-18 0 -34.332 6.66699 -48.999 20c-13.333 14.667 -20 31.334 -20 50.001c0 18 6.66699 34.333 20 49c13.333 13.333 29.666 20 48.999 20c18.667 0 35.334 -6.66699 50.001 -20c13.333 -14.667 20 -31 20 -49c0 -18.667 -6.66699 -35.334 -20 -50.001
c-14.667 -13.333 -31.334 -20 -50.001 -20zM185.001 497.001v-497h-111v497h111z" />
    <glyph glyph-name="eth" unicode="&#xf0;" horiz-adv-x="610" 
d="M513 656l-84 -37.0029c88 -90 132 -202.333 132 -337c0 -113.333 -41 -197 -123 -251c-42 -26.667 -89.333 -40 -142 -40c-46.667 0 -89.334 11.333 -128.001 34c-39.333 22 -70.333 52.333 -93 91c-22.667 40 -34 83 -34 129
c-0.666992 64.667 22.833 120.334 70.5 167.001s104.167 69.334 169.5 68.001c28 0 55.333 -5.66699 82 -17c28 -11.333 51.667 -26.333 71 -45h1c-23.333 66.667 -56.666 119.334 -99.999 158.001l-143 -64l-29 68l104 45c-34 19.333 -77.333 36.666 -130 51.999l38 83
c72 -17.333 136.333 -46.666 193 -87.999l115 53zM301 89.9971c43.333 0 79 14.998 107 44.998c28 28.667 42 64.334 42 107.001c0 41.333 -14.667 76 -44 104c-28 28 -64.333 42 -109 42c-44 0 -78.667 -13.667 -104 -41c-26.667 -27.333 -40 -62.666 -40 -105.999
c0 -40.667 14 -76 42 -106s63.333 -45 106 -45z" />
    <glyph glyph-name="ntilde" unicode="&#xf1;" 
d="M465 724l-0.000976562 -10.002c0 -82.667 -32 -124 -96 -124c-17.333 -0.666992 -41.166 6.83301 -71.499 22.5s-50.5 23.167 -60.5 22.5c-18.667 0 -28.667 -14.667 -30 -44h-77v10c0 82.667 32.667 124 98 124c15.333 0.666992 38.833 -6.66602 70.5 -21.999
s52.167 -22.666 61.5 -21.999c19.333 0 31 14.333 35 43h70zM409.999 -0.00195312l-0.000976562 278c0 38.667 -9.33301 69 -28 91s-46 33 -82 33c-35.333 0 -63.333 -11.333 -84 -34s-31 -53 -31 -91v-277h-111v497h108v-67c14.667 19.333 32.334 35.333 53.001 48
c20.667 12 38.334 20 53.001 24c16.667 3.33301 32 5 46 5c61.333 0 107.666 -18.667 138.999 -56c31.333 -36 47 -84.333 47 -145v-306h-110z" />
    <glyph glyph-name="ograve" unicode="&#xf2;" horiz-adv-x="605" 
d="M355 582h-95l-135 160h135zM40 249c0 48 12 92.001 36 132.001c24.667 40.667 56.667 71.667 96 93c41.333 22 85.333 33 132 33c47.333 0 91 -11 131 -33c39.333 -22 71 -52.667 95 -92c23.333 -40.667 35 -84.334 35 -131.001c0 -48 -11.667 -91.667 -35 -131
c-23.333 -40 -55 -71.667 -95 -95c-41.333 -22.667 -85.333 -34 -132 -34c-46 0 -89.667 11.333 -131 34c-38.667 20.667 -70.667 51.667 -96 93c-24 40 -36 83.667 -36 131zM154 251.001c0 -43.333 14.001 -80.667 42.001 -112s64 -47 108 -47c43.333 0 79 15.333 107 46
c27.333 30.667 41 67.667 41 111c0 44.667 -14 82 -42 112c-26.667 30.667 -62.334 46 -107.001 46c-44 0 -80 -15 -108 -45c-27.333 -29.333 -41 -66.333 -41 -111z" />
    <glyph glyph-name="oacute" unicode="&#xf3;" horiz-adv-x="605" 
d="M345 742h136l-135 -160h-96zM40 249c0 48 11.999 92.001 35.999 132.001c24.667 40.667 56.667 71.667 96 93c41.333 22 85.333 33 132 33c47.333 0 91 -11 131 -33c38.667 -21.333 70.334 -52 95.001 -92c23.333 -40.667 35 -84.334 35 -131.001
c1.33301 -72 -24 -133.667 -76 -185s-114 -76.333 -186 -75c-46 0 -89.667 11.333 -131 34c-38.667 20.667 -70.667 51.667 -96 93c-24 40 -36 83.667 -36 131zM153.999 251.001c0 -43.333 14 -80.667 42 -112s64 -47 108 -47c44.667 0 80.334 15.333 107.001 46
c27.333 30.667 41 67.667 41 111c0 44.667 -14 82 -42 112c-26.667 30.667 -62.334 46 -107.001 46c-44 0 -80 -15 -108 -45c-27.333 -30.667 -41 -67.667 -41 -111z" />
    <glyph glyph-name="ocircumflex" unicode="&#xf4;" horiz-adv-x="605" 
d="M238 581h-110l129 161h87l133 -161h-106l-68 86zM40 249c0 48 11.999 92.001 35.999 132.001c24.667 40.667 56.667 71.667 96 93c41.333 22 85.333 33 132 33c47.333 0 91 -11 131 -33c38.667 -21.333 70.334 -52 95.001 -92c23.333 -40.667 35 -84.334 35 -131.001
c1.33301 -72 -24 -133.667 -76 -185s-114 -76.333 -186 -75c-46 0 -89.667 11.333 -131 34c-38.667 20.667 -70.667 51.667 -96 93c-24 40 -36 83.667 -36 131zM153.999 251.001c0 -43.333 14 -80.667 42 -112s64 -47 108 -47c44.667 0 80.334 15.333 107.001 46
c27.333 30.667 41 67.667 41 111c0 44.667 -14 82 -42 112c-26.667 30.667 -62.334 46 -107.001 46c-44 0 -80 -15 -108 -45c-27.333 -30.667 -41 -67.667 -41 -111z" />
    <glyph glyph-name="otilde" unicode="&#xf5;" horiz-adv-x="605" 
d="M470 724v-10.002c0 -82.667 -32 -124 -96 -124c-17.333 -0.666992 -41 6.83301 -71 22.5s-50 23.167 -60 22.5c-18.667 0 -29 -14.667 -31 -44h-77v10c0 82.667 32.667 124 98 124c15.333 0.666992 39 -6.66602 71 -21.999s52.667 -22.666 62 -21.999
c20 0 31.333 14.333 34 43h70zM40 248.998c0 48 11.999 92.001 35.999 132.001c24.667 40.667 56.667 71.667 96 93c41.333 22 85.333 33 132 33c47.333 0 91 -11 131 -33c38.667 -21.333 70.334 -52 95.001 -92c23.333 -40.667 35 -84.334 35 -131.001
c1.33301 -72 -24 -133.667 -76 -185s-114 -76.333 -186 -75c-46 0 -89.667 11.333 -131 34c-38.667 20.667 -70.667 51.667 -96 93c-24 40 -36 83.667 -36 131zM153.999 250.999c0 -43.333 14.001 -80.667 42.001 -112s64 -47 108 -47c43.333 0 79 15.333 107 46
c27.333 30.667 41 67.667 41 111c0 44.667 -14 82 -42 112c-26.667 30.667 -62.334 46 -107.001 46c-44 0 -80 -15 -108 -45c-27.333 -29.333 -41 -66.333 -41 -111z" />
    <glyph glyph-name="odieresis" unicode="&#xf6;" horiz-adv-x="605" 
d="M199 578c-19.333 0 -35.666 6.66797 -48.999 20.001s-20 30 -20 50c0 19.333 6.66699 35.666 20 48.999s29.666 20 48.999 20s35.666 -6.66699 48.999 -20c14 -14 21 -30.333 21 -49c0 -19.333 -7 -36 -21 -50c-13.333 -13.333 -29.666 -20 -48.999 -20zM405 578.001
c-18 0 -34.332 6.66699 -48.999 20c-13.333 14.667 -20 31.334 -20 50.001c0 18 6.66699 34.333 20 49c13.333 13.333 29.666 20 48.999 20c18.667 0 35.334 -6.66699 50.001 -20c13.333 -14.667 20 -31 20 -49c0 -18.667 -6.66699 -35.334 -20 -50.001
c-14.667 -13.333 -31.334 -20 -50.001 -20zM40.001 249.001c0 48 11.999 92.002 35.999 132.002c25.333 41.333 57.333 72.333 96 93c40 22 84 33 132 33c46.667 0 90 -11 130 -33s72 -52.667 96 -92c23.333 -40.667 35 -84.334 35 -131.001
c1.33301 -71.333 -24.167 -132.833 -76.5 -184.5s-114.166 -76.834 -185.499 -75.501c-46 0 -89.667 11.333 -131 34c-38.667 20.667 -70.667 51.667 -96 93c-24 40 -36 83.667 -36 131zM154 251.003c0 -43.333 14.001 -80.667 42.001 -112s64 -47 108 -47
c43.333 0 79 15.333 107 46c27.333 30.667 41 67.667 41 111c0 44.667 -14 82 -42 112c-26.667 30.667 -62.334 46 -107.001 46c-44 0 -80 -15 -108 -45c-27.333 -29.333 -41 -66.333 -41 -111z" />
    <glyph glyph-name="divide" unicode="&#xf7;" horiz-adv-x="556" 
d="M228 507c-14 14 -21.002 30.668 -21.002 50.001s7 36 21 50c14.667 13.333 31.334 20 50.001 20s35.334 -6.66699 50.001 -20c13.333 -14.667 20 -31.334 20 -50.001c0 -20 -6.66699 -36.667 -20 -50c-14 -14 -30.667 -21 -50 -21s-36 7 -50 21zM503.998 395.001v-103
h-452v103h452zM227.998 81.001c-14 14 -20.999 30.334 -20.999 49.001c0 19.333 7 36 21 50s30.667 21 50 21s36 -7 50 -21c13.333 -13.333 20 -30 20 -50c0 -18.667 -6.66699 -35.334 -20 -50.001c-14.667 -13.333 -31.334 -20 -50.001 -20c-19.333 0 -36 7 -50 21z" />
    <glyph glyph-name="oslash" unicode="&#xf8;" horiz-adv-x="610" 
d="M568 460l-54.001 -53.9971c35.333 -46.667 53 -99 53 -157c0 -46.667 -11.667 -90.334 -35 -131.001c-24 -40 -55.667 -71 -95 -93c-41.333 -22.667 -85.333 -34 -132 -34c-56 0 -106.667 15.667 -152 47l-55 -55l-56 54l53 55c-34.667 45.333 -52 97.666 -52 156.999
c0 48 11.667 91.667 35 131c22.667 39.333 54.334 70.666 95.001 93.999c40 22 84 33 132 33c56.667 0 107.667 -15.667 153 -47l54 55zM154.999 249.003c0 -28.667 6 -55 18 -79l212 215c-24 14 -50.667 21 -80 21c-44 0 -80 -15 -108 -45c-28 -32 -42 -69.333 -42 -112z
M453.999 249.003c0 28.667 -6.00098 54.667 -18.001 78l-211 -214c23.333 -14 50 -21 80 -21c44.667 0 80.334 15.333 107.001 46c28 30 42 67 42 111z" />
    <glyph glyph-name="ugrave" unicode="&#xf9;" 
d="M348 582h-96l-135 160h136zM180 497l-0.000976562 -278.001c0 -38.667 9.33301 -69 28 -91s45.667 -33 81 -33s63.333 11.333 84 34s31 53 31 91v277h111v-497h-108v67c-15.333 -20.667 -32.666 -36.667 -51.999 -48c-17.333 -11.333 -35.333 -19.333 -54 -24
c-12.667 -3.33301 -28 -5 -46 -5c-39.333 0 -73.333 8.83301 -102 26.5s-50 41.834 -64 72.501c-13.333 28.667 -20 62.667 -20 102v306h111z" />
    <glyph glyph-name="uacute" unicode="&#xfa;" 
d="M331 742h135l-135 -160h-96zM180 497l-0.000976562 -278.001c0 -38.667 9.33301 -69 28 -91s45.667 -33 81 -33s63.333 11.333 84 34s31 53 31 91v277h111v-497h-108v67c-15.333 -20.667 -32.666 -36.667 -51.999 -48c-17.333 -11.333 -35.333 -19.333 -54 -24
c-12.667 -3.33301 -28 -5 -46 -5c-39.333 0 -73.333 8.83301 -102 26.5s-50 41.834 -64 72.501c-13.333 28.667 -20 62.667 -20 102v306h111z" />
    <glyph glyph-name="ucircumflex" unicode="&#xfb;" 
d="M227 581h-110l129 161h87l133 -161h-106l-68 86zM180 497l-0.000976562 -278.001c0 -38.667 9.33301 -69 28 -91s45.667 -33 81 -33s63.333 11.333 84 34s31 53 31 91v277h111v-497h-108v67c-15.333 -20.667 -32.666 -36.667 -51.999 -48
c-17.333 -11.333 -35.333 -19.333 -54 -24c-12.667 -3.33301 -28 -5 -46 -5c-39.333 0 -73.333 8.83301 -102 26.5s-50 41.834 -64 72.501c-13.333 28.667 -20 62.667 -20 102v306h111z" />
    <glyph glyph-name="udieresis" unicode="&#xfc;" 
d="M186 578c-19.333 0 -35.666 6.66602 -48.999 19.999c-13.333 14.667 -20 31.334 -20 50.001c0 18 6.66699 34.333 20 49c13.333 13.333 29.666 20 48.999 20s35.666 -6.66699 48.999 -20c14 -14 21 -30.333 21 -49c0 -19.333 -7 -36 -21 -50
c-13.333 -13.333 -29.666 -20 -48.999 -20zM393 577.999c-19.333 0 -35.666 6.66797 -48.999 20.001c-14 14 -21 30.667 -21 50c0 18 6.66699 34.333 20 49c13.333 13.333 30 20 50 20c19.333 0 35.666 -6.66699 48.999 -20c13.333 -14.667 20 -31 20 -49
c0 -18.667 -6.66699 -35.334 -20 -50.001c-14.667 -13.333 -31 -20 -49 -20zM180 497l-0.000976562 -278.001c0 -38.667 9.33301 -69 28 -91s45.667 -33 81 -33s63.333 11.333 84 34s31 53 31 91v277h111v-497h-108v67c-15.333 -20.667 -32.666 -36.667 -51.999 -48
c-17.333 -11.333 -35.333 -19.333 -54 -24c-12.667 -3.33301 -28 -5 -46 -5c-39.333 0 -73.333 8.83301 -102 26.5s-50 41.834 -64 72.501c-13.333 28.667 -20 62.667 -20 102v306h111z" />
    <glyph glyph-name="yacute" unicode="&#xfd;" horiz-adv-x="570" 
d="M331 742h135l-135 -160h-96zM237 56l-222 441h127l154 -326l144 326h120l-341 -742h-119z" />
    <glyph glyph-name="thorn" unicode="&#xfe;" horiz-adv-x="617" 
d="M575 250c0 -72 -21.166 -133.167 -63.499 -183.5s-101.5 -75.5 -177.5 -75.5c-66.667 0 -116.334 23.333 -149.001 70v-265h-111v962h111v-327c12.667 19.333 28.334 34 47.001 44c18.667 12 37 20 55 24s35 6 51 6c74 0 132.167 -25.5 174.5 -76.5
s63.166 -110.5 62.499 -178.5zM463.001 249c0 46 -13.667 83.333 -41 112c-26.667 28.667 -60.667 43 -102 43c-40.667 0 -74.667 -14.667 -102 -44c-26 -30 -39 -67 -39 -111c0 -43.333 13.667 -80 41 -110c26.667 -30 60 -45 100 -45c39.333 0 73 15 101 45
s42 66.667 42 110z" />
    <glyph glyph-name="ydieresis" unicode="&#xff;" horiz-adv-x="570" 
d="M186 578c-19.333 0 -35.666 6.66602 -48.999 19.999c-13.333 14.667 -20 31.334 -20 50.001c0 18 6.66699 34.333 20 49c13.333 13.333 29.666 20 48.999 20s35.666 -6.66699 48.999 -20c14 -14 21 -30.333 21 -49c0 -19.333 -7 -36 -21 -50
c-13.333 -13.333 -29.666 -20 -48.999 -20zM393 577.999c-19.333 0 -35.666 6.66797 -48.999 20.001c-14 14 -21 30.667 -21 50c0 18 6.66699 34.333 20 49c13.333 13.333 30 20 50 20c19.333 0 35.666 -6.66699 48.999 -20c13.333 -14.667 20 -31 20 -49
c0 -18.667 -6.66699 -35.334 -20 -50.001c-14.667 -13.333 -31 -20 -49 -20zM236 56l-221 441h126l155 -326l143 326h120l-341 -742h-118z" />
    <glyph glyph-name="Amacron" unicode="&#x100;" horiz-adv-x="729" 
d="M525 828h-322v88h322v-88zM185 171l-68 -171h-117l297 729h135l295 -729h-119l-67 171h-356zM225 273h277l-139 346z" />
    <glyph glyph-name="amacron" unicode="&#x101;" horiz-adv-x="535" 
d="M419 591h-323v89h323v-89zM211 -9c-48.667 0 -88.667 14 -120 42c-31.333 27.333 -47 62.333 -47 105v5c0.666992 63.333 32.667 107.333 96 132c34 13.333 70.667 20 110 20h62c30.667 0 46 14 46 42c0 21.333 -8.33301 39.333 -25 54c-18 14.667 -42.333 22 -73 22
c-29.333 0 -53.666 -7.5 -72.999 -22.5s-31 -35.167 -35 -60.5l-101 23c3.33301 23.333 14.666 48.333 33.999 75c20.667 26.667 46.667 46.667 78 60c27.333 12.667 61 19 101 19c93.333 0 155.333 -34 186 -102c11.333 -24.667 17 -54 17 -88v-237c0 -33.333 1 -60 3 -80
h-108c-3.33301 15.333 -5 38 -5 68c-16.667 -27.333 -38 -47 -64 -59c-26.667 -12 -54 -18 -82 -18zM357 217h-107c-23.333 0 -45 -6 -65 -18c-20 -12.667 -30 -29.667 -30 -51c0 -20.667 7.33301 -37.167 22 -49.5s33.667 -18.5 57 -18.5c38 0 68 11 90 33s33 51.333 33 88
v16z" />
    <glyph glyph-name="Abreve" unicode="&#x102;" horiz-adv-x="729" 
d="M365 794c-44.667 -1.33301 -83 12.167 -115 40.5s-50.333 67.833 -55 118.5h95c3.33301 -52.667 28.333 -79 75 -79s72 26.333 76 79h93c-4 -50 -21.333 -89 -52 -117s-69.667 -42 -117 -42zM185 171l-68 -171h-117l297 729h135l295 -729h-119l-67 171h-356zM225 273h277
l-139 346z" />
    <glyph glyph-name="abreve" unicode="&#x103;" horiz-adv-x="535" 
d="M259 580c-44.667 -1.33301 -83.167 12.167 -115.5 40.5s-50.833 67.833 -55.5 118.5h95c4 -52.667 29.333 -79 76 -79s72 26.333 76 79h93c-4 -49.333 -21.333 -88.333 -52 -117c-30.667 -28 -69.667 -42 -117 -42zM211 -9c-48.667 0 -88.667 14 -120 42
c-31.333 27.333 -47 62.333 -47 105v5c0.666992 63.333 32.667 107.333 96 132c34 13.333 70.667 20 110 20h62c30.667 0 46 14 46 42c0 21.333 -8.33301 39.333 -25 54c-18 14.667 -42.333 22 -73 22c-29.333 0 -53.666 -7.5 -72.999 -22.5s-31 -35.167 -35 -60.5l-101 23
c3.33301 23.333 14.666 48.333 33.999 75c20.667 26.667 46.667 46.667 78 60c27.333 12.667 61 19 101 19c93.333 0 155.333 -34 186 -102c11.333 -24.667 17 -54 17 -88v-237c0 -33.333 1 -60 3 -80h-108c-3.33301 15.333 -5 38 -5 68c-16.667 -27.333 -38 -47 -64 -59
c-26.667 -12 -54 -18 -82 -18zM357 217h-107c-23.333 0 -45 -6 -65 -18c-20 -12.667 -30 -29.667 -30 -51c0 -20.667 7.33301 -37.167 22 -49.5s33.667 -18.5 57 -18.5c38 0 68 11 90 33s33 51.333 33 88v16z" />
    <glyph glyph-name="Aogonek" unicode="&#x104;" horiz-adv-x="729" 
d="M723 -149l0.000976562 -75.9971c-14.667 -1.33301 -26 -2 -34 -2c-38 0 -70 9 -96 27c-26 17.333 -39 42.333 -39 75c0 38 29 79.667 87 125h-33l-67 171h-356l-68 -171h-117l297 729h135l295 -729c-18.667 -14.667 -30.334 -24.334 -35.001 -29.001
c-8.66699 -6.66699 -18 -17.334 -28 -32.001c-9.33301 -14.667 -14 -27.334 -14 -38.001c0 -33.333 24 -50 72 -50h1zM225.001 273.003h277l-139 346z" />
    <glyph glyph-name="aogonek" unicode="&#x105;" horiz-adv-x="535" 
d="M393 -99c0 -33.333 24.001 -49.998 72.001 -49.998h1v-76c-14.667 -1.33301 -26 -2 -34 -2c-38 0 -70 9 -96 27c-26 17.333 -39 42.333 -39 75c0 38 29 79.667 87 125h-22c-3.33301 15.333 -5 38 -5 68c-16.667 -27.333 -38 -47 -64 -59c-26.667 -12 -54 -18 -82 -18
c-48.667 0 -88.667 14 -120 42c-31.333 27.333 -47 62.333 -47 105v5c0.666992 63.333 32.667 107.333 96 132c34 13.333 70.667 20 110 20h62c30.667 0 46 14 46 42c0 21.333 -8.33301 39.333 -25 54c-18 14.667 -42.333 22 -73 22c-29.333 0 -53.666 -7.5 -72.999 -22.5
s-31 -35.167 -35 -60.5l-101 23c3.33301 23.333 14.666 48.333 33.999 75c20.667 26.667 46.667 46.667 78 60c27.333 12.667 61 19 101 19c93.333 0 155.333 -34 186 -102c11.333 -24.667 17 -54 17 -88v-237c0 -33.333 1 -60 3 -80
c-14.667 -11.333 -26.334 -21 -35.001 -29c-8.66699 -6.66699 -18 -17.334 -28 -32.001c-9.33301 -14.667 -14 -27.334 -14 -38.001zM357.001 217.002h-107c-23.333 0 -45 -6 -65 -18c-20 -12.667 -30 -29.667 -30 -51c0 -20.667 7.33301 -37.167 22 -49.5
s33.667 -18.5 57 -18.5c38 0 68 11 90 33s33 51.333 33 88v16z" />
    <glyph glyph-name="Cacute" unicode="&#x106;" horiz-adv-x="785" 
d="M465 955h135l-135 -160h-96zM411 -9c-55.333 -0.666992 -108.834 11.3301 -160.501 35.9971s-94.834 59 -129.501 103c-50.667 62.667 -76 140 -76 232c0 53.333 10 104 30 152c20 46.667 47 86.667 81 120c34.667 32.667 74.334 58.334 119.001 77.001
c46 19.333 93 29 141 29c76.667 0 143.667 -18.333 201 -55c26.667 -18.667 48.667 -37.667 66 -57c34.667 -39.333 58 -81.666 70 -126.999l-113 -39c-6 26.667 -18 53 -36 79c-12.667 18 -26.667 32.667 -42 44c-37.333 31.333 -86.333 47 -147 47
c-65.333 0 -123 -24 -173 -72c-51.333 -50 -77 -114.667 -77 -194c0 -80.667 25.333 -145.667 76 -195c49.333 -48 107 -72 173 -72c55.333 0 102.333 15 141 45c18 14.667 32.667 29.334 44 44.001c20.667 27.333 35 55.333 43 84l113 -39
c-16.667 -60 -50 -111.333 -100 -154c-43.333 -36.667 -91.666 -62 -144.999 -76c-32 -8 -65 -12 -99 -12z" />
    <glyph glyph-name="cacute" unicode="&#x107;" horiz-adv-x="568" 
d="M340 742h136l-135 -160h-96zM300 -9c-72 -1.33301 -133.497 23.5029 -184.497 74.5029s-76.167 112.5 -75.5 184.5c0 45.333 11.667 88.333 35 129c22 39.333 53.333 70.666 94 93.999c39.333 22.667 83.666 34 132.999 34c59.333 0 109.666 -15.667 150.999 -47
c40.667 -30.667 67 -68.334 79 -113.001l-101 -33c-6 21.333 -18.667 41.666 -38 60.999c-22.667 21.333 -53.334 32 -92.001 32c-40.667 0 -75.334 -14.333 -104.001 -43c-28 -29.333 -42 -67 -42 -113s14 -84 42 -114s63 -45 105 -45c63.333 0 107 31.667 131 95l102 -33
c-12 -40.667 -37 -77 -75 -109c-41.333 -36 -94.666 -54 -159.999 -54z" />
    <glyph glyph-name="Ccircumflex" unicode="&#x108;" horiz-adv-x="785" 
d="M351 795h-110l129 160h87l133 -160h-105l-69 86zM411 -9c-55.333 -0.666992 -108.834 11.3301 -160.501 35.9971s-94.834 59 -129.501 103c-50.667 62.667 -76 140 -76 232c0 53.333 10 104 30 152c20 46.667 47 86.667 81 120
c34.667 32.667 74.334 58.334 119.001 77.001c46 19.333 93 29 141 29c76.667 0 143.667 -18.333 201 -55c26.667 -18.667 48.667 -37.667 66 -57c34.667 -39.333 58 -81.666 70 -126.999l-113 -39c-6 26.667 -18 53 -36 79c-12.667 18 -26.667 32.667 -42 44
c-37.333 31.333 -86.333 47 -147 47c-65.333 0 -123 -24 -173 -72c-51.333 -50 -77 -114.667 -77 -194c0 -80.667 25.333 -145.667 76 -195c49.333 -48 107 -72 173 -72c55.333 0 102.333 15 141 45c18 14.667 32.667 29.334 44 44.001c20.667 27.333 35 55.333 43 84
l113 -39c-16.667 -60 -50 -111.333 -100 -154c-43.333 -36.667 -91.666 -62 -144.999 -76c-32 -8 -65 -12 -99 -12z" />
    <glyph glyph-name="ccircumflex" unicode="&#x109;" horiz-adv-x="568" 
d="M239 581h-110l128 161h87l134 -161h-106l-69 86zM300 -9c-72 -1.33301 -133.497 23.5029 -184.497 74.5029s-76.167 112.5 -75.5 184.5c0 45.333 11.667 88.333 35 129c22 39.333 53.333 70.666 94 93.999c39.333 22.667 83.666 34 132.999 34
c59.333 0 109.666 -15.667 150.999 -47c40.667 -30.667 67 -68.334 79 -113.001l-101 -33c-6 21.333 -18.667 41.666 -38 60.999c-22.667 21.333 -53.334 32 -92.001 32c-40.667 0 -75.334 -14.333 -104.001 -43c-28 -29.333 -42 -67 -42 -113s14 -84 42 -114
s63 -45 105 -45c63.333 0 107 31.667 131 95l102 -33c-12 -40.667 -37 -77 -75 -109c-41.333 -36 -94.666 -54 -159.999 -54z" />
    <glyph glyph-name="Cdotaccent" unicode="&#x10a;" horiz-adv-x="785" 
d="M467 812c-14.667 -14.667 -32 -22 -52 -22c-19.333 0 -36.333 7.33301 -51 22s-22 32 -22 52s7 37.333 21 52c14 14 31.333 21 52 21s38 -7 52 -21c14.667 -16 22 -33.333 22 -52c0 -20 -7.33301 -37.333 -22 -52zM411 -9
c-55.333 -0.666992 -108.834 11.3301 -160.501 35.9971s-94.834 59 -129.501 103c-50.667 62.667 -76 140 -76 232c0 53.333 10 104 30 152c20 46.667 47 86.667 81 120c34.667 32.667 74.334 58.334 119.001 77.001c46 19.333 93 29 141 29
c76.667 0 143.667 -18.333 201 -55c26.667 -18.667 48.667 -37.667 66 -57c34.667 -39.333 58 -81.666 70 -126.999l-113 -39c-6 26.667 -18 53 -36 79c-12.667 18 -26.667 32.667 -42 44c-37.333 31.333 -86.333 47 -147 47c-65.333 0 -123 -24 -173 -72
c-51.333 -50 -77 -114.667 -77 -194c0 -80.667 25.333 -145.667 76 -195c49.333 -48 107 -72 173 -72c55.333 0 102.333 15 141 45c18 14.667 32.667 29.334 44 44.001c20.667 27.333 35 55.333 43 84l113 -39c-16.667 -60 -50 -111.333 -100 -154
c-43.333 -36.667 -91.666 -62 -144.999 -76c-32 -8 -65 -12 -99 -12z" />
    <glyph glyph-name="cdotaccent" unicode="&#x10b;" horiz-adv-x="567" 
d="M354 600c-14.667 -14.667 -32.333 -21.999 -53 -21.999c-20 0 -37 7.33301 -51 22c-14 14 -21 31 -21 51c0 21.333 7 39 21 53s31 21 51 21c21.333 0 39 -7 53 -21c14 -14.667 21 -32.334 21 -53.001c0 -20 -7 -37 -21 -51zM300.001 -8.99902
c-72 -1.33301 -133.497 23.5029 -184.497 74.5029s-75.833 112.5 -74.5 184.5c0 46.667 11.333 89.667 34 129c22 39.333 53.333 70.666 94 93.999c39.333 22.667 83.333 34 132 34c59.333 0 109.666 -15.667 150.999 -47c41.333 -30.667 67.666 -68.334 78.999 -113.001
l-100 -33c-6 21.333 -18.667 41.666 -38 60.999c-22.667 21.333 -53.334 32 -92.001 32c-40.667 0 -75.334 -14.333 -104.001 -43c-28 -29.333 -42 -67 -42 -113c0 -45.333 13.667 -83.333 41 -114c28 -30 63.333 -45 106 -45c63.333 0 107 31.667 131 95l101 -33
c-11.333 -40.667 -36 -77 -74 -109c-41.333 -36 -94.666 -54 -159.999 -54z" />
    <glyph glyph-name="Ccaron" unicode="&#x10c;" horiz-adv-x="785" 
d="M372 796l-129 160h110l65 -86l68 86h106l-133 -160h-87zM411 -9c-55.333 -0.666992 -108.834 11.3301 -160.501 35.9971s-94.834 59 -129.501 103c-50.667 62.667 -76 140 -76 232c0 53.333 10 104 30 152c20 46.667 47 86.667 81 120
c34.667 32.667 74.334 58.334 119.001 77.001c46 19.333 93 29 141 29c76.667 0 143.667 -18.333 201 -55c26.667 -18.667 48.667 -37.667 66 -57c34.667 -39.333 58 -81.666 70 -126.999l-113 -39c-6 26.667 -18 53 -36 79c-12.667 18 -26.667 32.667 -42 44
c-37.333 31.333 -86.333 47 -147 47c-65.333 0 -123 -24 -173 -72c-51.333 -50 -77 -114.667 -77 -194c0 -80.667 25.333 -145.667 76 -195c49.333 -48 107 -72 173 -72c55.333 0 102.333 15 141 45c18 14.667 32.667 29.334 44 44.001c20.667 27.333 35 55.333 43 84
l113 -39c-16.667 -60 -50 -111.333 -100 -154c-43.333 -36.667 -91.666 -62 -144.999 -76c-32 -8 -65 -12 -99 -12z" />
    <glyph glyph-name="ccaron" unicode="&#x10d;" horiz-adv-x="568" 
d="M256 581l-128 161h110l64 -86l69 86h106l-134 -161h-87zM300 -9c-72 -1.33301 -133.497 23.5029 -184.497 74.5029s-76.167 112.5 -75.5 184.5c0 45.333 11.667 88.333 35 129c22 39.333 53.333 70.666 94 93.999c39.333 22.667 83.666 34 132.999 34
c59.333 0 109.666 -15.667 150.999 -47c40.667 -30.667 67 -68.334 79 -113.001l-101 -33c-6 21.333 -18.667 41.666 -38 60.999c-22.667 21.333 -53.334 32 -92.001 32c-40.667 0 -75.334 -14.333 -104.001 -43c-28 -29.333 -42 -67 -42 -113s14 -84 42 -114
s63 -45 105 -45c63.333 0 107 31.667 131 95l102 -33c-12 -40.667 -37 -77 -75 -109c-41.333 -36 -94.666 -54 -159.999 -54z" />
    <glyph glyph-name="Dcaron" unicode="&#x10e;" horiz-adv-x="759" 
d="M284 796l-129 160h110l65 -86l68 86h106l-134 -160h-86zM715 364c0.666992 -52 -10.6689 -103.5 -34.002 -154.5s-57 -94.167 -101 -129.5c-65.333 -53.333 -149.666 -80 -252.999 -80h-234v729h232c78.667 0 145.334 -15 200.001 -45c53.333 -30 95 -67.667 125 -113
c43.333 -66 65 -135 65 -207zM596.997 364c0.666992 35.333 -7 71.166 -23 107.499s-39 67.5 -69 93.5c-45.333 38.667 -105.333 58 -180 58h-115v-517h115c72 0 131.667 18.667 179 56c20.667 18 38 37.667 52 59c27.333 42.667 41 90.334 41 143.001z" />
    <glyph glyph-name="dcaron" unicode="&#x10f;" horiz-adv-x="652" 
d="M635 759h124l-54 -218h-84zM40 249c0 65.333 21.665 124 64.998 176c46.667 54.667 107.667 82 183 82c26.667 0 55.667 -7 87 -21c32.667 -13.333 57.334 -33.333 74.001 -60v332h111v-758h-109v78c-12 -20 -29 -37 -51 -51c-22.667 -12.667 -43.667 -21.667 -63 -27
c-20 -5.33301 -37.333 -8 -52 -8c-46 0 -88 12.333 -126 37c-37.333 23.333 -66.666 55 -87.999 95c-20.667 40 -31 81.667 -31 125zM449.998 249c0 44.667 -13.667 81.999 -41 111.999c-28 30 -64 45 -108 45c-43.333 0 -79 -15 -107 -45
c-28 -31.333 -42 -68.666 -42 -111.999s14 -80.333 42 -111c28 -30 63.667 -45 107 -45c44 0 80 15 108 45c27.333 30 41 67 41 111z" />
    <glyph glyph-name="Dcroat" unicode="&#x110;" horiz-adv-x="777" 
d="M112 319h-98.002v104h98v306h232c92 0 167.333 -20.333 226 -61c24.667 -16 49.334 -37.333 74.001 -64c56.667 -66 86.334 -146 89.001 -240c0.666992 -52 -10.5 -103.5 -33.5 -154.5s-56.5 -94.167 -100.5 -129.5c-65.333 -53.333 -150 -80 -254 -80h-233v319z
M226.998 423h162v-104h-162v-213h113c72.667 0 132.667 18.667 180 56c20.667 18 38 37.667 52 59c27.333 42.667 41 90.334 41 143.001c0.666992 35.333 -7 71.166 -23 107.499s-39.333 67.5 -70 93.5c-44 38.667 -103.667 58 -179 58h-114v-200z" />
    <glyph glyph-name="dslash" unicode="&#x111;" horiz-adv-x="634" 
d="M560 585l-0.00292969 -585h-109v78c-12 -20 -29 -37 -51 -51c-22.667 -12.667 -43.667 -21.667 -63 -27c-21.333 -5.33301 -38.666 -8 -51.999 -8c-46 0 -88 12.333 -126 37c-37.333 23.333 -66.666 55 -87.999 95c-20.667 40 -31 81.667 -31 125
c0 65.333 21.667 124 65 176c46.667 54.667 107.667 82 183 82c26 0 55 -7 87 -21c32.667 -13.333 57.334 -33.333 74.001 -60v159h-155v81h155v92h111v-92h65v-81h-65zM449.997 249c0 44.667 -13.666 81.999 -40.999 111.999c-28 30 -64 45 -108 45
c-44.667 0 -80.334 -15 -107.001 -45c-28 -31.333 -42 -68.666 -42 -111.999c0 -44 14 -81 42 -111s63.667 -45 107 -45c44 0 80 15 108 45c27.333 30 41 67 41 111z" />
    <glyph glyph-name="Emacron" unicode="&#x112;" horiz-adv-x="618" 
d="M490 828h-323v88h323v-88zM93 731h467v-104h-352v-202h320v-104h-320v-215h356v-104h-471v729z" />
    <glyph glyph-name="emacron" unicode="&#x113;" horiz-adv-x="573" 
d="M453 591h-323v89h323v-89zM532 216l-378.001 -0.00195312c0.666992 -36 16 -66.833 46 -92.5s63.333 -38.167 100 -37.5c69.333 0 113.333 28 132 84l93 -29c-8.66699 -30 -24.5 -56.667 -47.5 -80s-49.833 -41 -80.5 -53c-32 -11.333 -64 -17 -96 -17
c-72 -1.33301 -133.667 23.334 -185 74.001s-76.333 112 -75 184c0 46.667 10.667 89.667 32 129c22 40.667 52 72 90 94c38.667 23.333 81.334 35 128.001 35c76 0 135.333 -23.667 178 -71c43.333 -47.333 65 -109.333 65 -186c0 -9.33301 -0.666992 -20.666 -2 -33.999z
M291.999 411.998c-35.333 0 -64.666 -10.332 -87.999 -30.999c-24.667 -20 -39.334 -47 -44.001 -81h261c-2 33.333 -15 60.666 -39 81.999c-25.333 20 -55.333 30 -90 30z" />
    <glyph glyph-name="Edotaccent" unicode="&#x116;" horiz-adv-x="618" 
d="M385 812c-16 -14.667 -33.667 -22 -53 -22s-36.333 7.33301 -51 22c-14 14 -21 31.333 -21 52s6.66699 38 20 52c14.667 14 32 21 52 21s37.667 -7 53 -21c14 -14.667 21 -32 21 -52c0 -20.667 -7 -38 -21 -52zM93 729h467v-104h-352v-202h320v-104h-320v-215h356v-104
h-471v729z" />
    <glyph glyph-name="edotaccent" unicode="&#x117;" horiz-adv-x="573" 
d="M345 600c-14 -14.667 -31.333 -22 -52 -22s-38 7.33301 -52 22c-14 14 -21 31 -21 51c0 20.667 7 38.334 21 53.001c14 14 31.333 21 52 21s38 -7 52 -21c14.667 -14.667 22 -32.334 22 -53.001c0 -20 -7.33301 -37 -22 -51zM532 216l-378.001 -0.00195312
c0.666992 -36 16 -66.833 46 -92.5s63.333 -38.167 100 -37.5c69.333 0 113.333 28 132 84l93 -29c-8.66699 -30 -24.5 -56.667 -47.5 -80s-49.833 -41 -80.5 -53c-32 -11.333 -64 -17 -96 -17c-72 -1.33301 -133.667 23.334 -185 74.001s-76.333 112 -75 184
c0 46.667 10.667 89.667 32 129c22 40.667 52 72 90 94c38.667 23.333 81.334 35 128.001 35c76 0 135.333 -23.667 178 -71c43.333 -47.333 65 -109.333 65 -186c0 -9.33301 -0.666992 -20.666 -2 -33.999zM291.999 411.998c-35.333 0 -64.666 -10.332 -87.999 -30.999
c-24.667 -20 -39.334 -47 -44.001 -81h261c-2 33.333 -15 60.666 -39 81.999c-25.333 20 -55.333 30 -90 30z" />
    <glyph glyph-name="Eogonek" unicode="&#x118;" horiz-adv-x="617" 
d="M560 -149v-75.998c-14.667 -1.33301 -26.334 -2 -35.001 -2c-38 0 -70 9 -96 27c-26 17.333 -39 42.333 -39 75c0 38 29 79.667 87 125h-384v729h467v-104h-353v-202h321v-104h-321v-215h356v-104h1c-20 -15.333 -32 -25 -36 -29
c-7.33301 -6.66699 -16.666 -17.334 -27.999 -32.001c-9.33301 -14.667 -14 -27.334 -14 -38.001c0 -33.333 24 -50 72 -50h2z" />
    <glyph glyph-name="eogonek" unicode="&#x119;" horiz-adv-x="573" 
d="M306 -9l-5 -0.00292969c-72 -1.33301 -133.667 23.334 -185 74.001s-76.333 112 -75 184c0 46.667 10.667 89.667 32 129c22 40.667 52 72 90 94c38.667 23.333 81.334 35 128.001 35c76 0 135.333 -23.667 178 -71c43.333 -47.333 65 -109.333 65 -186
c0 -9.33301 -0.666992 -20.666 -2 -33.999h-378c0.666992 -36 16 -66.833 46 -92.5s63.333 -38.167 100 -37.5c69.333 0 113.333 28 132 84l93 -29c-10 -37.333 -34.333 -71.333 -73 -102l-53 -43c-26 -21.333 -44.667 -39 -56 -53s-17 -28 -17 -42c0 -33.333 24 -50 72 -50
h2v-76c-14.667 -1.33301 -26.334 -2 -35.001 -2c-38 0 -70 9 -96 27c-26 17.333 -39 42.333 -39 75c0 36.667 25.333 75.334 76 116.001zM292 411.997c-35.333 0 -64.666 -10.332 -87.999 -30.999c-24.667 -20 -39.334 -47 -44.001 -81h261c-2 33.333 -15 60.666 -39 81.999
c-25.333 20 -55.333 30 -90 30z" />
    <glyph glyph-name="Ecaron" unicode="&#x11a;" horiz-adv-x="618" 
d="M287 796l-129 160h110l65 -86l68 86h106l-133 -160h-87zM93 729h467v-104h-352v-202h320v-104h-320v-215h356v-104h-471v729z" />
    <glyph glyph-name="ecaron" unicode="&#x11b;" horiz-adv-x="573" 
d="M246 581l-128 161h110l64 -86l69 86h106l-134 -161h-87zM532 216l-378.001 -0.00195312c0.666992 -36 16 -66.833 46 -92.5s63.333 -38.167 100 -37.5c69.333 0 113.333 28 132 84l93 -29c-8.66699 -30 -24.5 -56.667 -47.5 -80s-49.833 -41 -80.5 -53
c-32 -11.333 -64 -17 -96 -17c-72 -1.33301 -133.667 23.334 -185 74.001s-76.333 112 -75 184c0 46.667 10.667 89.667 32 129c22 40.667 52 72 90 94c38.667 23.333 81.334 35 128.001 35c76 0 135.333 -23.667 178 -71c43.333 -47.333 65 -109.333 65 -186
c0 -9.33301 -0.666992 -20.666 -2 -33.999zM291.999 411.998c-35.333 0 -64.666 -10.332 -87.999 -30.999c-24.667 -20 -39.334 -47 -44.001 -81h261c-2 33.333 -15 60.666 -39 81.999c-25.333 20 -55.333 30 -90 30z" />
    <glyph glyph-name="Gcircumflex" unicode="&#x11c;" horiz-adv-x="795" 
d="M354 795h-110l129 160h87l133 -160h-106l-68 86zM741 518l-111.999 -35.002c-9.33301 35.333 -30.666 68 -63.999 98c-38 34.667 -87.667 52 -149 52c-72 0 -131.667 -25.667 -179 -77c-48.667 -50.667 -73 -114.334 -73 -191.001c0 -49.333 10.667 -94.333 32 -135
c21.333 -41.333 51 -73.666 89 -96.999c38.667 -24 82 -36 130 -36c60.667 0 110 15.333 148 46c38 32 61 71.333 69 118h-262v104h385v-40c0 -93.333 -30 -171.666 -90 -234.999c-60 -65.333 -143 -98 -249 -98c-72 0 -136.333 16 -193 48c-56 32.667 -99.667 77 -131 133
s-47 119.333 -47 190c0 52.667 9.66699 103 29 151c19.333 46.667 45.333 86.334 78 119.001c33.333 33.333 72.666 59.333 117.999 78c46.667 19.333 95.667 29 147 29c83.333 0 153.666 -21.5 210.999 -64.5s95 -95.5 113 -157.5z" />
    <glyph glyph-name="gcircumflex" unicode="&#x11d;" horiz-adv-x="630" 
d="M234 581h-111l129 161h87l134 -161h-106l-69 86zM282 -4c-71.333 0 -129.335 25.667 -174.002 77c-45.333 50.667 -68 109.667 -68 177c0 63.333 21.667 121 65 173c20.667 25.333 46.834 45.333 78.501 60s65.5 22 101.5 22c28 0 57.333 -6.66699 88 -20
c33.333 -15.333 58.333 -36.666 75 -63.999v76h108v-494c0 -51.333 -12 -96.333 -36 -135c-25.333 -40 -57.333 -69 -96 -87c-40 -20 -85.667 -30 -137 -30c-81.333 0 -146.666 24.667 -195.999 74c-25.333 25.333 -41.666 56.666 -48.999 93.999l104 30
c6 -27.333 22 -50.333 48 -69c26 -20 55.667 -30 89 -30c45.333 0 83.666 12.5 114.999 37.5s47 61.833 47 110.5v82c-12 -19.333 -29 -36 -51 -50c-22 -13.333 -42.333 -22.333 -61 -27c-20.667 -4.66699 -37.667 -7 -51 -7zM446.998 252c0 44 -13.666 80.667 -40.999 110
c-26.667 29.333 -62.334 44 -107.001 44s-80.667 -14.667 -108 -44s-41 -66 -41 -110s14 -81 42 -111c28 -30.667 63.667 -46 107 -46s79 15.333 107 46c27.333 30.667 41 67.667 41 111z" />
    <glyph glyph-name="Gbreve" unicode="&#x11e;" horiz-adv-x="795" 
d="M419 794c-44.667 -1.33301 -83 12.167 -115 40.5s-50.333 67.833 -55 118.5h95c3.33301 -52.667 28.333 -79 75 -79s72 26.333 76 79h93c-4 -50 -21.333 -89 -52 -117s-69.667 -42 -117 -42zM741 518l-111.999 -35.002c-9.33301 35.333 -30.666 68 -63.999 98
c-38 34.667 -87.667 52 -149 52c-72 0 -131.667 -25.667 -179 -77c-48.667 -50.667 -73 -114.334 -73 -191.001c0 -49.333 10.667 -94.333 32 -135c21.333 -41.333 51 -73.666 89 -96.999c38.667 -24 82 -36 130 -36c60.667 0 110 15.333 148 46c38 32 61 71.333 69 118
h-262v104h385v-40c0 -93.333 -30 -171.666 -90 -234.999c-60 -65.333 -143 -98 -249 -98c-72 0 -136.333 16 -193 48c-56 32.667 -99.667 77 -131 133s-47 119.333 -47 190c0 52.667 9.66699 103 29 151c19.333 46.667 45.333 86.334 78 119.001
c33.333 33.333 72.666 59.333 117.999 78c46.667 19.333 95.667 29 147 29c83.333 0 153.666 -21.5 210.999 -64.5s95 -95.5 113 -157.5z" />
    <glyph glyph-name="gbreve" unicode="&#x11f;" horiz-adv-x="630" 
d="M299 580c-45.333 -1.33301 -84 12.167 -116 40.5s-50.333 67.833 -55 118.5h95c4 -52.667 29.333 -79 76 -79s72 26.333 76 79h93c-4 -49.333 -21.333 -88.333 -52 -117c-30.667 -28 -69.667 -42 -117 -42zM282 -4c-71.333 0 -129.335 25.667 -174.002 77
c-45.333 50.667 -68 109.667 -68 177c0 63.333 21.667 121 65 173c20.667 25.333 46.834 45.333 78.501 60s65.5 22 101.5 22c28 0 57.333 -6.66699 88 -20c33.333 -15.333 58.333 -36.666 75 -63.999v76h108v-494c0 -51.333 -12 -96.333 -36 -135
c-25.333 -40 -57.333 -69 -96 -87c-40 -20 -85.667 -30 -137 -30c-81.333 0 -146.666 24.667 -195.999 74c-25.333 25.333 -41.666 56.666 -48.999 93.999l104 30c6 -27.333 22 -50.333 48 -69c26 -20 55.667 -30 89 -30c45.333 0 83.666 12.5 114.999 37.5
s47 61.833 47 110.5v82c-12 -19.333 -29 -36 -51 -50c-22 -13.333 -42.333 -22.333 -61 -27c-20.667 -4.66699 -37.667 -7 -51 -7zM446.998 252c0 44 -13.666 80.667 -40.999 110c-26.667 29.333 -62.334 44 -107.001 44s-80.667 -14.667 -108 -44s-41 -66 -41 -110
s14 -81 42 -111c28 -30.667 63.667 -46 107 -46s79 15.333 107 46c27.333 30.667 41 67.667 41 111z" />
    <glyph glyph-name="Gdotaccent" unicode="&#x120;" horiz-adv-x="794" 
d="M470 812c-16 -14.667 -33.667 -22 -53 -22s-36.333 7.33301 -51 22c-14 14 -21 31.333 -21 52s6.66699 38 20 52c15.333 14 32.666 21 51.999 21c20.667 0 38.334 -7 53.001 -21c14 -14.667 21 -32 21 -52c0 -20.667 -7 -38 -21 -52zM740 518l-111.998 -34.998
c-9.33301 35.333 -30.666 68 -63.999 98c-38 34.667 -87.667 52 -149 52c-46.667 0 -89.334 -11.333 -128.001 -34c-38 -24 -68 -56.333 -90 -97c-22 -41.333 -33 -87 -33 -137c-1.33301 -74 22.167 -137.333 70.5 -190s108.166 -78.667 179.499 -78
c60.667 0 110 15.333 148 46c38 31.333 61 70.666 69 117.999h-261v104h385v-40c0 -92.667 -30 -171 -90 -235c-61.333 -65.333 -144.666 -98 -249.999 -98c-72 0 -136 16 -192 48c-57.333 33.333 -101.333 77.666 -132 132.999c-30.667 56.667 -46 120 -46 190
c0 52.667 9.66699 103 29 151c18 46 43.667 85.667 77 119c71.333 71.333 159.666 107 264.999 107c83.333 0 153.666 -21.5 210.999 -64.5s95 -95.5 113 -157.5z" />
    <glyph glyph-name="gdotaccent" unicode="&#x121;" horiz-adv-x="630" 
d="M350 600c-14.667 -14.667 -32 -22 -52 -22c-20.667 0 -38 7.33301 -52 22c-14 14 -21 31 -21 51c0 20.667 7 38.334 21 53.001c14 14 31.333 21 52 21s38 -7 52 -21c14 -14.667 21 -32.334 21 -53.001c0 -20 -7 -37 -21 -51zM282 -4
c-71.333 0 -129.335 25.667 -174.002 77c-45.333 50.667 -68 109.667 -68 177c0 63.333 21.667 121 65 173c20.667 25.333 46.834 45.333 78.501 60s65.5 22 101.5 22c28 0 57.333 -6.66699 88 -20c33.333 -15.333 58.333 -36.666 75 -63.999v76h108v-494
c0 -51.333 -12 -96.333 -36 -135c-25.333 -40 -57.333 -69 -96 -87c-40 -20 -85.667 -30 -137 -30c-81.333 0 -146.666 24.667 -195.999 74c-25.333 25.333 -41.666 56.666 -48.999 93.999l104 30c6 -27.333 22 -50.333 48 -69c26 -20 55.667 -30 89 -30
c45.333 0 83.666 12.5 114.999 37.5s47 61.833 47 110.5v82c-12 -19.333 -29 -36 -51 -50c-22 -13.333 -42.333 -22.333 -61 -27c-20.667 -4.66699 -37.667 -7 -51 -7zM446.998 252c0 44 -13.666 80.667 -40.999 110c-26.667 29.333 -62.334 44 -107.001 44
s-80.667 -14.667 -108 -44s-41 -66 -41 -110s14 -81 42 -111c28 -30.667 63.667 -46 107 -46s79 15.333 107 46c27.333 30.667 41 67.667 41 111z" />
    <glyph glyph-name="Gcommaaccent" unicode="&#x122;" horiz-adv-x="794" 
d="M740 518l-111.998 -34.998c-9.33301 35.333 -30.666 68 -63.999 98c-38 34.667 -87.667 52 -149 52c-46.667 0 -89.334 -11.333 -128.001 -34c-38 -24 -68 -56.333 -90 -97c-22 -41.333 -33 -87 -33 -137c-1.33301 -74 22.167 -137.333 70.5 -190
s108.166 -78.667 179.499 -78c60.667 0 110 15.333 148 46c38 31.333 61 70.666 69 117.999h-261v104h385v-40c0 -92.667 -30 -171 -90 -235c-61.333 -65.333 -144.666 -98 -249.999 -98c-72 0 -136 16 -192 48c-57.333 33.333 -101.333 77.666 -132 132.999
c-30.667 56.667 -46 120 -46 190c0 52.667 9.66699 103 29 151c18 46 43.667 85.667 77 119c71.333 71.333 159.666 107 264.999 107c83.333 0 153.666 -21.5 210.999 -64.5s95 -95.5 113 -157.5zM347.002 -331.998l0.000976562 44c24 3.33301 43.167 12.5 57.5 27.5
s21.833 33.5 22.5 55.5c-8 -6 -18.333 -9 -31 -9c-16.667 0 -30.667 5.83301 -42 17.5s-17 26.167 -17 43.5c0 18 6.33301 32.667 19 44c13.333 12 29 18 47 18c23.333 0 41.666 -8 54.999 -24c12.667 -16.667 19 -37 19 -61c0 -42.667 -11.5 -77.667 -34.5 -105
s-54.833 -44.333 -95.5 -51z" />
    <glyph glyph-name="gcommaaccent" unicode="&#x123;" horiz-adv-x="630" 
d="M360 812l0.000976562 -44.001c-24.667 -3.33301 -44.167 -12.5 -58.5 -27.5s-21.5 -33.167 -21.5 -54.5c7.33301 5.33301 17.333 8 30 8c17.333 0 31.666 -5.66699 42.999 -17s17 -25.666 17 -42.999c0 -18.667 -6.66699 -33.667 -20 -45c-12 -12 -27.333 -18 -46 -18
c-23.333 0 -41.333 8.33301 -54 25c-13.333 16 -20 36.333 -20 61c0 42.667 11.5 77.667 34.5 105s54.833 44 95.5 50zM282.001 -4.00098c-71.333 0 -129.335 25.667 -174.002 77c-45.333 50.667 -68 109.667 -68 177c0 63.333 21.667 121 65 173
c20.667 25.333 46.834 45.333 78.501 60s65.5 22 101.5 22c28 0 57.333 -6.66699 88 -20c33.333 -15.333 58.333 -36.666 75 -63.999v76h108v-494c0 -51.333 -12 -96.333 -36 -135c-25.333 -40 -57.333 -69 -96 -87c-40 -20 -85.667 -30 -137 -30
c-81.333 0 -146.666 24.667 -195.999 74c-25.333 25.333 -41.666 56.666 -48.999 93.999l104 30c6 -27.333 22 -50.333 48 -69c26 -20 55.667 -30 89 -30c45.333 0 83.666 12.5 114.999 37.5s47 61.833 47 110.5v82c-12 -19.333 -29 -36 -51 -50
c-22 -13.333 -42.333 -22.333 -61 -27c-20.667 -4.66699 -37.667 -7 -51 -7zM446.999 251.999c0 44 -13.666 80.667 -40.999 110c-26.667 29.333 -62.334 44 -107.001 44s-80.667 -14.667 -108 -44s-41 -66 -41 -110s14 -81 42 -111c28 -30.667 63.667 -46 107 -46
s79 15.333 107 46c27.333 30.667 41 67.667 41 111z" />
    <glyph glyph-name="Hbar" unicode="&#x126;" horiz-adv-x="783" 
d="M211 315v-315h-115v537h-71v88h71v104h115v-104h361v104h114v-104h74v-88h-74v-537h-114v315h-361zM572 423v114h-361v-114h361z" />
    <glyph glyph-name="hbar" unicode="&#x127;" 
d="M74 758h111.001v-92h155v-81h-155v-151c14.667 18.667 31.667 34 51 46c22 12 39.667 19.333 53 22c16.667 3.33301 31.667 5 45 5c61.333 0 107.666 -18.667 138.999 -56c31.333 -36 47 -84.333 47 -145v-306h-110v278c0 38.667 -9.33301 69 -28 91s-46 33 -82 33
c-35.333 0 -63.333 -11.333 -84 -34s-31 -53 -31 -91v-277h-111v585h-65v81h65v92z" />
    <glyph glyph-name="Itilde" unicode="&#x128;" horiz-adv-x="300" 
d="M318 942v-10c0 -82.667 -32.333 -124 -97 -124c-17.333 -0.666992 -41 6.83301 -71 22.5s-50 23.5 -60 23.5c-18.667 0 -28.667 -15 -30 -45h-78v11c0 82.667 32.667 124 98 124c15.333 0.666992 39 -6.83301 71 -22.5s52.667 -23.167 62 -22.5c20 0 31.333 14.333 34 43
h71zM207 729v-729h-114v729h114z" />
    <glyph glyph-name="itilde" unicode="&#x129;" horiz-adv-x="259" 
d="M297 724v-10.002c0 -82.667 -32.333 -124 -97 -124c-17.333 -0.666992 -41 6.83301 -71 22.5s-50 23.167 -60 22.5c-18.667 0 -28.667 -14.667 -30 -44h-78v10c0 82.667 33 124 99 124c15.333 0.666992 38.833 -6.66602 70.5 -21.999s52.167 -22.666 61.5 -21.999
c20 0 31.333 14.333 34 43h71zM185 496.998v-497h-111v497h111z" />
    <glyph glyph-name="Imacron" unicode="&#x12a;" horiz-adv-x="301" 
d="M298 828h-295v88h295v-88zM208 729v-729h-115v729h115z" />
    <glyph glyph-name="imacron" unicode="&#x12b;" horiz-adv-x="259" 
d="M275 591h-291v89h291v-89zM185 497v-497h-111v497h111z" />
    <glyph glyph-name="Ibreve" unicode="&#x12c;" horiz-adv-x="300" 
d="M150 794c-44 -1.33301 -82.1689 12.167 -114.502 40.5s-50.833 67.833 -55.5 118.5h95c4 -52.667 29 -79 75 -79c48 0 73.333 26.333 76 79h94c-5.33301 -50.667 -22.666 -89.667 -51.999 -117c-31.333 -28 -70.666 -42 -117.999 -42zM206.998 729v-729h-114v729h114z
" />
    <glyph glyph-name="ibreve" unicode="&#x12d;" horiz-adv-x="259" 
d="M130 580c-44.667 -1.33301 -83 12.167 -115 40.5s-50.333 67.833 -55 118.5h95c3.33301 -52.667 28.333 -79 75 -79s72 26.333 76 79h93c-4 -50 -21.333 -89 -52 -117c-31.333 -28 -70.333 -42 -117 -42zM185 497v-497h-111v497h111z" />
    <glyph glyph-name="Iogonek" unicode="&#x12e;" horiz-adv-x="300" 
d="M130 -99c0 -33.333 24.001 -50.001 72.001 -50.001h2v-76c-14.667 -1.33301 -26.334 -2 -35.001 -2c-38 0 -70 9 -96 27c-26 17.333 -39 42.333 -39 75c0 38 29 79.667 87 125h-28v729h114v-729h1c-16.667 -12 -33.667 -26.667 -51 -44
c-18 -19.333 -27 -37.666 -27 -54.999z" />
    <glyph glyph-name="iogonek" unicode="&#x12f;" horiz-adv-x="259" 
d="M129 585c-19.333 0 -36.333 7.33301 -51 22s-22 31.667 -22 51c0 20 7.33301 37.333 22 52c14 14.667 31 22 51 22c20.667 0 38 -7.33301 52 -22c14 -14 21 -31.333 21 -52c0 -20 -7 -37 -21 -51c-14.667 -14.667 -32 -22 -52 -22zM185 0
c-19.333 -14.667 -36 -29.335 -50 -44.002c-18 -19.333 -27 -37.666 -27 -54.999c0 -33.333 24 -50 72 -50h1v-76c-14.667 -1.33301 -26 -2 -34 -2c-38.667 0 -71 9 -97 27s-39 43 -39 75c0 38.667 29.333 80.334 88 125.001h-25v497h111v-497z" />
    <glyph glyph-name="Idot" unicode="&#x130;" horiz-adv-x="300" 
d="M202 812c-16 -14.667 -33.333 -22 -52 -22c-20 0 -37.333 7.33301 -52 22c-14 14 -21 31.333 -21 52c0 20 7 37.333 21 52c14 14 31.333 21 52 21s38 -7 52 -21c14 -14.667 21 -32 21 -52c0 -20.667 -7 -38 -21 -52zM207 729v-729h-114v729h114z" />
    <glyph glyph-name="dotlessi" unicode="&#x131;" horiz-adv-x="259" 
d="M185 497v-497h-111v497h111z" />
    <glyph glyph-name="IJ" unicode="&#x132;" horiz-adv-x="641" 
d="M324 -8c-72.667 0 -130.668 20.666 -174.001 61.999c-43.333 40.667 -65 96 -65 166v41h115v-35c0 -40 11.667 -71.333 35 -94c24 -22 52 -33 84 -33c35.333 0 64.333 11.333 87 34s34 51.667 34 87v509h115v-509c0 -65.333 -21.667 -119.666 -65 -162.999
s-98.666 -65 -165.999 -65zM199.999 728.999h-115v-361h115v361z" />
    <glyph glyph-name="Kcommaaccent" unicode="&#x136;" horiz-adv-x="662" 
d="M207 0h-114v729h114v-315l291 315h152l-326 -349l345 -380h-155l-307 344v-344zM282 -332l0.000976562 43.999c24.667 3.33301 44.167 12.5 58.5 27.5s21.5 33.5 21.5 55.5c-7.33301 -6 -17.333 -9 -30 -9c-17.333 0 -31.5 5.83301 -42.5 17.5s-16.5 26.167 -16.5 43.5
c0 18.667 6.33301 33.334 19 44.001c13.333 12 28.666 18 45.999 18c24 0 42.333 -8 55 -24c12.667 -16.667 19 -37 19 -61c0 -42.667 -11.333 -77.667 -34 -105s-54.667 -44.333 -96 -51z" />
    <glyph glyph-name="kcommaaccent" unicode="&#x137;" horiz-adv-x="540" 
d="M185 243v-243h-111v758h111v-457h1l193 196h151l-225 -225l237 -272h-147l-207 243h-3zM218 -332v43.999c24.667 3.33301 44.167 12.5 58.5 27.5s21.5 33.5 21.5 55.5c-8 -6 -18 -9 -30 -9c-17.333 0 -31.5 5.83301 -42.5 17.5s-16.5 26.167 -16.5 43.5
c0 18.667 6.33301 33.334 19 44.001c12 12 27.333 18 46 18c22.667 0 41 -8 55 -24c12.667 -16.667 19 -37 19 -61c0 -42.667 -11.5 -77.667 -34.5 -105s-54.833 -44.333 -95.5 -51z" />
    <glyph glyph-name="Lacute" unicode="&#x139;" horiz-adv-x="551" 
d="M204 955h135l-135 -160h-96zM93 729h114v-623h329v-106h-443v729z" />
    <glyph glyph-name="lacute" unicode="&#x13a;" horiz-adv-x="259" 
d="M178 982h135l-135 -160h-96zM185 758v-758h-111v758h111z" />
    <glyph glyph-name="Lcommaaccent" unicode="&#x13b;" horiz-adv-x="551" 
d="M93 729h114v-623h329v-106h-443v729zM248 -332v43.999c24.667 3.33301 44.167 12.5 58.5 27.5s21.5 33.5 21.5 55.5c-8 -6 -18 -9 -30 -9c-17.333 0 -31.5 5.83301 -42.5 17.5s-16.5 26.167 -16.5 43.5c0 18.667 6.33301 33.334 19 44.001c12 12 27.333 18 46 18
c22.667 0 41 -8 55 -24c12.667 -16.667 19 -37 19 -61c0 -42.667 -11.5 -77.667 -34.5 -105s-54.833 -44.333 -95.5 -51z" />
    <glyph glyph-name="lcommaaccent" unicode="&#x13c;" horiz-adv-x="259" 
d="M185 758v-758h-111v758h111zM66 -332v43.998c24.667 3.33301 44.167 12.5 58.5 27.5s21.5 33.5 21.5 55.5c-7.33301 -6 -17.333 -9 -30 -9c-17.333 0 -31.5 5.83301 -42.5 17.5s-16.5 26.167 -16.5 43.5c0 18.667 6.33301 33.334 19 44.001c13.333 12 29 18 47 18
c23.333 0 41.333 -8 54 -24c13.333 -17.333 20 -37.666 20 -60.999c0 -42.667 -11.5 -77.667 -34.5 -105s-55.167 -44.333 -96.5 -51z" />
    <glyph glyph-name="Lcaron" unicode="&#x13d;" horiz-adv-x="565" 
d="M412 750h124l-54 -218h-84zM93 729h114v-623h329v-106h-443v729z" />
    <glyph glyph-name="lcaron" unicode="&#x13e;" horiz-adv-x="277" 
d="M260 759h124l-54 -218h-84zM185 758v-758h-111v758h111z" />
    <glyph glyph-name="Ldot" unicode="&#x13f;" horiz-adv-x="564" 
d="M93 729h114v-623h329v-106h-443v729zM411 310c-14 14 -21 31 -21 51c0 20.667 7 38.334 21 53.001c14 14 31.333 21 52 21c19.333 0 36.666 -7 51.999 -21c14 -14.667 21 -32.334 21 -53.001c0 -20 -7 -37 -21 -51c-15.333 -14 -32.666 -21 -51.999 -21
c-20.667 0 -38 7 -52 21z" />
    <glyph glyph-name="ldot" unicode="&#x140;" horiz-adv-x="392" 
d="M185 758v-758h-111v758h111zM272 301c-14 14 -21 31.001 -21 51.001s7 37.667 21 53c14 14 31.333 21 52 21c20 0 37 -7 51 -21c14.667 -14.667 22 -32.334 22 -53.001c0 -20 -7.33301 -37 -22 -51c-14 -14 -31 -21 -51 -21c-20.667 0 -38 7 -52 21z" />
    <glyph glyph-name="Lslash" unicode="&#x141;" horiz-adv-x="576" 
d="M116 290l-96 -43v110l96 43v329h115v-277l207 93v-110l-207 -93v-236h329v-106h-444v290z" />
    <glyph glyph-name="lslash" unicode="&#x142;" horiz-adv-x="370" 
d="M37 195v113l95 55v395h111v-331l95 56v-113l-95 -54v-316h-111v250z" />
    <glyph glyph-name="Nacute" unicode="&#x143;" horiz-adv-x="801" 
d="M448 955h135l-135 -160h-96zM708 0h-128l-374 558v-558h-113v729h132l370 -555v555h113v-729z" />
    <glyph glyph-name="nacute" unicode="&#x144;" horiz-adv-x="590" 
d="M346 742h135l-135 -160h-96zM410 0l0.000976562 277.999c0 38.667 -9.33301 69 -28 91s-46 33 -82 33c-35.333 0 -63 -11.333 -83 -34c-21.333 -23.333 -32 -53.666 -32 -90.999v-277h-111v497h109v-67c15.333 20.667 32.666 36.667 51.999 48c20 12 37.667 20 53 24
c18 3.33301 33.667 5 47 5c60.667 0 106.667 -18.667 138 -56c32 -36.667 48 -85 48 -145v-306h-111z" />
    <glyph glyph-name="Ncommaaccent" unicode="&#x145;" horiz-adv-x="800" 
d="M708 0h-128l-374 558v-558h-113v729h132l370 -555v555h113v-729zM346 -332l0.000976562 44c24.667 3.33301 44 12.5 58 27.5s21.333 33.5 22 55.5c-8 -6 -18 -9 -30 -9c-17.333 0 -31.666 5.83301 -42.999 17.5s-17 26.167 -17 43.5c0 18 6.66699 32.667 20 44
c13.333 12 28.666 18 45.999 18c23.333 0 41.666 -8 54.999 -24c12.667 -16.667 19 -37 19 -61c0 -42.667 -11.5 -77.667 -34.5 -105s-54.833 -44.333 -95.5 -51z" />
    <glyph glyph-name="ncommaaccent" unicode="&#x146;" 
d="M410 0l-0.000976562 278c0 38.667 -9.33301 69 -28 91s-46 33 -82 33c-35.333 0 -63.333 -11.333 -84 -34s-31 -53 -31 -91v-277h-111v497h108v-67c14.667 19.333 32.334 35.333 53.001 48c20.667 12 38.334 20 53.001 24c16.667 3.33301 32 5 46 5
c61.333 0 107.666 -18.667 138.999 -56c31.333 -36 47 -84.333 47 -145v-306h-110zM235.999 -332l0.000976562 43.999c24.667 3.33301 44.167 12.5 58.5 27.5s21.5 33.5 21.5 55.5c-6.66699 -6 -16.667 -9 -30 -9c-17.333 0 -31.5 5.83301 -42.5 17.5
s-16.5 26.167 -16.5 43.5c0 18.667 6.33301 33.334 19 44.001c13.333 12 28.666 18 45.999 18c24 0 42.333 -8 55 -24c12.667 -16.667 19 -37 19 -61c0 -42.667 -11.333 -77.667 -34 -105s-54.667 -44.333 -96 -51z" />
    <glyph glyph-name="Ncaron" unicode="&#x147;" horiz-adv-x="801" 
d="M355 796l-129 160h110l64 -86l69 86h106l-134 -160h-86zM708 0h-128l-374 558v-558h-113v729h132l370 -555v555h113v-729z" />
    <glyph glyph-name="ncaron" unicode="&#x148;" horiz-adv-x="590" 
d="M256 581l-128 161h110l64 -86l69 86h106l-134 -161h-87zM410 0l0.000976562 277.998c0 38.667 -9.33301 69 -28 91s-46 33 -82 33c-35.333 0 -63 -11.333 -83 -34c-21.333 -23.333 -32 -53.666 -32 -90.999v-277h-111v497h109v-67c15.333 20.667 32.666 36.667 51.999 48
c20 12 37.667 20 53 24c18 3.33301 33.667 5 47 5c60 0 106 -18.667 138 -56s48 -85.666 48 -144.999v-306h-111z" />
    <glyph glyph-name="Eng" unicode="&#x14a;" horiz-adv-x="800" 
d="M708 729l0.000976562 -804.001c0 -59.333 -12.333 -102.666 -37 -129.999s-62.334 -41 -113.001 -41c-24 0 -47.667 3 -71 9v94c16 -2 28 -3 36 -3c48 0 72 25.667 72 77v66l-389 564v-561h-113v729h132l370 -539v539h113z" />
    <glyph glyph-name="eng" unicode="&#x14b;" 
d="M410 -70v348c0 38.667 -9.33301 69 -28 91s-46 33 -82 33c-35.333 0 -63.333 -11.333 -84 -34s-31 -53 -31 -91v-277h-111v497h108v-67c14.667 19.333 32.334 35.333 53.001 48c20.667 12 38.334 20 53.001 24c16.667 3.33301 32 5 46 5
c61.333 0 107.666 -18.667 138.999 -56c31.333 -36 47 -84.333 47 -145v-382c0 -58.667 -12 -101.667 -36 -129s-61 -41 -111 -41c-24.667 0 -48.334 3 -71.001 9v94c16 -2 28 -3 36 -3c48 0 72 25.333 72 76z" />
    <glyph glyph-name="Omacron" unicode="&#x14c;" horiz-adv-x="838" 
d="M580 828h-322v88h322v-88zM45 363c0 52.667 9.99902 101.999 29.999 147.999c18.667 46.667 45.334 86.667 80.001 120c32.667 33.333 72.667 59.666 120 78.999c44.667 20 93 30 145 30c67.333 0 130 -16.333 188 -49c57.333 -32 102.333 -77 135 -135
c33.333 -57.333 50 -120.666 50 -189.999c0 -52 -10 -101.667 -30 -149s-46.667 -87 -80 -119c-34 -33.333 -74 -59.333 -120 -78c-48 -19.333 -96.667 -29 -146 -29c-50 0 -98.333 9.66699 -145 29c-45.333 18 -85 43.333 -119 76c-32.667 32.667 -59 72.334 -79 119.001
c-19.333 46 -29 95.333 -29 148zM164.999 364.999c-1.33301 -72.667 23.167 -135.668 73.5 -189.001s110.5 -79.333 180.5 -78c70 0 130.333 26 181 78c48.667 52 73 115 73 189c0 48.667 -11 93.667 -33 135c-22.667 40.667 -53.667 73 -93 97s-82 36 -128 36
c-70 1.33301 -130.167 -24.667 -180.5 -78s-74.833 -116.666 -73.5 -189.999z" />
    <glyph glyph-name="omacron" unicode="&#x14d;" horiz-adv-x="605" 
d="M464 591h-323v89h323v-89zM40 249c0 48 11.999 92.001 35.999 132.001c24.667 40.667 56.667 71.667 96 93c41.333 22 85.333 33 132 33c47.333 0 91 -11 131 -33c38.667 -21.333 70.334 -52 95.001 -92c23.333 -40.667 35 -84.334 35 -131.001
c1.33301 -72 -24 -133.667 -76 -185s-114 -76.333 -186 -75c-46 0 -89.667 11.333 -131 34c-38.667 20.667 -70.667 51.667 -96 93c-24 40 -36 83.667 -36 131zM153.999 251.001c0 -43.333 14 -80.667 42 -112s64 -47 108 -47c44.667 0 80.334 15.333 107.001 46
c27.333 30.667 41 67.667 41 111c0 44.667 -14 82 -42 112c-26.667 30.667 -62.334 46 -107.001 46c-44 0 -80 -15 -108 -45c-27.333 -30.667 -41 -67.667 -41 -111z" />
    <glyph glyph-name="Ohungarumlaut" unicode="&#x150;" horiz-adv-x="838" 
d="M376 955h131l-131 -160h-91zM559 955h131l-130 -160h-91zM45 363c0 52.667 9.99902 101.999 29.999 147.999c18.667 46.667 45.334 86.667 80.001 120c32.667 33.333 72.667 59.666 120 78.999c44.667 20 93 30 145 30c67.333 0 130 -16.333 188 -49
c57.333 -32 102.333 -77 135 -135c33.333 -57.333 50 -120.666 50 -189.999c0 -52 -10 -101.667 -30 -149s-46.667 -87 -80 -119c-34 -33.333 -74 -59.333 -120 -78c-48 -19.333 -96.667 -29 -146 -29c-50 0 -98.333 9.66699 -145 29c-45.333 18 -85 43.333 -119 76
c-32.667 32.667 -59 72.334 -79 119.001c-19.333 46 -29 95.333 -29 148zM164.999 364.999c-1.33301 -72.667 23.167 -135.668 73.5 -189.001s110.5 -79.333 180.5 -78c70 0 130.333 26 181 78c48.667 52 73 115 73 189c0 48.667 -11 93.667 -33 135
c-22.667 40.667 -53.667 73 -93 97s-82 36 -128 36c-70 1.33301 -130.167 -24.667 -180.5 -78s-74.833 -116.666 -73.5 -189.999z" />
    <glyph glyph-name="ohungarumlaut" unicode="&#x151;" horiz-adv-x="605" 
d="M252 742h131l-131 -160h-91zM435 742h131l-130 -160h-91zM40 249c0 48 11.999 92.002 35.999 132.002c25.333 41.333 57.333 72.333 96 93c40 22 84 33 132 33c46.667 0 90 -11 130 -33s72 -52.667 96 -92c23.333 -40.667 35 -84.334 35 -131.001
c1.33301 -71.333 -24.167 -132.833 -76.5 -184.5s-114.166 -76.834 -185.499 -75.501c-46 0 -89.667 11.333 -131 34c-38.667 20.667 -70.667 51.667 -96 93c-24 40 -36 83.667 -36 131zM153.999 251.002c0 -43.333 14.001 -80.667 42.001 -112s64 -47 108 -47
c43.333 0 79 15.333 107 46c27.333 30.667 41 67.667 41 111c0 44.667 -14 82 -42 112c-26.667 30.667 -62.334 46 -107.001 46c-44 0 -80 -15 -108 -45c-27.333 -29.333 -41 -66.333 -41 -111z" />
    <glyph glyph-name="OE" unicode="&#x152;" horiz-adv-x="1195" 
d="M672 108l-2 0.000976562c-29.333 -37.333 -67 -66 -113 -86c-46 -20.667 -94.667 -31 -146 -31c-48.667 0 -96 9.66699 -142 29c-44 17.333 -83 42.666 -117 75.999c-33.333 33.333 -59.333 73 -78 119c-19.333 46 -29 95.333 -29 148s10 102 30 148
c20.667 48 47.334 88 80.001 120c32.667 34 72 60.333 118 79c46 20 93.667 30 143 30c47.333 0 94.666 -10.333 141.999 -31c45.333 -20.667 82.333 -49.667 111 -87h3v107h465v-104h-353v-202h321v-104h-321v-215h356v-104h-468v108zM165 365.001
c0 -48.667 11 -93.333 33 -134s52.333 -73 91 -97c39.333 -24 82.333 -36 129 -36c71.333 0 132 26 182 78s75 115 75 189c0 48.667 -11.667 93.667 -35 135c-22 40.667 -53 73 -93 97c-39.333 24 -82.333 36 -129 36c-71.333 0 -131.333 -26 -180 -78
s-73 -115.333 -73 -190z" />
    <glyph glyph-name="oe" unicode="&#x153;" horiz-adv-x="982" 
d="M941 216l-378.002 -0.000976562c0.666992 -36 16 -66.833 46 -92.5s63.667 -38.167 101 -37.5c69.333 0 113 28 131 84l94 -29c-8.66699 -30 -24.667 -56.667 -48 -80s-50.333 -41 -81 -53c-30.667 -11.333 -62.334 -17 -95.001 -17c-86 0 -154 33 -204 99
c-51.333 -66 -119.666 -99 -204.999 -99c-46.667 0 -90.667 11.333 -132 34c-38 20.667 -69.667 51.667 -95 93c-23.333 40.667 -35 84.334 -35 131.001c0 48.667 12 92.334 36 131.001c22.667 39.333 54.334 70.666 95.001 93.999c40 22 83.667 33 131 33
c85.333 0 153.333 -32.333 204 -97c46.667 64.667 111.334 97 194.001 97c76 0 135.667 -23.667 179 -71c42.667 -48 64 -110 64 -186c0 -6.66699 -0.666992 -18 -2 -34zM700.998 411.999c-35.333 0 -64.666 -10.333 -87.999 -31c-24.667 -20 -39.334 -47 -44.001 -81h261
c-0.666992 32.667 -13.667 60 -39 82c-24.667 20 -54.667 30 -90 30zM152.998 248.999c0 -44 14 -81.001 42 -111.001c28 -30.667 63.667 -46 107 -46c44 0 80 15.333 108 46c27.333 29.333 41 66.333 41 111s-13.667 82 -41 112c-28 30 -64 45 -108 45
s-79.667 -15 -107 -45c-28 -31.333 -42 -68.666 -42 -111.999z" />
    <glyph glyph-name="Racute" unicode="&#x154;" horiz-adv-x="670" 
d="M366 955h135l-135 -160h-96zM359 277l-151.998 0.000976562v-277h-114v729h274c87.333 0 151.666 -23.333 192.999 -70c36.667 -42.667 55 -94.334 55 -155.001c0 -48 -12.333 -90 -37 -126s-60.334 -62 -107.001 -78l162 -300h-127zM207.002 380.001h147.999
c50.667 0 87.334 11.833 110.001 35.5s34 52.167 34 85.5c0 81.333 -48 122 -144 122h-148v-243z" />
    <glyph glyph-name="racute" unicode="&#x155;" horiz-adv-x="366" 
d="M258 742h136l-135 -160h-96zM346 499v-114.001c-8.66699 2 -19 3 -31 3c-42 0 -74.167 -11.667 -96.5 -35s-33.5 -56.666 -33.5 -99.999v-253h-111v497h109v-77c14 26 33.167 46 57.5 60s50.5 21 78.5 21c7.33301 0 16.333 -0.666992 27 -2z" />
    <glyph glyph-name="Rcommaaccent" unicode="&#x156;" horiz-adv-x="670" 
d="M359 277l-151.998 0.000976562v-277h-114v729h274c87.333 0 151.666 -23.333 192.999 -70c36.667 -42.667 55 -94.334 55 -155.001c0 -48 -12.333 -90 -37 -126s-60.334 -62 -107.001 -78l162 -300h-127zM207.002 380.001h147.999c50.667 0 87.334 11.833 110.001 35.5
s34 52.167 34 85.5c0 81.333 -48 122 -144 122h-148v-243zM273.001 -331.999v43.999c24.667 3.33301 44.167 12.5 58.5 27.5s21.5 33.5 21.5 55.5c-8 -6 -18 -9 -30 -9c-17.333 0 -31.5 5.83301 -42.5 17.5s-16.5 26.167 -16.5 43.5c0 18.667 6.33301 33.334 19 44.001
c12 12 27.333 18 46 18c22.667 0 41 -8 55 -24c12.667 -16.667 19 -37 19 -61c0 -42.667 -11.5 -77.667 -34.5 -105s-54.833 -44.333 -95.5 -51z" />
    <glyph glyph-name="rcommaaccent" unicode="&#x157;" horiz-adv-x="366" 
d="M346 499v-114.001c-8.66699 2 -19 3 -31 3c-42 0 -74.167 -11.667 -96.5 -35s-33.5 -56.666 -33.5 -99.999v-253h-111v497h109v-77c14 26 33.167 46 57.5 60s50.5 21 78.5 21c7.33301 0 16.333 -0.666992 27 -2zM68 -332.001v43.999
c24.667 3.33301 44.167 12.5 58.5 27.5s21.5 33.5 21.5 55.5c-8 -6 -18 -9 -30 -9c-17.333 0 -31.5 5.83301 -42.5 17.5s-16.5 26.167 -16.5 43.5c0 18.667 6.33301 33.334 19 44.001c12 12 27.333 18 46 18c22.667 0 41 -8 55 -24c12.667 -16.667 19 -37 19 -61
c0 -42.667 -11.5 -77.667 -34.5 -105s-54.833 -44.333 -95.5 -51z" />
    <glyph glyph-name="Rcaron" unicode="&#x158;" horiz-adv-x="670" 
d="M283 796l-129 160h110l65 -86l68 86h106l-133 -160h-87zM359 277l-151.998 0.000976562v-277h-114v729h274c87.333 0 151.666 -23.333 192.999 -70c36.667 -42.667 55 -94.334 55 -155.001c0 -48 -12.333 -90 -37 -126s-60.334 -62 -107.001 -78l162 -300h-127z
M207.002 380.001h147.999c50.667 0 87.334 11.833 110.001 35.5s34 52.167 34 85.5c0 81.333 -48 122 -144 122h-148v-243z" />
    <glyph glyph-name="rcaron" unicode="&#x159;" horiz-adv-x="366" 
d="M165 581l-130 161h111l65 -86l69 86h105l-133 -161h-87zM346 499v-114.001c-8.66699 2 -19 3 -31 3c-42 0 -74.167 -11.667 -96.5 -35s-33.5 -56.666 -33.5 -99.999v-253h-111v497h109v-77c14 26 33.167 46 57.5 60s50.5 21 78.5 21c7.33301 0 16.333 -0.666992 27 -2z
" />
    <glyph glyph-name="Sacute" unicode="&#x15a;" horiz-adv-x="606" 
d="M348 955h135l-135 -160h-96zM309 -8c-82.667 0 -147.669 22.6699 -195.002 68.0029c-44.667 42 -69.667 90.333 -75 145l111 30c8 -43.333 26 -77.333 54 -102c28.667 -25.333 64.334 -38 107.001 -38c36 0 67.333 9.66699 94 29c25.333 19.333 38 43.666 38 72.999
c0 28 -9.66699 51 -29 69s-45.666 30.667 -78.999 38l-90 18c-58 12 -103 36 -135 72c-32.667 35.333 -49 77.333 -49 126c-1.33301 58.667 22.334 110.334 71.001 155.001s105 66.334 169 65.001c92 -0.666992 159.333 -28.334 202 -83.001c24 -28 39.667 -60.333 47 -97
l-107 -33c-7.33301 28.667 -23.333 54 -48 76s-55 33 -91 33s-65.667 -10.333 -89 -31c-24.667 -20.667 -37 -45.334 -37 -74.001c0 -22 8.33301 -42.333 25 -61c17.333 -18 39.666 -30 66.999 -36l92 -18c64 -12.667 113.167 -37.334 147.5 -74.001
s51.5 -82.334 51.5 -137.001c0 -55.333 -21.667 -104 -65 -146c-46.667 -44.667 -109 -67 -187 -67z" />
    <glyph glyph-name="sacute" unicode="&#x15b;" horiz-adv-x="462" 
d="M268 742h136l-135 -160h-96zM237 -9c-74.667 0.666992 -129.334 24.002 -164.001 70.002c-20 26 -31 51 -33 75l95 25c5.33301 -24 16.833 -43.167 34.5 -57.5s39.5 -21.5 65.5 -21.5c22 0 39.333 5.16699 52 15.5s19 24.5 19 42.5c0 27.333 -19.667 45.666 -59 54.999
l-64 15c-42.667 10 -75.334 27.667 -98.001 53s-34 55 -34 89c0 41.333 17 77.666 51 108.999c34.667 31.333 76.334 47 125.001 47c70.667 -0.666992 121.667 -22.667 153 -66c16 -20 26.333 -42.333 31 -67l-94 -26c-4 20.667 -13.667 37.334 -29 50.001
s-35.666 19 -60.999 19c-18.667 0 -34.334 -5.33301 -47.001 -16c-14 -10 -21 -23.333 -21 -40c0 -28 16.667 -45.333 50 -52l68 -14c44.667 -10 79.334 -28.333 104.001 -55s37 -58.334 37 -95.001c0 -42 -15.667 -78.333 -47 -109s-76 -46 -134 -46z" />
    <glyph glyph-name="Scircumflex" unicode="&#x15c;" horiz-adv-x="607" 
d="M240 795h-110l128 160h87l134 -160h-106l-69 86zM310 -8c-97.333 0 -170.669 31.0039 -220.002 93.0039c-29.333 34.667 -46.666 74.667 -51.999 120l112 30c9.33301 -43.333 27.666 -77.333 54.999 -102c28.667 -25.333 64.334 -38 107.001 -38
c36.667 0 67.667 9.66699 93 29s38 43.666 38 72.999c0 56 -35.667 91.667 -107 107l-90 18c-58.667 12 -104 36 -136 72c-32.667 35.333 -49 77.333 -49 126c0 39.333 11 76 33 110c20 32.667 49.333 59.334 88 80.001c37.333 20 77.333 30 120 30
c92 -0.666992 159.333 -28.334 202 -83.001c24.667 -28.667 40 -61 46 -97l-107 -33c-7.33301 28.667 -23 54 -47 76c-25.333 22 -55.666 33 -90.999 33s-65.333 -10.333 -90 -31c-24 -20.667 -36 -45.334 -36 -74.001c0 -22 8.33301 -42.333 25 -61
c16 -18 38.333 -30 67 -36l92 -18c64 -12.667 113.167 -37.334 147.5 -74.001s51.5 -82.334 51.5 -137.001c0 -55.333 -21.667 -104 -65 -146c-46.667 -44.667 -109 -67 -187 -67z" />
    <glyph glyph-name="scircumflex" unicode="&#x15d;" horiz-adv-x="461" 
d="M165 581h-111l129 161h87l134 -161h-106l-69 86zM236 -9c-74 0.666992 -128.332 23.998 -162.999 69.998c-20 26 -31 51 -33 75l95 25c5.33301 -24 16.666 -43.167 33.999 -57.5s39.333 -21.5 66 -21.5c22 0 39.167 5.16699 51.5 15.5s18.5 24.5 18.5 42.5
c0 27.333 -19.667 45.666 -59 54.999l-63 15c-42.667 10 -75.334 27.5 -98.001 52.5s-34 54.833 -34 89.5c0 42.667 17 79.334 51 110.001s75.667 46 125 46c70 -0.666992 121 -22.667 153 -66c16.667 -22 26.667 -44.333 30 -67l-93 -26
c-4.66699 20.667 -14.5 37.334 -29.5 50.001s-35.167 19 -60.5 19c-18.667 0 -34.667 -5.33301 -48 -16c-13.333 -9.33301 -20 -22.666 -20 -39.999c0 -28 16.667 -45.333 50 -52l68 -14c44.667 -10 79.334 -28.333 104.001 -55c24.667 -28 37 -59.667 37 -95
c0 -42 -15.833 -78.333 -47.5 -109s-76.5 -46 -134.5 -46z" />
    <glyph glyph-name="Scedilla" unicode="&#x15e;" horiz-adv-x="606" 
d="M270 -6c-70 7.33301 -125.335 32.6699 -166.002 76.0029c-38 39.333 -59.667 84.333 -65 135l111 30c8 -43.333 26 -77.333 54 -102c28.667 -25.333 64.334 -38 107.001 -38c36 0 67.333 9.66699 94 29c25.333 19.333 38 43.666 38 72.999c0 28 -9.66699 51 -29 69
s-45.666 30.667 -78.999 38l-90 18c-58 12 -103 36 -135 72c-32.667 35.333 -49 77.333 -49 126c-1.33301 58.667 22.334 110.334 71.001 155.001s105 66.334 169 65.001c92 -0.666992 159.333 -28.334 202 -83.001c24 -28 39.667 -60.333 47 -97l-107 -33
c-7.33301 28.667 -23.333 54 -48 76s-55 33 -91 33s-65.667 -10.333 -89 -31c-24.667 -20.667 -37 -45.334 -37 -74.001c0 -22 8.33301 -42.333 25 -61c17.333 -18 39.666 -30 66.999 -36l92 -18c64 -12.667 113.167 -37.334 147.5 -74.001s51.5 -82.334 51.5 -137.001
c0 -50.667 -18.333 -96 -55 -136c-40 -43.333 -93.333 -68.333 -160 -75c14 -22 21 -46.667 21 -74c0 -32.667 -8.33301 -59.667 -25 -81c-17.333 -23.333 -38.333 -40 -63 -50c-24 -10.667 -52 -16 -84 -16c-27.333 0 -51 3.66699 -71 11v74c18 -4.66699 38.333 -7 61 -7
c30 0 53.833 7.33301 71.5 22s26.5 36 26.5 64c0 20 -4.33301 39 -13 57z" />
    <glyph glyph-name="scedilla" unicode="&#x15f;" horiz-adv-x="461" 
d="M277 -5c14.667 -23.333 22.002 -48.335 22.002 -75.002c0 -31.333 -8.33301 -58.333 -25 -81c-17.333 -23.333 -38.333 -40 -63 -50c-25.333 -10.667 -53.333 -16 -84 -16c-27.333 0 -51 3.66699 -71 11v74c18 -4.66699 38.333 -7 61 -7c30 0 53.833 7.33301 71.5 22
s26.5 36 26.5 64c0 18 -4.66699 37 -14 57c-60 7.33301 -104.333 32 -133 74c-16.667 23.333 -26 46 -28 68l95 25c5.33301 -24 16.666 -43.167 33.999 -57.5s39.333 -21.5 66 -21.5c22 0 39.167 5.16699 51.5 15.5s18.5 24.5 18.5 42.5c0 27.333 -19.667 45.666 -59 54.999
l-63 15c-42.667 10 -75.334 27.5 -98.001 52.5s-34 54.833 -34 89.5c0 42.667 17 79.334 51 110.001s75.667 46 125 46c70 -0.666992 121 -22.667 153 -66c16.667 -22 26.667 -44.333 30 -67l-93 -26c-4.66699 20.667 -14.5 37.334 -29.5 50.001s-35.167 19 -60.5 19
c-18.667 0 -34.667 -5.33301 -48 -16c-13.333 -9.33301 -20 -22.666 -20 -39.999c0 -28 16.667 -45.333 50 -52l68 -14c44.667 -10 79.334 -28.333 104.001 -55c24.667 -28 37 -59.667 37 -95c0 -36 -12.333 -68.333 -37 -97c-24.667 -30 -59.334 -48 -104.001 -54z" />
    <glyph glyph-name="Scaron" unicode="&#x160;" horiz-adv-x="606" 
d="M256 796l-129 160h110l65 -86l68 86h106l-133 -160h-87zM309 -8c-82.667 0 -147.665 22.6699 -194.998 68.0029c-43.333 40.667 -68.333 89 -75 145l111 30c8 -43.333 26.333 -77.333 55 -102c28.667 -25.333 64 -38 106 -38c37.333 0 68.666 9.66699 93.999 29
s38 43.666 38 72.999c0 28 -9.5 51 -28.5 69s-45.5 30.667 -79.5 38l-89 18c-58.667 12 -104 36 -136 72c-32.667 36.667 -49 78.667 -49 126c-1.33301 58.667 22.5 110.334 71.5 155.001s105.5 66.334 169.5 65.001c90.667 -0.666992 158 -28.334 202 -83.001
c23.333 -28.667 38.666 -61 45.999 -97l-107 -33c-7.33301 28.667 -23.333 54 -48 76s-55 33 -91 33s-65.667 -10.333 -89 -31c-24 -20.667 -36 -45.334 -36 -74.001c0 -22 8.33301 -42.333 25 -61c16 -18 38 -30 66 -36l93 -18c64 -12.667 113 -37.334 147 -74.001
s51 -82.334 51 -137.001c0 -56 -21.667 -104.667 -65 -146c-46 -44.667 -108.333 -67 -187 -67z" />
    <glyph glyph-name="scaron" unicode="&#x161;" horiz-adv-x="462" 
d="M183 581l-128 161h110l64 -86l69 86h106l-134 -161h-87zM237 -9c-63.333 0 -112.334 17.333 -147.001 52c-29.333 30 -46 61 -50 93l95 25c5.33301 -24 16.833 -43.167 34.5 -57.5s39.5 -21.5 65.5 -21.5c22 0 39.333 5.16699 52 15.5s19 24.5 19 42.5
c0 27.333 -19.667 45.666 -59 54.999l-64 15c-42.667 10 -75.334 27.667 -98.001 53s-34 55 -34 89c0 42.667 17 79.334 51 110.001c34.667 30.667 76.334 46 125.001 46c70.667 -0.666992 121.667 -22.667 153 -66c16 -20 26.333 -42.333 31 -67l-94 -26
c-4 20.667 -13.667 37.334 -29 50.001s-35.666 19 -60.999 19c-18.667 0 -34.334 -5.33301 -47.001 -16c-14 -10 -21 -23.333 -21 -40c0 -28 16.667 -45.333 50 -52l68 -14c44.667 -10 79.334 -28.333 104.001 -55s37 -58.334 37 -95.001c0 -42 -15.667 -78.333 -47 -109
s-76 -46 -134 -46z" />
    <glyph glyph-name="uni0162" unicode="&#x162;" horiz-adv-x="614" 
d="M364 623v-623c16.667 -23.333 25 -50 25 -80c0 -32.667 -8.33301 -59.667 -25 -81c-17.333 -23.333 -38.333 -40 -63 -50c-25.333 -10.667 -53.333 -16 -84 -16c-27.333 0 -51 3.66699 -71 11v74c18 -4.66699 38.333 -7 61 -7c30 0 53.833 7.33301 71.5 22
s26.5 36 26.5 64c0 24 -5.66699 45 -17 63h-38v623h-232v106h578v-106h-232z" />
    <glyph glyph-name="uni0163" unicode="&#x163;" horiz-adv-x="396" 
d="M131 -149c30 0 53.833 7.33301 71.5 22s26.5 36 26.5 64c0 22 -6 43.667 -18 65c-62 16 -93 66.667 -93 152v243h-96v100h96v154h111v-154h126v-100h-126v-237c0 -22 6 -38.167 18 -48.5s31.333 -15.5 58 -15.5c13.333 0 28.333 1.33301 45 4v-95
c-16 -4.66699 -36 -7.66699 -60 -9c15.333 -22.667 23 -48 23 -76c0 -32.667 -8.33301 -59.667 -25 -81c-17.333 -23.333 -38.333 -40 -63 -50c-24 -10.667 -52 -16 -84 -16c-12 0 -27.333 1.33301 -46 4v77c12 -2 24 -3 36 -3z" />
    <glyph glyph-name="Tcaron" unicode="&#x164;" horiz-adv-x="615" 
d="M261 796l-128 160h110l64 -86l69 86h106l-134 -160h-87zM250 0v623h-232v106h578v-106h-231v-623h-115z" />
    <glyph glyph-name="tcaron" unicode="&#x165;" horiz-adv-x="396" 
d="M308 759h125l-55 -214h-83zM229 397l-0.000976562 -237c0 -22 6 -38.167 18 -48.5s31.333 -15.5 58 -15.5c13.333 0 28.333 1.33301 45 4v-95c-24.667 -6.66699 -51 -10 -79 -10c-51.333 0 -89.666 12 -114.999 36s-38 65 -38 123v243h-96v100h96v154h111v-154h126v-100
h-126z" />
    <glyph glyph-name="Tbar" unicode="&#x166;" horiz-adv-x="625" 
d="M255 315h-124v99h124v209h-231v106h578v-106h-232v-209h124v-99h-124v-315h-115v315z" />
    <glyph glyph-name="tbar" unicode="&#x167;" horiz-adv-x="401" 
d="M360 497v-100h-127v-85h108v-97h-108v-55c0 -22 6 -38.167 18 -48.5s31.667 -15.5 59 -15.5c13.333 0 28.333 1.33301 45 4v-95c-24.667 -6.66699 -51.334 -10 -80.001 -10c-51.333 0 -89.666 12 -114.999 36c-24.667 24 -37 65 -37 123v61h-92v97h92v85h-97v100h97v154
h110v-154h127z" />
    <glyph glyph-name="Utilde" unicode="&#x168;" horiz-adv-x="736" 
d="M536 942l-0.000976562 -10c0 -82.667 -32 -124 -96 -124c-17.333 -0.666992 -41.166 6.83301 -71.499 22.5s-50.5 23.5 -60.5 23.5c-18.667 0 -28.667 -15 -30 -45h-78v11c0 82.667 33 124 99 124c15.333 0.666992 38.833 -6.83301 70.5 -22.5s52.167 -23.167 61.5 -22.5
c20 0 31.333 14.333 34 43h71zM651.999 729l0.000976562 -446c0 -86.667 -24 -156.667 -72 -210c-47.333 -54.667 -118.333 -82 -213 -82s-166 27.667 -214 83c-45.333 52.667 -68 120.667 -68 204v451h114v-447c0 -56 15.667 -100.667 47 -134c32 -32.667 73 -49 123 -49
c53.333 0 94.666 16.667 123.999 50s44 76.333 44 129v451h115z" />
    <glyph glyph-name="utilde" unicode="&#x169;" horiz-adv-x="590" 
d="M464 724l-0.000976562 -10.002c0 -82.667 -32 -124 -96 -124c-17.333 -0.666992 -41.166 6.83301 -71.499 22.5s-50.5 23.167 -60.5 22.5c-18.667 0 -28.667 -14.667 -30 -44h-77v10c0 82.667 32.667 124 98 124c15.333 0.666992 39 -6.66602 71 -21.999
s52.667 -22.666 62 -21.999c18.667 0 30 14.333 34 43h70zM179.999 496.998l-0.000976562 -278.001c0 -38.667 9.33301 -69 28 -91s45.667 -33 81 -33s63.333 11.333 84 34s31 53 31 91v277h111v-497h-108v67c-15.333 -20.667 -32.666 -36.667 -51.999 -48
c-17.333 -11.333 -35.333 -19.333 -54 -24c-12.667 -3.33301 -28 -5 -46 -5c-39.333 0 -73.333 8.83301 -102 26.5s-50 41.834 -64 72.501c-13.333 28.667 -20 62.667 -20 102v306h111z" />
    <glyph glyph-name="Umacron" unicode="&#x16a;" horiz-adv-x="737" 
d="M530 828h-323v88h323v-88zM652 729v-446c0 -87.333 -23.667 -157.333 -71 -210c-48.667 -54.667 -120 -82 -214 -82s-165.333 27.667 -214 83c-45.333 52.667 -68 120.667 -68 204v451h115v-447c0 -57.333 15.667 -102 47 -134c30.667 -32.667 71.667 -49 123 -49
c53.333 0 94.333 16.667 123 50c30 32.667 45 75.667 45 129v451h114z" />
    <glyph glyph-name="umacron" unicode="&#x16b;" horiz-adv-x="590" 
d="M454 591h-323v89h323v-89zM180 497l-0.000976562 -278.001c0 -38.667 9.33301 -69 28 -91s45.667 -33 81 -33s63.333 11.333 84 34s31 53 31 91v277h111v-497h-108v67c-15.333 -20.667 -32.666 -36.667 -51.999 -48c-17.333 -11.333 -35.333 -19.333 -54 -24
c-12.667 -3.33301 -28 -5 -46 -5c-39.333 0 -73.333 8.83301 -102 26.5s-50 41.834 -64 72.501c-13.333 28.667 -20 62.667 -20 102v306h111z" />
    <glyph glyph-name="Uring" unicode="&#x16e;" horiz-adv-x="736" 
d="M368 792c-36.667 0 -68.333 12.665 -95 37.998c-26.667 24.667 -40 55 -40 91s13.333 66.333 40 91c27.333 25.333 59 38 95 38c36.667 0 68.667 -12.667 96 -38c26.667 -25.333 40 -55.666 40 -90.999s-13.333 -65.666 -40 -90.999c-27.333 -25.333 -59.333 -38 -96 -38
zM368.001 980.998c-17.333 0 -32.333 -5.66699 -45 -17c-12 -10 -18 -24.333 -18 -43c0 -16.667 6 -30.667 18 -42c12 -12.667 27 -19 45 -19s33.333 6.33301 46 19c12 11.333 18 25.333 18 42c0 15.333 -6.33301 29.333 -19 42c-12.667 12 -27.667 18 -45 18z
M652.001 728.998l0.000976562 -446c0 -86.667 -24 -156.667 -72 -210c-47.333 -54.667 -118.333 -82 -213 -82s-166 27.667 -214 83c-45.333 52.667 -68 120.667 -68 204v451h114v-447c0 -56 15.667 -100.667 47 -134c32 -32.667 73 -49 123 -49
c53.333 0 94.666 16.667 123.999 50s44 76.333 44 129v451h115z" />
    <glyph glyph-name="uring" unicode="&#x16f;" horiz-adv-x="590" 
d="M292 561c-36.667 0 -68.333 12.667 -95 38c-26.667 24.667 -40 55 -40 91s13.333 66.333 40 91c27.333 25.333 59 38 95 38c36.667 0 68.667 -12.667 96 -38c26.667 -24.667 40 -55 40 -91s-13.333 -66.333 -40 -91c-27.333 -25.333 -59.333 -38 -96 -38zM292.001 750
c-18.667 0 -33.667 -5.66797 -45 -17.001c-12 -11.333 -18 -25.666 -18 -42.999c0 -16 6 -30 18 -42s27 -18 45 -18c18.667 0 34 6 46 18s18 26 18 42s-6.33301 30 -19 42c-12 12 -27 18 -45 18zM180.001 496.999l-0.000976562 -278.001c0 -38.667 9.33301 -69 28 -91
s45.667 -33 81 -33s63.333 11.333 84 34s31 53 31 91v277h111v-497h-108v67c-15.333 -20.667 -32.666 -36.667 -51.999 -48c-17.333 -11.333 -35.333 -19.333 -54 -24c-12.667 -3.33301 -28 -5 -46 -5c-39.333 0 -73.333 8.83301 -102 26.5s-50 41.834 -64 72.501
c-13.333 28.667 -20 62.667 -20 102v306h111z" />
    <glyph glyph-name="Uhungarumlaut" unicode="&#x170;" horiz-adv-x="736" 
d="M318 955h131l-130 -160h-92zM501 955h132l-131 -160h-91zM652 729l0.000976562 -446c0 -86.667 -24 -156.667 -72 -210c-47.333 -54.667 -118.333 -82 -213 -82s-166 27.667 -214 83c-45.333 52.667 -68 120.667 -68 204v451h114v-447c0 -56 15.667 -100.667 47 -134
c32 -32.667 73 -49 123 -49c53.333 0 94.666 16.667 123.999 50s44 76.333 44 129v451h115z" />
    <glyph glyph-name="uhungarumlaut" unicode="&#x171;" 
d="M242 742h131l-131 -160h-91zM425 742h131l-130 -160h-91zM180 497l-0.000976562 -278.001c0 -38.667 9.33301 -69 28 -91s45.667 -33 81 -33s63.333 11.333 84 34s31 53 31 91v277h111v-497h-108v67c-15.333 -20.667 -32.666 -36.667 -51.999 -48
c-17.333 -11.333 -35.333 -19.333 -54 -24c-12.667 -3.33301 -28 -5 -46 -5c-39.333 0 -73.333 8.83301 -102 26.5s-50 41.834 -64 72.501c-13.333 28.667 -20 62.667 -20 102v306h111z" />
    <glyph glyph-name="Uogonek" unicode="&#x172;" horiz-adv-x="736" 
d="M394 -8c-8 -0.666992 -16.999 -1 -26.999 -1c-94.667 0 -166 27.667 -214 83c-45.333 52.667 -68 120.667 -68 204v451h114v-447c0 -56 15.667 -100.667 47 -134c32 -32.667 73 -49 123 -49c53.333 0 94.666 16.667 123.999 50s44 76.333 44 129v451h115v-450
c0 -101.333 -35 -180 -105 -236l-59 -47c-48.667 -38 -73 -69.667 -73 -95c0 -33.333 24 -50 72 -50h2v-76c-14.667 -1.33301 -26 -2 -34 -2c-38.667 0 -71 9 -97 27c-26 17.333 -39 42.333 -39 75c0 36 25 75 75 117z" />
    <glyph glyph-name="uogonek" unicode="&#x173;" 
d="M511 -149v-76c-14.667 -1.33301 -26.334 -2 -35.001 -2c-38 0 -70 9 -96 27c-26 17.333 -39 42.333 -39 75c0 38 29 79.667 87 125h-21v67c-15.333 -20.667 -32.666 -36.667 -51.999 -48c-17.333 -11.333 -35.333 -19.333 -54 -24c-12.667 -3.33301 -28 -5 -46 -5
c-40 0 -74.333 8.83301 -103 26.5s-49.667 41.834 -63 72.501c-13.333 27.333 -20 61.333 -20 102v306h111v-278c0 -38.667 9.33301 -69 28 -91s45.667 -33 81 -33s63.333 11.333 84 34s31 53 31 91v277h111v-497c-19.333 -14.667 -36 -29.334 -50 -44.001
c-18.667 -18.667 -28 -37 -28 -55c0 -33.333 24 -50 72 -50h2z" />
    <glyph glyph-name="Wcircumflex" unicode="&#x174;" horiz-adv-x="1093" 
d="M483 795h-110l128 160h87l134 -160h-106l-69 86zM22 729h122l164 -567l175 567h127l177 -567l167 567h119l-223 -729h-130l-174 570h-1l-175 -570h-129z" />
    <glyph glyph-name="wcircumflex" unicode="&#x175;" horiz-adv-x="819" 
d="M345 581h-110l129 161h86l134 -161h-106l-68 86zM579 145h1l105 352h114l-160 -497h-114l-115 349h-2l-116 -349h-113l-159 497h115l105 -351h1l113 351h111z" />
    <glyph glyph-name="Ycircumflex" unicode="&#x176;" horiz-adv-x="699" 
d="M286 795h-110l129 160h86l134 -160h-106l-69 86zM292 0v291l-274 438h132l200 -327l201 327h131l-275 -435v-294h-115z" />
    <glyph glyph-name="ycircumflex" unicode="&#x177;" horiz-adv-x="570" 
d="M225 581h-110l129 161h87l134 -161h-106l-69 86zM236 56l-221 441h126l155 -326l143 326h120l-341 -742h-118z" />
    <glyph glyph-name="Ydieresis" unicode="&#x178;" horiz-adv-x="700" 
d="M247 790c-19.333 0 -35.666 6.99902 -48.999 20.999c-13.333 14.667 -20 31 -20 49c0 18.667 6.66699 35.334 20 50.001c13.333 13.333 29.666 20 48.999 20s35.666 -6.66699 48.999 -20c14 -14 21 -30.667 21 -50c0 -18.667 -7 -35 -21 -49
c-13.333 -14 -29.666 -21 -48.999 -21zM454 789.999c-20 0 -36.332 7 -48.999 21c-14 14 -21 30.333 -21 49s6.66699 35.334 20 50.001c13.333 13.333 30 20 50 20c19.333 0 35.666 -6.66699 48.999 -20c13.333 -14.667 20 -31.334 20 -50.001
c0 -18 -6.66699 -34.333 -20 -49c-14 -14 -30.333 -21 -49 -21zM408.001 293.999v-294h-116v291l-274 438h133l200 -327l201 327h131z" />
    <glyph glyph-name="Zacute" unicode="&#x179;" horiz-adv-x="620" 
d="M339 955h135l-135 -160h-96zM434 626h-384v103h523v-98l-398 -528h406v-103h-546v99z" />
    <glyph glyph-name="zacute" unicode="&#x17a;" horiz-adv-x="492" 
d="M293 742h135l-135 -160h-96zM310 400h-263v97h401v-88l-273 -313h274v-96h-409v92z" />
    <glyph glyph-name="Zdotaccent" unicode="&#x17b;" horiz-adv-x="619" 
d="M360 812c-16 -14.667 -33.333 -22 -52 -22c-20 0 -37.333 7.33301 -52 22c-14 14 -21 31.333 -21 52c0 20 7 37.333 21 52c14 14 31.333 21 52 21s38 -7 52 -21c14 -14.667 21 -32 21 -52c0 -20.667 -7 -38 -21 -52zM433 626h-383v103h522v-98l-398 -528h406v-103h-545
v99z" />
    <glyph glyph-name="zdotaccent" unicode="&#x17c;" horiz-adv-x="492" 
d="M297 600c-14.667 -14.667 -32 -22 -52 -22c-20.667 0 -38 7.33301 -52 22c-14 14 -21 31 -21 51c0 20.667 7 38.334 21 53.001c14 14 31.333 21 52 21s38 -7 52 -21c14 -14.667 21 -32.334 21 -53.001c0 -20 -7 -37 -21 -51zM310 400h-263v97h402v-88l-274 -313h275v-96
h-410v92z" />
    <glyph glyph-name="Zcaron" unicode="&#x17d;" horiz-adv-x="619" 
d="M262 796l-128 160h110l64 -86l69 86h106l-134 -160h-87zM434 626h-383v103h522v-98l-398 -528h406v-103h-546v99z" />
    <glyph glyph-name="zcaron" unicode="&#x17e;" horiz-adv-x="492" 
d="M199 581l-129 161h110l65 -86l69 86h106l-134 -161h-87zM310 400h-263v97h402v-88l-274 -313h275v-96h-410v92z" />
    <glyph glyph-name="florin" unicode="&#x192;" horiz-adv-x="559" 
d="M499 633c-30 0 -54.668 -9.33301 -74.001 -28c-20.667 -18.667 -33.334 -42 -38.001 -70l-7 -38h120v-97h-140l-45 -233c-7.33301 -37.333 -20.666 -69.666 -39.999 -96.999c-12.667 -16.667 -25.667 -30.334 -39 -41.001c-34.667 -25.333 -78 -38 -130 -38
c-18.667 0 -39 2.33301 -61 7v97c20 -3.33301 36 -5 48 -5c29.333 0 54.333 9.33301 75 28c19.333 18 32 41.667 38 71l41 211h-100v97h120l12 60c9.33301 46 28.333 85.333 57 118c33.333 37.333 83 56 149 56c26.667 0 46.667 -1.66699 60 -5v-97
c-21.333 2.66699 -36.666 4 -45.999 4z" />
    <glyph glyph-name="uni01B5" unicode="&#x1b5;" horiz-adv-x="622" 
d="M205 322h-153v98h227l156 206h-383v103h522v-98l-161 -211h161v-98h-233l-165 -219h406v-103h-545v99z" />
    <glyph glyph-name="uni01B6" unicode="&#x1b6;" horiz-adv-x="494" 
d="M145 211h-97v79h166l96 110h-262v97h401v-88l-106 -119h106v-79h-174l-100 -115h275v-96h-410v92z" />
    <glyph glyph-name="uni01CD" unicode="&#x1cd;" horiz-adv-x="729" 
d="M319 796l-129 160h110l65 -86l68 86h106l-134 -160h-86zM185 171l-68 -171h-117l297 729h135l295 -729h-119l-67 171h-356zM225 273h277l-139 346z" />
    <glyph glyph-name="uni01CE" unicode="&#x1ce;" horiz-adv-x="535" 
d="M212 581l-129 161h111l64 -86l69 86h106l-134 -161h-87zM211 -9c-48.667 0 -88.667 14 -120 42c-31.333 27.333 -47 62.333 -47 105v5c0.666992 63.333 32.667 107.333 96 132c34 13.333 70.667 20 110 20h62c30.667 0 46 14 46 42c0 21.333 -8.33301 39.333 -25 54
c-18 14.667 -42.333 22 -73 22c-29.333 0 -53.666 -7.5 -72.999 -22.5s-31 -35.167 -35 -60.5l-101 23c3.33301 23.333 14.666 48.333 33.999 75c20.667 26.667 46.667 46.667 78 60c27.333 12.667 61 19 101 19c93.333 0 155.333 -34 186 -102
c11.333 -24.667 17 -54 17 -88v-237c0 -33.333 1 -60 3 -80h-108c-3.33301 15.333 -5 38 -5 68c-16.667 -27.333 -38 -47 -64 -59c-26.667 -12 -54 -18 -82 -18zM357 217h-107c-23.333 0 -45 -6 -65 -18c-20 -12.667 -30 -29.667 -30 -51
c0 -20.667 7.33301 -37.167 22 -49.5s33.667 -18.5 57 -18.5c38 0 68 11 90 33s33 51.333 33 88v16z" />
    <glyph glyph-name="uni01CF" unicode="&#x1cf;" horiz-adv-x="301" 
d="M104 796l-129 160h110l65 -86l70 86h105l-134 -160h-87zM208 729v-729h-115v729h115z" />
    <glyph glyph-name="uni01D0" unicode="&#x1d0;" horiz-adv-x="259" 
d="M84 581l-129 161h110l65 -86l68 86h106l-134 -161h-86zM185 497v-497h-111v497h111z" />
    <glyph glyph-name="uni01D1" unicode="&#x1d1;" horiz-adv-x="838" 
d="M373 796l-128 160h110l64 -86l69 86h106l-134 -160h-87zM45 363c0 52.667 9.99902 101.999 29.999 147.999c18.667 46.667 45.334 86.667 80.001 120c32.667 33.333 72.667 59.666 120 78.999c44.667 20 93 30 145 30c67.333 0 130 -16.333 188 -49
c57.333 -32 102.333 -77 135 -135c33.333 -57.333 50 -120.666 50 -189.999c0 -52 -10 -101.667 -30 -149s-46.667 -87 -80 -119c-34 -33.333 -74 -59.333 -120 -78c-48 -19.333 -96.667 -29 -146 -29c-50 0 -98.333 9.66699 -145 29c-45.333 18 -85 43.333 -119 76
c-32.667 32.667 -59 72.334 -79 119.001c-19.333 46 -29 95.333 -29 148zM164.999 364.999c-1.33301 -72.667 23.167 -135.668 73.5 -189.001s110.5 -79.333 180.5 -78c70 0 130.333 26 181 78c48.667 52 73 115 73 189c0 48.667 -11 93.667 -33 135
c-22.667 40.667 -53.667 73 -93 97s-82 36 -128 36c-70 1.33301 -130.167 -24.667 -180.5 -78s-74.833 -116.666 -73.5 -189.999z" />
    <glyph glyph-name="uni01D2" unicode="&#x1d2;" horiz-adv-x="605" 
d="M257 581l-129 161h110l65 -86l68 86h106l-133 -161h-87zM40 249c0 48 11.999 92.002 35.999 132.002c25.333 41.333 57.333 72.333 96 93c40 22 84 33 132 33c46.667 0 90 -11 130 -33s72 -52.667 96 -92c23.333 -40.667 35 -84.334 35 -131.001
c1.33301 -71.333 -24.167 -132.833 -76.5 -184.5s-114.166 -76.834 -185.499 -75.501c-46 0 -89.667 11.333 -131 34c-38.667 20.667 -70.667 51.667 -96 93c-24 40 -36 83.667 -36 131zM153.999 251.002c0 -43.333 14.001 -80.667 42.001 -112s64 -47 108 -47
c43.333 0 79 15.333 107 46c27.333 30.667 41 67.667 41 111c0 44.667 -14 82 -42 112c-26.667 30.667 -62.334 46 -107.001 46c-44 0 -80 -15 -108 -45c-27.333 -29.333 -41 -66.333 -41 -111z" />
    <glyph glyph-name="uni01D3" unicode="&#x1d3;" horiz-adv-x="736" 
d="M322 796l-128 160h110l64 -86l69 86h106l-134 -160h-87zM652 729l0.000976562 -446c0 -86.667 -24 -156.667 -72 -210c-47.333 -54.667 -118.333 -82 -213 -82s-166 27.667 -214 83c-45.333 52.667 -68 120.667 -68 204v451h114v-447c0 -56 15.667 -100.667 47 -134
c32 -32.667 73 -49 123 -49c53.333 0 94.666 16.667 123.999 50s44 76.333 44 129v451h115z" />
    <glyph glyph-name="uni01D4" unicode="&#x1d4;" 
d="M246 581l-129 161h110l65 -86l68 86h106l-133 -161h-87zM180 497l-0.000976562 -278.001c0 -38.667 9.33301 -69 28 -91s45.667 -33 81 -33s63.333 11.333 84 34s31 53 31 91v277h111v-497h-108v67c-15.333 -20.667 -32.666 -36.667 -51.999 -48
c-17.333 -11.333 -35.333 -19.333 -54 -24c-12.667 -3.33301 -28 -5 -46 -5c-39.333 0 -73.333 8.83301 -102 26.5s-50 41.834 -64 72.501c-13.333 28.667 -20 62.667 -20 102v306h111z" />
    <glyph glyph-name="uni01D5" unicode="&#x1d5;" horiz-adv-x="736" 
d="M652 729l0.000976562 -446c0 -86.667 -24 -156.667 -72 -210c-47.333 -54.667 -118.333 -82 -213 -82s-166 27.667 -214 83c-45.333 52.667 -68 120.667 -68 204v451h114v-447c0 -56 15.667 -100.667 47 -134c32 -32.667 73 -49 123 -49
c53.333 0 94.666 16.667 123.999 50s44 76.333 44 129v451h115zM530.001 920h-323v88h323v-88zM310.001 770c-13.333 -13.333 -30.001 -19.999 -50.001 -19.999c-19.333 0 -35.333 6.66699 -48 20c-13.333 13.333 -20 29.666 -20 48.999c0 20 6.33301 36.667 19 50
c14.667 13.333 31 20 49 20c18.667 0 35.334 -6.66699 50.001 -20c13.333 -13.333 20 -30 20 -50s-6.66699 -36.333 -20 -49zM477 750.001c-20.667 0 -37.332 6.66699 -49.999 20c-13.333 13.333 -20 29.666 -20 48.999c0 18.667 6.66699 35.334 20 50.001
c13.333 13.333 30 20 50 20c19.333 0 35.666 -6.66699 48.999 -20c12.667 -13.333 19 -30 19 -50s-6.66699 -36.333 -20 -49c-12.667 -13.333 -28.667 -20 -48 -20z" />
    <glyph glyph-name="uni01D6" unicode="&#x1d6;" 
d="M453 720h-323v89h323v-89zM188 545c-18.667 0 -34.667 6.99902 -48 20.999c-14 14 -21 30.333 -21 49s6.66699 35.334 20 50.001c13.333 13.333 29.666 20 48.999 20c18.667 0 35.334 -6.66699 50.001 -20c13.333 -14.667 20 -31.334 20 -50.001
c0 -19.333 -6.66699 -35.666 -20 -48.999c-14 -14 -30.667 -21 -50 -21zM444 565.999c-14 -14 -30.335 -21 -49.002 -21c-19.333 0 -35.666 7 -48.999 21c-13.333 14.667 -20 31 -20 49c0 20 6.33301 36.667 19 50c14.667 13.333 31.334 20 50.001 20
c18 0 34.333 -6.66699 49 -20c14 -14 21 -30.667 21 -50c0 -18.667 -7 -35 -21 -49zM179.998 496.999l-0.000976562 -278.001c0 -38.667 9.33301 -69 28 -91s45.667 -33 81 -33s63.333 11.333 84 34s31 53 31 91v277h111v-497h-108v67
c-15.333 -20.667 -32.666 -36.667 -51.999 -48c-17.333 -11.333 -35.333 -19.333 -54 -24c-12.667 -3.33301 -28 -5 -46 -5c-39.333 0 -73.333 8.83301 -102 26.5s-50 41.834 -64 72.501c-13.333 28.667 -20 62.667 -20 102v306h111z" />
    <glyph glyph-name="uni01D7" unicode="&#x1d7;" horiz-adv-x="736" 
d="M652 729l0.000976562 -446c0 -86.667 -24 -156.667 -72 -210c-47.333 -54.667 -118.333 -82 -213 -82s-166 27.667 -214 83c-45.333 52.667 -68 120.667 -68 204v451h114v-447c0 -56 15.667 -100.667 47 -134c32 -32.667 73 -49 123 -49
c53.333 0 94.666 16.667 123.999 50s44 76.333 44 129v451h115zM409.001 1052h133l-128 -151h-96zM260.001 750c-20 0 -36.332 6.66602 -48.999 19.999c-13.333 13.333 -20 29.666 -20 48.999c0 18.667 6.66699 35.334 20 50.001c13.333 13.333 29.666 20 48.999 20
c18 0 34.333 -6.66699 49 -20c14 -14 21 -30.667 21 -50s-6.66699 -35.666 -20 -48.999s-30 -20 -50 -20zM525.002 769.999c-13.333 -13.333 -29.667 -19.999 -49 -19.999c-20 0 -36.333 6.66699 -49 20c-13.333 13.333 -20 29.666 -20 48.999c0 20 6.33301 36.667 19 50
c14.667 13.333 31.334 20 50.001 20c19.333 0 35.666 -6.66699 48.999 -20s20 -30 20 -50s-6.66699 -36.333 -20 -49z" />
    <glyph glyph-name="uni01D8" unicode="&#x1d8;" 
d="M337 867h136l-135 -161h-96zM188 545c-18.667 0 -34.667 6.99902 -48 20.999c-14 14 -21 30.333 -21 49s6.66699 35.334 20 50.001c13.333 13.333 29.666 20 48.999 20c18.667 0 35.334 -6.66699 50.001 -20c13.333 -14.667 20 -31.334 20 -50.001
c0 -19.333 -6.66699 -35.666 -20 -48.999c-14 -14 -30.667 -21 -50 -21zM444 565.999c-14 -14 -30.335 -21 -49.002 -21c-19.333 0 -35.666 7 -48.999 21c-13.333 14.667 -20 31 -20 49c0 20 6.33301 36.667 19 50c14.667 13.333 31.334 20 50.001 20
c18 0 34.333 -6.66699 49 -20c14 -14 21 -30.667 21 -50c0 -18.667 -7 -35 -21 -49zM179.998 496.999l-0.000976562 -278.001c0 -38.667 9.33301 -69 28 -91s45.667 -33 81 -33s63.333 11.333 84 34s31 53 31 91v277h111v-497h-108v67
c-15.333 -20.667 -32.666 -36.667 -51.999 -48c-17.333 -11.333 -35.333 -19.333 -54 -24c-12.667 -3.33301 -28 -5 -46 -5c-39.333 0 -73.333 8.83301 -102 26.5s-50 41.834 -64 72.501c-13.333 28.667 -20 62.667 -20 102v306h111z" />
    <glyph glyph-name="uni01D9" unicode="&#x1d9;" horiz-adv-x="736" 
d="M652 729l0.000976562 -446c0 -86.667 -24 -156.667 -72 -210c-47.333 -54.667 -118.333 -82 -213 -82s-166 27.667 -214 83c-45.333 52.667 -68 120.667 -68 204v451h114v-447c0 -56 15.667 -100.667 47 -134c32 -32.667 73 -49 123 -49
c53.333 0 94.666 16.667 123.999 50s44 76.333 44 129v451h115zM322.001 902l-128 151h110l65 -81l68 81h106l-134 -151h-87zM310.001 770c-13.333 -13.333 -30.001 -19.999 -50.001 -19.999c-19.333 0 -35.333 6.66699 -48 20c-13.333 13.333 -20 29.666 -20 48.999
c0 20 6.33301 36.667 19 50c14.667 13.333 31 20 49 20c18.667 0 35.334 -6.66699 50.001 -20c13.333 -13.333 20 -30 20 -50s-6.66699 -36.333 -20 -49zM477 750.001c-20.667 0 -37.332 6.66699 -49.999 20c-13.333 13.333 -20 29.666 -20 48.999
c0 18.667 6.66699 35.334 20 50.001c13.333 13.333 30 20 50 20c19.333 0 35.666 -6.66699 48.999 -20c12.667 -13.333 19 -30 19 -50s-6.66699 -36.333 -20 -49c-12.667 -13.333 -28.667 -20 -48 -20z" />
    <glyph glyph-name="uni01DA" unicode="&#x1da;" 
d="M117 868h110l64 -86l69 86h106l-134 -161h-86zM235 566c-12.667 -14 -29 -20.999 -49 -20.999c-18.667 0 -35 7 -49 21s-21 30.333 -21 49c0 19.333 7 36 21 50c13.333 13.333 29.666 20 48.999 20c18.667 0 35.334 -6.66699 50.001 -20
c13.333 -14.667 20 -31.334 20 -50.001s-7 -35 -21 -49zM393 545.001c-19.333 0 -35.666 7 -48.999 21c-14 13.333 -21 29.666 -21 48.999c0 18.667 6.66699 35.334 20 50.001c13.333 13.333 30 20 50 20c19.333 0 35.666 -6.66699 48.999 -20c14 -14 21 -30.667 21 -50
c0 -18.667 -7 -35 -21 -49s-30.333 -21 -49 -21zM180 497.001l-0.000976562 -278.001c0 -38.667 9.33301 -69 28 -91s45.667 -33 81 -33s63.333 11.333 84 34s31 53 31 91v277h111v-497h-108v67c-15.333 -20.667 -32.666 -36.667 -51.999 -48
c-17.333 -11.333 -35.333 -19.333 -54 -24c-12.667 -3.33301 -28 -5 -46 -5c-39.333 0 -73.333 8.83301 -102 26.5s-50 41.834 -64 72.501c-13.333 28.667 -20 62.667 -20 102v306h111z" />
    <glyph glyph-name="uni01DB" unicode="&#x1db;" horiz-adv-x="736" 
d="M652 729l0.000976562 -446c0 -86.667 -24 -156.667 -72 -210c-47.333 -54.667 -118.333 -82 -213 -82s-166 27.667 -214 83c-45.333 52.667 -68 120.667 -68 204v451h114v-447c0 -56 15.667 -100.667 47 -134c32 -32.667 73 -49 123 -49
c53.333 0 94.666 16.667 123.999 50s44 76.333 44 129v451h115zM427.001 770c12.667 -13.333 29.001 -20.001 49.001 -20.001c19.333 0 35.666 6.66699 48.999 20c13.333 12.667 20 29 20 49s-6.66699 36.667 -20 50s-29.666 20 -48.999 20
c-18.667 0 -35.334 -6.66699 -50.001 -20c-12.667 -13.333 -19 -30 -19 -50c0 -19.333 6.66699 -35.666 20 -48.999zM260.002 749.999c20 0 36.666 6.66797 49.999 20.001s20 29.666 20 48.999s-7 36 -21 50c-14.667 13.333 -31 20 -49 20
c-19.333 0 -35.666 -6.66699 -48.999 -20c-13.333 -14.667 -20 -31.334 -20 -50.001c0 -19.333 6.66699 -35.666 20 -48.999c12.667 -13.333 29 -20 49 -20zM422.001 901h-96l-128 151h133z" />
    <glyph glyph-name="uni01DC" unicode="&#x1dc;" 
d="M345 706h-95l-135 161h135zM188 545c-18.667 0 -34.667 6.99902 -48 20.999c-14 14 -21 30.333 -21 49s6.66699 35.334 20 50.001c13.333 13.333 29.666 20 48.999 20c18.667 0 35.334 -6.66699 50.001 -20c13.333 -14.667 20 -31.334 20 -50.001
c0 -19.333 -6.66699 -35.666 -20 -48.999c-14 -14 -30.667 -21 -50 -21zM444 565.999c-14 -14 -30.335 -21 -49.002 -21c-19.333 0 -35.666 7 -48.999 21c-13.333 14.667 -20 31 -20 49c0 20 6.33301 36.667 19 50c14.667 13.333 31.334 20 50.001 20
c18 0 34.333 -6.66699 49 -20c14 -14 21 -30.667 21 -50c0 -18.667 -7 -35 -21 -49zM179.998 496.999l-0.000976562 -278.001c0 -38.667 9.33301 -69 28 -91s45.667 -33 81 -33s63.333 11.333 84 34s31 53 31 91v277h111v-497h-108v67
c-15.333 -20.667 -32.666 -36.667 -51.999 -48c-17.333 -11.333 -35.333 -19.333 -54 -24c-12.667 -3.33301 -28 -5 -46 -5c-39.333 0 -73.333 8.83301 -102 26.5s-50 41.834 -64 72.501c-13.333 28.667 -20 62.667 -20 102v306h111z" />
    <glyph glyph-name="Gcaron" unicode="&#x1e6;" horiz-adv-x="795" 
d="M373 796l-129 160h110l65 -86l68 86h106l-133 -160h-87zM741 518l-111.999 -35.002c-9.33301 35.333 -30.666 68 -63.999 98c-38 34.667 -87.667 52 -149 52c-72 0 -131.667 -25.667 -179 -77c-48.667 -50.667 -73 -114.334 -73 -191.001
c0 -49.333 10.667 -94.333 32 -135c21.333 -41.333 51 -73.666 89 -96.999c38.667 -24 82 -36 130 -36c60.667 0 110 15.333 148 46c38 32 61 71.333 69 118h-262v104h385v-40c0 -93.333 -30 -171.666 -90 -234.999c-60 -65.333 -143 -98 -249 -98
c-72 0 -136.333 16 -193 48c-56 32.667 -99.667 77 -131 133s-47 119.333 -47 190c0 52.667 9.66699 103 29 151c19.333 46.667 45.333 86.334 78 119.001c33.333 33.333 72.666 59.333 117.999 78c46.667 19.333 95.667 29 147 29c83.333 0 153.666 -21.5 210.999 -64.5
s95 -95.5 113 -157.5z" />
    <glyph glyph-name="gcaron" unicode="&#x1e7;" horiz-adv-x="630" 
d="M252 581l-129 161h111l64 -86l69 86h106l-134 -161h-87zM282 -4c-71.333 0 -129.335 25.667 -174.002 77c-45.333 50.667 -68 109.667 -68 177c0 63.333 21.667 121 65 173c20.667 25.333 46.834 45.333 78.501 60s65.5 22 101.5 22c28 0 57.333 -6.66699 88 -20
c33.333 -15.333 58.333 -36.666 75 -63.999v76h108v-494c0 -51.333 -12 -96.333 -36 -135c-25.333 -40 -57.333 -69 -96 -87c-40 -20 -85.667 -30 -137 -30c-81.333 0 -146.666 24.667 -195.999 74c-25.333 25.333 -41.666 56.666 -48.999 93.999l104 30
c6 -27.333 22 -50.333 48 -69c26 -20 55.667 -30 89 -30c45.333 0 83.666 12.5 114.999 37.5s47 61.833 47 110.5v82c-12 -19.333 -29 -36 -51 -50c-22 -13.333 -42.333 -22.333 -61 -27c-20.667 -4.66699 -37.667 -7 -51 -7zM446.998 252c0 44 -13.666 80.667 -40.999 110
c-26.667 29.333 -62.334 44 -107.001 44s-80.667 -14.667 -108 -44s-41 -66 -41 -110s14 -81 42 -111c28 -30.667 63.667 -46 107 -46s79 15.333 107 46c27.333 30.667 41 67.667 41 111z" />
    <glyph glyph-name="uni01E8" unicode="&#x1e8;" horiz-adv-x="662" 
d="M303 796l-128 160h110l64 -86l69 86h106l-134 -160h-87zM499 729h151l-326 -349l345 -380h-155l-307 344v-344h-114v729h114v-315z" />
    <glyph glyph-name="uni01E9" unicode="&#x1e9;" horiz-adv-x="541" 
d="M186 243v-243h-112v758h112v-457h1l193 196h150l-224 -225l237 -272h-147l-207 243h-3zM361 581l-129 161h110l65 -86l68 86h106l-133 -161h-87z" />
    <glyph glyph-name="uni01F4" unicode="&#x1f4;" horiz-adv-x="794" 
d="M465 955h136l-135 -160h-96zM740 518l-111.998 -34.998c-9.33301 35.333 -30.666 68 -63.999 98c-38 34.667 -87.667 52 -149 52c-46.667 0 -89.334 -11.333 -128.001 -34c-38 -24 -68 -56.333 -90 -97c-22 -41.333 -33 -87 -33 -137
c-1.33301 -74 22.167 -137.333 70.5 -190s108.166 -78.667 179.499 -78c60.667 0 110 15.333 148 46c38 31.333 61 70.666 69 117.999h-261v104h385v-40c0 -92.667 -30 -171 -90 -235c-61.333 -65.333 -144.666 -98 -249.999 -98c-72 0 -136 16 -192 48
c-57.333 33.333 -101.333 77.666 -132 132.999c-30.667 56.667 -46 120 -46 190c0 52.667 9.66699 103 29 151c18 46 43.667 85.667 77 119c71.333 71.333 159.666 107 264.999 107c83.333 0 153.666 -21.5 210.999 -64.5s95 -95.5 113 -157.5z" />
    <glyph glyph-name="uni01F5" unicode="&#x1f5;" horiz-adv-x="630" 
d="M342 742h135l-135 -160h-96zM282 -4c-71.333 0 -129.335 25.667 -174.002 77c-45.333 50.667 -68 109.667 -68 177c0 63.333 21.667 121 65 173c20.667 25.333 46.834 45.333 78.501 60s65.5 22 101.5 22c28 0 57.333 -6.66699 88 -20
c33.333 -15.333 58.333 -36.666 75 -63.999v76h108v-494c0 -51.333 -12 -96.333 -36 -135c-25.333 -40 -57.333 -69 -96 -87c-40 -20 -85.667 -30 -137 -30c-81.333 0 -146.666 24.667 -195.999 74c-25.333 25.333 -41.666 56.666 -48.999 93.999l104 30
c6 -27.333 22 -50.333 48 -69c26 -20 55.667 -30 89 -30c45.333 0 83.666 12.5 114.999 37.5s47 61.833 47 110.5v82c-12 -19.333 -29 -36 -51 -50c-22 -13.333 -42.333 -22.333 -61 -27c-20.667 -4.66699 -37.667 -7 -51 -7zM446.998 252c0 44 -13.666 80.667 -40.999 110
c-26.667 29.333 -62.334 44 -107.001 44s-80.667 -14.667 -108 -44s-41 -66 -41 -110s14 -81 42 -111c28 -30.667 63.667 -46 107 -46s79 15.333 107 46c27.333 30.667 41 67.667 41 111z" />
    <glyph glyph-name="Aringacute" unicode="&#x1fa;" horiz-adv-x="728" 
d="M401 909l58 96h136l-122 -144c17.333 -22.667 26 -48 26 -76c0 -42 -16.333 -75.333 -49 -100l277 -685h-119l-67 171h-356l-68 -171h-117l279 684c-33.333 26 -50 59.667 -50 101c0 36 13.333 66.333 40 91c26.667 25.333 58.334 38 95.001 38
c11.333 0 23.666 -1.66699 36.999 -5zM364 845c-18 0 -33.332 -5.66699 -45.999 -17c-12 -12 -18 -26.333 -18 -43s6.33301 -31 19 -43c12 -12 27 -18 45 -18s33 6 45 18s18 26.333 18 43c0 16 -6.33301 30 -19 42s-27.334 18 -44.001 18zM502.001 273l-139 346l-138 -346
h277z" />
    <glyph glyph-name="aringacute" unicode="&#x1fb;" horiz-adv-x="535" 
d="M304 687l55.999 94h135l-120 -143c16 -22 24 -46.333 24 -73c0 -30 -9.33301 -56.333 -28 -79c36.667 -17.333 63 -44.333 79 -81c11.333 -22.667 17 -52 17 -88v-237c0 -26.667 1.33301 -53.334 4 -80.001h-109c-2.66699 12.667 -4 35.334 -4 68.001
c-16.667 -27.333 -38.334 -47 -65.001 -59s-53.667 -18 -81 -18c-48.667 0 -89 14 -121 42c-31.333 27.333 -47 62.333 -47 105v5c0.666992 63.333 33 107.333 97 132c32.667 13.333 69.334 20 110.001 20h61c31.333 0 47 14 47 42c0 20.667 -8.66699 38.667 -26 54
c-18 14.667 -42 22 -72 22c-29.333 0 -53.666 -7.5 -72.999 -22.5s-31.333 -35.167 -36 -60.5l-100 23c3.33301 32 20 63 50 93c16 16 34 29 54 39c-18.667 24 -28 50.667 -28 80c0 35.333 13.333 65.333 40 90c27.333 25.333 59 38 95 38c14 0 27.667 -2 41 -6z
M263.999 621c-16.667 0 -30.666 -5.49902 -41.999 -16.499s-17 -24.167 -17 -39.5c0 -16 5.66699 -29.333 17 -40c10.667 -11.333 24.667 -17 42 -17s31.666 5.66699 42.999 17s17 24.666 17 39.999s-6 28.333 -18 39c-12.667 11.333 -26.667 17 -42 17zM358 217.001
h-107.999c-23.333 0 -45 -6 -65 -18c-20 -12.667 -30 -29.667 -30 -51c0 -20.667 7.33301 -37.167 22 -49.5s33.667 -18.5 57 -18.5c37.333 0 67.666 11 90.999 33c22 22 33 51.333 33 88v16z" />
    <glyph glyph-name="AEacute" unicode="&#x1fc;" horiz-adv-x="980" 
d="M581 955h136l-135 -160h-96zM114 0h-125l396 729h538v-104h-348v-202h316v-104h-316v-215h351v-104h-465v171h-255zM260 273h201v353h-11z" />
    <glyph glyph-name="aeacute" unicode="&#x1fd;" horiz-adv-x="885" 
d="M485 742h135l-135 -160h-95zM846 250c0 -14.667 -0.331055 -25.9961 -0.998047 -33.9961h-380c1.33301 -36.667 16.666 -67.334 45.999 -92.001c30.667 -25.333 64.667 -38 102 -38c68 0 111.667 27.667 131 83l95 -28c-14 -46.667 -42 -83.334 -84 -110.001
c-44 -26.667 -91 -40 -141 -40c-82 0 -148.667 30 -200 90c-50.667 -60 -116.667 -90 -198 -90h-2c-48 0 -88.667 14 -122 42c-32 27.333 -48 62.333 -48 105v5c0.666992 63.333 32.667 107.333 96 132c34 13.333 70.667 20 110 20h71c27.333 0 41 14 41 42
c0 21.333 -8.83301 39.166 -26.5 53.499s-41.5 21.833 -71.5 22.5c-30.667 0 -56.334 -7.66699 -77.001 -23c-20.667 -14.667 -33 -34.334 -37 -59.001l-99 22c3.33301 23.333 15 48 35 74c21.333 26 48.333 46.667 81 62c28 12 61 18 99 18c78 0 132.667 -23.667 164 -71
c45.333 47.333 104 71 176 71c75.333 0 134.333 -23.667 177 -71c42 -46.667 63 -108.667 63 -186zM470.002 300.004h265c-2 34.667 -15 62 -39 82s-54.333 30 -91 30c-35.333 0 -65.333 -10.333 -90 -31c-24.667 -20 -39.667 -47 -45 -81zM360.002 217.004h-110
c-23.333 0 -45 -6 -65 -18c-20 -12.667 -30 -29.667 -30 -51c0 -20.667 7.33301 -37.167 22 -49.5s33.667 -18.5 57 -18.5c38 0 68.667 10.667 92 32c22.667 22 34 51.667 34 89v16z" />
    <glyph glyph-name="Oslashacute" unicode="&#x1fe;" horiz-adv-x="843" 
d="M468 955h136l-135 -160h-96zM800 704l-91 -95.998c58 -68.667 87 -149.334 87 -242.001c0 -52 -10 -101.667 -30 -149s-47 -87 -81 -119c-34 -33.333 -74 -59.333 -120 -78c-46.667 -19.333 -95 -29 -145 -29c-85.333 0 -160.333 24.333 -225 73l-86 -88l-64 59l85 90
c-55.333 66.667 -83 146 -83 238c0 52.667 10 102 30 148c20 46.667 46.667 86.667 80 120s73.333 59.666 120 78.999c46 20 94.667 30 146 30c81.333 0 155.333 -24 222 -72l91 96zM167 365.002c0 -58 15 -109.334 45 -154.001l356 374c-42.667 32 -91.667 48 -147 48
c-70 1.33301 -130.167 -24.667 -180.5 -78s-74.833 -116.666 -73.5 -189.999zM675 365.001c0 60 -15.667 112.667 -47 158l-357 -375c44.667 -33.333 94.667 -50 150 -50c70.667 0 131 26 181 78c48.667 52 73 115 73 189z" />
    <glyph glyph-name="oslashacute" unicode="&#x1ff;" horiz-adv-x="610" 
d="M346 742h136l-135 -160h-96zM568 460l-54.001 -53.9971c35.333 -46.667 53 -99 53 -157c0 -46.667 -11.667 -90.334 -35 -131.001c-24 -40 -55.667 -71 -95 -93c-41.333 -22.667 -85.333 -34 -132 -34c-56 0 -106.667 15.667 -152 47l-55 -55l-56 54l53 55
c-34.667 45.333 -52 97.666 -52 156.999c0 48 11.667 91.667 35 131c22.667 39.333 54.334 70.666 95.001 93.999c40 22 84 33 132 33c56.667 0 107.667 -15.667 153 -47l54 55zM154.999 249.003c0 -28.667 6 -55 18 -79l212 215c-24 14 -50.667 21 -80 21
c-44 0 -80 -15 -108 -45c-28 -32 -42 -69.333 -42 -112zM453.999 249.003c0 28.667 -6.00098 54.667 -18.001 78l-211 -214c23.333 -14 50 -21 80 -21c44.667 0 80.334 15.333 107.001 46c28 30 42 67 42 111z" />
    <glyph glyph-name="Scommaaccent" unicode="&#x218;" horiz-adv-x="606" 
d="M309 -8c-82.667 0 -147.669 22.6699 -195.002 68.0029c-44.667 42 -69.667 90.333 -75 145l111 30c8 -43.333 26 -77.333 54 -102c28.667 -25.333 64.334 -38 107.001 -38c36 0 67.333 9.66699 94 29c25.333 19.333 38 43.666 38 72.999c0 28 -9.66699 51 -29 69
s-45.666 30.667 -78.999 38l-90 18c-58 12 -103 36 -135 72c-32.667 35.333 -49 77.333 -49 126c-1.33301 58.667 22.334 110.334 71.001 155.001s105 66.334 169 65.001c92 -0.666992 159.333 -28.334 202 -83.001c24 -28 39.667 -60.333 47 -97l-107 -33
c-7.33301 28.667 -23.333 54 -48 76s-55 33 -91 33s-65.667 -10.333 -89 -31c-24.667 -20.667 -37 -45.334 -37 -74.001c0 -22 8.33301 -42.333 25 -61c17.333 -18 39.666 -30 66.999 -36l92 -18c64 -12.667 113.167 -37.334 147.5 -74.001s51.5 -82.334 51.5 -137.001
c0 -55.333 -21.667 -104 -65 -146c-46.667 -44.667 -109 -67 -187 -67zM244.998 -331.997l0.000976562 43.999c24.667 3.33301 44.167 12.5 58.5 27.5s21.5 33.5 21.5 55.5c-7.33301 -6 -17.333 -9 -30 -9c-17.333 0 -31.5 5.83301 -42.5 17.5s-16.5 26.167 -16.5 43.5
c0 18.667 6.33301 33.334 19 44.001c12.667 12 28 18 46 18c23.333 0 41.666 -8 54.999 -24c12.667 -16.667 19 -37 19 -61c0 -42.667 -11.333 -77.667 -34 -105s-54.667 -44.333 -96 -51z" />
    <glyph glyph-name="scommaaccent" unicode="&#x219;" horiz-adv-x="461" 
d="M236 -9c-74 0.666992 -128.332 23.998 -162.999 69.998c-20 26 -31 51 -33 75l95 25c5.33301 -24 16.666 -43.167 33.999 -57.5s39.333 -21.5 66 -21.5c22 0 39.167 5.16699 51.5 15.5s18.5 24.5 18.5 42.5c0 27.333 -19.667 45.666 -59 54.999l-63 15
c-42.667 10 -75.334 27.5 -98.001 52.5s-34 54.833 -34 89.5c0 42.667 17 79.334 51 110.001s75.667 46 125 46c70 -0.666992 121 -22.667 153 -66c16.667 -22 26.667 -44.333 30 -67l-93 -26c-4.66699 20.667 -14.5 37.334 -29.5 50.001s-35.167 19 -60.5 19
c-18.667 0 -34.667 -5.33301 -48 -16c-13.333 -9.33301 -20 -22.666 -20 -39.999c0 -28 16.667 -45.333 50 -52l68 -14c44.667 -10 79.334 -28.333 104.001 -55c24.667 -28 37 -59.667 37 -95c0 -42 -15.833 -78.333 -47.5 -109s-76.5 -46 -134.5 -46zM166.001 -332.002
l-0.000976562 44c24.667 3.33301 44 12.5 58 27.5s21.333 33.5 22 55.5c-8 -6 -18.333 -9 -31 -9c-17.333 0 -31.5 5.83301 -42.5 17.5s-16.5 26.167 -16.5 43.5c0 18 6.33301 32.667 19 44c12.667 12 28.334 18 47.001 18c22.667 0 40.667 -8 54 -24s20 -36.333 20 -61
c0 -42.667 -11.5 -77.667 -34.5 -105s-54.833 -44.333 -95.5 -51z" />
    <glyph glyph-name="uni021A" unicode="&#x21a;" horiz-adv-x="614" 
d="M250 0v623h-232v106h578v-106h-232v-623h-114zM244 -332l-0.000976562 43.998c24 3.33301 43.167 12.5 57.5 27.5s21.833 33.5 22.5 55.5c-8 -6 -18.333 -9 -31 -9c-17.333 0 -31.5 5.83301 -42.5 17.5s-16.5 26.167 -16.5 43.5c0 18.667 6.33301 33.334 19 44.001
c12.667 12 28.334 18 47.001 18c22.667 0 40.667 -8 54 -24c13.333 -17.333 20 -37.666 20 -60.999c0 -42.667 -11.5 -77.667 -34.5 -105s-54.833 -44.333 -95.5 -51z" />
    <glyph glyph-name="uni021B" unicode="&#x21b;" horiz-adv-x="396" 
d="M355 497l-0.000976562 -100h-126v-237c0 -22 6 -38.167 18 -48.5s31.333 -15.5 58 -15.5c13.333 0 28.333 1.33301 45 4v-95c-24.667 -6.66699 -51 -10 -79 -10c-51.333 0 -89.666 12 -114.999 36s-38 65 -38 123v243h-96v100h96v154h111v-154h126zM153.999 -288v-43.999
c40.667 6.66699 72.5 23.667 95.5 51s34.5 62.333 34.5 105c0 24 -6.33301 44.333 -19 61c-14 16 -32.333 24 -55 24c-18.667 0 -34 -6 -46 -18c-12.667 -10.667 -19 -25.334 -19 -44.001c0 -17.333 5.5 -31.833 16.5 -43.5s25.167 -17.5 42.5 -17.5c12 0 22 3 30 9
c0 -22 -7.16699 -40.5 -21.5 -55.5s-33.833 -24.167 -58.5 -27.5z" />
    <glyph glyph-name="uni0237" unicode="&#x237;" horiz-adv-x="266" 
d="M81 -70l0.000976562 567h111v-573c0 -58.667 -12 -101.667 -36 -129s-61 -41 -111 -41c-24.667 0 -48.334 3 -71.001 9v94c16 -2 28 -3 36 -3c47.333 0 71 25.333 71 76z" />
    <glyph glyph-name="gravecomb" unicode="&#x300;" horiz-adv-x="0" 
d="M115 582h-95l-135 160h135z" />
    <glyph glyph-name="acutecomb" unicode="&#x301;" horiz-adv-x="0" 
d="M-20 742h135l-135 -160h-95z" />
    <glyph glyph-name="uni0302" unicode="&#x302;" horiz-adv-x="0" 
d="M-65 581h-110l129 161h87l134 -161h-106l-69 86z" />
    <glyph glyph-name="tildecomb" unicode="&#x303;" horiz-adv-x="0" 
d="M168 724v-10.002c0 -82.667 -32.333 -124 -97 -124c-17.333 -0.666992 -41 6.83301 -71 22.5s-50 23.167 -60 22.5c-18.667 0 -28.667 -14.667 -30 -44h-78v10c0 82.667 32.667 124 98 124c15.333 0.666992 39 -6.66602 71 -21.999s52.667 -22.666 62 -21.999
c20 0 31.333 14.333 34 43h71z" />
    <glyph glyph-name="uni0304" unicode="&#x304;" horiz-adv-x="0" 
d="M161 591h-322v89h322v-89z" />
    <glyph glyph-name="uni0306" unicode="&#x306;" horiz-adv-x="0" 
d="M0 580c-44 -1.33301 -82.168 12.167 -114.501 40.5s-50.833 67.833 -55.5 118.5h95c4 -52.667 29 -79 75 -79c48 0 73.333 26.333 76 79h94c-5.33301 -50.667 -22.666 -89.667 -51.999 -117c-30.667 -28 -70 -42 -118 -42z" />
    <glyph glyph-name="uni0307" unicode="&#x307;" horiz-adv-x="0" 
d="M52 600c-14.667 -14.667 -32 -22 -52 -22c-20.667 0 -38 7.33301 -52 22c-14 14 -21 31 -21 51c0 20.667 7 38.334 21 53.001c14 14 31.333 21 52 21s38 -7 52 -21c14 -14.667 21 -32.334 21 -53.001c0 -20 -7 -37 -21 -51z" />
    <glyph glyph-name="uni0308" unicode="&#x308;" horiz-adv-x="0" 
d="M-104 578c-18 0 -34.332 6.66504 -48.999 19.998c-13.333 14.667 -20 31.334 -20 50.001c0 18 6.66699 34.333 20 49c13.333 13.333 29.666 20 48.999 20c18.667 0 35.334 -6.66699 50.001 -20c13.333 -13.333 20 -29.666 20 -48.999c0 -20 -6.66699 -36.667 -20 -50
c-14.667 -13.333 -31.334 -20 -50.001 -20zM103.001 577.998c-19.333 0 -35.668 6.66797 -49.001 20.001s-20 30 -20 50c0 19.333 6.66699 35.666 20 48.999s29.666 20 48.999 20c18.667 0 35.334 -6.66699 50.001 -20c13.333 -14.667 20 -31 20 -49
c0 -19.333 -7 -36 -21 -50c-13.333 -13.333 -29.666 -20 -48.999 -20z" />
    <glyph glyph-name="uni030A" unicode="&#x30a;" horiz-adv-x="0" 
d="M0 561c-36.667 0 -68.668 12.667 -96.001 38c-26 24.667 -39 55 -39 91s13.333 66.333 40 91c26.667 25.333 58.334 38 95.001 38s68.667 -12.667 96 -38c26 -24.667 39 -55 39 -91s-13 -66.333 -39 -91c-27.333 -25.333 -59.333 -38 -96 -38zM-0.000976562 750
c-19.333 0 -34.666 -5.66797 -45.999 -17.001c-12 -11.333 -18 -25.666 -18 -42.999c0 -16 6 -30 18 -42c11.333 -12 26.666 -18 45.999 -18c18.667 0 33.667 6 45 18c12 12 18 26 18 42s-6.33301 30 -19 42c-12 12 -26.667 18 -44 18z" />
    <glyph glyph-name="uni030B" unicode="&#x30b;" horiz-adv-x="0" 
d="M-112 742h131l-130 -160h-92zM71 742h132l-131 -160h-91z" />
    <glyph glyph-name="uni030C" unicode="&#x30c;" horiz-adv-x="0" 
d="M-46 581l-129 161h110l65 -86l69 86h106l-134 -161h-87z" />
    <glyph glyph-name="uni0312" unicode="&#x312;" horiz-adv-x="0" 
d="M59 812l0.000976562 -44.001c-24 -3.33301 -43.167 -12.5 -57.5 -27.5s-21.833 -33.167 -22.5 -54.5c7.33301 5.33301 17.666 8 30.999 8c16.667 0 30.667 -5.66699 42 -17s17 -25.666 17 -42.999c0 -18.667 -6.33301 -33.667 -19 -45
c-12.667 -12 -28.334 -18 -47.001 -18c-23.333 0 -41.666 8.33301 -54.999 25c-12.667 16.667 -19 37 -19 61c0 42.667 11.5 77.667 34.5 105s54.833 44 95.5 50z" />
    <glyph glyph-name="uni0326" unicode="&#x326;" horiz-adv-x="0" 
d="M-60 -332l-0.00195312 43.999c24 3.33301 43.167 12.5 57.5 27.5s21.833 33.5 22.5 55.5c-8 -6 -18 -9 -30 -9c-17.333 0 -31.666 5.83301 -42.999 17.5s-17 26.167 -17 43.5c0 18.667 6.33301 33.334 19 44.001c12.667 12 28.334 18 47.001 18
c22.667 0 40.667 -8 54 -24s20 -36.333 20 -61c0 -42.667 -11.5 -77.667 -34.5 -105s-54.833 -44.333 -95.5 -51z" />
    <glyph glyph-name="uni0327" unicode="&#x327;" horiz-adv-x="0" 
d="M21 0l75.001 0.000976562c16.667 -22.667 25 -49.334 25 -80.001c0 -32.667 -8.33301 -59.667 -25 -81c-16 -23.333 -36.667 -40 -62 -50c-25.333 -10.667 -53.333 -16 -84 -16c-28.667 0 -52.334 3.66699 -71.001 11v74c16.667 -4.66699 37 -7 61 -7
c30 0 53.833 7.33301 71.5 22s26.5 36 26.5 64c0 21.333 -5.66699 42.333 -17 63z" />
    <glyph glyph-name="uni0328" unicode="&#x328;" horiz-adv-x="0" 
d="M0 0l87 -0.000976562c-22 -17.333 -39 -32 -51 -44c-18 -19.333 -27 -37.666 -27 -54.999c0 -33.333 24 -50 72 -50h2v-76c-14.667 -1.33301 -26 -2 -34 -2c-38.667 0 -71 9 -97 27c-26 17.333 -39 42.333 -39 75c0 38 29 79.667 87 125z" />
    <glyph glyph-name="Theta" unicode="&#x398;" horiz-adv-x="838" 
d="M45 363c0 52.667 9.99902 101.999 29.999 147.999c18.667 46.667 45.334 86.667 80.001 120c32.667 33.333 72.667 59.666 120 78.999c44.667 20 93 30 145 30c67.333 0 130 -16.333 188 -49c57.333 -32 102.333 -77 135 -135c33.333 -57.333 50 -120.666 50 -189.999
c0 -52 -10 -101.667 -30 -149s-46.667 -87 -80 -119c-34 -33.333 -74 -59.333 -120 -78c-48 -19.333 -96.667 -29 -146 -29c-50 0 -98.333 9.66699 -145 29c-45.333 18 -85 43.333 -119 76c-32.667 32.667 -59 72.334 -79 119.001c-19.333 46 -29 95.333 -29 148z
M163.999 364.999c0 -48.667 11.333 -93.335 34 -134.002c22 -41.333 52.667 -73.666 92 -96.999c38.667 -24 81.667 -36 129 -36c46 0 88.667 12 128 36s70.333 56.333 93 97c22 41.333 33 86 33 134c0 48.667 -11 93.667 -33 135c-22.667 40.667 -53.667 73 -93 97
s-82 36 -128 36c-47.333 0 -90.333 -12 -129 -36c-39.333 -23.333 -70 -55.666 -92 -96.999c-22.667 -40.667 -34 -85.667 -34 -135zM612.999 318.998h-388v104h388v-104z" />
    <glyph glyph-name="uni03A9" unicode="&#x3a9;" horiz-adv-x="815" 
d="M174 401c0 -56.667 17.001 -105.668 51.001 -147.001c34.667 -42 80.667 -68.333 138 -79v-175h-305v99h202v22c-62 26.667 -111.667 65 -149 115c-38 50 -57 107 -57 171c0 50 9.66699 94.667 29 134c19.333 42.667 45 78 77 106c69.333 62 152 93 248 93
c63.333 0 122 -14 176 -42c54 -28.667 96.667 -68 128 -118c32.667 -50.667 49 -108 49 -172s-19 -121.333 -57 -172c-38.667 -50 -88.334 -88.333 -149.001 -115v-22h201v-99h-304v175c57.333 11.333 103.333 37.666 138 78.999c34 41.333 51 90.333 51 147
c1.33301 64.667 -21 119.834 -67 165.501s-101.667 67.834 -167 66.501c-64.667 0 -120 -22.333 -166 -67c-44.667 -44 -67 -99 -67 -165z" />
    <glyph glyph-name="theta" unicode="&#x3b8;" horiz-adv-x="676" 
d="M337 -9c-52.667 0 -100.001 14.332 -142.001 42.999s-75.333 67.667 -100 117c-33.333 64.667 -50 139.334 -50 224.001c0 105.333 26.333 195.333 79 270c24 35.333 55 63.333 93 84c36.667 20.667 77.334 31 122.001 31c52.667 0.666992 100 -13.333 142 -42
s75 -67.667 99 -117c34 -64 51 -138.667 51 -224c0 -104.667 -26 -194.667 -78 -270c-24.667 -35.333 -55.667 -63.333 -93 -84c-38.667 -21.333 -79.667 -32 -123 -32zM158.999 426.999h358c-4.66699 62.667 -22 116.667 -52 162c-32 47.333 -74.667 71 -128 71
c-52 0 -93.167 -22.167 -123.5 -66.5s-48.5 -99.833 -54.5 -166.5zM517.999 329.999h-359c5.33301 -65.333 22.333 -120.333 51 -165c31.333 -48.667 74.333 -73 129 -73s97.667 24.333 129 73c29.333 45.333 46 100.333 50 165z" />
    <glyph glyph-name="pi" unicode="&#x3c0;" horiz-adv-x="661" 
d="M506 398l0.999023 -238c0 -16 3 -30 9 -42c8.66699 -14.667 26 -22 52 -22c12 0 27.667 1.33301 47 4v-94c-26 -7.33301 -52.667 -11 -80 -11c-48.667 0 -84.167 13.667 -106.5 41s-33.166 62 -32.499 104v258h-158v-398h-111v398h-107v99h595v-99h-109z" />
    <glyph glyph-name="uni0401" unicode="&#x401;" horiz-adv-x="617" 
d="M221 790c-19.333 0 -35.666 6.99805 -48.999 20.998c-14 14 -21 30.333 -21 49s6.66699 35.334 20 50.001c13.333 13.333 30 20 50 20c19.333 0 35.666 -6.66699 48.999 -20s20 -30 20 -50c0 -19.333 -6.66699 -35.666 -20 -48.999c-14 -14 -30.333 -21 -49 -21z
M486 810.998c-14 -14 -30.667 -21.001 -50 -21.001c-20 0 -36.333 7 -49 21c-13.333 13.333 -20 29.666 -20 48.999c0 18.667 6.66699 35.334 20 50.001c12.667 13.333 29 20 49 20s36.667 -6.66699 50 -20s20 -30 20 -50c0 -19.333 -6.66699 -35.666 -20 -48.999z
M93 728.997h467v-104h-353v-202h321v-104h-321v-215h356v-104h-470v729z" />
    <glyph glyph-name="uni0402" unicode="&#x402;" horiz-adv-x="784" 
d="M513 -11c-28.667 0 -56.665 3.66602 -83.998 10.999v110c18 -6 37.333 -9 58 -9c44.667 0 81 10.833 109 32.5s42 55.5 42 101.5c0 40.667 -13.333 72.334 -40 95.001s-63.667 34 -111 34c-72.667 0 -134.334 -23 -185.001 -69v-295h-115v624h-167v105h579v-105h-297
v-216c65.333 45.333 135.666 68 210.999 68c74 0 133 -21.667 177 -65c44 -42.667 66 -101 66 -175c0 -78.667 -22 -139.667 -66 -183c-43.333 -42.667 -102.333 -64 -177 -64z" />
    <glyph glyph-name="uni0403" unicode="&#x403;" horiz-adv-x="550" 
d="M344 955h136l-135 -160h-96zM93 0v729h439v-106h-325v-623h-114z" />
    <glyph glyph-name="uni0404" unicode="&#x404;" horiz-adv-x="789" 
d="M411 -9c-55.333 -0.666992 -108.836 11.333 -160.503 36s-94.834 59 -129.501 103c-50.667 62.667 -76 140 -76 232c0 53.333 10 104 30 152c20 46.667 47 86.667 81 120c34.667 32.667 74.334 58.334 119.001 77.001c46 19.333 93 29 141 29
c77.333 0 144 -18.333 200 -55c27.333 -18.667 49.333 -37.667 66 -57c35.333 -38 59 -80.333 71 -127l-111 -37c-12 41.333 -30.667 75.333 -56 102c-44 45.333 -101 67.666 -171 66.999c-58.667 0 -111.334 -19.333 -158.001 -58c-46.667 -37.333 -76 -88.333 -88 -153
h320v-102h-322c6.66699 -43.333 22.334 -82.333 47.001 -117c24.667 -35.333 54.334 -61.333 89.001 -78c35.333 -18 72.333 -27 111 -27c58 0 105.333 15 142 45c16 12 30.667 26.667 44 44c21.333 28.667 36 56.667 44 84l111 -39
c-11.333 -43.333 -34.666 -84.333 -69.999 -123c-21.333 -23.333 -43.666 -43 -66.999 -59c-58 -39.333 -127 -59 -207 -59z" />
    <glyph glyph-name="uni0405" unicode="&#x405;" horiz-adv-x="606" 
d="M309 -8c-82.667 0 -147.669 22.6699 -195.002 68.0029c-44.667 42 -69.667 90.333 -75 145l111 30c8 -43.333 26 -77.333 54 -102c28.667 -25.333 64.334 -38 107.001 -38c36 0 67.333 9.66699 94 29c25.333 19.333 38 43.666 38 72.999c0 28 -9.66699 51 -29 69
s-45.666 30.667 -78.999 38l-90 18c-58 12 -103 36 -135 72c-32.667 35.333 -49 77.333 -49 126c-1.33301 58.667 22.334 110.334 71.001 155.001s105 66.334 169 65.001c92 -0.666992 159.333 -28.334 202 -83.001c24 -28 39.667 -60.333 47 -97l-107 -33
c-7.33301 28.667 -23.333 54 -48 76s-55 33 -91 33s-65.667 -10.333 -89 -31c-24.667 -20.667 -37 -45.334 -37 -74.001c0 -22 8.33301 -42.333 25 -61c17.333 -18 39.666 -30 66.999 -36l92 -18c64 -12.667 113.167 -37.334 147.5 -74.001s51.5 -82.334 51.5 -137.001
c0 -55.333 -21.667 -104 -65 -146c-46.667 -44.667 -109 -67 -187 -67z" />
    <glyph glyph-name="uni0406" unicode="&#x406;" horiz-adv-x="300" 
d="M207 729v-729h-114v729h114z" />
    <glyph glyph-name="uni0407" unicode="&#x407;" horiz-adv-x="300" 
d="M48 790c-20 0 -36.333 7.00195 -49 21.002c-13.333 13.333 -20 29.666 -20 48.999c0 20 6.66699 36.667 20 50c12.667 13.333 29 20 49 20s36.667 -6.66699 50 -20c13.333 -14.667 20 -31.334 20 -50.001c0 -18 -6.66699 -34.333 -20 -49c-14 -14 -30.667 -21 -50 -21z
M250 790.002c-18.667 0 -34.666 6.99805 -47.999 20.998c-14 14 -21 30.333 -21 49s6.66699 35.334 20 50.001c13.333 13.333 29.666 20 48.999 20c20 0 36.667 -6.66699 50 -20s20 -30 20 -50c0 -19.333 -6.66699 -35.666 -20 -48.999c-14 -14 -30.667 -21 -50 -21z
M207.001 729v-729h-114v729h114z" />
    <glyph glyph-name="uni0408" unicode="&#x408;" horiz-adv-x="587" 
d="M271 -8c-73.333 0 -131 20.668 -173 62.001c-43.333 41.333 -65 96.666 -65 165.999v77h112v-71c0 -40 12 -71 36 -93c23.333 -22.667 51.333 -34 84 -34c35.333 0 64.333 11.333 87 34s34 51.667 34 87v509h115v-509c0 -66 -21.667 -120.333 -65 -163
c-43.333 -43.333 -98.333 -65 -165 -65z" />
    <glyph glyph-name="uni0409" unicode="&#x409;" horiz-adv-x="1139" 
d="M308 625l-38.002 -345.001l-2.5 -18c-1 -7.33301 -1.5 -11.333 -1.5 -12l-6 -36c-3.33301 -18 -6.66602 -32 -9.99902 -42c-10.667 -34 -23.334 -62 -38.001 -84c-21.333 -31.333 -44.666 -53.333 -69.999 -66c-34 -17.333 -71.667 -25.666 -113 -24.999l-8 1v103
c38 2 67 16.333 87 43c14.667 21.333 24.667 40.333 30 57c1.33301 5.33301 3 11.333 5 18s3.33301 11 4 13c0.666992 2.66699 1.66699 7.33398 3 14.001s2.33301 12 3 16c0.666992 3.33301 1.33398 7 2.00098 11s1.16699 7.16699 1.5 9.5s0.5 4.16602 0.5 5.49902
c0 0.666992 0.666992 7.66699 2 21l46 420h475v-284h170c33.333 0 64.833 -4 94.5 -12s57.167 -20.167 82.5 -36.5s45.5 -39 60.5 -68s22.5 -62.833 22.5 -101.5c0 -64 -21 -117 -63 -159c-44 -45.333 -110 -68 -198 -68h-284v625h-257zM679.998 103.999l165 0.000976562
c58 0 98.333 13.333 121 40c20 22.667 30 50.667 30 84s-12 60.666 -36 81.999c-25.333 22 -64 33 -116 33h-164v-239z" />
    <glyph glyph-name="uni040A" unicode="&#x40a;" horiz-adv-x="1141" 
d="M682 435l175 0.00195312c32.667 0 63.5 -3.66699 92.5 -11s56 -18.833 81 -34.5s44.833 -37.834 59.5 -66.501s22 -62.334 22 -101.001c0 -64 -20.333 -116.333 -61 -157c-44.667 -43.333 -110.667 -65 -198 -65h-286v332h-361v-332h-113v729h113v-294h361v294h115v-294z
M682 105.002h170c98 0 147 39.667 147 119c0 35.333 -12.667 62.5 -38 81.5s-62.333 28.5 -111 28.5h-168v-229z" />
    <glyph glyph-name="uni040B" unicode="&#x40b;" horiz-adv-x="803" 
d="M642 0v209c0 48.667 -12.833 86.167 -38.5 112.5s-63.167 39.5 -112.5 39.5c-73.333 0 -136.333 -23.667 -189 -71v-290h-114v624h-168v105h579v-105h-297v-219c66.667 45.333 137 68 211 68c72.667 0 131.667 -19.667 177 -59c44 -38.667 66 -94 66 -166v-248h-114z" />
    <glyph glyph-name="uni040C" unicode="&#x40c;" horiz-adv-x="662" 
d="M393 955h135l-135 -160h-96zM207 0h-114v729h114v-315l291 315h152l-326 -349l345 -380h-155l-307 344v-344z" />
    <glyph glyph-name="uni040E" unicode="&#x40e;" horiz-adv-x="659" 
d="M338 792c-42.667 0 -80.332 12.667 -112.999 38c-31.333 26.667 -50 65 -56 115l75 14c9.33301 -28.667 21 -50 35 -64s33.667 -21 59 -21c24.667 0 44.167 7 58.5 21s26.166 35.333 35.499 64l74 -14c-4.66699 -33.333 -15 -62 -31 -86s-36 -41.333 -60 -52
c-23.333 -10 -49 -15 -77 -15zM666.002 729l-259.999 -527c-22.667 -46 -41 -79.333 -55 -100c-34.667 -50 -78.334 -81.333 -131.001 -94c-22.667 -5.33301 -46 -8 -70 -8h-85v111h75c66 0 115 33.333 147 100l-283 518h127l218 -406l194 406h123z" />
    <glyph glyph-name="uni040F" unicode="&#x40f;" horiz-adv-x="770" 
d="M442 0v-154h-114v154h-235v729h114v-624h356v624h114v-729h-235z" />
    <glyph glyph-name="uni0410" unicode="&#x410;" horiz-adv-x="729" 
d="M185 171l-68 -171h-117l297 729h135l295 -729h-119l-67 171h-356zM225 273h277l-139 346z" />
    <glyph glyph-name="uni0411" unicode="&#x411;" horiz-adv-x="676" 
d="M207 436h171c86 1.33301 154.667 -21.667 206 -69c36 -36 54 -84.667 54 -146c0 -63.333 -20.667 -115.333 -62 -156c-44.667 -43.333 -112 -65 -202 -65h-281v729h500v-104h-386v-189zM207 105h156c56 0 97 9.66699 123 29s39 49.333 39 90c0 36 -13 63.5 -39 82.5
s-63.667 28.5 -113 28.5h-166v-230z" />
    <glyph glyph-name="uni0412" unicode="&#x412;" horiz-adv-x="684" 
d="M93 729l278.998 0.000976562c70.667 0 127.334 -17 170.001 -51c42.667 -34.667 64 -81.667 64 -141c0 -24.667 -6.66699 -50.667 -20 -78c-15.333 -34 -43.666 -60.333 -84.999 -79c52 -16.667 89 -43.334 111 -80.001c18 -32 27 -64 27 -96
c0 -60.667 -22 -110 -66 -148c-44.667 -37.333 -109 -56 -193 -56h-287v729zM205.998 420.001h144c48 0 83.333 10 106 30c24 20 36 45 36 75c0 31.333 -11.333 56 -34 74s-56.667 27 -102 27h-150v-206zM206.998 103.001h175.001c45.333 0 80.5 9.83301 105.5 29.5
s37.5 46.5 37.5 80.5c0 32.667 -12.833 58.667 -38.5 78s-62.834 29 -111.501 29h-168v-217z" />
    <glyph glyph-name="uni0413" unicode="&#x413;" horiz-adv-x="550" 
d="M93 0v729h439v-106h-325v-623h-114z" />
    <glyph glyph-name="uni0414" unicode="&#x414;" horiz-adv-x="810" 
d="M690 729v-626.001h77v-257h-115v154h-524v-154h-114v257h3c47.333 -0.666992 86 31 116 95c14 28.667 25 63.334 33 104.001c2.66699 12 5 26 7 42l46 385h471zM575 625.999h-253.999l-35 -289c-4.66699 -43.333 -15.334 -87 -32.001 -131
c-16 -42.667 -38 -76.667 -66 -102h387v522z" />
    <glyph glyph-name="uni0415" unicode="&#x415;" horiz-adv-x="617" 
d="M93 729h467v-104h-353v-202h321v-104h-321v-215h356v-104h-470v729z" />
    <glyph glyph-name="uni0416" unicode="&#x416;" horiz-adv-x="983" 
d="M549 387h4l277 342h143l-293 -357l302 -372h-146l-282 354h-5v-354h-115v354h-5l-283 -354h-145l301 372l-292 357h143l277 -342h4v342h115v-342z" />
    <glyph glyph-name="uni0417" unicode="&#x417;" horiz-adv-x="630" 
d="M306 -9c-78 0 -141.998 22.335 -191.998 67.002c-48 42 -75.667 93.333 -83 154l111 20c3.33301 -38.667 20.333 -71 51 -97c31.333 -26 69.666 -39 114.999 -39c36.667 0 70.667 11 102 33c33.333 23.333 50 56.666 50 99.999c0 37.333 -14.333 66.666 -43 87.999
c-28.667 22 -63 33 -103 33c-33.333 0 -59 -5 -77 -15l-54 85l225 206h-353v103h506v-97l-206 -188c67.333 -4 121.666 -26 162.999 -66c41.333 -39.333 62 -88.333 62 -147c0 -76 -29.667 -136.667 -89 -182c-49.333 -38.667 -111 -58 -185 -58z" />
    <glyph glyph-name="uni0418" unicode="&#x418;" horiz-adv-x="796" 
d="M703 729v-729h-113v563l-365 -563h-132v729h113v-564l365 564h132z" />
    <glyph glyph-name="uni0419" unicode="&#x419;" horiz-adv-x="796" 
d="M399 792c-42.667 0 -80.332 12.667 -112.999 38c-32 26 -51 64.333 -57 115l75 14c10 -29.333 22 -50.833 36 -64.5s33.667 -20.5 59 -20.5c24.667 0 44.167 7 58.5 21s26.166 35.333 35.499 64l74 -14c-5.33301 -36 -16 -65 -32 -87c-30.667 -44 -76 -66 -136 -66z
M225.002 0h-132v729h113v-564l365 564h132v-729h-113v563z" />
    <glyph glyph-name="uni041A" unicode="&#x41a;" horiz-adv-x="662" 
d="M207 0h-114v729h114v-315l291 315h152l-326 -349l345 -380h-155l-307 344v-344z" />
    </font>
</defs>
</svg>
