<svg width="148" height="23" fill="none" xmlns="http://www.w3.org/2000/svg"><path d="M12.3 23C10 23 8 22.5 6 21.5a11.2 11.2 0 0 1-6-10 11.2 11.2 0 0 1 6-10C7.9.5 10 0 12.3 0c2 0 4 .4 5.6 1 1.6.8 3 1.8 4 3.2l-4 3.6a6.7 6.7 0 0 0-5.2-2.6c-1.3 0-2.3.2-3.3.8-1 .5-1.7 1.2-2.2 2.2-.5 1-.8 2-.8 3.3a7 7 0 0 0 .8 3.3c.5 1 1.3 1.7 2.2 2.2 1 .6 2 .8 3.3.8 2 0 3.8-.8 5.2-2.6l4 3.6c-1 1.4-2.4 2.4-4 3.1-1.7.7-3.5 1.1-5.6 1.1ZM26.4.4h6.4v17.2h10.7v5h-17V.4ZM62.9 18.3h-9.5l-1.8 4.3h-6.5L55.1.4h6.2l10 22.2h-6.7L63 18.3ZM78.3 5.4h-7v-5h20.2v5h-6.9v17.2h-6.3V5.4ZM105.5 23c-3.4 0-6-.9-7.8-2.7-1.9-1.8-2.8-4.3-2.8-7.6V.4l10.6 4.9s-4.2 0-4.2 3.3v4c0 3.4 1.4 5.2 4.2 5.2 2.8 0 4.3-1.8 4.3-5.3V8.6c0-3.3-4.3-3.3-4.3-3.3L116 .4v12.3c0 3.3-1 5.8-2.8 7.6a10.7 10.7 0 0 1-7.7 2.7ZM142.2 22.6l-.1-11.8-5.8 9.6h-2.8l-5.7-9.2v11.4h-5.9V.4h5.2l8 12.8L142.6.4h5.2l.1 22.2h-5.8Z" fill="#222"/></svg>